<svg width="564" height="412" viewBox="0 0 564 412" fill="none" xmlns="http://www.w3.org/2000/svg">
<path fill-rule="evenodd" clip-rule="evenodd" d="M106.855 355.039C164.764 355.039 211.709 308.061 211.709 250.111C211.709 192.161 164.764 145.183 106.855 145.183C48.945 145.183 2 192.161 2 250.111C2 308.061 48.945 355.039 106.855 355.039ZM106.855 330.28C151.1 330.28 186.968 294.387 186.968 250.111C186.968 205.834 151.1 169.941 106.855 169.941C62.609 169.941 26.741 205.834 26.741 250.111C26.741 294.387 62.609 330.28 106.855 330.28Z" fill="url(#paint0_linear)"/>
<path fill-rule="evenodd" clip-rule="evenodd" d="M479.536 401.577C525.08 401.577 562 364.631 562 319.056C562 273.48 525.08 236.534 479.536 236.534C433.993 236.534 397.073 273.48 397.073 319.056C397.073 364.631 433.993 401.577 479.536 401.577Z" fill="url(#paint1_linear)"/>
<path fill-rule="evenodd" clip-rule="evenodd" d="M364.966 238.088C430.114 238.088 482.927 185.238 482.927 120.044C482.927 54.8501 430.114 2 364.966 2C299.817 2 247.004 54.8501 247.004 120.044C247.004 185.238 299.817 238.088 364.966 238.088ZM364.966 210.235C414.742 210.235 455.093 169.855 455.093 120.044C455.093 70.2329 414.742 29.8531 364.966 29.8531C315.189 29.8531 274.838 70.2329 274.838 120.044C274.838 169.855 315.189 210.235 364.966 210.235Z" fill="url(#paint2_linear)"/>
<path d="M169.861 250.455C169.861 285.276 141.652 313.505 106.855 313.505C72.0573 313.505 43.8485 285.276 43.8485 250.455C43.8485 215.633 72.0573 187.405 106.855 187.405C141.652 187.405 169.861 215.633 169.861 250.455Z" fill="url(#paint3_linear)"/>
<path fill-rule="evenodd" clip-rule="evenodd" d="M106.855 355.039C164.764 355.039 211.709 308.061 211.709 250.111C211.709 192.161 164.764 145.183 106.855 145.183C48.945 145.183 2 192.161 2 250.111C2 308.061 48.945 355.039 106.855 355.039ZM106.855 330.28C151.1 330.28 186.968 294.387 186.968 250.111C186.968 205.834 151.1 169.941 106.855 169.941C62.609 169.941 26.741 205.834 26.741 250.111C26.741 294.387 62.609 330.28 106.855 330.28Z" stroke="#89B68D" stroke-width="2.92902"/>
<path fill-rule="evenodd" clip-rule="evenodd" d="M479.536 401.577C525.08 401.577 562 364.631 562 319.056C562 273.48 525.08 236.534 479.536 236.534C433.993 236.534 397.073 273.48 397.073 319.056C397.073 364.631 433.993 401.577 479.536 401.577Z" stroke="#89B68D" stroke-width="2.92902"/>
<path fill-rule="evenodd" clip-rule="evenodd" d="M364.966 238.088C430.114 238.088 482.927 185.238 482.927 120.044C482.927 54.8501 430.114 2 364.966 2C299.817 2 247.004 54.8501 247.004 120.044C247.004 185.238 299.817 238.088 364.966 238.088ZM364.966 210.235C414.742 210.235 455.093 169.855 455.093 120.044C455.093 70.2329 414.742 29.8531 364.966 29.8531C315.189 29.8531 274.838 70.2329 274.838 120.044C274.838 169.855 315.189 210.235 364.966 210.235Z" stroke="#89B68D" stroke-width="2.92902"/>
<path d="M169.861 250.455C169.861 285.276 141.652 313.505 106.855 313.505C72.0573 313.505 43.8485 285.276 43.8485 250.455C43.8485 215.633 72.0573 187.405 106.855 187.405C141.652 187.405 169.861 215.633 169.861 250.455Z" stroke="#89B68D" stroke-width="2.92902"/>
<path d="M136.946 90.8189C147.574 88.0824 159.859 87.2546 171.724 88.5251C178.22 89.2207 184.59 90.5452 190.494 92.5298C211.211 99.494 226.183 114.586 220.687 139.15C202.154 156.189 181.594 150.774 165.202 136.321C160.531 132.203 156.198 127.35 152.348 122.074C145.314 112.437 139.889 101.388 136.946 90.8189Z" fill="url(#paint4_linear)"/>
<path d="M92.89 202.095C98.4697 192.647 106.571 183.378 115.86 175.89C120.945 171.79 126.386 168.224 131.965 165.454C151.54 155.735 172.802 155.824 186.291 177.077C185.24 202.226 166.871 212.93 145.057 214.297C138.84 214.686 132.344 214.318 125.89 213.309C114.1 211.466 102.448 207.488 92.89 202.095Z" fill="url(#paint5_linear)"/>
<path d="M492.122 173.804C484.286 166.122 474.061 159.265 463.15 154.435C457.177 151.79 450.997 149.754 444.892 148.522C423.467 144.198 402.953 149.785 395.426 173.804C402.953 197.824 423.467 203.411 444.892 199.087C450.997 197.855 457.177 195.818 463.15 193.174C474.061 188.344 484.286 181.487 492.122 173.804Z" fill="url(#paint6_linear)"/>
<path d="M423.044 80.3187C422.938 91.2895 420.558 103.366 416.259 114.494C413.906 120.586 410.977 126.394 407.532 131.581C395.441 149.782 376.983 160.333 354.67 148.669C343.002 126.364 353.556 107.912 371.763 95.8256C376.952 92.3812 382.762 89.4536 388.857 87.101C399.989 82.804 412.07 80.4252 423.044 80.3187Z" fill="url(#paint7_linear)"/>
<path d="M254.935 85.1053C264.386 90.6829 273.658 98.7812 281.149 108.066C285.251 113.15 288.818 118.59 291.589 124.166C301.312 143.734 301.223 164.988 279.962 178.473C254.804 177.422 244.096 159.059 242.729 137.253C242.339 131.039 242.708 124.545 243.717 118.093C245.56 106.307 249.54 94.6595 254.935 85.1053Z" fill="url(#paint8_linear)"/>
<path d="M322.745 2.97638C330.43 10.8092 337.29 21.0305 342.122 31.9376C344.767 37.9091 346.805 44.0863 348.037 50.1895C352.362 71.6063 346.774 92.1136 322.745 99.6378C298.717 92.1136 293.128 71.6063 297.453 50.1895C298.686 44.0863 300.724 37.9091 303.369 31.9376C308.201 21.0305 315.06 10.8092 322.745 2.97638Z" fill="url(#paint9_linear)"/>
<path d="M178.816 114.984L136.946 90.8189M178.816 114.984L171.724 88.5251M178.816 114.984L152.348 122.074M178.816 114.984L199.752 127.067M136.946 90.8189C147.574 88.0824 159.859 87.2546 171.724 88.5251M136.946 90.8189C139.889 101.388 145.314 112.437 152.348 122.074M171.724 88.5251C178.22 89.2207 184.59 90.5452 190.494 92.5298M152.348 122.074C156.198 127.35 160.531 132.203 165.202 136.321M220.687 139.15L199.752 127.067M220.687 139.15C226.183 114.586 211.211 99.494 190.494 92.5298M220.687 139.15C202.154 156.189 181.594 150.774 165.202 136.321M220.687 139.15C242.729 154.435 261.54 183.854 264.233 221.379M199.752 127.067L190.494 92.5298M199.752 127.067L165.202 136.321M139.591 189.586L92.89 202.095M139.591 189.586L115.86 175.89M139.591 189.586L125.89 213.309M139.591 189.586L162.941 183.332M92.89 202.095C98.4697 192.647 106.571 183.378 115.86 175.89M92.89 202.095C102.448 207.488 114.1 211.466 125.89 213.309M115.86 175.89C120.945 171.79 126.386 168.224 131.965 165.454M125.89 213.309C132.344 214.318 138.84 214.686 145.057 214.297M186.291 177.077L162.941 183.332M186.291 177.077C172.802 155.824 151.54 155.735 131.965 165.454M186.291 177.077C185.24 202.226 166.871 212.93 145.057 214.297M186.291 177.077C213.565 170.841 239.667 189.586 243.717 221.379M162.941 183.332L131.965 165.454M162.941 183.332L145.057 214.297M443.774 173.804L492.122 173.804M443.774 173.804L463.15 154.435M443.774 173.804L463.15 193.174M443.774 173.804H419.6M492.122 173.804C484.286 166.122 474.061 159.265 463.15 154.435M492.122 173.804C484.286 181.487 474.061 188.344 463.15 193.174M463.15 154.435C457.177 151.79 450.997 149.754 444.892 148.522M463.15 193.174C457.177 195.818 450.997 197.855 444.892 199.087M395.426 173.804H419.6M395.426 173.804C402.953 149.785 423.467 144.198 444.892 148.522M395.426 173.804C402.953 197.824 423.467 203.411 444.892 199.087M395.426 173.804C367.164 178.317 356.176 190.023 342.122 221.379M419.6 173.804L444.892 148.522M419.6 173.804L444.892 199.087M388.857 114.494L423.044 80.3187M388.857 114.494H416.259M388.857 114.494V87.101M388.857 114.494L371.763 131.581M423.044 80.3187C422.938 91.2895 420.558 103.366 416.259 114.494M423.044 80.3187C412.07 80.4252 399.989 82.804 388.857 87.101M416.259 114.494C413.906 120.586 410.977 126.394 407.532 131.581M388.857 87.101C382.762 89.4536 376.952 92.3812 371.763 95.8256M354.67 148.669L371.763 131.581M354.67 148.669C376.983 160.333 395.441 149.782 407.532 131.581M354.67 148.669C343.002 126.364 353.556 107.912 371.763 95.8256M354.67 148.669C335.317 165.454 325.909 185.849 322.745 221.379M371.763 131.581L407.532 131.581M371.763 131.581V95.8256M267.448 131.789L254.935 85.1053M267.448 131.789L281.149 108.066M267.448 131.789L243.717 118.093M267.448 131.789L273.705 155.131M254.935 85.1053C264.386 90.6829 273.658 98.7812 281.149 108.066M254.935 85.1053C249.54 94.6595 245.56 106.307 243.717 118.093M281.149 108.066C285.251 113.15 288.818 118.59 291.589 124.166M243.717 118.093C242.708 124.545 242.339 131.039 242.729 137.253M279.962 178.473L273.705 155.131M279.962 178.473C301.223 164.988 301.312 143.734 291.589 124.166M279.962 178.473C254.804 177.422 244.096 159.059 242.729 137.253M279.962 178.473C284.16 196.987 285.128 206.421 284.095 221.379M273.705 155.131L291.589 124.166M273.705 155.131L242.729 137.253M322.745 51.3071V2.97638M322.745 51.3071L342.122 31.9376M322.745 51.3071L303.369 31.9376M322.745 51.3071V75.4725M322.745 2.97638C330.43 10.8092 337.29 21.0305 342.122 31.9376M322.745 2.97638C315.06 10.8092 308.201 21.0305 303.369 31.9376M342.122 31.9376C344.767 37.9091 346.805 44.0863 348.037 50.1895M303.369 31.9376C300.724 37.9091 298.686 44.0863 297.453 50.1895M322.745 99.6378V75.4725M322.745 99.6378C346.774 92.1136 352.362 71.6063 348.037 50.1895M322.745 99.6378C298.717 92.1136 293.128 71.6063 297.453 50.1895M322.745 99.6378C322.555 156.113 316.545 180.628 303.369 221.379M322.745 75.4725L348.037 50.1895M322.745 75.4725L297.453 50.1895" stroke="#89B68D" stroke-width="2.92902"/>
<path d="M228.757 410C196.929 389.174 175.899 353.192 175.899 312.294C175.899 283.867 186.059 257.815 202.943 237.577V223.828C202.943 218.436 207.314 214.065 212.706 214.065H372.209C377.601 214.065 381.972 218.436 381.972 223.828V237.577C398.856 257.815 409.016 283.867 409.016 312.294C409.016 353.192 387.986 389.174 356.158 410H228.757Z" fill="url(#paint10_linear)"/>
<path d="M202.943 237.577C186.059 257.815 175.899 283.867 175.899 312.294C175.899 353.192 196.929 389.174 228.757 410H356.158C387.986 389.174 409.016 353.192 409.016 312.294C409.016 283.867 398.856 257.815 381.972 237.577M202.943 237.577H381.972M202.943 237.577V223.828C202.943 218.436 207.314 214.065 212.706 214.065H372.209C377.601 214.065 381.972 218.436 381.972 223.828V237.577" stroke="#89B68D" stroke-width="2.92902"/>
<ellipse rx="24.5655" ry="24.5578" transform="matrix(0.965949 0.258732 -0.258906 0.965903 323.067 174.127)" fill="#E7F1E8" stroke="#89B68D" stroke-width="2.92902"/>
<ellipse rx="19.3388" ry="19.3328" transform="matrix(0.965949 0.258732 -0.258906 0.965903 323.067 174.127)" fill="white" stroke="#89B68D" stroke-width="2.92902"/>
<path d="M329.917 170.779C330.633 168.109 328.727 165.278 325.659 164.456M325.659 164.456C324.903 164.253 324.146 164.192 323.424 164.255C321.222 164.446 319.349 165.792 318.81 167.804C318.094 170.474 320 173.305 323.067 174.127C326.134 174.948 328.041 177.779 327.325 180.449C326.609 183.12 323.542 184.619 320.475 183.797M325.659 164.456L326.72 160.5M320.475 183.797C317.408 182.976 315.502 180.145 316.218 177.474M320.475 183.797L319.415 187.753" stroke="#89B68D" stroke-width="2.92902" stroke-linecap="round"/>
<ellipse rx="24.5641" ry="24.5593" transform="matrix(0.878636 -0.477492 0.477025 0.87889 217.56 179.436)" fill="#E7F1E8" stroke="#89B68D" stroke-width="2.92902"/>
<ellipse rx="19.3377" ry="19.3339" transform="matrix(0.878835 -0.477126 0.477391 0.878691 217.574 179.44)" fill="white" stroke="#89B68D" stroke-width="2.92902"/>
<path d="M220.237 172.299C218.917 169.869 215.585 169.128 212.794 170.643M212.794 170.643C212.106 171.017 211.515 171.493 211.034 172.035C209.569 173.689 209.138 175.955 210.132 177.785C211.452 180.214 214.784 180.956 217.574 179.441C220.365 177.926 223.697 178.667 225.017 181.097C226.337 183.526 225.145 186.724 222.354 188.238M212.794 170.643L210.839 167.044M222.354 188.238C219.564 189.753 216.232 189.012 214.912 186.583M222.354 188.238L224.31 191.838" stroke="#89B68D" stroke-width="2.92902" stroke-linecap="round"/>
<ellipse rx="24.5658" ry="24.5575" transform="matrix(0.985865 -0.167542 0.16766 0.985845 217.974 102.511)" fill="#E7F1E8" stroke="#89B68D" stroke-width="2.92902"/>
<ellipse rx="19.3391" ry="19.3325" transform="matrix(0.985865 -0.167542 0.16766 0.985845 217.974 102.511)" fill="white" stroke="#89B68D" stroke-width="2.92902"/>
<path d="M222.803 96.6127C222.339 93.8871 219.426 92.1089 216.296 92.6409M216.296 92.6409C215.523 92.7722 214.809 93.0319 214.18 93.3897C212.258 94.4815 211.117 96.4863 211.467 98.5392C211.93 101.265 214.844 103.043 217.974 102.511C221.105 101.979 224.018 103.757 224.482 106.483C224.945 109.208 222.783 111.849 219.653 112.381M216.296 92.6409L215.609 88.6032M219.653 112.381C216.522 112.913 213.609 111.135 213.145 108.409M219.653 112.381L220.339 116.419" stroke="#89B68D" stroke-width="2.92902" stroke-linecap="round"/>
<ellipse rx="24.5655" ry="24.5578" transform="matrix(0.965949 -0.258732 0.258906 0.965903 286.48 69.628)" fill="#E7F1E8" stroke="#89B68D" stroke-width="2.92902"/>
<ellipse rx="19.3388" ry="19.3328" transform="matrix(0.965949 -0.258732 0.258906 0.965903 286.48 69.628)" fill="white" stroke="#89B68D" stroke-width="2.92902"/>
<path d="M290.737 63.3051C290.021 60.6347 286.955 59.1358 283.887 59.9574M283.887 59.9574C283.13 60.1601 282.444 60.4852 281.851 60.9001C280.039 62.1663 279.091 64.2688 279.63 66.2802C280.346 68.9506 283.412 70.4495 286.48 69.6279C289.547 68.8064 292.613 70.3052 293.329 72.9756C294.045 75.6461 292.139 78.4769 289.072 79.2984M283.887 59.9574L282.827 56.0013M289.072 79.2984C286.005 80.12 282.938 78.6212 282.222 75.9507M289.072 79.2984L290.132 83.2546" stroke="#89B68D" stroke-width="2.92902" stroke-linecap="round"/>
<circle r="24.5617" transform="matrix(0.707234 0.70698 -0.707234 0.70698 396.716 156.835)" fill="#E7F1E8" stroke="#89B68D" stroke-width="2.92902"/>
<circle r="19.3358" transform="matrix(0.707234 0.70698 -0.707234 0.70698 396.716 156.836)" fill="white" stroke="#89B68D" stroke-width="2.92902"/>
<path d="M404.322 157.359C406.278 155.404 406.043 152 403.798 149.755M403.798 149.755C403.244 149.202 402.619 148.77 401.963 148.464C399.96 147.528 397.664 147.759 396.191 149.231C394.236 151.186 394.471 154.59 396.716 156.835C398.961 159.079 399.196 162.484 397.24 164.439C395.285 166.393 391.879 166.159 389.634 163.914M403.798 149.755L406.695 146.859M389.634 163.914C387.389 161.67 387.154 158.265 389.109 156.31M389.634 163.914L386.737 166.81" stroke="#89B68D" stroke-width="2.92902" stroke-linecap="round"/>
<ellipse rx="24.5659" ry="24.5574" transform="matrix(0.991813 0.1277 -0.12779 0.991801 338.254 110.934)" fill="#E7F1E8" stroke="#89B68D" stroke-width="2.92902"/>
<ellipse rx="19.3391" ry="19.3324" transform="matrix(0.991813 0.1277 -0.12779 0.991801 338.254 110.934)" fill="white" stroke="#89B68D" stroke-width="2.92902"/>
<path d="M344.596 106.704C344.95 103.962 342.683 101.41 339.534 101.005M339.534 101.005C338.757 100.905 337.998 100.945 337.291 101.103C335.134 101.586 333.458 103.17 333.192 105.235C332.838 107.977 335.105 110.529 338.254 110.934C341.404 111.34 343.67 113.891 343.317 116.633C342.964 119.375 340.124 121.269 336.975 120.864M339.534 101.005L340.057 96.9425M336.975 120.864C333.826 120.458 331.559 117.907 331.912 115.165M336.975 120.864L336.452 124.926" stroke="#89B68D" stroke-width="2.92902" stroke-linecap="round"/>
<defs>
<linearGradient id="paint0_linear" x1="367.352" y1="538.116" x2="274.934" y2="68.1509" gradientUnits="userSpaceOnUse">
<stop stop-color="#89B68D"/>
<stop offset="1" stop-color="white"/>
</linearGradient>
<linearGradient id="paint1_linear" x1="367.352" y1="538.116" x2="274.934" y2="68.1509" gradientUnits="userSpaceOnUse">
<stop stop-color="#89B68D"/>
<stop offset="1" stop-color="white"/>
</linearGradient>
<linearGradient id="paint2_linear" x1="367.352" y1="538.116" x2="274.934" y2="68.1509" gradientUnits="userSpaceOnUse">
<stop stop-color="#89B68D"/>
<stop offset="1" stop-color="white"/>
</linearGradient>
<linearGradient id="paint3_linear" x1="367.352" y1="538.116" x2="274.934" y2="68.1509" gradientUnits="userSpaceOnUse">
<stop stop-color="#89B68D"/>
<stop offset="1" stop-color="white"/>
</linearGradient>
<linearGradient id="paint4_linear" x1="292.98" y1="22.3087" x2="292.98" y2="351.48" gradientUnits="userSpaceOnUse">
<stop stop-color="#E7F1E8"/>
<stop offset="1" stop-color="#89B68D"/>
</linearGradient>
<linearGradient id="paint5_linear" x1="292.98" y1="22.3087" x2="292.98" y2="351.48" gradientUnits="userSpaceOnUse">
<stop stop-color="#E7F1E8"/>
<stop offset="1" stop-color="#89B68D"/>
</linearGradient>
<linearGradient id="paint6_linear" x1="292.98" y1="22.3087" x2="292.98" y2="351.48" gradientUnits="userSpaceOnUse">
<stop stop-color="#E7F1E8"/>
<stop offset="1" stop-color="#89B68D"/>
</linearGradient>
<linearGradient id="paint7_linear" x1="292.98" y1="22.3087" x2="292.98" y2="351.48" gradientUnits="userSpaceOnUse">
<stop stop-color="#E7F1E8"/>
<stop offset="1" stop-color="#89B68D"/>
</linearGradient>
<linearGradient id="paint8_linear" x1="292.98" y1="22.3087" x2="292.98" y2="351.48" gradientUnits="userSpaceOnUse">
<stop stop-color="#E7F1E8"/>
<stop offset="1" stop-color="#89B68D"/>
</linearGradient>
<linearGradient id="paint9_linear" x1="292.98" y1="22.3087" x2="292.98" y2="351.48" gradientUnits="userSpaceOnUse">
<stop stop-color="#E7F1E8"/>
<stop offset="1" stop-color="#89B68D"/>
</linearGradient>
<linearGradient id="paint10_linear" x1="292.457" y1="214.065" x2="292.457" y2="410" gradientUnits="userSpaceOnUse">
<stop stop-color="white"/>
<stop offset="1" stop-color="#E7F1E8"/>
</linearGradient>
</defs>
</svg>
