<svg width="531" height="286" viewBox="0 0 531 286" fill="none" xmlns="http://www.w3.org/2000/svg">
<path d="M40.4243 216.701C44.711 181.587 37.825 171.72 43.6583 152.353C44.9299 148.132 46.8059 143.459 49.5337 137.975C54.4027 128.186 61.9858 115.812 73.6902 98.8074C78.3357 148.427 71.4373 174.555 45.2522 210.283C42.8952 214.699 42.1904 215.88 44.7335 214.532C47.8082 212.343 50.5008 210.244 52.9427 208.023C53.9864 206.985 55.7564 205.481 56.7377 204.543C63.7176 197.872 68.9533 194.125 75.2018 191.808C100.16 141.093 78.4658 126.298 124.702 89.5378C131.743 83.3818 134.081 78.2382 137.42 68.1817C136.696 80.2052 136.208 90.2973 135.654 98.9602C159.109 85.2093 172.123 77.4937 185.871 63.3161C165.164 136.936 171.321 129.594 97.321 175.787C102.688 173.822 107.443 172.049 112.052 170.447C126.489 165.429 139.485 162.096 165.323 159.854C166.615 159.294 167.884 158.737 169.133 158.184C174.741 155.549 178.887 152.744 181.976 149.759C195.749 136.451 188.535 119.572 196.43 98.2944C207.193 69.288 241.354 50.5497 252.469 20.2387C242.187 104.455 242.876 125.508 169.133 158.184C167.931 158.749 166.663 159.305 165.323 159.854C168.345 159.674 171.304 159.329 174.209 158.848C177.726 158.005 181.125 157.257 184.413 156.595C187.569 155.733 190.665 154.745 193.713 153.675C206.56 149.165 218.559 143.195 230.545 139.09C231.592 138.578 232.625 138.065 233.645 137.55C249.699 127.833 256.246 95.7755 272.064 80.5764C288.864 64.4351 299.247 67.7241 328.213 40.2662C309.89 93.8363 294.864 119.611 245.17 135.239C278.686 131.245 286.039 148.313 307.713 152.981C247.367 205.581 238.332 152.596 174.209 158.848C171.304 159.329 168.345 159.674 165.323 159.854C139.485 162.096 126.489 165.429 112.052 170.447C107.443 172.049 102.688 173.822 97.321 175.787C105.125 173.768 111.993 172.186 118.104 171.186C124.948 170.065 131.329 169.219 137.29 168.63C218.188 160.631 221.482 199.897 248.968 242.16C214.135 238.354 194.835 231.456 161.919 187.737C151.409 171.24 139.307 167.715 118.104 171.186C111.993 172.186 105.125 173.768 97.321 175.787C94.7115 177.416 92.0023 179.112 89.1887 180.88C87.5445 182.193 85.8392 183.545 84.0705 184.941C81.3454 187.093 78.4695 189.348 75.4342 191.723C75.3311 191.803 75.228 191.884 75.1246 191.965C75.1504 191.912 75.1761 191.86 75.2018 191.808C68.9533 194.125 63.7176 197.872 56.7377 204.543C56.6637 204.621 56.5852 204.702 56.5026 204.784L44.4093 217.188C97.7395 177.881 123.299 205.931 164.882 207.639C123.212 235.059 98.4888 244.434 44.4093 217.188C32.3591 239.748 25.1571 237.453 3.61694 258.699C3.20152 249.496 1.74133 243.819 5.64314 242.102C23.8417 230.767 29.6151 235.949 40.4243 216.701Z" fill="url(#paint0_linear)"/>
<path d="M77.7292 174.186C77.5001 176.761 75.2265 178.663 72.651 178.434C70.0755 178.205 68.1735 175.931 68.4026 173.356C68.6318 170.78 70.9054 168.878 73.4808 169.108C76.0563 169.337 77.9584 171.61 77.7292 174.186Z" fill="url(#paint1_linear)"/>
<path d="M97.086 189.069C96.8569 191.644 94.5833 193.546 92.0078 193.317C89.4323 193.088 87.5303 190.814 87.7594 188.239C87.9886 185.663 90.2622 183.761 92.8376 183.99C95.4131 184.22 97.3152 186.493 97.086 189.069Z" fill="url(#paint2_linear)"/>
<path d="M170.833 142.048C170.604 144.623 168.33 146.525 165.755 146.296C163.179 146.067 161.277 143.793 161.507 141.218C161.736 138.642 164.009 136.74 166.585 136.97C169.16 137.199 171.062 139.472 170.833 142.048Z" fill="url(#paint3_linear)"/>
<path d="M245.636 114.862C245.406 117.437 243.133 119.339 240.557 119.11C237.982 118.881 236.08 116.607 236.309 114.032C236.538 111.456 238.812 109.554 241.387 109.783C243.963 110.013 245.865 112.286 245.636 114.862Z" fill="url(#paint4_linear)"/>
<path d="M73.6902 98.8074L75.0886 98.6764L74.7278 94.8227L72.5332 98.011L73.6902 98.8074ZM44.4093 217.188L43.4037 216.207C43.3113 216.302 43.2328 216.409 43.1704 216.526L44.4093 217.188ZM164.882 207.639L165.654 208.812C166.163 208.477 166.398 207.851 166.235 207.264C166.072 206.676 165.549 206.261 164.94 206.236L164.882 207.639ZM75.1246 191.965L73.865 191.343C73.5751 191.931 73.7301 192.641 74.2385 193.055C74.7469 193.468 75.4737 193.475 75.9898 193.071L75.1246 191.965ZM124.702 89.5378L125.576 90.6372C125.593 90.6236 125.61 90.6096 125.626 90.5952L124.702 89.5378ZM137.42 68.1817L138.821 68.2661L136.087 67.7392L137.42 68.1817ZM135.654 98.9602L134.252 98.8706L135.654 98.9602ZM185.871 63.3161L187.223 63.6964C187.397 63.0775 187.129 62.4193 186.572 62.0987C186.014 61.7781 185.31 61.8768 184.863 62.3384L185.871 63.3161ZM196.43 98.2944L195.113 97.8058L196.43 98.2944ZM252.469 20.2387L253.863 20.4089C253.949 19.7008 253.491 19.0404 252.798 18.8732C252.104 18.7061 251.395 19.0854 251.15 19.7551L252.469 20.2387ZM89.1887 180.88L88.3124 179.782L89.1887 180.88ZM161.919 187.737L160.735 188.492C160.754 188.523 160.775 188.553 160.797 188.582L161.919 187.737ZM248.968 242.16L248.816 243.557L251.761 243.878L250.146 241.395L248.968 242.16ZM118.104 171.186L118.331 172.572L118.331 172.572L118.104 171.186ZM307.713 152.981L308.636 154.039C309.036 153.69 309.205 153.145 309.073 152.63C308.94 152.115 308.528 151.719 308.008 151.608L307.713 152.981ZM230.545 139.09L231 140.419L230.545 139.09ZM272.064 80.5764L273.038 81.5892L272.064 80.5764ZM328.213 40.2662L329.542 40.7207L327.247 39.2468L328.213 40.2662ZM44.7335 214.532L45.391 215.773C45.4455 215.744 45.498 215.712 45.5482 215.676L44.7335 214.532ZM52.9427 208.023L53.8876 209.062L53.8876 209.062L52.9427 208.023ZM5.64314 242.102L6.20889 243.387C6.26997 243.36 6.32906 243.329 6.3857 243.294L5.64314 242.102ZM3.61694 258.699L2.21385 258.762C2.23887 259.317 2.58782 259.804 3.10436 260.007C3.62091 260.209 4.20824 260.089 4.60324 259.699L3.61694 258.699ZM112.052 170.447L112.513 171.773L112.052 170.447ZM193.713 153.675L194.179 155L193.713 153.675ZM181.976 149.759L181 148.749L181.976 149.759ZM137.29 168.63L137.151 167.232L137.29 168.63ZM118.843 154.18L117.778 153.264L118.843 154.18ZM52.8693 189.715L54.1964 190.175L52.8693 189.715ZM43.6583 152.353L42.3135 151.948L43.6583 152.353ZM57.4857 175.675L56.1444 175.258L57.4857 175.675ZM49.5337 137.975L50.7913 138.6L49.5337 137.975ZM45.2426 218.318C71.6358 198.865 91.0004 196.162 108.874 198.426C117.896 199.569 126.545 201.977 135.676 204.246C144.772 206.506 154.28 208.609 164.824 209.042L164.94 206.236C154.692 205.815 145.412 203.771 136.354 201.52C127.331 199.278 118.46 196.809 109.227 195.64C90.5933 193.279 70.5129 196.203 43.576 216.057L45.2426 218.318ZM43.7773 218.442C70.941 232.128 90.9383 236.723 109.481 234.306C127.979 231.895 144.813 222.526 165.654 208.812L164.11 206.466C143.281 220.172 126.919 229.201 109.118 231.521C91.3612 233.835 71.9572 229.494 45.0412 215.933L43.7773 218.442ZM76.3842 192.586C76.4101 192.533 76.4361 192.481 76.462 192.428L73.9417 191.188C73.9162 191.24 73.8906 191.291 73.865 191.343L76.3842 192.586ZM76.462 192.428C89.034 166.882 89.9086 150.207 93.3391 135.765C95.0517 128.554 97.402 121.84 102.143 114.669C106.895 107.481 114.091 99.7684 125.576 90.6372L123.828 88.4384C112.195 97.6873 104.764 105.61 99.7996 113.119C94.8244 120.646 92.3691 127.693 90.6061 135.115C87.0851 149.939 86.3277 166.019 73.9416 191.188L76.462 192.428ZM125.626 90.5952C129.246 87.4305 131.699 84.4865 133.67 81.0163C135.626 77.5744 137.081 73.6603 138.753 68.6242L136.087 67.7392C134.42 72.7596 133.036 76.4456 131.228 79.6286C129.436 82.7833 127.199 85.4891 123.777 88.4804L125.626 90.5952ZM137.055 99.0499C137.609 90.3961 138.1 80.2546 138.821 68.2661L136.018 68.0973C135.292 80.1557 134.807 90.1985 134.252 98.8706L137.055 99.0499ZM184.863 62.3384C171.268 76.3582 158.42 83.9857 134.943 97.7486L136.364 100.172C159.799 86.4329 172.978 78.6292 186.879 64.2939L184.863 62.3384ZM197.747 98.783C203.012 84.5934 214.021 72.8651 225.345 60.7133C236.584 48.6522 248.116 36.1887 253.787 20.7222L251.15 19.7551C245.706 34.5996 234.6 46.6608 223.29 58.7982C212.064 70.8449 200.611 82.989 195.113 97.8058L197.747 98.783ZM165.882 161.142C167.177 160.581 168.45 160.023 169.702 159.468L168.564 156.9C167.319 157.452 166.052 158.007 164.764 158.565L165.882 161.142ZM169.702 159.468C206.638 143.102 225.284 129.506 235.845 109.187C241.106 99.066 244.319 87.3577 246.863 72.9708C249.405 58.5952 251.296 41.432 253.863 20.4089L251.074 20.0685C248.5 41.1534 246.622 58.2029 244.097 72.4817C241.574 86.7492 238.423 98.137 233.353 107.891C223.253 127.322 205.371 140.59 168.564 156.9L169.702 159.468ZM89.936 182.069C92.7482 180.302 95.4562 178.607 98.0648 176.979L96.5773 174.596C93.9668 176.225 91.2564 177.922 88.4414 179.691L89.936 182.069ZM98.0648 176.979C116.538 165.447 130.072 157.218 140.258 150.237C150.455 143.249 157.406 137.44 162.686 130.703C167.974 123.956 171.521 116.36 175.037 105.9C178.543 95.4689 182.058 82.0596 187.223 63.6964L184.519 62.9358C179.331 81.3824 175.85 94.6628 172.374 105.005C168.908 115.316 165.487 122.576 160.476 128.97C155.456 135.374 148.778 140.992 138.67 147.92C128.55 154.856 115.104 163.031 96.5773 174.596L98.0648 176.979ZM160.797 188.582C177.302 210.503 190.491 223.33 204.023 231.133C217.574 238.946 231.344 241.647 248.816 243.557L249.121 240.764C231.759 238.867 218.462 236.216 205.426 228.699C192.371 221.172 179.453 208.69 163.041 186.893L160.797 188.582ZM97.6729 177.147C105.461 175.131 112.281 173.562 118.331 172.572L117.877 169.799C111.704 170.81 104.789 172.404 96.9691 174.428L97.6729 177.147ZM118.331 172.572C128.843 170.851 136.889 170.905 143.547 173.295C150.159 175.67 155.592 180.419 160.735 188.492L163.104 186.983C157.737 178.558 151.863 173.296 144.496 170.652C137.175 168.023 128.568 168.05 117.877 169.799L118.331 172.572ZM245.336 136.633C261.786 134.673 271.729 137.872 280.256 142.119C288.736 146.342 296.351 151.971 307.417 154.354L308.008 151.608C297.4 149.323 290.502 144.084 281.508 139.605C272.561 135.149 262.07 131.81 245.004 133.844L245.336 136.633ZM165.406 161.256C168.481 161.073 171.489 160.722 174.438 160.234L173.979 157.463C171.12 157.936 168.209 158.275 165.24 158.452L165.406 161.256ZM174.345 160.246C206.016 157.158 223.833 168.644 241.937 174.628C250.989 177.621 260.064 179.185 270.746 176.573C281.384 173.972 293.462 167.265 308.636 154.039L306.79 151.922C291.791 164.996 280.11 171.391 270.078 173.844C260.09 176.287 251.583 174.859 242.818 171.961C225.288 166.167 206.525 154.286 174.072 157.45L174.345 160.246ZM231 140.419C235.811 138.771 240.591 137.437 245.404 136.624L244.936 133.854C239.929 134.7 234.996 136.081 230.09 137.761L231 140.419ZM231.058 140.397C232.21 139.945 233.313 139.392 234.372 138.751L232.917 136.348C231.986 136.912 231.025 137.392 230.031 137.783L231.058 140.397ZM234.372 138.751C238.632 136.173 242.187 132.161 245.359 127.473C248.534 122.781 251.387 117.315 254.197 111.752C259.868 100.523 265.343 88.9819 273.038 81.5892L271.091 79.5636C262.967 87.37 257.259 99.4571 251.689 110.486C248.878 116.052 246.096 121.372 243.033 125.899C239.968 130.429 236.684 134.068 232.917 136.348L234.372 138.751ZM273.038 81.5892C281.279 73.6712 287.892 70.5481 296.259 65.8924C304.659 61.2184 314.596 55.1095 329.18 41.2855L327.247 39.2468C312.864 52.8808 303.127 58.8563 294.894 63.4377C286.628 68.0373 279.65 71.3404 271.091 79.5636L273.038 81.5892ZM245.591 136.578C270.63 128.704 287.072 118.225 299.546 102.866C311.975 87.5625 320.378 67.5146 329.542 40.7207L326.884 39.8116C317.726 66.5878 309.453 86.2123 297.365 101.095C285.322 115.923 269.404 126.145 244.748 133.899L245.591 136.578ZM45.5482 215.676C48.6518 213.466 51.3918 211.332 53.8876 209.062L51.9977 206.984C49.6099 209.155 46.9646 211.219 43.9188 213.388L45.5482 215.676ZM53.933 209.019C54.4245 208.53 55.1005 207.919 55.8006 207.292C56.4841 206.68 57.1962 206.048 57.7081 205.559L55.7672 203.528C55.2979 203.977 54.6344 204.566 53.9266 205.199C53.2355 205.818 52.5046 206.478 51.9524 207.027L53.933 209.019ZM57.7081 205.559C64.6249 198.948 69.6983 195.347 75.6902 193.125L74.7134 190.491C68.2084 192.904 62.8104 196.796 55.7672 203.528L57.7081 205.559ZM75.6902 193.125C75.765 193.097 75.8397 193.07 75.9142 193.043L74.9541 190.403C74.8735 190.432 74.7932 190.462 74.7134 190.491L75.6902 193.125ZM75.9143 193.043C79.4887 191.742 83.4503 190.904 88.403 190.239L88.0292 187.454C82.9725 188.133 78.7916 189.007 74.954 190.403L75.9143 193.043ZM53.8876 209.062C54.7978 208.234 56.4659 206.811 57.4976 205.776L55.5077 203.793C54.5359 204.768 53.0364 206.039 51.9977 206.984L53.8876 209.062ZM57.4976 205.776C57.5866 205.686 57.6728 205.598 57.7553 205.511L55.7201 203.575C55.6546 203.644 55.5837 203.717 55.5076 203.793L57.4976 205.776ZM57.7553 205.511C63.8461 199.109 67.6588 192.414 73.3048 179.34L70.726 178.226C65.122 191.203 61.4667 197.534 55.7201 203.575L57.7553 205.511ZM39.1997 216.014C33.8967 225.457 29.9367 228.74 25.1781 231.112C22.6846 232.355 20.0483 233.316 16.6793 234.768C13.3636 236.197 9.52463 238.029 4.90058 240.91L6.3857 243.294C10.8609 240.506 14.5681 238.736 17.791 237.347C20.9607 235.982 23.8556 234.91 26.4314 233.626C31.8114 230.944 36.1427 227.194 41.6489 217.389L39.1997 216.014ZM72.2918 98.9383C74.6071 123.668 74.0328 142.425 69.6723 159.405C65.3146 176.374 57.1484 191.675 44.1194 209.453L46.3851 211.113C59.5411 193.162 67.9166 177.535 72.3931 160.104C76.8666 142.683 77.4188 123.566 75.0886 98.6764L72.2918 98.9383ZM44.1194 209.453C42.5847 211.547 40.9827 213.675 39.3117 215.844L41.537 217.558C43.2204 215.373 44.8359 213.227 46.3851 211.113L44.1194 209.453ZM41.5467 217.546L46.3746 211.127L44.1298 209.439L39.3019 215.857L41.5467 217.546ZM44.076 213.291C43.7774 213.449 43.5596 213.552 43.4061 213.614C43.224 213.687 43.2351 213.659 43.3561 213.654C43.5204 213.648 44.103 213.707 44.4089 214.304C44.6071 214.692 44.4989 214.996 44.5255 214.878C44.5579 214.734 44.704 214.365 45.0737 213.631C45.4217 212.94 45.8959 212.06 46.4913 210.944L44.0131 209.622C43.43 210.714 42.9323 211.638 42.5647 212.368C42.2188 213.055 41.9057 213.725 41.7852 214.26C41.7353 214.482 41.6272 215.035 41.9082 215.584C42.2971 216.344 43.0453 216.477 43.4643 216.461C43.8401 216.447 44.1949 216.324 44.4518 216.221C44.7373 216.107 45.0538 215.952 45.391 215.773L44.076 213.291ZM43.1704 216.526C37.233 227.642 32.5392 232.564 26.6832 237.349C20.7778 242.174 13.462 247.016 2.63064 257.699L4.60324 259.699C15.312 249.136 22.3673 244.503 28.4605 239.524C34.6031 234.505 39.5353 229.294 45.6482 217.85L43.1704 216.526ZM5.07738 240.816C3.76659 241.393 2.87775 242.334 2.33731 243.558C1.82226 244.724 1.64411 246.097 1.60701 247.557C1.56965 249.028 1.67481 250.719 1.80874 252.566C1.94413 254.434 2.11111 256.486 2.21385 258.762L5.02003 258.636C4.91506 256.31 4.74373 254.202 4.61043 252.363C4.47567 250.504 4.38175 248.943 4.41514 247.629C4.4488 246.304 4.61122 245.362 4.90679 244.693C5.17696 244.081 5.56878 243.669 6.20889 243.387L5.07738 240.816ZM45.4149 218.168L57.5083 205.765L55.497 203.804L43.4037 216.207L45.4149 218.168ZM57.5083 205.765L57.7433 205.524L55.732 203.563L55.497 203.804L57.5083 205.765ZM97.8039 177.106C103.182 175.137 107.919 173.37 112.513 171.773L111.591 169.12C106.968 170.727 102.194 172.508 96.8382 174.468L97.8039 177.106ZM112.513 171.773C126.834 166.795 139.715 163.486 165.444 161.253L165.202 158.455C139.254 160.706 126.143 164.062 111.591 169.12L112.513 171.773ZM112.609 171.736C118.474 169.203 123.779 167.118 128.661 165.228C133.534 163.341 138.009 161.64 142.168 159.887C150.509 156.372 157.682 152.612 164.627 146.566L162.782 144.448C156.151 150.22 149.278 153.842 141.078 157.298C136.967 159.031 132.546 160.712 127.647 162.609C122.756 164.502 117.411 166.602 111.495 169.157L112.609 171.736ZM174.438 160.234C177.967 159.65 181.412 158.871 184.783 157.95L184.044 155.24C180.752 156.139 177.402 156.896 173.979 157.463L174.438 160.234ZM184.783 157.95C187.976 157.078 191.105 156.079 194.179 155L193.248 152.35C190.225 153.411 187.161 154.389 184.044 155.24L184.783 157.95ZM194.179 155C200.649 152.728 206.9 150.091 212.997 147.525C219.108 144.952 225.06 142.453 231 140.419L230.09 137.761C224.044 139.832 218.003 142.37 211.907 144.936C205.796 147.508 199.624 150.111 193.248 152.35L194.179 155ZM194.332 154.936C206.37 149.026 214.845 144.11 221.73 138.717C228.631 133.31 233.887 127.462 239.533 119.744L237.266 118.086C231.724 125.662 226.64 131.302 219.997 136.505C213.338 141.722 205.064 146.538 193.094 152.414L194.332 154.936ZM231.161 140.352C232.214 139.837 233.253 139.321 234.278 138.803L233.011 136.296C231.997 136.808 230.97 137.319 229.928 137.828L231.161 140.352ZM234.278 138.803C280.448 115.477 299.148 88.4445 329.397 41.0215L327.029 39.5108C296.815 86.878 278.457 113.336 233.011 136.296L234.278 138.803ZM174.536 160.214C178.037 159.375 181.419 158.63 184.691 157.972L184.136 155.218C180.83 155.883 177.414 156.635 173.881 157.482L174.536 160.214ZM184.691 157.972C217.255 151.42 238.894 153.411 256.941 155.601C274.994 157.791 289.757 160.247 308.144 154.317L307.282 151.644C289.589 157.35 275.471 155.019 257.279 152.812C239.081 150.604 217.11 148.584 184.136 155.218L184.691 157.972ZM165.856 161.154C167.216 160.596 168.506 160.03 169.73 159.455L168.535 156.913C167.357 157.467 166.11 158.014 164.791 158.554L165.856 161.154ZM169.73 159.455C175.443 156.771 179.727 153.885 182.952 150.769L181 148.749C178.047 151.602 174.04 154.327 168.535 156.913L169.73 159.455ZM182.952 150.769C190.203 143.763 191.889 135.8 192.804 127.163C193.723 118.49 193.879 109.207 197.747 98.783L195.113 97.8058C191.086 108.659 190.902 118.455 190.011 126.867C189.116 135.317 187.523 142.447 181 148.749L182.952 150.769ZM251.127 19.8237C232.704 79.3943 224.061 113.858 181.092 148.667L182.86 150.85C226.598 115.419 235.432 80.0816 253.81 20.6536L251.127 19.8237ZM118.331 172.572C125.149 171.456 131.501 170.614 137.428 170.028L137.151 167.232C131.158 167.825 124.747 168.675 117.877 169.799L118.331 172.572ZM137.428 170.028C177.64 166.052 198.207 173.846 212.175 187.549C219.216 194.457 224.655 202.937 230.08 212.414C235.479 221.846 240.891 232.317 247.791 242.926L250.146 241.395C243.302 230.872 237.995 220.586 232.518 211.019C227.067 201.497 221.472 192.735 214.142 185.544C199.367 171.048 177.839 163.209 137.151 167.232L137.428 170.028ZM137.151 170.028C165.737 172.855 181.657 183.557 196.311 197.325C210.962 211.09 224.619 228.26 248.212 243.344L249.725 240.977C226.423 226.079 213.213 209.35 198.234 195.277C183.258 181.207 166.785 170.136 137.428 167.232L137.151 170.028ZM90.065 181.977C103.67 171.115 113.191 162.905 119.908 155.095L117.778 153.264C111.252 160.853 101.92 168.918 88.3124 179.782L90.065 181.977ZM119.908 155.095C132.87 140.023 135.299 126.513 137.055 99.0499L134.252 98.8706C132.501 126.243 130.101 138.935 117.778 153.264L119.908 155.095ZM119.786 155.22C148.635 129.054 162.607 105.96 187.084 64.0241L184.658 62.6081C160.181 104.545 146.394 127.293 117.899 153.139L119.786 155.22ZM75.9898 193.071C76.0932 192.99 76.1965 192.91 76.2995 192.829L74.5688 190.616C74.4658 190.697 74.3627 190.778 74.2593 190.858L75.9898 193.071ZM76.2995 192.829C79.3356 190.454 82.2133 188.197 84.9409 186.044L83.2002 183.839C80.4774 185.989 77.6034 188.243 74.5688 190.616L76.2995 192.829ZM84.9408 186.044C86.7111 184.646 88.4184 183.292 90.065 181.977L88.3124 179.782C86.6706 181.093 84.9674 182.444 83.2002 183.839L84.9408 186.044ZM136.05 67.8701C124.421 118.977 110.472 157.678 83.0984 183.928L85.0427 185.955C113.06 159.088 127.148 119.656 138.789 68.4933L136.05 67.8701ZM44.7101 218.56C65.2186 214.064 83.9998 215.69 103.462 216.458C122.886 217.226 142.864 217.121 165.361 208.959L164.403 206.319C142.435 214.289 122.905 214.415 103.573 213.652C84.2789 212.889 65.0564 211.223 44.1085 215.816L44.7101 218.56ZM76.3302 174.061C76.1698 175.864 74.5783 177.196 72.7755 177.035L72.5265 179.833C75.8746 180.131 78.8303 177.658 79.1282 174.31L76.3302 174.061ZM72.7755 177.035C70.9726 176.875 69.6412 175.283 69.8016 173.48L67.0036 173.231C66.7057 176.58 69.1784 179.535 72.5265 179.833L72.7755 177.035ZM69.8016 173.48C69.962 171.678 71.5535 170.346 73.3564 170.507L73.6053 167.709C70.2572 167.411 67.3015 169.883 67.0036 173.231L69.8016 173.48ZM73.3564 170.507C75.1592 170.667 76.4906 172.258 76.3302 174.061L79.1282 174.31C79.4261 170.962 76.9534 168.006 73.6053 167.709L73.3564 170.507ZM95.687 188.944C95.5266 190.747 93.9351 192.078 92.1323 191.918L91.8833 194.716C95.2314 195.014 98.1871 192.541 98.485 189.193L95.687 188.944ZM92.1323 191.918C90.3294 191.758 88.998 190.166 89.1584 188.363L86.3604 188.114C86.0625 191.462 88.5352 194.418 91.8833 194.716L92.1323 191.918ZM89.1584 188.363C89.3188 186.56 90.9103 185.229 92.7132 185.389L92.9621 182.591C89.614 182.294 86.6583 184.766 86.3604 188.114L89.1584 188.363ZM92.7132 185.389C94.516 185.55 95.8474 187.141 95.687 188.944L98.485 189.193C98.7829 185.845 96.3102 182.889 92.9621 182.591L92.7132 185.389ZM169.434 141.923C169.274 143.726 167.682 145.058 165.879 144.897L165.63 147.695C168.979 147.993 171.934 145.52 172.232 142.172L169.434 141.923ZM165.879 144.897C164.077 144.737 162.745 143.145 162.906 141.342L160.108 141.093C159.81 144.442 162.282 147.397 165.63 147.695L165.879 144.897ZM162.906 141.342C163.066 139.54 164.657 138.208 166.46 138.369L166.709 135.571C163.361 135.273 160.405 137.745 160.108 141.093L162.906 141.342ZM166.46 138.369C168.263 138.529 169.595 140.12 169.434 141.923L172.232 142.172C172.53 138.824 170.057 135.868 166.709 135.571L166.46 138.369ZM244.237 114.737C244.076 116.54 242.485 117.871 240.682 117.711L240.433 120.509C243.781 120.807 246.737 118.334 247.035 114.986L244.237 114.737ZM240.682 117.711C238.879 117.551 237.548 115.959 237.708 114.156L234.91 113.907C234.612 117.255 237.085 120.211 240.433 120.509L240.682 117.711ZM237.708 114.156C237.868 112.353 239.46 111.022 241.263 111.182L241.512 108.384C238.164 108.087 235.208 110.559 234.91 113.907L237.708 114.156ZM241.263 111.182C243.066 111.343 244.397 112.934 244.237 114.737L247.035 114.986C247.332 111.638 244.86 108.682 241.512 108.384L241.263 111.182ZM51.5422 189.255C49.2221 195.952 46.6964 202.765 43.9449 209.77L46.5595 210.797C49.3238 203.76 51.8628 196.91 54.1964 190.175L51.5422 189.255ZM41.8185 216.872C43.9769 199.191 43.3215 187.848 42.8642 178.553C42.4085 169.292 42.1614 162.193 45.0032 152.759L42.3135 151.948C39.322 161.88 39.6013 169.398 40.0585 178.691C40.5141 187.95 41.1584 199.098 39.0301 216.531L41.8185 216.872ZM72.296 98.6372C68.959 125.972 63.9462 150.148 56.1444 175.258L58.827 176.092C66.6835 150.805 71.729 126.463 75.0844 98.9776L72.296 98.6372ZM56.1444 175.258C54.7075 179.883 53.1758 184.54 51.5422 189.255L54.1964 190.175C55.8396 185.432 57.3808 180.746 58.827 176.092L56.1444 175.258ZM45.0032 152.759C46.2471 148.629 48.0904 144.03 50.7913 138.6L48.2762 137.349C45.5213 142.888 43.6127 147.635 42.3135 151.948L45.0032 152.759ZM50.7913 138.6C55.6166 128.899 63.1563 116.589 74.8472 99.6037L72.5332 98.011C60.8153 115.036 53.1889 127.472 48.2762 137.349L50.7913 138.6Z" fill="#89B68D"/>
<path fill-rule="evenodd" clip-rule="evenodd" d="M344.854 159.937H339.011C333.84 159.937 329.648 164.129 329.648 169.3V250.012C329.648 255.183 333.84 259.376 339.011 259.376H393.325H400.814H464.907H519.637C524.808 259.376 529 255.183 529 250.012V168.258C529 163.662 525.274 159.937 520.679 159.937H513.794H506.968H506.949H482.382H482.362H475.517H464.907H449.701H442.856H431.622H419.517H418.269H411.424H383.131H376.286H364.597H363.993H352.115H351.699H344.854ZM337.137 172.091C337.137 169.506 339.233 167.41 341.819 167.41H344.854H351.699H357.124H369.229H376.286H383.131H388.643C391.229 167.41 393.325 169.506 393.325 172.091V247.205C393.325 249.79 391.229 251.886 388.643 251.886H363.993H341.819C339.233 251.886 337.137 249.79 337.137 247.205V172.091ZM449.701 167.41H452.736C455.322 167.41 457.418 169.506 457.418 172.091V251.886H430.562H400.814V172.091C400.814 169.506 402.91 167.41 405.496 167.41H411.424H418.269H424.149H436.176H442.856H449.701ZM513.794 167.41H517.35C519.648 167.41 521.511 169.272 521.511 171.57V247.726C521.511 250.024 519.648 251.886 517.35 251.886H494.655H469.068C466.77 251.886 464.907 250.024 464.907 247.726V171.57C464.907 169.272 466.77 167.41 469.068 167.41H475.517H482.362H506.949H513.794Z" fill="#E7F1E8"/>
<path d="M344.438 110.425C341.095 110.425 338.385 113.136 338.385 116.481C338.385 119.825 341.511 122.536 344.854 122.536H383.131C386.474 122.536 389.184 119.825 389.184 116.481C389.184 113.136 386.474 110.425 383.131 110.425H344.438Z" fill="#E7F1E8"/>
<path d="M411.008 89.6223C407.665 89.6223 404.955 92.3333 404.955 95.6774C404.955 99.0215 408.081 101.733 411.424 101.733H449.701C453.044 101.733 455.754 99.0215 455.754 95.6774C455.754 92.3333 453.044 89.6223 449.701 89.6223H411.008Z" fill="#E7F1E8"/>
<path d="M475.12 101.272C471.777 101.272 469.068 103.983 469.068 107.327C469.068 110.671 472.193 113.382 475.536 113.382H513.814C517.157 113.382 519.866 110.671 519.866 107.327C519.866 103.983 517.157 101.272 513.814 101.272H475.12Z" fill="#E7F1E8"/>
<path d="M383.131 122.536C386.474 122.536 389.184 119.825 389.184 116.481C389.184 113.136 386.474 110.425 383.131 110.425H344.438C341.095 110.425 338.385 113.136 338.385 116.481C338.385 119.825 341.511 122.536 344.854 122.536M383.131 122.536H344.854M383.131 122.536V159.937M344.854 122.536V159.937M363.993 251.886C374.563 251.886 383.131 243.318 383.131 232.748V167.41M363.993 251.886C353.422 251.886 344.854 243.318 344.854 232.748V167.41M363.993 251.886H388.643C391.229 251.886 393.325 249.79 393.325 247.205V172.091C393.325 169.506 391.229 167.41 388.643 167.41H383.131M363.993 251.886H341.819C339.233 251.886 337.137 249.79 337.137 247.205V172.091C337.137 169.506 339.233 167.41 341.819 167.41H344.854M449.701 101.733C453.044 101.733 455.754 99.0215 455.754 95.6774C455.754 92.3333 453.044 89.6223 449.701 89.6223H411.008C407.665 89.6223 404.955 92.3333 404.955 95.6774C404.955 99.0215 408.081 101.733 411.424 101.733M449.701 101.733H411.424M449.701 101.733V159.937M411.424 101.733V159.937M430.562 251.886C441.133 251.886 449.701 243.318 449.701 232.748V167.41M430.562 251.886C419.992 251.886 411.424 243.318 411.424 232.748V167.41M430.562 251.886H457.418M430.562 251.886H400.814M344.854 159.937H339.011C333.84 159.937 329.648 164.129 329.648 169.3V250.012C329.648 255.183 333.84 259.376 339.011 259.376H393.325H400.814H464.907H519.637C524.808 259.376 529 255.183 529 250.012V168.258C529 163.662 525.274 159.937 520.679 159.937H513.794M344.854 159.937H351.699M383.131 159.937H411.424M383.131 159.937H376.286M411.424 159.937H418.269M449.701 159.937H464.907H475.517M449.701 159.937H442.856M344.854 167.41H351.699M383.131 167.41H376.286M411.424 167.41H405.496C402.91 167.41 400.814 169.506 400.814 172.091V251.886M411.424 167.41H418.269M449.701 167.41H452.736C455.322 167.41 457.418 169.506 457.418 172.091V251.886M449.701 167.41H442.856M457.418 251.886H400.814M351.699 232.748L376.286 208.161M351.699 232.748V220.721M351.699 232.748C351.699 236.563 352.991 239.503 354.983 241.569M418.269 232.748V167.41M418.269 232.748L442.856 208.161M418.269 232.748C418.269 236.42 419.466 239.282 421.333 241.334M351.699 159.937V143.71H356.315M351.699 159.937H352.115M376.286 159.937V143.71H368.342M376.286 159.937H364.597M376.286 167.41V184.029M376.286 167.41H369.229M351.699 167.41V208.616M351.699 167.41H357.124M418.269 159.937V115.418H428.255M418.269 159.937H419.517M442.856 159.937V115.418H440.359M442.856 159.937H431.622M442.856 167.41V232.748C442.856 241.514 436.034 245.663 429.577 245.194M442.856 167.41H436.176M418.269 167.41H424.149M494.655 251.886C505.226 251.886 513.794 243.318 513.794 232.748V167.41M494.655 251.886C484.085 251.886 475.517 243.318 475.517 232.748V167.41M494.655 251.886H469.068C466.77 251.886 464.907 250.024 464.907 247.726V171.57C464.907 169.272 466.77 167.41 469.068 167.41H475.517M494.655 251.886H517.35C519.648 251.886 521.511 250.024 521.511 247.726V171.57C521.511 169.272 519.648 167.41 517.35 167.41H513.794M475.517 167.41H482.362M513.794 167.41H506.949M513.794 159.937H506.949M513.794 159.937L513.814 113.382M513.794 159.937H506.968M475.517 159.937H482.362M475.517 159.937L475.536 113.382M482.362 159.937H506.949M482.362 159.937H482.382M506.949 159.937H506.968M506.949 159.937H482.382M506.949 167.41V232.748C506.949 249.39 482.362 249.39 482.362 232.748V167.41M506.949 167.41H482.362M513.814 113.382C517.157 113.382 519.866 110.671 519.866 107.327C519.866 103.983 517.157 101.272 513.814 101.272H475.12C471.777 101.272 469.068 103.983 469.068 107.327C469.068 110.671 472.193 113.382 475.536 113.382M513.814 113.382H475.536M482.382 159.937V131.229H488.623M506.968 159.937V131.229H500.649M376.286 208.161V232.748C375.415 245.23 361.679 248.516 354.983 241.569M376.286 208.161V196.134M376.286 196.134L351.699 220.721M376.286 196.134V184.029M351.699 220.721V208.616M351.699 208.616L376.286 184.029M351.699 196.966L376.286 172.38M351.699 184.939L369.229 167.41M351.699 172.835L357.124 167.41M376.286 148.248L364.597 159.937M376.286 232.293L363.349 245.23M376.286 220.266L354.983 241.569M351.699 148.326L356.315 143.71M356.315 143.71H368.342M368.342 143.71L352.115 159.937M357.124 167.41H369.229M364.597 159.937H363.993H352.115M442.856 196.134L418.269 220.721M418.269 208.616L442.856 184.029M418.269 196.966L442.856 172.38M418.269 185.317L436.176 167.41M442.856 148.703L431.622 159.937M418.269 173.29L424.149 167.41M442.856 136.598L419.517 159.937M418.269 149.535L442.856 124.949M418.269 137.508L440.359 115.418M418.269 125.404L428.255 115.418M442.856 231.916L429.577 245.194M442.856 219.811L421.333 241.334M428.255 115.418H440.359M421.333 241.334C423.469 243.682 426.481 244.969 429.577 245.194M419.517 159.937H431.622M424.149 167.41H436.176M482.343 232.748L506.929 208.161M506.929 196.134L482.343 220.721M482.343 208.616L506.929 184.029M482.343 196.966L506.929 172.38M485.406 241.334L506.929 219.811M506.929 231.916L493.651 245.194M482.343 185.317L500.25 167.41M488.223 167.41L482.343 173.29M482.343 149.535L500.649 131.229M482.343 137.508L488.623 131.229M483.591 159.937L506.929 136.598M506.929 148.703L495.696 159.937M488.623 131.229H500.649" stroke="#89B68D" stroke-width="2.80904"/>
<path d="M383.131 122.536H344.854V159.937H351.699V148.326V143.71H356.315H368.342H376.286V148.248V159.937H383.131V122.536Z" fill="white"/>
<path d="M449.701 101.733H411.424V159.937H418.269V149.535V137.508V125.404V115.418H428.255H440.359H442.856V124.949V136.598V148.703V159.937H449.701V101.733Z" fill="white"/>
<path d="M475.517 159.937H482.362H482.382V149.496V137.469V131.229H488.623H500.649H506.968V159.937H513.794L513.814 113.382H475.536L475.517 159.937Z" fill="white"/>
<path d="M363.993 251.886C374.563 251.886 383.131 243.318 383.131 232.748V167.41H376.286V172.38V184.029V196.134V208.161V220.266V232.293V232.748C375.71 241.004 369.505 245.236 363.432 245.146C360.324 245.1 357.25 243.921 354.983 241.569C352.991 239.503 351.699 236.563 351.699 232.748V220.721V208.616V196.966V184.939V172.835V167.41H344.854V232.748C344.854 243.318 353.422 251.886 363.993 251.886Z" fill="white"/>
<path d="M430.562 251.886C441.133 251.886 449.701 243.318 449.701 232.748V167.41H442.856V172.38V184.029V196.134V208.161V219.811V231.916V232.748C442.856 241.514 436.034 245.663 429.577 245.194C426.481 244.969 423.469 243.682 421.333 241.334C419.466 239.282 418.269 236.42 418.269 232.748V220.721V208.616V196.966V185.317V173.29V167.41H411.424V232.748C411.424 243.318 419.992 251.886 430.562 251.886Z" fill="white"/>
<path d="M494.655 251.886C505.226 251.886 513.794 243.318 513.794 232.748V167.41H506.949V232.748C506.949 241.522 500.114 245.67 493.652 245.192C490.558 244.964 487.549 243.674 485.416 241.324C483.555 239.273 482.362 236.414 482.362 232.748V232.728V220.701V208.597V196.947V185.297V173.27V167.41H475.517V232.748C475.517 243.318 484.085 251.886 494.655 251.886Z" fill="white"/>
<path d="M383.131 122.536C386.474 122.536 389.184 119.825 389.184 116.481C389.184 113.136 386.474 110.425 383.131 110.425H344.438C341.095 110.425 338.385 113.136 338.385 116.481C338.385 119.825 341.511 122.536 344.854 122.536M383.131 122.536H344.854M383.131 122.536V159.937M344.854 122.536V159.937M363.993 251.886C374.563 251.886 383.131 243.318 383.131 232.748V167.41M363.993 251.886C353.422 251.886 344.854 243.318 344.854 232.748V167.41M363.993 251.886H388.643C391.229 251.886 393.325 249.79 393.325 247.205V172.091C393.325 169.506 391.229 167.41 388.643 167.41H383.131M363.993 251.886H341.819C339.233 251.886 337.137 249.79 337.137 247.205V172.091C337.137 169.506 339.233 167.41 341.819 167.41H344.854M449.701 101.733C453.044 101.733 455.754 99.0215 455.754 95.6774C455.754 92.3333 453.044 89.6223 449.701 89.6223H411.008C407.665 89.6223 404.955 92.3333 404.955 95.6774C404.955 99.0215 408.081 101.733 411.424 101.733M449.701 101.733H411.424M449.701 101.733V159.937M411.424 101.733V159.937M430.562 251.886C441.133 251.886 449.701 243.318 449.701 232.748V167.41M430.562 251.886C419.992 251.886 411.424 243.318 411.424 232.748V167.41M430.562 251.886H457.418M430.562 251.886H400.814M344.854 159.937H339.011C333.84 159.937 329.648 164.129 329.648 169.3V250.012C329.648 255.183 333.84 259.376 339.011 259.376H393.325H400.814H464.907H519.637C524.808 259.376 529 255.183 529 250.012V168.258C529 163.662 525.274 159.937 520.679 159.937H513.794M344.854 159.937H351.699M383.131 159.937H411.424M383.131 159.937H376.286M411.424 159.937H418.269M449.701 159.937H464.907H475.517M449.701 159.937H442.856M344.854 167.41H351.699M383.131 167.41H376.286M411.424 167.41H405.496C402.91 167.41 400.814 169.506 400.814 172.091V251.886M411.424 167.41H418.269M449.701 167.41H452.736C455.322 167.41 457.418 169.506 457.418 172.091V251.886M449.701 167.41H442.856M457.418 251.886H400.814M376.286 232.748V208.161M376.286 232.748V232.293M376.286 232.748C375.71 241.004 369.505 245.236 363.432 245.146M376.286 143.71V159.937M376.286 143.71H368.342M376.286 143.71V148.248M351.699 143.71V159.937M351.699 143.71H356.315M351.699 143.71V148.326M351.699 232.748L376.286 208.161M351.699 232.748V220.721M351.699 232.748C351.699 236.563 352.991 239.503 354.983 241.569M442.856 232.748V167.41M442.856 232.748C442.856 241.514 436.034 245.663 429.577 245.194M442.856 232.748V231.916M442.856 115.418V159.937M442.856 115.418H440.359M442.856 115.418V124.949M418.269 115.418V159.937M418.269 115.418H428.255M418.269 115.418V125.404M418.269 232.748V167.41M418.269 232.748L442.856 208.161M418.269 232.748C418.269 236.42 419.466 239.282 421.333 241.334M418.269 232.748V220.721M351.699 159.937H352.115M351.699 159.937V148.326M376.286 159.937H364.597M376.286 159.937V148.248M376.286 167.41V184.029M376.286 167.41H369.229M376.286 167.41V172.38M351.699 167.41V208.616M351.699 167.41H357.124M351.699 167.41V172.835M418.269 159.937H419.517M418.269 159.937V149.535M442.856 159.937H431.622M442.856 159.937V148.703M442.856 167.41H436.176M442.856 167.41V172.38M418.269 167.41H424.149M418.269 167.41V173.29M494.655 251.886C505.226 251.886 513.794 243.318 513.794 232.748V167.41M494.655 251.886C484.085 251.886 475.517 243.318 475.517 232.748V167.41M494.655 251.886H469.068C466.77 251.886 464.907 250.024 464.907 247.726V171.57C464.907 169.272 466.77 167.41 469.068 167.41H475.517M494.655 251.886H517.35C519.648 251.886 521.511 250.024 521.511 247.726V171.57C521.511 169.272 519.648 167.41 517.35 167.41H513.794M475.517 167.41H482.362M513.794 167.41H506.949M513.794 159.937H506.949M513.794 159.937L513.814 113.382M513.794 159.937H506.968M475.517 159.937H482.362M475.517 159.937L475.536 113.382M482.362 159.937H506.949M482.362 159.937H482.382M506.949 159.937H506.968M506.949 159.937H482.382M506.949 167.41V232.748C506.949 241.522 500.114 245.67 493.652 245.192M506.949 167.41H482.362M482.362 167.41V173.27M513.814 113.382C517.157 113.382 519.866 110.671 519.866 107.327C519.866 103.983 517.157 101.272 513.814 101.272H475.12C471.777 101.272 469.068 103.983 469.068 107.327C469.068 110.671 472.193 113.382 475.536 113.382M513.814 113.382H475.536M482.382 159.937V149.496M506.968 159.937V131.229H500.649M376.286 208.161V196.134M376.286 208.161V220.266M376.286 196.134L351.699 220.721M376.286 196.134V184.029M351.699 220.721V208.616M351.699 208.616L376.286 184.029M351.699 208.616V196.966M376.286 184.029V172.38M351.699 196.966L376.286 172.38M351.699 196.966V184.939M351.699 184.939L369.229 167.41M351.699 184.939V172.835M351.699 172.835L357.124 167.41M376.286 148.248L364.597 159.937M376.286 232.293V220.266M376.286 232.293L363.432 245.146M376.286 220.266L354.983 241.569M351.699 148.326L356.315 143.71M354.983 241.569C357.25 243.921 360.324 245.1 363.432 245.146M363.349 245.23L363.432 245.146M356.315 143.71H368.342M368.342 143.71L352.115 159.937M357.124 167.41H369.229M364.597 159.937H363.993H352.115M442.856 208.161V196.134M442.856 208.161V219.811M442.856 196.134L418.269 220.721M442.856 196.134V184.029M418.269 220.721V208.616M418.269 208.616L442.856 184.029M418.269 208.616V196.966M442.856 184.029V172.38M418.269 196.966L442.856 172.38M418.269 196.966V185.317M418.269 185.317L436.176 167.41M418.269 185.317V173.29M442.856 148.703L431.622 159.937M442.856 148.703V136.598M418.269 173.29L424.149 167.41M442.856 136.598L419.517 159.937M442.856 136.598V124.949M418.269 149.535L442.856 124.949M418.269 149.535V137.508M418.269 137.508L440.359 115.418M418.269 137.508V125.404M418.269 125.404L428.255 115.418M442.856 231.916L429.577 245.194M442.856 231.916V219.811M442.856 219.811L421.333 241.334M428.255 115.418H440.359M421.333 241.334C423.469 243.682 426.481 244.969 429.577 245.194M419.517 159.937H431.622M424.149 167.41H436.176M482.343 232.748L482.362 232.728M506.929 208.161L482.362 232.728M506.929 196.134L482.362 220.701M482.343 220.721L482.362 220.701M482.343 208.616L482.362 208.597M506.929 184.029L482.362 208.597M482.343 196.966L482.362 196.947M506.929 172.38L482.362 196.947M485.406 241.334L485.416 241.324M506.929 219.811L485.416 241.324M506.929 231.916L493.652 245.192M493.651 245.194L493.652 245.192M482.343 185.317L482.362 185.297M500.25 167.41L482.362 185.297M488.223 167.41L482.362 173.27M482.343 173.29L482.362 173.27M482.343 149.535L482.382 149.496M482.343 137.508L482.382 137.469M483.591 159.937L506.929 136.598M506.929 148.703L495.696 159.937M488.623 131.229H482.382V137.469M488.623 131.229H500.649M488.623 131.229L482.382 137.469M500.649 131.229L482.382 149.496M482.382 149.496V137.469M493.652 245.192C490.558 244.964 487.549 243.674 485.416 241.324M485.416 241.324C483.555 239.273 482.362 236.414 482.362 232.748V232.728M482.362 232.728V220.701M482.362 220.701V208.597M482.362 208.597V196.947M482.362 196.947V185.297M482.362 185.297V173.27" stroke="#89B68D" stroke-width="2.80904"/>
<path fill-rule="evenodd" clip-rule="evenodd" d="M240.931 162.241C241.385 161.301 241.621 160.272 241.621 159.229V111.877H256.589C265.873 186.82 277.345 234.398 307.148 236.845L312.116 247.12C313.229 249.421 311.549 252.091 308.99 252.091H203.017C200.458 252.091 198.779 249.421 199.891 247.12L240.931 162.241ZM265.198 227.649C261.843 227.649 259.124 224.93 259.124 221.575C259.124 218.221 261.843 215.501 265.198 215.501C268.552 215.501 271.271 218.221 271.271 221.575C271.271 224.93 268.552 227.649 265.198 227.649ZM278.02 233.723C276.529 233.723 275.321 232.514 275.321 231.023C275.321 229.532 276.529 228.324 278.02 228.324C279.511 228.324 280.72 229.532 280.72 231.023C280.72 232.514 279.511 233.723 278.02 233.723ZM264.523 208.753C262.287 208.753 260.474 206.94 260.474 204.704C260.474 202.467 262.287 200.654 264.523 200.654C266.759 200.654 268.572 202.467 268.572 204.704C268.572 206.94 266.759 208.753 264.523 208.753Z" fill="#E7F1E8"/>
<path fill-rule="evenodd" clip-rule="evenodd" d="M99.5041 73.2749C92.149 97.0448 66.8819 110.362 43.0684 103.021C19.2549 95.6791 5.91281 70.4583 13.2679 46.6884C43.0684 29.1397 92.4321 52.4419 187.894 34.9101L189.122 40.29L189.28 40.9836C187.024 41.1815 184.685 41.5382 182.26 42.0642L101.524 60.4267C101.48 64.6814 100.826 69.0016 99.5041 73.2749ZM26.9701 75.8041C23.2429 75.8041 20.2214 72.7827 20.2214 69.0555C20.2214 65.3283 23.2429 62.3068 26.9701 62.3068C30.6973 62.3068 33.7187 65.3283 33.7187 69.0555C33.7187 72.7827 30.6973 75.8041 26.9701 75.8041ZM36.4182 90.6512C33.8092 90.6512 31.6941 88.5361 31.6941 85.9271C31.6941 83.3181 33.8092 81.2031 36.4182 81.2031C39.0272 81.2031 41.1423 83.3181 41.1423 85.9271C41.1423 88.5361 39.0272 90.6512 36.4182 90.6512ZM46.5412 75.8041C44.6776 75.8041 43.1669 74.2934 43.1669 72.4298C43.1669 70.5662 44.6776 69.0555 46.5412 69.0555C48.4048 69.0555 49.9155 70.5662 49.9155 72.4298C49.9155 74.2934 48.4048 75.8041 46.5412 75.8041Z" fill="#E7F1E8"/>
<path d="M199.663 41.2376L198.049 33.9625C234.855 32.2753 249.506 66.8395 255.325 102.056H240.608C238.545 73.0565 225.631 45.0566 199.663 41.2376Z" fill="#E7F1E8"/>
<path d="M233.511 111.877H232.664C229.953 111.877 227.756 109.679 227.756 106.967C227.756 105.521 228.38 104.221 229.373 103.323C230.244 102.535 231.398 102.056 232.664 102.056L234.855 102.056L240.608 102.056L241.604 102.056H248.352H255.101L255.325 102.056H261.85L271.671 111.877H256.589H241.621H233.511Z" fill="#E7F1E8"/>
<path d="M279.043 111.877H278.196L268.375 102.056L275.124 102.056L282.975 109.907C282.079 111.103 280.651 111.877 279.043 111.877Z" fill="#E7F1E8"/>
<path d="M268.375 102.056L278.196 111.877H271.671L261.85 102.056H268.375Z" fill="#E7F1E8"/>
<path d="M279.043 102.056C281.754 102.056 283.951 104.254 283.951 106.967C283.951 108.069 283.588 109.087 282.975 109.907L275.124 102.056L279.043 102.056Z" fill="#E7F1E8"/>
<path d="M182.802 12.6043L182.609 11.7597C182.414 10.904 182.45 10.0497 182.676 9.26182M182.802 12.6043L102.148 30.9479C102.03 30.9748 101.908 30.9245 101.843 30.8225C101.479 30.2536 101.106 29.6926 100.723 29.1397C88.503 11.5074 66.358 2.12805 44.1347 7.18244C14.9739 13.8147 -3.27922 42.7873 3.36517 71.8946C10.0096 101.002 39.0354 119.222 68.1961 112.589C91.1417 107.371 107.334 88.3199 109.957 66.2553C109.965 66.1792 110.021 66.117 110.096 66.1L190.822 47.7399M182.802 12.6043L187.292 32.2753M190.822 47.7399L189.28 40.9836M190.822 47.7399L190.919 48.1622M233.511 111.877H232.664C229.953 111.877 227.756 109.679 227.756 106.967C227.756 105.521 228.38 104.221 229.373 103.323M233.511 111.877V157.457C233.511 158.5 233.275 159.53 232.82 160.469L189.844 249.353C187.62 253.955 190.978 259.295 196.097 259.295L255.854 259.368H315.61C320.729 259.368 324.087 254.027 321.863 249.425L278.887 160.541C278.432 159.602 278.196 158.572 278.196 157.529V111.877M233.511 111.877H241.621M232.664 102.056H240.608M232.664 102.056C231.398 102.056 230.244 102.535 229.373 103.323M232.664 102.056L234.855 102.056M279.043 102.056C281.754 102.056 283.951 104.254 283.951 106.967C283.951 108.069 283.588 109.087 282.975 109.907M279.043 102.056H268.375M279.043 102.056L275.124 102.056M278.196 111.877H279.043C280.651 111.877 282.079 111.103 282.975 109.907M278.196 111.877L268.375 102.056M278.196 111.877H271.671M187.894 34.9101C92.4321 52.4419 43.0684 29.1397 13.2679 46.6884C5.9128 70.4583 19.2549 95.6791 43.0684 103.021C66.8819 110.362 92.149 97.0448 99.5041 73.2749C100.826 69.0016 101.48 64.6814 101.524 60.4267L182.26 42.0642C184.685 41.5382 187.024 41.1815 189.28 40.9836M187.894 34.9101L189.122 40.29M187.894 34.9101L187.292 32.2753M198.049 33.9625L199.663 41.2376M198.049 33.9625C234.855 32.2753 249.506 66.8395 255.325 102.056M198.049 33.9625L193.433 13.9445M189.28 40.9836L189.122 40.29M199.663 41.2376C225.631 45.0566 238.545 73.0565 240.608 102.056M199.663 41.2376L200.671 45.6544M240.608 102.056H255.325M240.608 102.056L234.855 102.056M240.608 102.056L241.604 102.056M255.325 102.056H261.85M255.325 102.056L255.101 102.056M241.621 111.877V159.229C241.621 160.272 241.385 161.301 240.931 162.241L199.891 247.12C198.779 249.421 200.458 252.091 203.017 252.091H308.99C311.549 252.091 313.229 249.421 312.116 247.12L307.148 236.845C277.345 234.398 265.873 186.82 256.589 111.877M241.621 111.877H256.589M256.589 111.877H271.671M268.375 102.056H261.85M268.375 102.056L275.124 102.056M261.85 102.056C265.685 105.891 267.836 108.042 271.671 111.877M261.85 102.056L271.671 111.877M255.101 102.056L264.923 111.877M255.101 102.056H248.352M248.352 102.056L258.174 111.877M248.352 102.056H241.604M241.604 102.056L251.425 111.877M234.855 102.056L244.677 111.877M237.928 111.877L229.373 103.323M275.124 102.056L282.975 109.907M199.663 50.8313C198.993 51.5756 198.093 52.1278 197.041 52.367C196.418 52.5087 195.796 52.5284 195.2 52.4419M199.663 50.8313C200.72 49.6581 201.208 48.0074 200.831 46.3521L200.671 45.6544M199.663 50.8313L189.122 40.29M187.292 32.2753L200.671 45.6544M185.444 24.1769L198.823 37.556M183.662 16.3724L197.041 29.7515M195.229 21.8149L182.676 9.26182M190.919 48.1622L195.2 52.4419M190.919 48.1622L191.015 48.5845C191.491 50.6683 193.201 52.1518 195.2 52.4419M193.433 13.9445L192.424 9.52727C191.807 6.82178 189.109 5.12829 186.399 5.74474C186.092 5.81451 185.798 5.91087 185.519 6.03083M193.433 13.9445L185.519 6.03083M185.519 6.03083C184.113 6.63565 183.085 7.84044 182.676 9.26182M20.2214 69.0555C20.2214 72.7827 23.2429 75.8041 26.9701 75.8041C30.6973 75.8041 33.7187 72.7827 33.7187 69.0555C33.7187 65.3283 30.6973 62.3068 26.9701 62.3068C23.2429 62.3068 20.2214 65.3283 20.2214 69.0555ZM31.6941 85.9271C31.6941 88.5361 33.8092 90.6512 36.4182 90.6512C39.0272 90.6512 41.1423 88.5361 41.1423 85.9271C41.1423 83.3181 39.0272 81.2031 36.4182 81.2031C33.8092 81.2031 31.6941 83.3181 31.6941 85.9271ZM43.1669 72.4298C43.1669 74.2934 44.6776 75.8041 46.5412 75.8041C48.4048 75.8041 49.9155 74.2934 49.9155 72.4298C49.9155 70.5662 48.4048 69.0555 46.5412 69.0555C44.6776 69.0555 43.1669 70.5662 43.1669 72.4298ZM259.124 221.575C259.124 224.93 261.843 227.649 265.198 227.649C268.552 227.649 271.271 224.93 271.271 221.575C271.271 218.221 268.552 215.501 265.198 215.501C261.843 215.501 259.124 218.221 259.124 221.575ZM275.321 231.023C275.321 232.514 276.529 233.723 278.02 233.723C279.511 233.723 280.72 232.514 280.72 231.023C280.72 229.532 279.511 228.324 278.02 228.324C276.529 228.324 275.321 229.532 275.321 231.023ZM260.474 204.704C260.474 206.94 262.287 208.753 264.523 208.753C266.759 208.753 268.572 206.94 268.572 204.704C268.572 202.467 266.759 200.654 264.523 200.654C262.287 200.654 260.474 202.467 260.474 204.704Z" stroke="#89B68D" stroke-width="2.80904"/>
<path d="M233.511 157.457V111.877L237.928 111.877L241.621 111.877V159.229C241.621 160.272 241.385 161.301 240.931 162.241L199.891 247.12C198.779 249.421 200.458 252.091 203.017 252.091H308.99C311.549 252.091 313.229 249.421 312.116 247.12L307.148 236.845C277.345 234.398 265.873 186.82 256.589 111.877L258.174 111.877H264.923L271.671 111.877H278.196V157.529C278.196 158.572 278.432 159.602 278.887 160.541L321.863 249.425C324.087 254.027 320.729 259.368 315.61 259.368H255.854L196.097 259.295C190.978 259.295 187.62 253.955 189.844 249.353L232.82 160.469C233.275 159.53 233.511 158.5 233.511 157.457Z" fill="white"/>
<path d="M68.1962 112.589C39.0354 119.222 10.0096 101.002 3.36517 71.8946C-3.27924 42.7873 14.9739 13.8147 44.1347 7.18244C66.358 2.12805 88.503 11.5074 100.723 29.1397C101.106 29.6926 101.479 30.2536 101.843 30.8225C101.908 30.9245 102.03 30.9748 102.148 30.9479L182.802 12.6043L183.662 16.3724L185.444 24.1769L187.292 32.2753L187.894 34.9101C92.4321 52.4419 43.0684 29.1397 13.2679 46.6884C5.91281 70.4583 19.2549 95.6791 43.0684 103.021C66.8819 110.362 92.149 97.0448 99.5041 73.2749C100.826 69.0016 101.48 64.6814 101.524 60.4267L182.26 42.0642C184.685 41.5382 187.024 41.1815 189.28 40.9836L190.822 47.7399L110.096 66.1C110.021 66.117 109.965 66.1792 109.956 66.2553C107.334 88.3199 91.1417 107.371 68.1962 112.589Z" fill="white"/>
<path d="M182.802 12.6043L182.609 11.7597C182.414 10.904 182.45 10.0497 182.676 9.26182M182.802 12.6043L102.148 30.9479C102.03 30.9748 101.908 30.9245 101.843 30.8225C101.479 30.2536 101.106 29.6926 100.723 29.1397C88.503 11.5074 66.358 2.12805 44.1347 7.18244C14.9739 13.8147 -3.27922 42.7873 3.36517 71.8946C10.0096 101.002 39.0354 119.222 68.1961 112.589C91.1417 107.371 107.334 88.3199 109.957 66.2553C109.965 66.1792 110.021 66.117 110.096 66.1L190.822 47.7399M182.802 12.6043L187.292 32.2753M182.802 12.6043L183.662 16.3724M190.822 47.7399L189.28 40.9836M190.822 47.7399L190.919 48.1622M233.511 111.877H232.664C229.953 111.877 227.756 109.679 227.756 106.967C227.756 105.521 228.38 104.221 229.373 103.323M233.511 111.877V157.457C233.511 158.5 233.275 159.53 232.82 160.469L189.844 249.353C187.62 253.955 190.978 259.295 196.097 259.295L255.854 259.368H315.61C320.729 259.368 324.087 254.027 321.863 249.425L278.887 160.541C278.432 159.602 278.196 158.572 278.196 157.529V111.877M233.511 111.877H241.621M233.511 111.877L237.928 111.877M278.196 111.877H279.043C280.651 111.877 282.079 111.103 282.975 109.907M278.196 111.877L268.375 102.056M278.196 111.877H271.671M187.894 34.9101C92.4321 52.4419 43.0684 29.1397 13.2679 46.6884C5.9128 70.4583 19.2549 95.6791 43.0684 103.021C66.8819 110.362 92.149 97.0448 99.5041 73.2749C100.826 69.0016 101.48 64.6814 101.524 60.4267L182.26 42.0642C184.685 41.5382 187.024 41.1815 189.28 40.9836M187.894 34.9101L189.122 40.29M187.894 34.9101L187.292 32.2753M198.049 33.9625L199.663 41.2376M198.049 33.9625C234.855 32.2753 249.506 66.8395 255.325 102.056M198.049 33.9625L193.433 13.9445M189.28 40.9836L189.122 40.29M199.663 41.2376C225.631 45.0566 238.545 73.0565 240.608 102.056M199.663 41.2376L200.671 45.6544M240.608 102.056H232.664C231.398 102.056 230.244 102.535 229.373 103.323M240.608 102.056H255.325M255.325 102.056H261.85M241.621 111.877V159.229C241.621 160.272 241.385 161.301 240.931 162.241L199.891 247.12C198.779 249.421 200.458 252.091 203.017 252.091H308.99C311.549 252.091 313.229 249.421 312.116 247.12L307.148 236.845C277.345 234.398 265.873 186.82 256.589 111.877M241.621 111.877H256.589M241.621 111.877L237.928 111.877M256.589 111.877H271.671M256.589 111.877L258.174 111.877M268.375 102.056H279.043C281.754 102.056 283.951 104.254 283.951 106.967C283.951 108.069 283.588 109.087 282.975 109.907M268.375 102.056H261.85M261.85 102.056C265.685 105.891 267.836 108.042 271.671 111.877M271.671 111.877L264.923 111.877M255.101 102.056L264.923 111.877M264.923 111.877H258.174M248.352 102.056L258.174 111.877M241.604 102.056L251.425 111.877M234.855 102.056L244.677 111.877M237.928 111.877L229.373 103.323M275.124 102.056L282.975 109.907M199.663 50.8313C198.993 51.5756 198.093 52.1278 197.041 52.367C196.418 52.5087 195.796 52.5284 195.2 52.4419M199.663 50.8313C200.72 49.6581 201.208 48.0074 200.831 46.3521L200.671 45.6544M199.663 50.8313L189.122 40.29M187.292 32.2753L200.671 45.6544M187.292 32.2753L185.444 24.1769M185.444 24.1769L198.823 37.556M185.444 24.1769L183.662 16.3724M183.662 16.3724L197.041 29.7515M195.229 21.8149L182.676 9.26182M190.919 48.1622L195.2 52.4419M190.919 48.1622L191.015 48.5845C191.491 50.6683 193.201 52.1518 195.2 52.4419M193.433 13.9445L192.424 9.52727C191.807 6.82178 189.109 5.12829 186.399 5.74474C186.092 5.81451 185.798 5.91087 185.519 6.03083M193.433 13.9445L185.519 6.03083M185.519 6.03083C184.113 6.63565 183.085 7.84044 182.676 9.26182M20.2214 69.0555C20.2214 72.7827 23.2429 75.8041 26.9701 75.8041C30.6973 75.8041 33.7187 72.7827 33.7187 69.0555C33.7187 65.3283 30.6973 62.3068 26.9701 62.3068C23.2429 62.3068 20.2214 65.3283 20.2214 69.0555ZM31.6941 85.9271C31.6941 88.5361 33.8092 90.6512 36.4182 90.6512C39.0272 90.6512 41.1423 88.5361 41.1423 85.9271C41.1423 83.3181 39.0272 81.2031 36.4182 81.2031C33.8092 81.2031 31.6941 83.3181 31.6941 85.9271ZM43.1669 72.4298C43.1669 74.2934 44.6776 75.8041 46.5412 75.8041C48.4048 75.8041 49.9155 74.2934 49.9155 72.4298C49.9155 70.5662 48.4048 69.0555 46.5412 69.0555C44.6776 69.0555 43.1669 70.5662 43.1669 72.4298ZM259.124 221.575C259.124 224.93 261.843 227.649 265.198 227.649C268.552 227.649 271.271 224.93 271.271 221.575C271.271 218.221 268.552 215.501 265.198 215.501C261.843 215.501 259.124 218.221 259.124 221.575ZM275.321 231.023C275.321 232.514 276.529 233.723 278.02 233.723C279.511 233.723 280.72 232.514 280.72 231.023C280.72 229.532 279.511 228.324 278.02 228.324C276.529 228.324 275.321 229.532 275.321 231.023ZM260.474 204.704C260.474 206.94 262.287 208.753 264.523 208.753C266.759 208.753 268.572 206.94 268.572 204.704C268.572 202.467 266.759 200.654 264.523 200.654C262.287 200.654 260.474 202.467 260.474 204.704Z" stroke="#89B68D" stroke-width="2.80904"/>
<defs>
<linearGradient id="paint0_linear" x1="165.861" y1="74.4396" x2="7.61812" y2="317.422" gradientUnits="userSpaceOnUse">
<stop stop-color="#E7F1E8"/>
<stop offset="1" stop-color="#89B68D"/>
</linearGradient>
<linearGradient id="paint1_linear" x1="165.861" y1="74.4396" x2="7.61812" y2="317.422" gradientUnits="userSpaceOnUse">
<stop stop-color="#E7F1E8"/>
<stop offset="1" stop-color="#89B68D"/>
</linearGradient>
<linearGradient id="paint2_linear" x1="165.861" y1="74.4396" x2="7.61812" y2="317.422" gradientUnits="userSpaceOnUse">
<stop stop-color="#E7F1E8"/>
<stop offset="1" stop-color="#89B68D"/>
</linearGradient>
<linearGradient id="paint3_linear" x1="165.861" y1="74.4396" x2="7.61812" y2="317.422" gradientUnits="userSpaceOnUse">
<stop stop-color="#E7F1E8"/>
<stop offset="1" stop-color="#89B68D"/>
</linearGradient>
<linearGradient id="paint4_linear" x1="165.861" y1="74.4396" x2="7.61812" y2="317.422" gradientUnits="userSpaceOnUse">
<stop stop-color="#E7F1E8"/>
<stop offset="1" stop-color="#89B68D"/>
</linearGradient>
</defs>
</svg>
