<svg width="557" height="378" viewBox="0 0 557 378" fill="none" xmlns="http://www.w3.org/2000/svg">
<path d="M122.913 315.591C122.913 348.954 95.8458 376 62.4566 376C29.0673 376 2 348.954 2 315.591C2 282.229 29.0673 255.183 62.4566 255.183C95.8458 255.183 122.913 282.229 122.913 315.591Z" fill="url(#paint0_linear)"/>
<path d="M260.719 122.817C260.719 156.18 233.651 183.226 200.262 183.226C166.873 183.226 139.805 156.18 139.805 122.817C139.805 89.4544 166.873 62.4086 200.262 62.4086C233.651 62.4086 260.719 89.4544 260.719 122.817Z" fill="url(#paint1_linear)"/>
<path fill-rule="evenodd" clip-rule="evenodd" d="M200.262 243.634C267.041 243.634 321.175 189.543 321.175 122.817C321.175 56.0917 267.041 2 200.262 2C133.484 2 79.3489 56.0917 79.3489 122.817C79.3489 189.543 133.484 243.634 200.262 243.634ZM200.262 213.43C250.346 213.43 290.947 172.861 290.947 122.817C290.947 72.773 250.346 32.2043 200.262 32.2043C150.178 32.2043 109.577 72.773 109.577 122.817C109.577 172.861 150.178 213.43 200.262 213.43ZM260.719 122.817C260.719 156.18 233.651 183.226 200.262 183.226C166.873 183.226 139.805 156.18 139.805 122.817C139.805 89.4544 166.873 62.4086 200.262 62.4086C233.651 62.4086 260.719 89.4544 260.719 122.817Z" fill="url(#paint2_linear)"/>
<path fill-rule="evenodd" clip-rule="evenodd" d="M464.315 327.14C514.399 327.14 555 286.571 555 236.527C555 186.483 514.399 145.914 464.315 145.914C414.231 145.914 373.63 186.483 373.63 236.527C373.63 286.571 414.231 327.14 464.315 327.14ZM464.315 296.936C497.704 296.936 524.772 269.89 524.772 236.527C524.772 203.165 497.704 176.119 464.315 176.119C430.926 176.119 403.859 203.165 403.859 236.527C403.859 269.89 430.926 296.936 464.315 296.936Z" fill="url(#paint3_linear)"/>
<path d="M122.913 315.591C122.913 348.954 95.8458 376 62.4566 376C29.0673 376 2 348.954 2 315.591C2 282.229 29.0673 255.183 62.4566 255.183C95.8458 255.183 122.913 282.229 122.913 315.591Z" stroke="#89B68D" stroke-width="2.6672"/>
<path d="M260.719 122.817C260.719 156.18 233.651 183.226 200.262 183.226C166.873 183.226 139.805 156.18 139.805 122.817C139.805 89.4544 166.873 62.4086 200.262 62.4086C233.651 62.4086 260.719 89.4544 260.719 122.817Z" stroke="#89B68D" stroke-width="2.6672"/>
<path fill-rule="evenodd" clip-rule="evenodd" d="M200.262 243.634C267.041 243.634 321.175 189.543 321.175 122.817C321.175 56.0917 267.041 2 200.262 2C133.484 2 79.3489 56.0917 79.3489 122.817C79.3489 189.543 133.484 243.634 200.262 243.634ZM200.262 213.43C250.346 213.43 290.947 172.861 290.947 122.817C290.947 72.773 250.346 32.2043 200.262 32.2043C150.178 32.2043 109.577 72.773 109.577 122.817C109.577 172.861 150.178 213.43 200.262 213.43ZM260.719 122.817C260.719 156.18 233.651 183.226 200.262 183.226C166.873 183.226 139.805 156.18 139.805 122.817C139.805 89.4544 166.873 62.4086 200.262 62.4086C233.651 62.4086 260.719 89.4544 260.719 122.817Z" stroke="#89B68D" stroke-width="2.6672"/>
<path fill-rule="evenodd" clip-rule="evenodd" d="M464.315 327.14C514.399 327.14 555 286.571 555 236.527C555 186.483 514.399 145.914 464.315 145.914C414.231 145.914 373.63 186.483 373.63 236.527C373.63 286.571 414.231 327.14 464.315 327.14ZM464.315 296.936C497.704 296.936 524.772 269.89 524.772 236.527C524.772 203.165 497.704 176.119 464.315 176.119C430.926 176.119 403.859 203.165 403.859 236.527C403.859 269.89 430.926 296.936 464.315 296.936Z" stroke="#89B68D" stroke-width="2.6672"/>
<rect x="254.581" y="348.379" width="94.9919" height="13.842" rx="6.92099" fill="url(#paint4_linear)" stroke="#89B68D" stroke-width="2.6672"/>
<rect x="249.362" y="334.536" width="94.9919" height="13.842" rx="6.92099" fill="url(#paint5_linear)" stroke="#89B68D" stroke-width="2.6672"/>
<rect x="255.299" y="320.694" width="94.9919" height="13.842" rx="6.92099" fill="url(#paint6_linear)" stroke="#89B68D" stroke-width="2.6672"/>
<rect x="250.351" y="306.853" width="94.9919" height="13.842" rx="6.92099" fill="url(#paint7_linear)" stroke="#89B68D" stroke-width="2.6672"/>
<rect x="247.383" y="293.01" width="94.9919" height="13.842" rx="6.92099" fill="url(#paint8_linear)" stroke="#89B68D" stroke-width="2.6672"/>
<rect x="255.6" y="279.169" width="94.9919" height="13.842" rx="6.92099" fill="url(#paint9_linear)" stroke="#89B68D" stroke-width="2.6672"/>
<path fill-rule="evenodd" clip-rule="evenodd" d="M191.334 234.821C190.736 233.585 190.425 232.229 190.425 230.856V168.526H170.706C158.476 267.176 143.362 329.805 104.099 333.027L97.5545 346.552C96.089 349.581 98.3014 353.096 101.673 353.096H241.281C244.653 353.096 246.865 349.581 245.4 346.552L191.334 234.821ZM159.365 320.922C163.784 320.922 167.367 317.342 167.367 312.926C167.367 308.511 163.784 304.931 159.365 304.931C154.946 304.931 151.363 308.511 151.363 312.926C151.363 317.342 154.946 320.922 159.365 320.922ZM142.473 328.917C144.437 328.917 146.029 327.326 146.029 325.363C146.029 323.401 144.437 321.81 142.473 321.81C140.509 321.81 138.916 323.401 138.916 325.363C138.916 327.326 140.509 328.917 142.473 328.917ZM160.254 296.048C163.2 296.048 165.588 293.661 165.588 290.717C165.588 287.774 163.2 285.387 160.254 285.387C157.308 285.387 154.92 287.774 154.92 290.717C154.92 293.661 157.308 296.048 160.254 296.048Z" fill="#E7F1E8"/>
<path fill-rule="evenodd" clip-rule="evenodd" d="M377.65 117.711C387.339 149.001 420.626 166.531 451.998 156.867C483.37 147.203 500.947 114.003 491.257 82.7139C451.998 59.6136 386.966 90.2874 261.205 67.2094L259.587 74.2912L259.379 75.2043C262.351 75.4648 265.433 75.9344 268.627 76.6267L374.989 100.798C375.047 106.399 375.908 112.086 377.65 117.711ZM473.206 121.04C478.116 121.04 482.096 117.063 482.096 112.157C482.096 107.25 478.116 103.273 473.206 103.273C468.296 103.273 464.315 107.25 464.315 112.157C464.315 117.063 468.296 121.04 473.206 121.04ZM460.759 140.584C464.196 140.584 466.982 137.8 466.982 134.366C466.982 130.931 464.196 128.147 460.759 128.147C457.322 128.147 454.535 130.931 454.535 134.366C454.535 137.8 457.322 140.584 460.759 140.584ZM447.423 121.04C449.878 121.04 451.868 119.052 451.868 116.599C451.868 114.145 449.878 112.157 447.423 112.157C444.968 112.157 442.978 114.145 442.978 116.599C442.978 119.052 444.968 121.04 447.423 121.04Z" fill="#E7F1E8"/>
<path d="M245.7 75.5386L247.827 65.962C199.338 63.7411 180.037 109.24 172.372 155.597H191.759C194.477 117.423 211.49 80.5658 245.7 75.5386Z" fill="#E7F1E8"/>
<path d="M141.125 168.526H142.24L155.179 155.597L146.289 155.597L135.946 165.932C137.125 167.506 139.006 168.526 141.125 168.526Z" fill="#E7F1E8"/>
<path d="M141.125 155.597C137.554 155.597 134.659 158.491 134.659 162.061C134.659 163.513 135.137 164.853 135.946 165.932L146.289 155.597L141.125 155.597Z" fill="#E7F1E8"/>
<path d="M155.179 155.597L142.24 168.526H150.837L163.775 155.597H155.179Z" fill="#E7F1E8"/>
<path d="M172.666 155.597L172.372 155.597H163.775L150.837 168.526H159.727L172.666 155.597Z" fill="#E7F1E8"/>
<path d="M181.557 155.597H172.666L159.727 168.526H168.618L181.557 155.597Z" fill="#E7F1E8"/>
<path d="M190.447 155.597H181.557L168.618 168.526H170.706H177.509L190.447 155.597Z" fill="#E7F1E8"/>
<path d="M199.338 155.597L191.759 155.597L190.447 155.597L177.509 168.526H186.399L199.338 155.597Z" fill="#E7F1E8"/>
<path d="M202.224 155.597L199.338 155.597L186.399 168.526H190.425H195.29L206.56 157.265C205.413 156.228 203.892 155.597 202.224 155.597Z" fill="#E7F1E8"/>
<path d="M201.109 168.526H202.224C205.796 168.526 208.691 165.631 208.691 162.061C208.691 160.158 207.869 158.448 206.56 157.265L195.29 168.526H201.109Z" fill="#E7F1E8"/>
<path d="M257.347 84.098L259.379 75.2043L259.587 74.2912L245.7 88.1673C246.584 89.1471 247.768 89.8739 249.154 90.1889C249.975 90.3754 250.794 90.4013 251.58 90.2874L257.22 84.6539L257.347 84.098Z" fill="#E7F1E8"/>
<path d="M244.162 82.2712C243.664 84.4501 244.308 86.623 245.7 88.1673L259.587 74.2912L261.205 67.2094L261.998 63.7411L244.372 81.3527L244.162 82.2712Z" fill="#E7F1E8"/>
<path d="M267.913 37.8471L268.167 36.7353C268.424 35.609 268.377 34.4843 268.078 33.4472C267.54 31.5762 266.186 29.9903 264.333 29.1941L253.908 39.6114L247.827 65.962L245.7 75.5386L244.372 81.3527L261.998 63.7411L264.433 53.0807L266.78 42.8073L267.913 37.8471Z" fill="#E7F1E8"/>
<path d="M263.175 28.8175C259.604 28.0061 256.05 30.2353 255.236 33.7967L253.908 39.6114L264.333 29.1941C263.966 29.0362 263.579 28.9094 263.175 28.8175Z" fill="#E7F1E8"/>
<path d="M267.913 37.8471L268.167 36.7353C268.424 35.609 268.377 34.4843 268.078 33.4472M267.913 37.8471L374.167 61.9938C374.322 62.0291 374.483 61.963 374.569 61.8287C375.047 61.0798 375.539 60.3414 376.044 59.6136C392.142 36.4033 421.316 24.0567 450.593 30.7101C489.01 39.4404 513.056 77.5786 504.303 115.894C495.55 154.21 457.311 178.193 418.895 169.463C388.666 162.593 367.335 137.515 363.88 108.471C363.868 108.371 363.794 108.289 363.695 108.266L257.347 84.098M267.913 37.8471L261.998 63.7411M267.913 37.8471L266.78 42.8073M257.347 84.098L259.379 75.2043M257.347 84.098L257.22 84.6539M201.109 168.526H202.224C205.796 168.526 208.691 165.631 208.691 162.061C208.691 160.158 207.869 158.448 206.56 157.265M201.109 168.526V228.524C201.109 229.897 201.42 231.253 202.019 232.489L258.635 349.492C261.566 355.549 257.141 362.58 250.398 362.58L171.675 362.675H92.952C86.2085 362.675 81.7837 355.644 84.7147 349.587L141.331 232.584C141.93 231.348 142.24 229.992 142.24 228.619V168.526M201.109 168.526H190.425M201.109 168.526L195.29 168.526M202.224 155.597H191.759M202.224 155.597C203.892 155.597 205.413 156.228 206.56 157.265M202.224 155.597L199.338 155.597M141.125 155.597C137.554 155.597 134.659 158.491 134.659 162.061C134.659 163.513 135.137 164.853 135.946 165.932M141.125 155.597H155.179M141.125 155.597L146.289 155.597M142.24 168.526H141.125C139.006 168.526 137.125 167.506 135.946 165.932M142.24 168.526L155.179 155.597M142.24 168.526H150.837M261.205 67.2094C386.966 90.2874 451.998 59.6136 491.257 82.7139C500.947 114.003 483.37 147.203 451.998 156.867C420.626 166.531 387.339 149.001 377.65 117.711C375.908 112.086 375.047 106.399 374.989 100.798L268.627 76.6267C265.433 75.9344 262.351 75.4648 259.379 75.2043M261.205 67.2094L259.587 74.2912M261.205 67.2094L261.998 63.7411M247.827 65.962L245.7 75.5386M247.827 65.962C199.338 63.7411 180.037 109.24 172.372 155.597M247.827 65.962L253.908 39.6114M259.379 75.2043L259.587 74.2912M245.7 75.5386C211.49 80.5658 194.477 117.423 191.759 155.597M245.7 75.5386L244.372 81.3527M191.759 155.597H172.372M191.759 155.597L199.338 155.597M191.759 155.597L190.447 155.597M172.372 155.597H163.775M172.372 155.597L172.666 155.597M190.425 168.526V230.856C190.425 232.229 190.736 233.585 191.334 234.821L245.4 346.552C246.865 349.581 244.653 353.096 241.281 353.096H101.673C98.3014 353.096 96.089 349.581 97.5544 346.552L104.099 333.027C143.362 329.805 158.476 267.176 170.706 168.526M190.425 168.526H170.706M190.425 168.526L186.399 168.526M190.425 168.526L195.29 168.526M170.706 168.526H150.837M170.706 168.526L168.618 168.526M170.706 168.526L177.509 168.526M155.179 155.597H163.775M155.179 155.597L146.289 155.597M163.775 155.597C158.723 160.646 155.89 163.477 150.837 168.526M163.775 155.597L150.837 168.526M150.837 168.526L159.727 168.526M172.666 155.597L159.727 168.526M172.666 155.597H181.557M159.727 168.526H168.618M181.557 155.597L168.618 168.526M181.557 155.597H190.447M190.447 155.597L177.509 168.526M177.509 168.526H186.399M199.338 155.597L186.399 168.526M195.29 168.526L206.56 157.265M146.289 155.597L135.946 165.932M245.7 88.1673C246.584 89.1471 247.768 89.8739 249.154 90.1889C249.975 90.3754 250.794 90.4013 251.58 90.2874M245.7 88.1673C244.308 86.623 243.664 84.4501 244.162 82.2712L244.372 81.3527M245.7 88.1673L259.587 74.2912M261.998 63.7411L244.372 81.3527M261.998 63.7411L264.433 53.0807M264.433 53.0807L246.807 70.6923M264.433 53.0807L266.78 42.8073M266.78 42.8073L249.154 60.4188M251.541 49.9715L268.078 33.4472M257.22 84.6539L251.58 90.2874M257.22 84.6539L257.093 85.2098C256.466 87.9528 254.214 89.9056 251.58 90.2874M253.908 39.6114L255.236 33.7967C256.05 30.2353 259.604 28.0061 263.175 28.8175C263.579 28.9094 263.966 29.0362 264.333 29.1941M253.908 39.6114L264.333 29.1941M264.333 29.1941C266.186 29.9903 267.54 31.5762 268.078 33.4472M482.096 112.157C482.096 117.063 478.116 121.04 473.206 121.04C468.296 121.04 464.315 117.063 464.315 112.157C464.315 107.25 468.296 103.273 473.206 103.273C478.116 103.273 482.096 107.25 482.096 112.157ZM466.982 134.366C466.982 137.8 464.196 140.584 460.759 140.584C457.322 140.584 454.535 137.8 454.535 134.366C454.535 130.931 457.322 128.147 460.759 128.147C464.196 128.147 466.982 130.931 466.982 134.366ZM451.868 116.599C451.868 119.052 449.878 121.04 447.423 121.04C444.968 121.04 442.978 119.052 442.978 116.599C442.978 114.145 444.968 112.157 447.423 112.157C449.878 112.157 451.868 114.145 451.868 116.599ZM167.367 312.926C167.367 317.342 163.784 320.922 159.365 320.922C154.946 320.922 151.363 317.342 151.363 312.926C151.363 308.511 154.946 304.931 159.365 304.931C163.784 304.931 167.367 308.511 167.367 312.926ZM146.029 325.363C146.029 327.326 144.437 328.917 142.473 328.917C140.509 328.917 138.916 327.326 138.916 325.363C138.916 323.401 140.509 321.81 142.473 321.81C144.437 321.81 146.029 323.401 146.029 325.363ZM165.588 290.717C165.588 293.661 163.2 296.048 160.254 296.048C157.308 296.048 154.92 293.661 154.92 290.717C154.92 287.774 157.308 285.387 160.254 285.387C163.2 285.387 165.588 287.774 165.588 290.717Z" stroke="#89B68D" stroke-width="2.6672"/>
<path d="M201.109 228.524V168.526H195.29H190.425V230.856C190.425 232.229 190.736 233.585 191.334 234.821L245.4 346.552C246.865 349.581 244.653 353.096 241.281 353.096H101.673C98.3014 353.096 96.089 349.581 97.5545 346.552L104.099 333.027C143.362 329.805 158.476 267.176 170.706 168.526H168.618H159.727H150.837H142.24V228.619C142.24 229.992 141.93 231.348 141.331 232.584L84.7147 349.587C81.7837 355.644 86.2085 362.675 92.952 362.675H171.675L250.398 362.58C257.141 362.58 261.566 355.549 258.635 349.492L202.019 232.489C201.42 231.253 201.109 229.897 201.109 228.524Z" fill="white"/>
<path d="M418.895 169.463C457.311 178.193 495.55 154.21 504.303 115.894C513.056 77.5786 489.01 39.4404 450.593 30.7101C421.316 24.0567 392.142 36.4033 376.044 59.6136C375.539 60.3414 375.047 61.0798 374.569 61.8287C374.483 61.963 374.322 62.0291 374.167 61.9938L267.913 37.8471L266.78 42.8073L264.433 53.0807L261.998 63.7411L261.205 67.2094C386.966 90.2874 451.998 59.6136 491.257 82.7139C500.947 114.003 483.37 147.203 451.998 156.867C420.626 166.531 387.339 149.001 377.65 117.711C375.908 112.086 375.047 106.399 374.989 100.798L268.627 76.6267C265.433 75.9344 262.351 75.4648 259.379 75.2043L257.347 84.098L363.695 108.266C363.794 108.289 363.868 108.371 363.88 108.471C367.335 137.515 388.666 162.593 418.895 169.463Z" fill="white"/>
<path d="M267.913 37.8471L268.167 36.7353C268.424 35.609 268.377 34.4843 268.078 33.4472M267.913 37.8471L374.167 61.9938C374.322 62.0291 374.483 61.963 374.569 61.8287C375.047 61.0798 375.539 60.3414 376.044 59.6136C392.142 36.4033 421.316 24.0567 450.593 30.7101C489.01 39.4404 513.056 77.5786 504.303 115.894C495.55 154.21 457.311 178.193 418.895 169.463C388.666 162.593 367.335 137.515 363.88 108.471C363.868 108.371 363.794 108.289 363.695 108.266L257.347 84.098M267.913 37.8471L261.998 63.7411M267.913 37.8471L266.78 42.8073M257.347 84.098L259.379 75.2043M257.347 84.098L257.22 84.6539M201.109 168.526H202.224C205.796 168.526 208.691 165.631 208.691 162.061C208.691 160.158 207.869 158.448 206.56 157.265M201.109 168.526V228.524C201.109 229.897 201.42 231.253 202.019 232.489L258.635 349.492C261.566 355.549 257.141 362.58 250.398 362.58L171.675 362.675H92.952C86.2085 362.675 81.7837 355.644 84.7147 349.587L141.331 232.584C141.93 231.348 142.24 229.992 142.24 228.619V168.526M201.109 168.526H190.425M201.109 168.526L195.29 168.526M142.24 168.526H141.125C139.006 168.526 137.125 167.506 135.946 165.932M142.24 168.526L155.179 155.597M142.24 168.526H150.837M261.205 67.2094C386.966 90.2874 451.998 59.6136 491.257 82.7139C500.947 114.003 483.37 147.203 451.998 156.867C420.626 166.531 387.339 149.001 377.65 117.711C375.908 112.086 375.047 106.399 374.989 100.798L268.627 76.6267C265.433 75.9344 262.351 75.4648 259.379 75.2043M261.205 67.2094L259.587 74.2912M261.205 67.2094L261.998 63.7411M247.827 65.962L245.7 75.5386M247.827 65.962C199.338 63.7411 180.037 109.24 172.372 155.597M247.827 65.962L253.908 39.6114M259.379 75.2043L259.587 74.2912M245.7 75.5386C211.49 80.5658 194.477 117.423 191.759 155.597M245.7 75.5386L244.372 81.3527M191.759 155.597H202.224C203.892 155.597 205.413 156.228 206.56 157.265M191.759 155.597H172.372M172.372 155.597H163.775M190.425 168.526V230.856C190.425 232.229 190.736 233.585 191.334 234.821L245.4 346.552C246.865 349.581 244.653 353.096 241.281 353.096H101.673C98.3014 353.096 96.089 349.581 97.5544 346.552L104.099 333.027C143.362 329.805 158.476 267.176 170.706 168.526M190.425 168.526H170.706M190.425 168.526L195.29 168.526M170.706 168.526H150.837M170.706 168.526L168.618 168.526M155.179 155.597H141.125C137.554 155.597 134.659 158.491 134.659 162.061C134.659 163.513 135.137 164.853 135.946 165.932M155.179 155.597H163.775M163.775 155.597C158.723 160.646 155.89 163.477 150.837 168.526M150.837 168.526L159.727 168.526M172.666 155.597L159.727 168.526M159.727 168.526H168.618M181.557 155.597L168.618 168.526M190.447 155.597L177.509 168.526M199.338 155.597L186.399 168.526M195.29 168.526L206.56 157.265M146.289 155.597L135.946 165.932M245.7 88.1673C246.584 89.1471 247.768 89.8739 249.154 90.1889C249.975 90.3754 250.794 90.4013 251.58 90.2874M245.7 88.1673C244.308 86.623 243.664 84.4501 244.162 82.2712L244.372 81.3527M245.7 88.1673L259.587 74.2912M261.998 63.7411L244.372 81.3527M261.998 63.7411L264.433 53.0807M264.433 53.0807L246.807 70.6923M264.433 53.0807L266.78 42.8073M266.78 42.8073L249.154 60.4188M251.541 49.9715L268.078 33.4472M257.22 84.6539L251.58 90.2874M257.22 84.6539L257.093 85.2098C256.466 87.9528 254.214 89.9056 251.58 90.2874M253.908 39.6114L255.236 33.7967C256.05 30.2353 259.604 28.0061 263.175 28.8175C263.579 28.9094 263.966 29.0362 264.333 29.1941M253.908 39.6114L264.333 29.1941M264.333 29.1941C266.186 29.9903 267.54 31.5762 268.078 33.4472M482.096 112.157C482.096 117.063 478.116 121.04 473.206 121.04C468.296 121.04 464.315 117.063 464.315 112.157C464.315 107.25 468.296 103.273 473.206 103.273C478.116 103.273 482.096 107.25 482.096 112.157ZM466.982 134.366C466.982 137.8 464.196 140.584 460.759 140.584C457.322 140.584 454.535 137.8 454.535 134.366C454.535 130.931 457.322 128.147 460.759 128.147C464.196 128.147 466.982 130.931 466.982 134.366ZM451.868 116.599C451.868 119.052 449.878 121.04 447.423 121.04C444.968 121.04 442.978 119.052 442.978 116.599C442.978 114.145 444.968 112.157 447.423 112.157C449.878 112.157 451.868 114.145 451.868 116.599ZM167.367 312.926C167.367 317.342 163.784 320.922 159.365 320.922C154.946 320.922 151.363 317.342 151.363 312.926C151.363 308.511 154.946 304.931 159.365 304.931C163.784 304.931 167.367 308.511 167.367 312.926ZM146.029 325.363C146.029 327.326 144.437 328.917 142.473 328.917C140.509 328.917 138.916 327.326 138.916 325.363C138.916 323.401 140.509 321.81 142.473 321.81C144.437 321.81 146.029 323.401 146.029 325.363ZM165.588 290.717C165.588 293.661 163.2 296.048 160.254 296.048C157.308 296.048 154.92 293.661 154.92 290.717C154.92 287.774 157.308 285.387 160.254 285.387C163.2 285.387 165.588 287.774 165.588 290.717Z" stroke="#89B68D" stroke-width="2.6672"/>
<rect x="316.745" y="348.152" width="94.9919" height="13.842" rx="6.92099" fill="url(#paint10_linear)" stroke="#89B68D" stroke-width="2.6672"/>
<rect x="326.64" y="334.31" width="94.9919" height="13.842" rx="6.92099" fill="url(#paint11_linear)" stroke="#89B68D" stroke-width="2.6672"/>
<rect x="307.839" y="320.468" width="94.9919" height="13.842" rx="6.92099" fill="url(#paint12_linear)" stroke="#89B68D" stroke-width="2.6672"/>
<rect x="317.734" y="306.626" width="94.9919" height="13.842" rx="6.92099" fill="url(#paint13_linear)" stroke="#89B68D" stroke-width="2.6672"/>
<rect x="323.671" y="292.784" width="94.9919" height="13.842" rx="6.92099" fill="url(#paint14_linear)" stroke="#89B68D" stroke-width="2.6672"/>
<rect x="318.724" y="278.942" width="94.9919" height="13.842" rx="6.92099" fill="url(#paint15_linear)" stroke="#89B68D" stroke-width="2.6672"/>
<rect x="315.755" y="265.1" width="94.9919" height="13.842" rx="6.92099" fill="url(#paint16_linear)" stroke="#89B68D" stroke-width="2.6672"/>
<rect x="326.64" y="251.258" width="94.9919" height="13.842" rx="6.92099" fill="url(#paint17_linear)" stroke="#89B68D" stroke-width="2.6672"/>
<rect x="318.724" y="237.416" width="94.9919" height="13.842" rx="6.92099" fill="url(#paint18_linear)" stroke="#89B68D" stroke-width="2.6672"/>
<ellipse cx="438.526" cy="314.609" rx="47.5692" ry="47.5314" fill="#E7F1E8" stroke="#89B68D" stroke-width="2.6672"/>
<ellipse cx="438.526" cy="314.608" rx="37.4481" ry="37.4183" fill="white" stroke="#89B68D" stroke-width="2.6672"/>
<path d="M449.659 304.92C449.659 299.568 444.675 295.231 438.526 295.231M438.526 295.231C437.009 295.231 435.562 295.495 434.244 295.973C430.221 297.433 427.393 300.889 427.393 304.92C427.393 310.271 432.377 314.608 438.526 314.608C444.675 314.608 449.659 318.946 449.659 324.297C449.659 329.649 444.675 333.986 438.526 333.986M438.526 295.231V287.303M438.526 333.986C432.377 333.986 427.393 329.649 427.393 324.297M438.526 333.986V341.914" stroke="#89B68D" stroke-width="2.6672" stroke-linecap="round"/>
<defs>
<linearGradient id="paint0_linear" x1="278.5" y1="2" x2="345.52" y2="472.402" gradientUnits="userSpaceOnUse">
<stop stop-color="white"/>
<stop offset="1" stop-color="#89B68D"/>
</linearGradient>
<linearGradient id="paint1_linear" x1="278.5" y1="2" x2="345.52" y2="472.402" gradientUnits="userSpaceOnUse">
<stop stop-color="white"/>
<stop offset="1" stop-color="#89B68D"/>
</linearGradient>
<linearGradient id="paint2_linear" x1="278.5" y1="2" x2="345.52" y2="472.402" gradientUnits="userSpaceOnUse">
<stop stop-color="white"/>
<stop offset="1" stop-color="#89B68D"/>
</linearGradient>
<linearGradient id="paint3_linear" x1="278.5" y1="2" x2="345.52" y2="472.402" gradientUnits="userSpaceOnUse">
<stop stop-color="white"/>
<stop offset="1" stop-color="#89B68D"/>
</linearGradient>
<linearGradient id="paint4_linear" x1="243.202" y1="357.771" x2="372.826" y2="355.296" gradientUnits="userSpaceOnUse">
<stop offset="0.0625" stop-color="#E7F1E8"/>
<stop offset="0.348958" stop-color="white"/>
<stop offset="0.791667" stop-color="#89B68D"/>
</linearGradient>
<linearGradient id="paint5_linear" x1="237.982" y1="343.929" x2="367.607" y2="341.454" gradientUnits="userSpaceOnUse">
<stop offset="0.0625" stop-color="#E7F1E8"/>
<stop offset="0.348958" stop-color="white"/>
<stop offset="0.791667" stop-color="#89B68D"/>
</linearGradient>
<linearGradient id="paint6_linear" x1="243.919" y1="330.087" x2="373.544" y2="327.611" gradientUnits="userSpaceOnUse">
<stop offset="0.0625" stop-color="#E7F1E8"/>
<stop offset="0.348958" stop-color="white"/>
<stop offset="0.791667" stop-color="#89B68D"/>
</linearGradient>
<linearGradient id="paint7_linear" x1="238.972" y1="316.245" x2="368.596" y2="313.77" gradientUnits="userSpaceOnUse">
<stop offset="0.0625" stop-color="#E7F1E8"/>
<stop offset="0.348958" stop-color="white"/>
<stop offset="0.791667" stop-color="#89B68D"/>
</linearGradient>
<linearGradient id="paint8_linear" x1="236.003" y1="302.403" x2="365.628" y2="299.928" gradientUnits="userSpaceOnUse">
<stop offset="0.0625" stop-color="#E7F1E8"/>
<stop offset="0.348958" stop-color="white"/>
<stop offset="0.791667" stop-color="#89B68D"/>
</linearGradient>
<linearGradient id="paint9_linear" x1="244.221" y1="288.561" x2="373.845" y2="286.086" gradientUnits="userSpaceOnUse">
<stop offset="0.0625" stop-color="#E7F1E8"/>
<stop offset="0.348958" stop-color="white"/>
<stop offset="0.791667" stop-color="#89B68D"/>
</linearGradient>
<linearGradient id="paint10_linear" x1="305.365" y1="357.545" x2="434.99" y2="355.069" gradientUnits="userSpaceOnUse">
<stop stop-color="#E7F1E8"/>
<stop offset="0.46875" stop-color="white"/>
<stop offset="1" stop-color="#89B68D"/>
</linearGradient>
<linearGradient id="paint11_linear" x1="315.26" y1="343.702" x2="444.885" y2="341.227" gradientUnits="userSpaceOnUse">
<stop stop-color="#E7F1E8"/>
<stop offset="0.46875" stop-color="white"/>
<stop offset="1" stop-color="#89B68D"/>
</linearGradient>
<linearGradient id="paint12_linear" x1="296.46" y1="329.86" x2="426.084" y2="327.385" gradientUnits="userSpaceOnUse">
<stop stop-color="#E7F1E8"/>
<stop offset="0.46875" stop-color="white"/>
<stop offset="1" stop-color="#89B68D"/>
</linearGradient>
<linearGradient id="paint13_linear" x1="306.355" y1="316.018" x2="435.979" y2="313.543" gradientUnits="userSpaceOnUse">
<stop stop-color="#E7F1E8"/>
<stop offset="0.46875" stop-color="white"/>
<stop offset="1" stop-color="#89B68D"/>
</linearGradient>
<linearGradient id="paint14_linear" x1="312.292" y1="302.176" x2="441.916" y2="299.701" gradientUnits="userSpaceOnUse">
<stop stop-color="#E7F1E8"/>
<stop offset="0.46875" stop-color="white"/>
<stop offset="1" stop-color="#89B68D"/>
</linearGradient>
<linearGradient id="paint15_linear" x1="307.344" y1="288.334" x2="436.969" y2="285.859" gradientUnits="userSpaceOnUse">
<stop stop-color="#E7F1E8"/>
<stop offset="0.46875" stop-color="white"/>
<stop offset="1" stop-color="#89B68D"/>
</linearGradient>
<linearGradient id="paint16_linear" x1="304.376" y1="274.492" x2="434" y2="272.017" gradientUnits="userSpaceOnUse">
<stop stop-color="#E7F1E8"/>
<stop offset="0.46875" stop-color="white"/>
<stop offset="1" stop-color="#89B68D"/>
</linearGradient>
<linearGradient id="paint17_linear" x1="315.26" y1="260.651" x2="444.885" y2="258.175" gradientUnits="userSpaceOnUse">
<stop stop-color="#E7F1E8"/>
<stop offset="0.46875" stop-color="white"/>
<stop offset="1" stop-color="#89B68D"/>
</linearGradient>
<linearGradient id="paint18_linear" x1="307.344" y1="246.808" x2="436.969" y2="244.333" gradientUnits="userSpaceOnUse">
<stop stop-color="#E7F1E8"/>
<stop offset="0.46875" stop-color="white"/>
<stop offset="1" stop-color="#89B68D"/>
</linearGradient>
</defs>
</svg>
