<svg width="556" height="300" viewBox="0 0 556 300" fill="none" xmlns="http://www.w3.org/2000/svg">
<path d="M152.068 216.062C154.23 235.21 144.69 245.598 134.116 253.263C126.762 258.594 118.909 262.607 114.146 267.333C114.226 240.246 129.905 223.554 152.068 216.062Z" fill="url(#paint0_linear)"/>
<path d="M99.2864 236.123C76.2813 241.113 62.3568 261.58 69.3853 282.465C81.7476 261.67 101.888 265.745 99.2864 236.123Z" fill="url(#paint1_linear)"/>
<path d="M99.7876 173.92C111.465 147.185 110.919 137.947 86.9736 110.367C83.9987 137.482 81.9466 146.35 99.7876 173.92Z" fill="url(#paint2_linear)"/>
<path d="M17.3565 148.144C36.1327 175.027 51.7559 176.866 80.7098 158.057C46.6047 157.245 52.0012 143.078 17.3565 148.144Z" fill="url(#paint3_linear)"/>
<path d="M60.701 137.288C60.7774 111.627 44.4795 93.4011 12.6467 92.2949C34.0202 106.906 32.6231 138.71 60.701 137.288Z" fill="url(#paint4_linear)"/>
<path d="M117.764 227.335C107.816 200.98 88.4015 210.828 66.2688 211.361C84.8691 236.777 99.1135 229.882 117.764 227.335Z" fill="url(#paint5_linear)"/>
<path fill-rule="evenodd" clip-rule="evenodd" d="M234.759 168.855C240.939 179.541 246.443 189.058 236.353 202.217C219.133 188.442 198.765 162.719 226.078 140.046C224.884 151.782 230.02 160.662 234.759 168.855ZM176.307 88.5129C194.583 122.685 189.486 133.428 176.657 152.835C167.429 128.97 167.919 120.491 170.573 111.226C170.973 109.829 171.423 108.415 171.895 106.927C173.411 102.153 175.167 96.6253 176.307 88.5129ZM168.328 168.738C175.671 171.681 184.079 175.05 195.761 176.549C168.523 192.864 157.899 186.303 143.649 177.503C139.147 174.723 134.284 171.719 128.42 169.143C146.136 159.846 155.644 163.656 168.328 168.738Z" fill="url(#paint6_linear)"/>
<path d="M176.657 152.835C142.3 137.038 163.05 118.155 145.938 81.6897C160.634 88.9872 167.014 98.0914 170.573 111.226C167.919 120.491 167.429 128.97 176.657 152.835Z" fill="url(#paint7_linear)"/>
<path d="M152.068 216.062C168.492 240.415 146.869 254.238 138.443 271.936C136.575 266.385 134.523 258.434 134.116 253.263C144.69 245.598 154.23 235.21 152.068 216.062Z" fill="url(#paint8_linear)"/>
<path d="M60.701 137.288C60.7774 111.627 44.4795 93.4011 12.6467 92.2949C34.0202 106.906 32.6231 138.71 60.701 137.288ZM60.701 137.288C67.5155 145.073 74.1693 151.959 80.7098 158.057M203.942 207.686C237.411 210.614 275.637 216.41 323.643 223.808C370.328 231.002 447.294 248.372 505.89 282.433M203.942 207.686C166.263 204.39 133.99 198.934 99.7876 173.92M203.942 207.686C183.683 209.861 167.048 212.436 152.068 216.062M99.7876 173.92C111.465 147.185 110.919 137.947 86.9736 110.367C83.9987 137.482 81.9466 146.35 99.7876 173.92ZM99.7876 173.92C93.5085 169.327 87.1644 164.076 80.7098 158.057M80.7098 158.057C51.7559 176.866 36.1327 175.027 17.3565 148.144C52.0012 143.078 46.6047 157.245 80.7098 158.057ZM117.764 227.335C107.816 200.98 88.4015 210.828 66.2688 211.361C84.8691 236.777 99.1135 229.882 117.764 227.335ZM117.764 227.335C126.619 223.579 135.498 220.495 144.943 217.901C147.28 217.258 149.653 216.647 152.068 216.062M117.764 227.335C111.254 230.095 105.989 232.567 99.2864 236.123M152.068 216.062C168.492 240.415 146.869 254.238 138.443 271.936C136.575 266.385 134.523 258.434 134.116 253.263M152.068 216.062C129.905 223.554 114.226 240.246 114.146 267.333C118.909 262.607 126.762 258.594 134.116 253.263M152.068 216.062C154.23 235.21 144.69 245.598 134.116 253.263M99.2864 236.123C76.2813 241.113 62.3568 261.58 69.3853 282.465C81.7476 261.67 101.888 265.745 99.2864 236.123ZM259.452 214.225C248.679 208.969 244.19 206.298 236.353 202.217M236.353 202.217C219.133 188.442 198.765 162.719 226.078 140.046C224.884 151.782 230.02 160.662 234.759 168.855C240.939 179.541 246.443 189.058 236.353 202.217ZM236.353 202.217C219.695 193.544 206.26 185.615 195.761 176.549M195.761 176.549C187.71 169.596 181.386 161.974 176.657 152.835M195.761 176.549C184.079 175.05 175.671 171.681 168.328 168.738C155.644 163.656 146.136 159.846 128.42 169.143C134.284 171.719 139.147 174.723 143.649 177.503C157.899 186.303 168.523 192.864 195.761 176.549ZM176.657 152.835C189.486 133.428 194.583 122.685 176.307 88.5129C175.167 96.6253 173.411 102.153 171.895 106.927C171.423 108.415 170.973 109.829 170.573 111.226M176.657 152.835C142.3 137.038 163.05 118.155 145.938 81.6897C160.634 88.9872 167.014 98.0914 170.573 111.226M176.657 152.835C167.429 128.97 167.919 120.491 170.573 111.226" stroke="#89B68D" stroke-width="2.69966" stroke-linecap="round"/>
<path d="M285.853 32.5778C278.328 38.7157 273.572 39.024 265.167 38.3815C268.129 43.4859 270.502 46.4949 281.094 52.9441C281.278 53.0557 281.507 53.099 281.719 53.064C297.254 50.4926 299.173 50.8166 292.496 53.9973L289.573 55.455C289.136 55.6729 288.946 56.2046 289.198 56.6223C290.286 58.4224 291.918 59.2642 295.412 60.2291C295.547 60.2665 295.694 60.2707 295.832 60.2427C309.533 57.4548 317.199 57.0381 326.016 59.5638C326.971 59.8374 326.764 61.1408 325.771 61.1695C313.163 61.5339 306.454 62.6028 301.71 66.3408C301.117 66.8076 301.417 67.714 302.164 67.8154C313.086 69.2987 319.348 71.7525 328.411 81.3818C328.556 81.536 328.757 81.6384 328.967 81.6637C346.528 83.7772 356.691 86.001 371.962 97.4715C372.687 98.0163 372.227 99.149 371.327 99.0364C358.785 97.4675 351.16 95.732 340.973 91.891C340.105 91.5638 339.368 92.5913 339.978 93.2898C352.308 107.39 365.333 113.822 387 122.724C387.965 123.121 387.602 124.537 386.568 124.403C359.463 120.901 364.227 116.975 351.516 116.924C350.854 116.922 350.437 117.618 350.825 118.155C354.591 123.363 363.276 123.388 369.225 138.863C369.347 139.179 369.638 139.413 369.973 139.453C385.412 141.294 397.978 146.297 425.251 161.431C426.012 161.853 425.811 162.575 424.981 162.314C415.879 159.448 391.583 144.719 375.372 147.016C374.602 147.126 374.409 148.101 375.029 148.57C382.904 154.523 387.539 162.133 395.22 176.319C395.351 176.561 395.592 176.734 395.863 176.782C418.785 180.828 430.987 186.155 455.808 197.953C458.541 199.252 460.281 201.977 457.829 201.693C457.715 201.68 457.601 201.637 457.502 201.578C439.085 190.523 425.819 189.52 403.371 185.848C402.531 185.71 401.984 186.707 402.555 187.338C406.045 191.19 408.429 193.904 410.428 198.914C410.556 199.233 410.87 199.459 411.212 199.49C448.852 202.846 438.394 207.81 464.325 215.104C469.295 216.294 473.152 219.262 470.444 219.542C467.736 219.823 408.494 200.148 415.036 206.872C419.868 211.838 420.737 215.862 420.862 217.626C420.898 218.148 421.295 218.622 421.816 218.665C431.675 219.491 456.116 223.474 469.333 227.987C470.317 228.322 469.962 229.331 468.941 229.138C444.653 224.545 449.62 230.539 422.857 223.821C422.023 223.612 421.396 224.589 421.934 225.259C450.139 260.402 473.912 259.56 514.729 260.459C514.883 260.462 515.041 260.508 515.174 260.587C526.247 267.188 530.035 270.681 534.365 276.247C534.658 276.624 535.195 276.712 535.59 276.442L540.2 273.289L541.554 272.364C542.063 272.016 542.077 271.269 541.584 270.899L541.171 270.591C534.689 265.743 530.645 262.718 526.664 254.632C520.134 241.483 535.001 216.951 508.697 186.916C493.948 167.839 498.576 160.606 495.772 145.457C495.71 145.125 495.462 144.834 495.125 144.822C491.541 144.698 489.424 153.965 484.522 161.168C473.665 175.14 475.201 177.583 474.642 185.709C474.241 191.535 473.203 195.742 470.271 199.247C469.774 199.84 468.869 199.482 468.857 198.709C468.541 178.118 476.621 159.79 485.475 130.667C485.541 130.45 485.52 130.204 485.421 130.001C461.507 80.6411 443.147 90.4271 423.527 77.5505C423.139 77.2961 422.614 77.3602 422.325 77.7236C414.973 86.9677 408.341 103.549 404.819 121.642C404.805 121.713 404.782 121.785 404.749 121.85C403.889 123.549 402.595 122.095 403.092 119.747C407.932 96.8598 413.516 86.6448 414.274 73.8984C414.289 73.6481 414.19 73.3957 414.016 73.2157C395.493 54.0492 399.424 45.076 395.004 43.6237C394.652 43.5081 394.278 43.6948 394.091 44.0149C385.352 58.9604 381.233 69.4844 374.426 88.9648C374.387 89.0762 374.327 89.1818 374.24 89.262C373.947 89.533 373.254 90.0336 373.37 88.5627C373.515 86.717 385.634 55.319 385.723 37.7601C385.724 37.5661 385.659 37.3812 385.542 37.2266C382.388 33.0527 380.531 31.5304 377.845 31.4407C377.388 31.4254 377.024 31.8043 376.998 32.2614C376.353 43.7949 375.32 51.136 372.136 58.8564C371.724 59.8542 370.455 59.3569 370.716 58.3095C372.94 49.3732 373.532 41.9706 372.653 30.0686C372.637 29.8538 372.544 29.6472 372.39 29.4966C370.196 27.3475 368.952 26.7715 367.39 26.3973C366.808 26.2581 366.272 26.7523 366.318 27.349C367.722 45.3375 366.871 55.4309 362.725 67.3357C362.379 68.3294 361.076 67.9844 361.229 66.9433C363.707 50.0325 365.498 42.1313 359.146 27.7412C358.96 27.3194 358.479 27.1097 358.027 27.1989C354.463 27.9022 349.425 26.0018 342.472 26.1772C341.799 26.1941 341.419 26.9446 341.761 27.5243C352.196 45.2113 352.578 52.1323 350.53 59.8119C350.27 60.7846 348.818 60.5882 348.726 59.586C347.057 41.3405 340.808 43.8253 333.96 26.5254C333.824 26.1837 333.492 25.9419 333.124 25.9425C327.702 25.9515 324.289 26.9755 318.495 29.3067C318.218 29.418 318.009 29.6608 317.967 29.9562C317.204 35.3744 323.383 40.2578 321.298 46.4329C321.084 47.0664 320.263 47.1302 319.874 46.5867C315.265 40.134 312.872 36.0388 311.357 29.6213C311.212 29.0036 310.498 28.7125 309.933 29.0016C308.3 29.8378 307.203 29.7658 305.739 29.366C305.35 29.2599 304.929 29.4091 304.738 29.7647C301.923 35.0087 308.701 36.3654 310.846 42.6455C311.098 43.3828 310.286 43.9296 309.642 43.4919C305.784 40.8682 303.343 38.5249 300.867 30.9394C300.745 30.5671 300.398 30.3078 300.006 30.3128C296.714 30.3545 294.971 30.7939 292.709 31.8071C292.287 31.9963 292.086 32.4839 292.258 32.9137C293.21 35.2932 294.413 37.0109 296.026 38.6452C296.767 39.3958 296.026 40.5558 295.134 39.9928C292.372 38.2492 290.022 36.113 287.137 32.696C286.814 32.3136 286.241 32.2613 285.853 32.5778Z" fill="url(#paint9_linear)"/>
<path d="M265.167 38.3815C273.572 39.024 278.328 38.7157 285.853 32.5778C286.241 32.2613 286.814 32.3136 287.137 32.696C290.022 36.1129 292.372 38.2492 295.134 39.9928C296.026 40.5558 296.767 39.3958 296.026 38.6452C294.413 37.0109 293.21 35.2932 292.258 32.9137C292.086 32.4839 292.287 31.9963 292.709 31.8071C294.971 30.7939 296.714 30.3545 300.007 30.3128C300.398 30.3078 300.745 30.5671 300.867 30.9394C303.343 38.5249 305.784 40.8682 309.642 43.4919C310.286 43.9296 311.098 43.3828 310.846 42.6455C308.701 36.3654 301.923 35.0087 304.738 29.7647C304.929 29.4091 305.35 29.2599 305.739 29.366C307.203 29.7658 308.3 29.8378 309.933 29.0016C310.498 28.7125 311.211 29.0036 311.357 29.6213C312.872 36.0388 315.265 40.134 319.874 46.5867C320.263 47.1302 321.084 47.0664 321.298 46.4329C323.383 40.2578 317.204 35.3744 317.967 29.9562C318.009 29.6608 318.218 29.418 318.495 29.3067C324.289 26.9755 327.702 25.9515 333.124 25.9425C333.492 25.9419 333.824 26.1837 333.96 26.5254C340.808 43.8253 347.057 41.3405 348.726 59.586C348.818 60.5882 350.27 60.7846 350.53 59.8119C352.578 52.1324 352.196 45.2113 341.761 27.5243C341.419 26.9446 341.799 26.1941 342.472 26.1772C349.425 26.0018 354.463 27.9022 358.027 27.1989C358.479 27.1097 358.96 27.3194 359.146 27.7412C365.498 42.1313 363.707 50.0325 361.229 66.9433C361.076 67.9844 362.379 68.3294 362.725 67.3357C366.871 55.4309 367.722 45.3375 366.318 27.349C366.272 26.7522 366.808 26.2581 367.39 26.3973C368.952 26.7715 370.196 27.3475 372.39 29.4966C372.544 29.6472 372.637 29.8538 372.653 30.0686C373.532 41.9706 372.94 49.3732 370.716 58.3095C370.455 59.3569 371.724 59.8542 372.136 58.8564C375.32 51.136 376.353 43.7949 376.998 32.2614C377.024 31.8043 377.388 31.4254 377.845 31.4406C380.531 31.5304 382.388 33.0527 385.542 37.2266C385.659 37.3812 385.724 37.5661 385.723 37.7601C385.634 55.319 373.515 86.717 373.37 88.5627C373.254 90.0336 373.947 89.533 374.24 89.262C374.327 89.1818 374.387 89.0762 374.426 88.9647C381.233 69.4844 385.352 58.9604 394.091 44.0149C394.278 43.6948 394.652 43.5081 395.004 43.6237C399.424 45.076 395.493 54.0492 414.016 73.2156C414.19 73.3957 414.289 73.6481 414.274 73.8984C413.516 86.6448 407.932 96.8598 403.092 119.747C402.595 122.095 403.889 123.549 404.749 121.85C404.782 121.785 404.805 121.713 404.819 121.642C408.341 103.549 414.973 86.9677 422.325 77.7236C422.614 77.3602 423.139 77.2961 423.527 77.5505C443.147 90.4271 461.507 80.6411 485.421 130.001C485.52 130.204 485.541 130.45 485.475 130.667C476.621 159.79 468.541 178.118 468.857 198.709C468.869 199.482 469.774 199.84 470.271 199.247C473.203 195.742 474.241 191.535 474.642 185.709C475.201 177.583 473.665 175.14 484.522 161.168C489.424 153.965 491.541 144.698 495.125 144.822C495.462 144.834 495.71 145.125 495.772 145.457C498.576 160.606 493.948 167.839 508.697 186.916C535.001 216.951 520.134 241.483 526.664 254.632C530.728 262.888 534.859 265.868 541.584 270.899C542.077 271.269 542.063 272.016 541.554 272.364L540.2 273.289M265.167 38.3815C268.129 43.4859 270.502 46.4949 281.094 52.9441C281.278 53.0557 281.507 53.099 281.719 53.064C297.254 50.4926 299.173 50.8166 292.496 53.9973L289.573 55.455C289.136 55.6729 288.946 56.2046 289.198 56.6223C290.286 58.4224 291.918 59.2642 295.412 60.2291C295.547 60.2665 295.694 60.2707 295.832 60.2427C309.533 57.4548 317.199 57.0381 326.016 59.5638C326.971 59.8374 326.764 61.1408 325.771 61.1695C313.163 61.5339 306.454 62.6028 301.71 66.3408C301.117 66.8076 301.417 67.714 302.164 67.8154C313.086 69.2987 319.348 71.7525 328.411 81.3818C328.556 81.536 328.757 81.6384 328.967 81.6637C346.528 83.7772 356.691 86.001 371.962 97.4715C372.687 98.0163 372.227 99.149 371.327 99.0364C358.785 97.4675 351.16 95.732 340.973 91.891C340.105 91.5638 339.368 92.5913 339.978 93.2898C352.308 107.39 365.333 113.822 387 122.724C387.965 123.121 387.602 124.537 386.568 124.403C359.463 120.901 364.227 116.975 351.516 116.924C350.854 116.922 350.437 117.618 350.825 118.155C354.591 123.363 363.276 123.388 369.225 138.863C369.347 139.179 369.638 139.413 369.973 139.453C385.412 141.294 397.978 146.297 425.251 161.431C426.012 161.853 425.811 162.575 424.981 162.314C415.879 159.448 391.583 144.719 375.372 147.016C374.602 147.126 374.409 148.101 375.029 148.57C382.904 154.523 387.539 162.133 395.22 176.319C395.351 176.561 395.592 176.734 395.863 176.782C418.785 180.828 430.987 186.155 455.808 197.953C458.541 199.252 460.281 201.977 457.829 201.693C457.715 201.68 457.601 201.637 457.502 201.578C439.085 190.523 425.819 189.52 403.371 185.848C402.531 185.71 401.984 186.707 402.555 187.338C406.045 191.19 408.429 193.904 410.428 198.914C410.556 199.233 410.87 199.459 411.212 199.49C448.852 202.846 438.394 207.81 464.325 215.104C469.295 216.294 473.152 219.262 470.444 219.542C467.736 219.823 408.494 200.148 415.036 206.872C419.868 211.838 420.737 215.862 420.862 217.626C420.898 218.148 421.295 218.622 421.816 218.665C431.675 219.491 456.116 223.474 469.333 227.987C470.317 228.322 469.962 229.331 468.941 229.138C444.653 224.545 449.62 230.539 422.857 223.821C422.023 223.612 421.396 224.589 421.934 225.259C450.139 260.402 473.912 259.56 514.729 260.459C514.883 260.462 515.041 260.508 515.174 260.587C526.247 267.188 530.035 270.681 534.365 276.247C534.658 276.624 535.195 276.712 535.59 276.442L540.2 273.289M265.167 38.3815C326.414 52.7764 346.497 58.8885 380.041 101.998C413.586 145.107 430.675 151.642 469.044 206.688C497.083 246.915 540.2 273.289 540.2 273.289" stroke="#89B68D" stroke-width="2.69966"/>
<path d="M223.215 257.366C259.15 278.605 269.671 268.605 320.476 265.981C409.758 260.764 396.351 277.032 485.961 268.865C502.687 267.531 507.656 271.309 516.341 277.912L516.575 278.09C516.637 278.136 516.694 278.193 516.742 278.254C527.656 292.062 539.757 288.063 520.038 271.343C515.22 268.006 511.428 265.462 505.845 263.49C500.831 261.247 497.822 259.981 490.024 257.808C489.858 257.762 489.7 257.663 489.585 257.534C472.712 238.618 476.166 236.733 450.902 221.017C450.44 220.73 449.813 220.906 449.59 221.401C447.808 225.354 446.804 227.379 446.186 226.489C445.094 224.863 444.958 223.07 445.351 219.322C445.411 218.752 444.937 218.265 444.364 218.259C441.143 218.224 437.159 216.782 429.195 213.209C428.738 213.004 428.194 213.21 428.048 213.689C427.416 215.776 427.791 217.843 428.394 221.161L428.418 221.296C427.08 220.868 425.887 220.442 424.811 220.024C423.629 215.658 422.97 213.06 421.047 209.682C420.825 209.293 420.348 209.151 419.909 209.236C417.659 209.67 415.607 207.839 412.622 207.275C411.956 207.15 411.504 207.85 411.797 208.462C413.52 212.07 413.661 213.219 413.586 214.736C412.126 214.207 410.503 213.834 408.373 213.668C408.021 211.098 407.612 209.493 406.073 206.403C405.917 206.09 405.585 205.899 405.235 205.905C395.297 206.071 393.246 201.107 384.373 204.949C384.058 205.085 383.689 205.034 383.4 204.848C381.106 203.376 378.815 204.879 375.035 203.783C374.577 203.65 374.078 203.859 373.889 204.298C372.17 208.305 371.347 210.667 370.9 214.247C370.655 214.167 370.417 214.078 370.183 213.984C369.601 211.204 368.948 209.229 366.133 203.844C365.968 203.529 365.624 203.341 365.27 203.367C349.859 204.484 344.912 208.198 325.098 209.553C324.664 209.583 324.297 209.919 324.277 210.354C324.1 214.285 326.022 217.513 326.558 222.25C324.803 222.411 323.771 222.833 322.843 223.577C320.666 217.549 319.604 214.151 319.388 209.814C319.361 209.285 318.89 208.879 318.365 208.94C304.561 210.544 307.536 212.052 304.992 212.172C297.683 213.148 294.9 214.691 290.062 217.115C289.675 217.308 289.479 217.751 289.589 218.17C291.299 224.699 290.75 229.373 293.066 234.586C288.518 233.385 285.942 233.551 283.949 234.176C283.711 229.205 280.905 227.42 278.419 223.32C278.086 222.77 277.3 222.69 276.872 223.17C271.759 228.907 267.371 229.885 259.81 236.25C259.482 236.525 259.394 237.001 259.616 237.367C260.402 238.662 261.166 239.462 263.036 240.49C262.179 240.525 262.095 241.065 260.849 241.486C256.732 242.062 256.105 243.185 253.924 245.407C252.487 243.826 251.907 242.807 251.685 241.599C251.57 240.972 250.929 240.555 250.371 240.861C246.7 242.879 242.606 246.905 235.957 250.684C235.533 250.924 235.367 251.458 235.609 251.881C236.498 253.429 237.33 254.214 238.889 255.208C238.267 255.441 237.67 255.648 237.096 255.831C235.197 255.263 234.176 254.66 233.319 253.295C232.984 252.76 232.235 252.624 231.77 253.049C228.795 255.772 226.857 255.903 223.632 256.217C222.884 256.06 222.556 256.977 223.215 257.366Z" fill="url(#paint10_linear)"/>
<path d="M346.041 262.255C343.834 259.384 342.09 256.719 340.701 254.228M340.701 254.228C332.786 240.035 336.384 231.487 331.379 222.665C331.145 222.253 331.246 221.724 331.633 221.451C338.522 216.584 343.511 214.509 352.583 211.756C353.005 211.628 353.47 211.846 353.658 212.247C361.07 228.056 349.444 220.541 368.561 261.261C369.249 262.727 370.691 263.63 370.486 261.368C369.282 239.484 356.838 235.863 359.678 212.357C359.728 211.937 360.074 211.596 360.497 211.575C365.717 211.309 367.73 212.989 370.183 213.984M340.701 254.228C333.582 244.067 329.171 234.44 328.08 223.02C328.035 222.547 327.637 222.181 327.163 222.206C326.952 222.218 326.751 222.232 326.558 222.25M340.724 262.729C336.913 259.588 333.876 256.521 331.253 253.218M331.253 253.218C326.016 246.625 322.425 239.092 317.608 228.161C317.473 227.856 317.178 227.645 316.845 227.631C312.24 227.436 310.624 229.15 307.618 231.376C307.37 231.56 307.229 231.866 307.25 232.175C308.558 251.814 311.669 256.079 317.969 261.341C319.307 262.605 317.93 263.705 316.275 262.482C307.137 255.724 301.803 245.125 300.292 235.516C300.24 235.189 300.018 234.911 299.704 234.806C298.3 234.336 297.52 234.302 296.795 234.659C296.45 234.829 296.332 235.247 296.446 235.616C297.181 237.981 297.365 239.345 297.067 241.348C296.726 242.618 296.232 241.555 294.68 235.503C294.601 235.196 294.368 234.95 294.064 234.863C293.721 234.763 293.389 234.671 293.066 234.586M331.253 253.218L330.952 252.786C319.935 231.694 325.3 235.788 320.534 226.685C320.413 226.453 320.434 226.151 320.636 225.986C320.832 225.827 321.021 225.739 321.226 225.716C321.619 225.672 322.035 225.334 321.842 224.988V224.988C321.755 224.832 321.759 224.607 321.882 224.478C322.208 224.137 322.519 223.837 322.843 223.577M260.849 241.486L264.828 246.007M260.849 241.486C256.732 242.062 256.105 243.185 253.924 245.407M260.849 241.486C262.095 241.065 262.179 240.525 263.036 240.49M223.632 256.217V256.217C222.884 256.06 222.556 256.977 223.215 257.366C259.15 278.605 269.671 268.605 320.476 265.981C409.758 260.764 396.351 277.032 485.961 268.865C502.837 267.519 507.744 271.377 516.575 278.09C516.637 278.136 516.694 278.193 516.742 278.254C527.656 292.062 539.757 288.063 520.038 271.343C515.22 268.006 511.428 265.462 505.845 263.49M223.632 256.217C226.857 255.903 228.795 255.772 231.77 253.049C232.235 252.624 232.984 252.76 233.319 253.295C234.176 254.66 235.197 255.263 237.096 255.831M223.632 256.217C227.477 257.02 230.994 257.776 237.096 255.831M237.096 255.831C237.67 255.648 238.267 255.441 238.889 255.208M238.889 255.208C239.624 254.933 240.395 254.622 241.204 254.27C241.647 254.078 242.165 254.263 242.393 254.69C245.592 260.664 249.659 263.256 257.086 265.804C258.008 266.12 258.666 264.943 257.941 264.292C253.717 260.499 250.833 257.331 247.319 251.711C247.058 251.293 247.188 250.742 247.601 250.474C250.88 248.346 252.662 246.693 253.924 245.407M238.889 255.208C237.33 254.214 236.498 253.429 235.609 251.881C235.367 251.458 235.533 250.924 235.957 250.684C242.606 246.905 246.7 242.879 250.371 240.861C250.929 240.555 251.57 240.972 251.685 241.599C251.907 242.807 252.487 243.826 253.924 245.407M283.949 234.176C281.126 235.061 279.474 236.867 275.047 237.009C274.523 237.025 274.098 237.461 274.145 237.983C274.989 247.514 280.191 253.906 289.574 265.079C291.622 267.793 288.226 267.806 285.161 265.436C276.778 258.465 273.161 252.573 268.63 239.346C268.506 238.984 268.163 238.721 267.784 238.767C266.835 238.88 266.387 239.298 265.9 239.995C265.709 240.269 265.702 240.631 265.865 240.923C267.728 244.259 268.688 246.028 267.426 244.75L264.547 240.935C264.423 240.769 264.245 240.65 264.043 240.607C263.607 240.514 263.288 240.48 263.036 240.49M283.949 234.176C283.711 229.205 280.905 227.42 278.419 223.32C278.086 222.77 277.3 222.69 276.872 223.17C271.759 228.907 267.371 229.885 259.81 236.25C259.482 236.525 259.394 237.001 259.616 237.367C260.402 238.662 261.166 239.462 263.036 240.49M283.949 234.176C285.942 233.551 288.518 233.385 293.066 234.586M293.066 234.586C290.75 229.373 291.299 224.699 289.589 218.17C289.479 217.751 289.675 217.308 290.062 217.115C294.9 214.691 297.683 213.148 304.992 212.172C307.536 212.052 304.561 210.544 318.365 208.94C318.89 208.879 319.361 209.285 319.388 209.814C319.604 214.151 320.666 217.549 322.843 223.577M322.843 223.577C323.771 222.833 324.803 222.411 326.558 222.25M326.558 222.25C326.022 217.513 324.1 214.285 324.277 210.354C324.297 209.919 324.664 209.583 325.098 209.553C344.912 208.198 349.859 204.484 365.27 203.367C365.624 203.341 365.968 203.529 366.133 203.844C368.948 209.229 369.601 211.204 370.183 213.984M370.183 213.984C370.417 214.078 370.655 214.167 370.9 214.247M370.9 214.247C372.523 214.778 374.461 214.935 377.634 214.054C378.303 213.868 378.958 214.449 378.834 215.133C377.374 223.226 378.421 227.027 380.339 233.432C382.829 241.742 381.905 245.434 380.862 251.802C380.65 255.658 382.005 254.633 383.035 257.691C384.065 260.749 382.244 244.34 388.485 232.38C393.969 221.284 391.496 218.114 395.147 211.408C395.31 211.109 395.636 210.932 395.976 210.953C399.355 211.157 401.435 211.381 404.612 213.19C404.821 213.309 404.972 213.516 405.032 213.749C406.529 219.584 406.413 217.349 406.945 214.34C407.021 213.909 407.407 213.607 407.843 213.632C408.023 213.643 408.2 213.655 408.373 213.668M370.9 214.247C371.347 210.667 372.17 208.305 373.889 204.298C374.078 203.859 374.577 203.65 375.035 203.783C378.815 204.879 381.106 203.376 383.4 204.848C383.689 205.034 384.058 205.085 384.373 204.949C393.246 201.107 395.297 206.071 405.235 205.905C405.585 205.899 405.917 206.09 406.073 206.403C407.612 209.493 408.021 211.098 408.373 213.668M408.373 213.668C410.503 213.834 412.126 214.207 413.586 214.736M413.586 214.736C413.661 213.219 413.52 212.07 411.797 208.462C411.504 207.85 411.956 207.15 412.622 207.275C415.607 207.839 417.659 209.67 419.909 209.236C420.348 209.151 420.825 209.293 421.047 209.682C422.97 213.06 423.629 215.658 424.811 220.024M413.586 214.736C416.854 215.92 419.307 217.882 424.811 220.024M424.811 220.024C425.887 220.442 427.08 220.868 428.418 221.296M428.418 221.296C428.622 221.362 428.83 221.427 429.04 221.492C429.402 221.604 429.656 221.926 429.683 222.304C430.45 233.107 434.595 245.314 434.381 242.987C433.521 233.636 432.175 230.429 432.397 224.271C432.421 223.599 433.176 223.222 433.757 223.561C455.665 236.306 462.166 225.903 483.643 258.971C483.793 259.201 484.049 259.363 484.321 259.39C494.325 260.401 500.813 261.713 505.845 263.49M428.418 221.296C427.801 217.899 427.407 215.804 428.048 213.689C428.194 213.21 428.738 213.004 429.195 213.209C437.159 216.782 441.143 218.224 444.364 218.259C444.937 218.265 445.411 218.752 445.351 219.322C444.958 223.07 445.094 224.863 446.186 226.489C446.804 227.379 447.808 225.354 449.59 221.401C449.813 220.906 450.44 220.73 450.902 221.017C476.166 236.733 472.712 238.618 489.585 257.534C489.7 257.663 489.858 257.762 490.024 257.808C497.822 259.981 500.831 261.247 505.845 263.49" stroke="#89B68D" stroke-width="2.69966" stroke-linecap="round"/>
<path d="M201.104 92.4471C201.104 87.4771 205.132 83.4482 210.102 83.4482H523.406C528.376 83.4482 532.405 87.4771 532.405 92.4471V131.128C532.405 138.325 533.752 140.124 539.139 144.622C527.018 144.622 519.836 138.775 519.836 131.128H507.266H210.102C205.132 131.128 201.104 127.099 201.104 122.129V92.4471Z" fill="url(#paint11_linear)" stroke="#89B68D" stroke-width="2.69966"/>
<path d="M369.448 153.621C369.448 148.651 365.419 144.622 360.449 144.622H47.1448C42.1749 144.622 38.146 148.651 38.146 153.621V192.302C38.146 199.499 36.7992 201.298 31.4122 205.796C43.533 205.796 50.7157 199.948 50.7157 192.302H63.2854H360.449C365.419 192.302 369.448 188.273 369.448 183.303V153.621Z" fill="url(#paint12_linear)" stroke="#89B68D" stroke-width="2.69966"/>
<ellipse cx="69.1201" cy="168.912" rx="7.18259" ry="7.19709" fill="#E7F1E8" stroke="#89B68D" stroke-width="2.69966"/>
<ellipse cx="96.0561" cy="168.912" rx="7.18259" ry="7.19709" fill="#E7F1E8" stroke="#89B68D" stroke-width="2.69966"/>
<ellipse cx="122.992" cy="168.912" rx="7.18259" ry="7.19709" fill="#E7F1E8" stroke="#89B68D" stroke-width="2.69966"/>
<ellipse cx="446.212" cy="106.838" rx="7.18259" ry="7.19709" fill="#E7F1E8" stroke="#89B68D" stroke-width="2.69966"/>
<ellipse cx="473.147" cy="106.838" rx="7.18259" ry="7.19709" fill="#E7F1E8" stroke="#89B68D" stroke-width="2.69966"/>
<ellipse cx="500.083" cy="106.838" rx="7.18259" ry="7.19709" fill="#E7F1E8" stroke="#89B68D" stroke-width="2.69966"/>
<defs>
<linearGradient id="paint0_linear" x1="28.1826" y1="77.5483" x2="299.101" y2="250.463" gradientUnits="userSpaceOnUse">
<stop stop-color="#E7F1E8"/>
<stop offset="1" stop-color="#89B68D"/>
</linearGradient>
<linearGradient id="paint1_linear" x1="28.1826" y1="77.5483" x2="299.101" y2="250.463" gradientUnits="userSpaceOnUse">
<stop stop-color="#E7F1E8"/>
<stop offset="1" stop-color="#89B68D"/>
</linearGradient>
<linearGradient id="paint2_linear" x1="28.1826" y1="77.5483" x2="299.101" y2="250.463" gradientUnits="userSpaceOnUse">
<stop stop-color="#E7F1E8"/>
<stop offset="1" stop-color="#89B68D"/>
</linearGradient>
<linearGradient id="paint3_linear" x1="28.1826" y1="77.5483" x2="299.101" y2="250.463" gradientUnits="userSpaceOnUse">
<stop stop-color="#E7F1E8"/>
<stop offset="1" stop-color="#89B68D"/>
</linearGradient>
<linearGradient id="paint4_linear" x1="28.1826" y1="77.5483" x2="299.101" y2="250.463" gradientUnits="userSpaceOnUse">
<stop stop-color="#E7F1E8"/>
<stop offset="1" stop-color="#89B68D"/>
</linearGradient>
<linearGradient id="paint5_linear" x1="28.1826" y1="77.5483" x2="299.101" y2="250.463" gradientUnits="userSpaceOnUse">
<stop stop-color="#E7F1E8"/>
<stop offset="1" stop-color="#89B68D"/>
</linearGradient>
<linearGradient id="paint6_linear" x1="28.1826" y1="77.5483" x2="299.101" y2="250.463" gradientUnits="userSpaceOnUse">
<stop stop-color="#E7F1E8"/>
<stop offset="1" stop-color="#89B68D"/>
</linearGradient>
<linearGradient id="paint7_linear" x1="28.1826" y1="77.5483" x2="299.101" y2="250.463" gradientUnits="userSpaceOnUse">
<stop stop-color="#E7F1E8"/>
<stop offset="1" stop-color="#89B68D"/>
</linearGradient>
<linearGradient id="paint8_linear" x1="28.1826" y1="77.5483" x2="299.101" y2="250.463" gradientUnits="userSpaceOnUse">
<stop stop-color="#E7F1E8"/>
<stop offset="1" stop-color="#89B68D"/>
</linearGradient>
<linearGradient id="paint9_linear" x1="383.481" y1="109.432" x2="538.284" y2="338.735" gradientUnits="userSpaceOnUse">
<stop stop-color="#E7F1E8"/>
<stop offset="1" stop-color="#89B68D"/>
</linearGradient>
<linearGradient id="paint10_linear" x1="228.78" y1="220.168" x2="440.95" y2="246.207" gradientUnits="userSpaceOnUse">
<stop stop-color="#F0F6ED"/>
<stop offset="1" stop-color="#E7F1E8"/>
</linearGradient>
<linearGradient id="paint11_linear" x1="370.121" y1="83.4482" x2="370.121" y2="144.622" gradientUnits="userSpaceOnUse">
<stop stop-color="white"/>
<stop offset="1" stop-color="#E7F1E8"/>
</linearGradient>
<linearGradient id="paint12_linear" x1="200.43" y1="144.622" x2="200.43" y2="205.796" gradientUnits="userSpaceOnUse">
<stop stop-color="white"/>
<stop offset="1" stop-color="#E7F1E8"/>
</linearGradient>
</defs>
</svg>
