<svg width="621" height="506" viewBox="0 0 621 506" fill="none" xmlns="http://www.w3.org/2000/svg">
<g clip-path="url(#clip0)">
<path fill-rule="evenodd" clip-rule="evenodd" d="M133.068 253.352C201.21 253.352 256.45 198.054 256.45 129.84C256.45 61.6256 201.21 6.32703 133.068 6.32703C64.926 6.32703 9.68604 61.6256 9.68604 129.84C9.68604 198.054 64.926 253.352 133.068 253.352ZM133.068 224.209C185.131 224.209 227.337 181.958 227.337 129.84C227.337 77.721 185.131 35.4705 133.068 35.4705C81.0044 35.4705 38.7986 77.721 38.7986 129.84C38.7986 181.958 81.0044 224.209 133.068 224.209Z" fill="url(#paint0_linear)"/>
<path fill-rule="evenodd" clip-rule="evenodd" d="M477.825 486.225C554.485 486.225 616.63 424.014 616.63 347.273C616.63 270.532 554.485 208.322 477.825 208.322C401.165 208.322 339.02 270.532 339.02 347.273C339.02 424.014 401.165 486.225 477.825 486.225ZM477.825 453.438C536.397 453.438 583.878 405.907 583.878 347.273C583.878 288.639 536.397 241.109 477.825 241.109C419.254 241.109 371.772 288.639 371.772 347.273C371.772 405.907 419.254 453.438 477.825 453.438Z" fill="url(#paint1_linear)"/>
<path d="M207.207 130.245C207.207 171.234 174.014 204.462 133.068 204.462C92.1222 204.462 58.9291 171.234 58.9291 130.245C58.9291 89.2553 92.1222 56.027 133.068 56.027C174.014 56.027 207.207 89.2553 207.207 130.245Z" fill="url(#paint2_linear)"/>
<path d="M520.05 97.7501C520.05 138.739 486.857 171.968 445.911 171.968C404.965 171.968 371.772 138.739 371.772 97.7501C371.772 56.7609 404.965 23.5326 445.911 23.5326C486.857 23.5326 520.05 56.7609 520.05 97.7501Z" fill="url(#paint3_linear)"/>
<path fill-rule="evenodd" clip-rule="evenodd" d="M133.068 253.352C201.21 253.352 256.45 198.054 256.45 129.84C256.45 61.6256 201.21 6.32703 133.068 6.32703C64.926 6.32703 9.68604 61.6256 9.68604 129.84C9.68604 198.054 64.926 253.352 133.068 253.352ZM133.068 224.209C185.131 224.209 227.337 181.958 227.337 129.84C227.337 77.721 185.131 35.4705 133.068 35.4705C81.0044 35.4705 38.7986 77.721 38.7986 129.84C38.7986 181.958 81.0044 224.209 133.068 224.209Z" stroke="#89B68D" stroke-width="3"/>
<path fill-rule="evenodd" clip-rule="evenodd" d="M477.825 486.225C554.485 486.225 616.63 424.014 616.63 347.273C616.63 270.532 554.485 208.322 477.825 208.322C401.165 208.322 339.02 270.532 339.02 347.273C339.02 424.014 401.165 486.225 477.825 486.225ZM477.825 453.438C536.397 453.438 583.878 405.907 583.878 347.273C583.878 288.639 536.397 241.109 477.825 241.109C419.254 241.109 371.772 288.639 371.772 347.273C371.772 405.907 419.254 453.438 477.825 453.438Z" stroke="#89B68D" stroke-width="3"/>
<path d="M207.207 130.245C207.207 171.234 174.014 204.462 133.068 204.462C92.1222 204.462 58.9291 171.234 58.9291 130.245C58.9291 89.2553 92.1222 56.027 133.068 56.027C174.014 56.027 207.207 89.2553 207.207 130.245Z" stroke="#89B68D" stroke-width="3"/>
<path d="M520.05 97.7501C520.05 138.739 486.857 171.968 445.911 171.968C404.965 171.968 371.772 138.739 371.772 97.7501C371.772 56.7609 404.965 23.5326 445.911 23.5326C486.857 23.5326 520.05 56.7609 520.05 97.7501Z" stroke="#89B68D" stroke-width="3"/>
<path d="M549.316 23.7985C539.628 20.8641 536.539 16.8869 532.126 9.20004C529.437 14.8146 528.221 18.6747 528.885 31.7164C528.899 31.9905 529.018 32.2628 529.207 32.4615C540.651 44.4819 541.498 46.3418 534.756 42.3946L531.911 40.7968C531.367 40.4913 530.666 40.6709 530.422 41.2451C529.594 43.1954 529.846 45.1076 531.033 48.6036C531.091 48.7736 531.192 48.9314 531.321 49.0568C541.503 58.9961 546.441 65.3541 549.506 74.0404C549.929 75.2387 548.429 75.9512 547.68 74.9244C540.378 64.9091 535.602 59.8954 529.853 57.9202C528.941 57.607 528.198 58.5679 528.625 59.4322C533.676 69.6502 535.192 76.5787 532.233 90.0217C532.175 90.2863 532.211 90.572 532.336 90.8126C540.82 107.206 544.92 117.377 544.118 137.071C544.071 138.23 542.551 138.548 542.024 137.514C536.275 126.22 533.313 118.677 530.697 108.071C530.413 106.919 528.804 106.877 528.514 108.027C523.875 126.485 525.848 141.401 530.694 164.546C530.968 165.851 529.211 166.455 528.615 165.261C516.495 141.006 522.227 142.369 515.109 131.697C514.64 130.994 513.602 131.048 513.341 131.853C511.297 138.167 516.106 145.747 506.38 159.858C506.135 160.214 506.098 160.689 506.297 161.073C513.791 175.549 516.901 189.447 519.893 221.793C519.995 222.9 519.138 223.157 518.844 222.084C516.059 211.916 514.302 183.25 503.142 170.512C502.487 169.764 501.322 170.259 501.263 171.252C500.664 181.461 496.791 189.994 489.115 204.874C488.954 205.186 488.944 205.566 489.089 205.886C499.166 228.299 501.776 242.143 506.241 270.837C506.731 273.985 505.402 277.111 504.194 274.86C504.125 274.73 504.089 274.581 504.081 274.434C502.778 251.953 495.86 239.763 485.841 218.271C485.381 217.285 483.936 217.42 483.68 218.478C482.466 223.489 481.48 227.076 478.46 231.588C478.215 231.954 478.202 232.448 478.416 232.832C497.805 267.642 487.277 261.481 496.332 288.479C498.25 293.535 497.955 298.674 496.098 296.47C494.241 294.267 476.161 230.733 474.183 240.453C472.776 247.367 469.944 250.545 468.426 251.803C467.911 252.231 467.697 252.997 468.025 253.581C473.056 262.548 483.492 284.924 487.68 299.178C488.055 300.454 486.804 300.799 486.264 299.584C476.36 277.298 473.949 284.187 464.236 257.911C463.855 256.88 462.379 256.916 462.061 257.969C448.453 303.12 463.296 323.41 486.694 359.489C486.802 359.655 486.867 359.854 486.879 360.052C487.693 373.51 486.917 378.919 484.68 385.918C484.494 386.5 484.787 387.13 485.355 387.353L490.678 389.447L492.034 389.98C492.768 390.268 493.567 389.748 493.602 388.961L493.614 388.694C493.989 380.14 494.223 374.804 498.916 366.517C506.513 352.991 536.787 351.429 547.361 310.565C555.223 286.386 564.269 286.08 575.788 274.711C576.096 274.408 576.228 273.933 575.978 273.581C573.82 270.549 564.568 274.124 555.458 274.112C536.793 272.912 535.574 275.707 528.145 280.045C522.979 283.061 518.787 284.648 514.154 284.3C513.169 284.226 512.897 283.017 513.708 282.453C531.409 270.154 552.132 266.321 582.589 256.851C582.865 256.765 583.109 256.566 583.253 256.315C611.999 206.246 592.706 195.918 592.183 171.239C592.17 170.646 591.723 170.139 591.132 170.096C578.691 169.207 560.364 173.247 542.559 180.87C542.473 180.906 542.382 180.934 542.29 180.945C540.322 181.183 540.827 179.199 543.163 178.242C565.983 168.902 578.225 167.706 589.786 160.836C590.062 160.673 590.257 160.387 590.322 160.073C595.986 132.815 606.004 130.705 604.866 126.073C604.754 125.614 604.284 125.352 603.812 125.385C585.646 126.618 574.012 129.264 553.022 134.858C552.877 134.897 552.722 134.91 552.576 134.873C552.154 134.768 551.394 134.454 552.707 133.705C554.403 132.737 588.959 124.708 604.374 114.373C604.58 114.235 604.728 114.034 604.807 113.798C606.52 108.71 606.763 106.188 605.35 103.838C605.049 103.337 604.387 103.224 603.886 103.525C594.251 109.311 587.526 112.684 579.729 114.571C578.389 114.895 578.006 113.251 579.29 112.751C587.553 109.538 594.104 105.678 603.307 98.3758C603.523 98.2046 603.674 97.9577 603.722 97.6865C604.248 94.7047 604.061 93.2722 603.53 91.7874C603.273 91.068 602.363 90.8557 601.767 91.3328C587.57 102.684 578.429 107.946 566.353 111.381C565.06 111.749 564.499 110.169 565.709 109.585C580.996 102.203 588.761 98.8624 597.264 85.2779C597.576 84.7784 597.451 84.1216 597.041 83.6979C594.429 80.9938 593.066 75.656 588.988 69.8688C588.492 69.1657 587.43 69.2958 587.063 70.0736C578.317 88.5955 572.635 93.4548 565.27 96.2549C564.069 96.7116 563.21 95.0484 564.191 94.2176C578.031 82.4927 572.636 78.3356 583.352 62.4745C583.615 62.0851 583.63 61.5599 583.364 61.1726C580.176 56.531 577.267 54.1615 571.88 50.5371C571.564 50.3245 571.159 50.2773 570.82 50.4504C565.8 53.0131 565.121 61.0163 558.814 63.0151C558 63.2729 557.338 62.4547 557.634 61.6541C560.431 54.0798 562.566 49.6207 567.074 44.6366C567.618 44.0353 567.409 43.0744 566.712 42.6616C565.252 41.7981 564.683 40.8568 564.199 39.4925C564.027 39.0071 563.564 38.6665 563.052 38.7295C557.127 39.4594 559.651 45.8644 555.852 51.3497C555.285 52.1677 554.131 51.7103 554.138 50.7153C554.171 46.0353 554.872 42.5354 559.788 36.136C560.093 35.7389 560.116 35.1878 559.828 34.7784C557.92 32.0695 556.529 30.8161 554.415 29.4934C553.914 29.1796 553.254 29.3163 552.928 29.8099C551.8 31.5179 551.089 33.1308 550.614 34.8633C550.258 36.1639 548.519 36.1926 548.542 34.8443C548.592 31.9616 549.074 29.0259 550.116 25.2442C550.285 24.6276 549.928 23.9839 549.316 23.7985Z" fill="url(#paint4_linear)"/>
<path d="M532.126 9.20003C536.539 16.8869 539.628 20.8641 549.316 23.7985C549.928 23.9839 550.285 24.6276 550.116 25.2442C549.074 29.0259 548.592 31.9616 548.542 34.8443C548.519 36.1926 550.258 36.1639 550.614 34.8633C551.089 33.1308 551.8 31.5179 552.928 29.8099C553.254 29.3163 553.914 29.1796 554.415 29.4934C556.529 30.8161 557.92 32.0695 559.828 34.7784C560.116 35.1878 560.093 35.7389 559.788 36.136C554.872 42.5354 554.171 46.0353 554.138 50.7153C554.131 51.7103 555.285 52.1677 555.852 51.3497C559.651 45.8644 557.127 39.4594 563.052 38.7295C563.564 38.6665 564.027 39.0071 564.199 39.4925C564.683 40.8568 565.252 41.7981 566.712 42.6616C567.409 43.0744 567.618 44.0353 567.074 44.6366C562.566 49.6207 560.431 54.0798 557.634 61.6541C557.338 62.4547 558 63.2729 558.814 63.0151C565.121 61.0163 565.8 53.0131 570.82 50.4504C571.159 50.2773 571.564 50.3245 571.88 50.5371C577.267 54.1615 580.176 56.531 583.364 61.1726C583.63 61.5599 583.615 62.0851 583.352 62.4745C572.636 78.3356 578.031 82.4927 564.191 94.2176C563.21 95.0484 564.069 96.7116 565.27 96.2549C572.635 93.4548 578.317 88.5955 587.063 70.0736C587.43 69.2958 588.492 69.1657 588.988 69.8688C593.066 75.656 594.429 80.9938 597.041 83.6979C597.451 84.1216 597.576 84.7784 597.264 85.2779C588.761 98.8624 580.996 102.203 565.709 109.585C564.499 110.169 565.06 111.749 566.353 111.381C578.429 107.946 587.57 102.684 601.767 91.3328C602.363 90.8557 603.273 91.068 603.53 91.7874C604.061 93.2722 604.248 94.7047 603.722 97.6865C603.674 97.9577 603.523 98.2046 603.307 98.3758C594.104 105.678 587.553 109.538 579.29 112.751C578.006 113.251 578.389 114.895 579.729 114.571C587.526 112.684 594.251 109.311 603.886 103.525C604.387 103.224 605.049 103.337 605.35 103.838C606.763 106.188 606.52 108.71 604.807 113.798C604.728 114.034 604.58 114.235 604.374 114.373C588.959 124.708 554.403 132.737 552.707 133.705C551.394 134.454 552.154 134.768 552.576 134.873C552.722 134.91 552.877 134.897 553.022 134.858C574.012 129.264 585.646 126.618 603.812 125.385C604.284 125.352 604.754 125.614 604.866 126.073C606.004 130.705 595.986 132.815 590.322 160.073C590.257 160.387 590.062 160.673 589.786 160.836C578.225 167.706 565.983 168.902 543.163 178.242C540.827 179.199 540.322 181.183 542.29 180.945C542.382 180.934 542.473 180.906 542.559 180.87C560.364 173.247 578.691 169.207 591.132 170.096C591.723 170.139 592.17 170.646 592.183 171.239C592.706 195.918 611.999 206.246 583.253 256.315C583.109 256.566 582.865 256.765 582.589 256.851C552.132 266.321 531.409 270.154 513.708 282.453C512.897 283.017 513.169 284.226 514.154 284.3C518.787 284.648 522.979 283.061 528.145 280.045C535.574 275.707 536.793 272.912 555.458 274.112C564.568 274.124 573.82 270.549 575.978 273.581C576.228 273.933 576.096 274.408 575.788 274.711C564.269 286.08 555.223 286.386 547.361 310.565C536.787 351.429 506.513 352.991 498.916 366.517C494.175 374.89 493.985 380.25 493.602 388.961C493.567 389.748 492.768 390.268 492.034 389.98L490.678 389.446M532.126 9.20003C529.437 14.8146 528.221 18.6747 528.885 31.7164C528.899 31.9905 529.018 32.2628 529.207 32.4615C540.651 44.4819 541.498 46.3418 534.756 42.3946L531.911 40.7968C531.367 40.4913 530.666 40.6709 530.422 41.2451C529.594 43.1954 529.846 45.1076 531.033 48.6036C531.091 48.7736 531.192 48.9314 531.321 49.0568C541.503 58.9961 546.441 65.3541 549.506 74.0404C549.929 75.2387 548.429 75.9512 547.68 74.9244C540.378 64.9091 535.602 59.8954 529.853 57.9202C528.941 57.607 528.198 58.5679 528.625 59.4322C533.676 69.6502 535.192 76.5787 532.233 90.0217C532.175 90.2863 532.211 90.572 532.336 90.8126C540.82 107.206 544.92 117.377 544.118 137.071C544.071 138.23 542.551 138.548 542.024 137.514C536.275 126.22 533.313 118.677 530.697 108.071C530.413 106.919 528.804 106.877 528.514 108.027C523.875 126.485 525.848 141.401 530.694 164.546C530.968 165.851 529.211 166.455 528.615 165.262C516.495 141.006 522.227 142.369 515.109 131.697C514.64 130.994 513.602 131.048 513.341 131.853C511.297 138.167 516.106 145.747 506.38 159.858C506.135 160.214 506.098 160.689 506.297 161.073C513.791 175.549 516.901 189.447 519.893 221.793C519.995 222.9 519.138 223.157 518.844 222.084C516.059 211.916 514.302 183.25 503.142 170.512C502.487 169.764 501.322 170.259 501.263 171.252C500.664 181.461 496.791 189.994 489.115 204.874C488.954 205.186 488.944 205.566 489.089 205.886C499.166 228.299 501.776 242.143 506.241 270.837C506.731 273.985 505.402 277.111 504.194 274.86C504.125 274.73 504.089 274.581 504.081 274.434C502.778 251.953 495.86 239.763 485.841 218.271C485.381 217.285 483.936 217.42 483.68 218.478C482.466 223.489 481.48 227.076 478.46 231.588C478.215 231.954 478.202 232.448 478.416 232.832C497.805 267.641 487.277 261.481 496.332 288.479C498.25 293.535 497.955 298.674 496.098 296.47C494.241 294.267 476.161 230.733 474.183 240.453C472.776 247.367 469.944 250.545 468.426 251.803C467.911 252.231 467.697 252.997 468.025 253.581C473.056 262.548 483.492 284.924 487.68 299.178C488.055 300.454 486.804 300.799 486.264 299.584C476.36 277.298 473.949 284.187 464.236 257.911C463.855 256.88 462.379 256.916 462.061 257.969C448.453 303.12 463.296 323.41 486.694 359.489C486.802 359.655 486.867 359.854 486.879 360.052C487.693 373.51 486.917 378.919 484.68 385.918C484.494 386.5 484.787 387.13 485.355 387.353L490.678 389.446M532.126 9.20003C556.011 71.3522 562.627 92.5589 544.944 147.525C527.262 202.491 531.727 221.329 506.49 287.609C488.048 336.044 490.678 389.446 490.678 389.446" stroke="#89B68D" stroke-width="3"/>
<path d="M280.812 130.659C288.998 174.05 304.28 175.466 341.796 214.086C408.205 281.532 385.93 282.182 454.912 347.836C467.637 360.223 468.101 366.809 468.911 378.319L468.931 378.604C468.938 378.702 468.932 378.805 468.914 378.901C465.57 397.182 477.175 404.013 476.708 376.69C476 370.532 475.377 365.743 473.049 359.925C471.339 354.384 470.248 351.111 466.556 343.428C466.461 343.229 466.423 342.995 466.45 342.777C469.703 316.302 473.588 317.645 468.516 286.847C468.403 286.161 467.706 285.71 467.042 285.912C462.799 287.199 460.571 287.77 460.842 286.677C461.363 284.718 462.648 283.377 465.755 281.166C466.351 280.741 466.419 279.876 465.954 279.311C463.83 276.729 462.22 272.588 459.604 264.101C459.415 263.489 458.758 263.136 458.181 263.415C456.183 264.38 454.819 266.097 452.668 268.804L452.577 268.918C451.984 267.554 451.491 266.309 451.073 265.16C453.68 261.237 455.277 258.913 456.608 255.128C456.798 254.589 456.528 254.012 456.093 253.641C454.375 252.177 454.3 249.486 452.865 246.872C452.448 246.112 451.398 246.261 451.052 247.056C449.474 250.685 448.67 251.574 447.446 252.544C446.848 251.014 446.013 249.462 444.659 247.651C446.434 245.605 447.422 244.172 448.78 240.878C448.95 240.465 448.853 239.989 448.555 239.657C441.624 231.944 444.033 226.889 434.96 222.528C434.564 222.338 434.307 221.941 434.23 221.509C433.748 218.8 431.088 217.973 429.345 214.401C429.077 213.852 428.456 213.546 427.875 213.735C423.605 215.124 421.178 216.115 418.065 218.221C417.958 217.97 417.862 217.719 417.775 217.467C419.565 215.085 420.676 213.2 422.959 207.306C423.123 206.883 423.016 206.395 422.692 206.076C411.146 194.698 404.743 193.291 389.972 178.609C389.577 178.216 388.944 178.147 388.514 178.501C385.365 181.092 384.128 184.817 380.784 188.491C379.432 187.205 378.376 186.677 377.138 186.457C380.357 180.621 382.306 177.42 385.509 174.278C385.991 173.805 385.99 173.016 385.489 172.563C374.752 162.863 375.611 166.239 373.751 164.307C367.935 159.218 364.772 158.049 359.565 155.924C359.052 155.715 358.462 155.9 358.149 156.358C354.185 162.17 350.132 164.984 347.625 170.414C345.408 165.957 343.479 164.022 341.593 162.87C345.302 159.292 344.857 155.881 346.275 151.194C346.512 150.409 345.928 149.586 345.108 149.572C337.225 149.431 333.355 146.695 323.271 145.121C322.729 145.036 322.198 145.351 322.039 145.876C321.601 147.327 321.521 148.487 321.991 150.616C321.366 149.958 320.878 150.267 319.675 149.568C316.346 146.691 315.017 146.974 311.73 146.784C311.965 144.709 312.329 143.551 313.019 142.584C313.492 141.922 313.359 140.961 312.59 140.694C308.472 139.264 302.579 138.766 295.192 136.217C294.603 136.014 293.946 136.301 293.752 136.893C293.201 138.579 293.171 139.77 293.457 141.636C292.838 141.303 292.258 140.972 291.712 140.642C290.888 138.844 290.635 137.645 291.017 136.146C291.216 135.366 290.72 134.533 289.921 134.432C285.903 133.926 284.457 132.487 282.016 130.192C281.619 129.488 280.662 129.865 280.812 130.659Z" fill="url(#paint5_linear)"/>
<path d="M362.586 231.845C363.327 228.09 364.229 224.847 365.239 222.007M365.239 222.007C370.962 205.92 380.19 202.778 383.754 192.792C383.958 192.221 384.552 191.875 385.14 192.019C393.654 194.096 398.76 196.608 407.129 201.817C407.608 202.115 407.79 202.74 407.563 203.256C400.225 219.919 398.044 205.653 379.08 249.082C378.396 250.649 378.683 252.426 380.338 250.688C396.85 234.533 391.109 222.126 411.606 208.064C412.053 207.757 412.671 207.803 413.045 208.195C416.787 212.104 416.863 214.848 417.775 217.467M365.239 222.007C368.332 209.332 372.874 199.159 381.106 190.373C381.521 189.931 381.538 189.239 381.11 188.81C380.999 188.698 380.891 188.592 380.784 188.491M358.501 227.941C358.338 222.722 358.658 218.17 359.452 213.783M359.452 213.783C361.033 205.052 364.497 196.973 369.795 185.587C369.974 185.201 369.928 184.74 369.659 184.409C366.665 180.734 364.204 180.603 360.432 179.787C360.046 179.704 359.633 179.826 359.354 180.106C344.736 194.757 343.522 200.198 343.734 208.86C343.663 210.806 341.829 210.475 341.647 208.306C340.647 196.374 345.308 184.794 351.849 176.904C352.119 176.579 352.2 176.132 352.033 175.743C351.482 174.453 350.996 173.828 350.299 173.492C349.855 173.278 349.349 173.523 349.09 173.942C347.762 176.092 346.809 177.169 345.043 178.305C343.803 178.914 344.291 177.797 347.96 172.427C348.188 172.093 348.226 171.665 348.054 171.3C347.91 170.994 347.767 170.699 347.625 170.414M359.452 213.783L359.586 213.242C368.661 189.791 369.149 196.912 373.059 186.782C373.158 186.524 373.413 186.33 373.685 186.377C373.949 186.422 374.15 186.512 374.311 186.659C374.62 186.941 375.179 187.036 375.319 186.642V186.642C375.382 186.464 375.564 186.311 375.753 186.319C376.25 186.34 376.705 186.38 377.138 186.457M319.675 149.568L318.857 155.882M319.675 149.568C316.346 146.691 315.017 146.974 311.73 146.784M319.675 149.568C320.878 150.267 321.366 149.958 321.991 150.616M282.016 130.192V130.192C281.619 129.488 280.662 129.865 280.812 130.659C288.998 174.05 304.28 175.466 341.796 214.086C408.205 281.532 385.93 282.182 454.912 347.836C467.742 360.325 468.108 366.917 468.931 378.604C468.938 378.702 468.932 378.805 468.914 378.901C465.57 397.182 477.175 404.013 476.708 376.69C476 370.532 475.377 365.743 473.049 359.925M282.016 130.192C284.457 132.487 285.903 133.926 289.921 134.432C290.72 134.533 291.216 135.366 291.017 136.146C290.635 137.645 290.888 138.844 291.712 140.642M282.016 130.192C284.06 133.812 285.911 137.138 291.712 140.642M291.712 140.642C292.258 140.972 292.838 141.303 293.457 141.636M293.457 141.636C294.139 142.003 294.867 142.373 295.646 142.745C296.203 143.011 296.46 143.665 296.247 144.244C293.906 150.602 294.545 155.486 297.373 162.617C297.832 163.775 299.516 163.42 299.542 162.175C299.652 156.692 300.197 152.352 302.058 146.104C302.238 145.5 302.878 145.16 303.486 145.33C307.354 146.414 309.859 146.676 311.73 146.784M293.457 141.636C293.171 139.77 293.201 138.579 293.752 136.893C293.946 136.301 294.603 136.014 295.192 136.217C302.579 138.766 308.472 139.264 312.59 140.694C313.359 140.961 313.492 141.922 313.019 142.584C312.329 143.551 311.965 144.709 311.73 146.784M341.593 162.87C338.962 161.264 336.414 161.182 333.282 157.912C332.819 157.427 332.04 157.384 331.58 157.872C324.725 165.144 323.278 173.72 320.962 188.857C320.234 192.376 317.856 189.682 317.601 185.592C317.294 174.103 319.439 167.13 326.732 154.394C326.974 153.97 326.941 153.417 326.566 153.104C325.893 152.541 325.294 152.465 324.502 152.539C324.077 152.579 323.723 152.88 323.58 153.282C322.254 157.014 321.534 158.951 321.668 157.076L322.678 152.197C322.731 151.938 322.697 151.667 322.566 151.438C322.351 151.059 322.166 150.8 321.991 150.616M341.593 162.87C345.302 159.292 344.857 155.881 346.275 151.194C346.512 150.409 345.928 149.586 345.108 149.572C337.225 149.431 333.355 146.695 323.271 145.121C322.729 145.036 322.198 145.351 322.039 145.876C321.601 147.327 321.521 148.487 321.991 150.616M341.593 162.87C343.479 164.022 345.408 165.957 347.625 170.414M347.625 170.414C350.132 164.984 354.185 162.17 358.149 156.358C358.462 155.9 359.052 155.715 359.565 155.924C364.772 158.049 367.935 159.218 373.751 164.307C375.611 166.239 374.752 162.863 385.489 172.563C385.99 173.016 385.991 173.805 385.509 174.278C382.306 177.42 380.357 180.621 377.138 186.457M377.138 186.457C378.376 186.677 379.432 187.205 380.784 188.491M380.784 188.491C384.128 184.817 385.365 181.092 388.514 178.501C388.944 178.147 389.577 178.216 389.972 178.609C404.743 193.291 411.146 194.698 422.692 206.076C423.016 206.395 423.123 206.883 422.959 207.306C420.676 213.2 419.565 215.085 417.775 217.467M417.775 217.467C417.862 217.719 417.958 217.97 418.065 218.221M418.065 218.221C418.752 219.828 419.922 221.425 422.63 223.257C423.365 223.754 423.357 224.872 422.599 225.333C415.385 229.718 413.106 233.184 409.406 239.089C404.539 246.854 400.961 248.689 395.175 252.291C391.963 254.806 393.722 255.17 392.011 258.119C390.3 261.068 402.067 248.197 415.922 244.841C428.499 241.501 429.348 237.351 437.113 235.575C437.538 235.478 437.979 235.643 438.245 235.988C440.378 238.745 441.628 240.552 442.399 244.242C442.462 244.543 442.391 244.861 442.218 245.114C438.748 250.196 440.321 248.7 442.986 247.068C443.463 246.777 444.079 246.893 444.42 247.336C444.501 247.442 444.581 247.547 444.659 247.651M418.065 218.221C421.178 216.115 423.605 215.124 427.875 213.735C428.456 213.546 429.077 213.852 429.345 214.401C431.088 217.973 433.748 218.8 434.23 221.509C434.307 221.941 434.564 222.338 434.96 222.528C444.033 226.889 441.624 231.944 448.555 239.657C448.853 239.989 448.95 240.465 448.78 240.878C447.422 244.172 446.434 245.605 444.659 247.651M444.659 247.651C446.013 249.462 446.848 251.014 447.446 252.544M447.446 252.544C448.67 251.574 449.474 250.685 451.052 247.056C451.398 246.261 452.448 246.112 452.865 246.872C454.3 249.486 454.375 252.177 456.093 253.641C456.528 254.012 456.798 254.589 456.608 255.128C455.277 258.913 453.68 261.237 451.073 265.16M447.446 252.544C448.785 255.97 448.936 259.288 451.073 265.16M451.073 265.16C451.491 266.309 451.984 267.554 452.577 268.918M452.577 268.918C452.65 269.085 452.724 269.253 452.8 269.424C452.995 269.865 452.901 270.381 452.562 270.725C444.555 278.851 437.809 290.545 439.502 288.762C446.217 281.69 447.886 278.377 452.736 274.363C453.399 273.815 454.396 274.216 454.564 275.059C459.751 301.02 472.387 299.155 461.184 339.011C461.089 339.348 461.149 339.729 461.352 340.014C467.491 348.64 470.958 354.698 473.049 359.925M452.577 268.918C454.781 266.145 456.155 264.394 458.181 263.415C458.758 263.136 459.415 263.489 459.604 264.101C462.22 272.588 463.83 276.729 465.954 279.311C466.419 279.876 466.351 280.741 465.755 281.166C462.648 283.377 461.363 284.718 460.842 286.677C460.571 287.77 462.799 287.199 467.042 285.912C467.706 285.71 468.403 286.161 468.516 286.847C473.588 317.645 469.703 316.302 466.45 342.777C466.423 342.995 466.461 343.229 466.556 343.428C470.248 351.111 471.339 354.384 473.049 359.925" stroke="#89B68D" stroke-width="3" stroke-linecap="round"/>
<path fill-rule="evenodd" clip-rule="evenodd" d="M343.566 109.515C312.843 102.669 293.349 83.561 261.88 47.1087C262.355 47.3844 262.82 47.6528 263.275 47.9157C270.865 52.3009 275.847 55.1792 286.505 65.3702C288.011 66.8093 289.629 68.3943 291.384 70.1499C294.68 74.2424 296.384 76.4939 296.922 79.7424C297.05 81.5539 298.938 82.1449 302.553 83.2765C309.65 85.498 323.404 89.8031 343.566 109.515ZM456.99 210.735C459.743 211.466 462.47 212.255 465.155 213.108C472.16 215.332 478.885 217.989 485.065 221.164C485.519 221.397 485.97 221.633 486.418 221.872C492.406 225.065 497.85 228.765 502.499 233.053C502.22 233.531 501.946 234 501.676 234.461C495.639 244.792 492.01 251.001 488.215 265.601C486.409 271.333 487.725 272.137 488.462 269.722C493.266 253.966 497.12 246.841 504.702 235.191C506.713 240.869 509.914 244.603 512.933 248.126C516.878 252.729 520.512 256.969 520.775 264.708L506.784 291.118L520.701 269.44C521.162 280.912 516.279 290.824 510.182 303.2C507.42 308.804 504.41 314.913 501.535 321.901L473.311 394.858L467.529 392.228C468.582 389.338 469.582 386.61 470.528 384.029L470.542 383.992L470.579 383.892C471.166 382.29 471.732 380.746 472.277 379.254C487.091 338.726 486.393 337.449 467.109 302.169L467.108 302.168C465.025 298.356 462.724 294.147 460.202 289.448C459.154 287.495 463.835 285.987 469.488 287.071C472.125 286.344 468.312 285.35 462.886 283.936C461.96 283.695 460.987 283.441 459.991 283.175C460.316 278.76 459.286 275.597 458.399 272.874C457.049 268.731 456.031 265.607 460.623 260.641C466.078 267.017 469.049 269.041 473.607 272.146C474.087 272.473 474.585 272.812 475.105 273.17C467.563 266.013 463.331 260.464 460.412 254.367C459.373 253.549 459.771 252.278 460.458 250.087C460.803 248.986 461.221 247.652 461.566 246.027C458.609 242.97 457.276 241.434 458.427 240.592C460.165 238.908 460.36 237.317 460.184 234.035C458.021 227.751 456.953 224.446 458.397 223.556C460.196 222.369 460.817 221.221 459.97 216.679L455.453 210.334C455.967 210.465 456.479 210.599 456.99 210.735ZM476.938 204.817C478.768 210.502 481.662 215.952 486.419 221.873L486.418 221.872C481.661 215.952 478.768 210.502 476.938 204.817Z" fill="url(#paint6_linear)"/>
<path d="M261.88 47.1087C259.17 42.4152 288.695 34.1371 320.798 43.788C321.308 44.1622 321.806 44.5284 322.292 44.8859C330.036 50.5821 334.814 54.0959 336.693 53.37C338.712 51.9164 340.113 51.8228 342.646 53.3437C344.628 56.0079 346.516 58.5833 348.308 61.0272C357.81 73.9902 364.598 83.2495 368.375 82.4011C359.372 74.4283 357.182 69.6576 354.391 63.5805C353.551 61.7497 352.656 59.8003 351.503 57.6091C352.787 57.9554 354.018 58.2978 355.203 58.6273C365.314 61.4401 372.002 63.3006 378.847 58.449C381.093 59.4048 385.238 65.7406 390.58 73.9086C392.107 76.2416 393.73 78.724 395.436 81.2731C395.734 75.9851 393.222 70.1072 389.227 60.7588C388.92 60.0416 388.605 59.3038 388.282 58.5444C400.855 57.7204 408.484 59.728 422.614 65.5815C428.159 68.6772 425.704 79.3892 422.663 92.6634C421.625 97.1936 420.519 102.022 419.639 106.949C426.479 95.9763 429.337 88.0353 433.034 71.0764C450.847 76.8097 455.449 87.6636 463.445 106.522C463.574 106.826 463.703 107.131 463.834 107.439C461.846 119.84 459.977 126.873 451.888 139.915C456.808 136.582 460.758 131.327 466.976 123.054C467.504 122.352 468.048 121.628 468.611 120.881C468.541 134.01 468.518 141.337 472.887 145.272C472.395 145.818 471.92 146.347 471.457 146.862C466.416 152.476 462.862 156.434 455.241 162.707C461.641 159.135 465.532 155.854 472.9 148.248C474.86 153.949 475.205 157.309 474.479 163.537C461.696 172.071 458.579 175.236 458.838 178.536C458.922 179.944 459.275 180.48 460.315 181.094C463.632 181.925 466.764 179.208 471.605 175.008C472.087 174.589 472.587 174.156 473.105 173.71C473.173 174.924 473.237 176.109 473.299 177.266L473.299 177.268C473.323 177.707 473.346 178.142 473.369 178.573C473.931 188.937 474.453 197.094 476.938 204.817M261.88 47.1087C293.349 83.561 312.843 102.669 343.566 109.515M261.88 47.1087C262.355 47.3844 262.82 47.6528 263.275 47.9157C270.865 52.3009 275.847 55.1792 286.505 65.3702M455.453 210.334L459.97 216.679C460.817 221.221 460.196 222.369 458.397 223.556C456.953 224.446 458.021 227.751 460.184 234.035C460.36 237.317 460.165 238.908 458.427 240.592C457.276 241.434 458.609 242.97 461.566 246.027C461.221 247.652 460.803 248.986 460.458 250.087C459.771 252.278 459.373 253.549 460.412 254.367C463.331 260.464 467.563 266.013 475.105 273.17C474.585 272.812 474.087 272.473 473.607 272.146C469.049 269.041 466.078 267.017 460.623 260.641C456.031 265.607 457.049 268.731 458.399 272.874C459.286 275.597 460.316 278.76 459.991 283.175C460.987 283.441 461.96 283.695 462.886 283.936C468.312 285.35 472.125 286.344 469.488 287.071C463.835 285.987 459.154 287.495 460.202 289.448C462.724 294.147 465.025 298.356 467.108 302.168L467.109 302.169C486.393 337.449 487.091 338.726 472.277 379.254M455.453 210.334C444.88 203.244 442.336 198.569 439.014 189.982C437.391 180.64 441.1 175.135 440.853 171.014C440.606 166.893 439.29 169.785 439.29 169.785C438.117 176.504 436.365 179.319 433.269 184.294M455.453 210.334C455.967 210.465 456.479 210.599 456.99 210.735M433.218 184.375C416.772 141.858 395.177 156.883 385.775 143.553C396.195 131.82 398.328 120.19 403.954 101.935C404.445 98.6665 402.194 97.4089 400.424 100.989M433.218 184.375L433.269 184.294M433.218 184.375C433.235 184.348 433.252 184.321 433.269 184.294M400.424 100.989L400.196 101.648M400.424 100.989C400.347 101.21 400.271 101.429 400.196 101.648M465.155 213.108C457.418 195.41 454.426 183.82 450.837 160.986C440.704 127.188 406.841 93.0207 384.564 87.5498C369.832 83.9317 353.86 80.8232 338.879 77.9075C316.983 73.6461 297.204 69.7966 286.505 65.3702M465.155 213.108C472.16 215.332 478.885 217.989 485.065 221.164M465.155 213.108C462.47 212.255 459.743 211.466 456.99 210.735M343.566 109.515C347.579 110.409 351.784 111.094 356.232 111.581C362.316 106.474 365.391 100.025 370.923 89.0302C372.346 86.7732 375.081 86.6301 374.404 89.1521C372.77 92.2277 372.066 98.671 363.649 111.136C370.818 125.475 374.834 133.473 381.345 135.879C392.136 124.947 395.076 116.448 400.196 101.648M343.566 109.515C323.404 89.8031 309.65 85.498 302.553 83.2765C298.938 82.1449 297.05 81.5539 296.922 79.7424C296.384 76.4939 294.68 74.2424 291.384 70.1499C289.629 68.3943 288.011 66.8093 286.505 65.3702M472.277 379.254C484.469 350.021 492.32 332.809 490.039 315.282C476.549 239.28 469.236 221.509 456.99 210.735M472.277 379.254C471.732 380.746 471.166 382.29 470.579 383.892M485.065 221.164L486.418 221.872M485.065 221.164C485.519 221.397 485.97 221.633 486.418 221.872M486.418 221.872L486.419 221.873C481.662 215.952 478.768 210.502 476.938 204.817M486.418 221.872C492.406 225.065 497.85 228.765 502.499 233.053C502.22 233.531 501.946 234 501.676 234.461C495.639 244.792 492.01 251.001 488.215 265.601C486.409 271.333 487.725 272.137 488.462 269.722C493.266 253.966 497.12 246.841 504.702 235.191C506.713 240.869 509.914 244.603 512.933 248.126C516.878 252.729 520.512 256.969 520.775 264.708L506.784 291.118L520.701 269.44C521.162 280.912 516.279 290.824 510.182 303.2C507.42 308.804 504.41 314.913 501.535 321.901L473.311 394.858L467.529 392.228C468.582 389.338 469.582 386.61 470.528 384.029M486.418 221.872C481.661 215.952 478.768 210.502 476.938 204.817M470.542 383.992L470.528 384.029M470.542 383.992L470.579 383.892M470.542 383.992C470.537 384.005 470.533 384.017 470.528 384.029M470.542 383.992C470.554 383.959 470.566 383.925 470.579 383.892" stroke="#89B68D" stroke-width="3" stroke-linecap="round" stroke-linejoin="round"/>
<path fill-rule="evenodd" clip-rule="evenodd" d="M486.418 221.872L485.065 221.164C485.519 221.397 485.97 221.633 486.418 221.872ZM486.418 221.872C485.047 220.166 483.831 218.498 482.75 216.853C483.831 218.499 485.048 220.166 486.419 221.873L486.418 221.872Z" fill="url(#paint7_linear)"/>
<path d="M439.014 189.982C442.336 198.569 444.88 203.244 455.453 210.334C455.967 210.465 456.479 210.599 456.99 210.735C459.743 211.466 462.47 212.255 465.155 213.108C457.418 195.41 454.426 183.82 450.837 160.986C440.704 127.188 406.841 93.0207 384.564 87.5498C369.832 83.9317 353.86 80.8232 338.879 77.9075C316.983 73.6461 297.204 69.7966 286.505 65.3702C288.011 66.8093 289.629 68.3943 291.384 70.1499C294.68 74.2424 296.384 76.4939 296.922 79.7424C297.05 81.5539 298.938 82.1449 302.553 83.2765C309.65 85.498 323.404 89.8031 343.566 109.515C347.579 110.409 351.784 111.094 356.232 111.581C362.316 106.474 365.391 100.025 370.923 89.0302C372.346 86.7732 375.081 86.6301 374.404 89.1521C372.77 92.2277 372.066 98.671 363.649 111.136C370.818 125.475 374.834 133.473 381.345 135.879C392.136 124.947 395.076 116.448 400.196 101.648L400.424 100.989C402.194 97.4089 404.445 98.6665 403.954 101.935C398.328 120.19 396.195 131.82 385.775 143.553C395.177 156.883 416.772 141.858 433.218 184.375L433.269 184.294C436.365 179.319 438.117 176.504 439.29 169.785C439.29 169.785 440.606 166.893 440.853 171.014C441.1 175.135 437.391 180.64 439.014 189.982Z" fill="url(#paint8_linear)"/>
<path d="M422.614 65.5815C408.484 59.728 400.855 57.7204 388.282 58.5444C388.605 59.3038 388.92 60.0416 389.227 60.7588C393.222 70.1072 395.734 75.9851 395.436 81.2731C393.731 78.7249 392.108 76.2435 390.582 73.9113L390.58 73.9086C385.238 65.7406 381.093 59.4048 378.847 58.449C372.002 63.3006 365.314 61.4401 355.203 58.6273C354.018 58.2978 352.787 57.9554 351.503 57.6091C352.656 59.8003 353.551 61.7497 354.391 63.5805C357.182 69.6576 359.372 74.4283 368.375 82.4011C364.598 83.2494 357.81 73.9902 348.308 61.0272C346.516 58.5833 344.628 56.0079 342.646 53.3437C340.113 51.8228 338.712 51.9165 336.693 53.37C334.814 54.0959 330.036 50.5821 322.292 44.8859C321.806 44.5284 321.308 44.1622 320.798 43.788C288.695 34.1371 259.17 42.4152 261.88 47.1087C262.355 47.3844 262.82 47.6528 263.275 47.9157C270.865 52.3009 275.847 55.1792 286.505 65.3702C297.204 69.7966 316.983 73.6461 338.879 77.9075C353.86 80.8232 369.832 83.9317 384.564 87.5498C406.841 93.0207 440.704 127.188 450.837 160.986C454.426 183.82 457.418 195.41 465.155 213.108C472.16 215.332 478.885 217.989 485.065 221.164C485.519 221.397 485.97 221.633 486.418 221.872C485.047 220.166 483.831 218.498 482.75 216.853C482.339 216.226 481.946 215.602 481.573 214.981C481.043 214.099 480.551 213.222 480.093 212.347C479.517 211.246 478.995 210.148 478.523 209.048C477.92 207.645 477.396 206.239 476.938 204.817C474.453 197.094 473.931 188.937 473.369 178.573C473.346 178.142 473.323 177.707 473.299 177.268L473.299 177.266C473.237 176.109 473.173 174.924 473.105 173.71C472.587 174.156 472.087 174.589 471.605 175.008C466.764 179.208 463.632 181.925 460.315 181.094C459.275 180.48 458.922 179.944 458.838 178.536C458.579 175.236 461.696 172.071 474.479 163.537C475.205 157.309 474.86 153.949 472.9 148.248C465.532 155.854 461.641 159.135 455.241 162.707C462.862 156.434 466.416 152.476 471.457 146.862L471.482 146.834C471.937 146.328 472.404 145.808 472.887 145.272C468.518 141.337 468.541 134.01 468.611 120.881C468.048 121.628 467.504 122.352 466.976 123.054C460.758 131.327 456.808 136.582 451.888 139.915C459.977 126.873 461.846 119.84 463.834 107.439L463.445 106.522C455.449 87.6636 450.847 76.8097 433.034 71.0764C429.337 88.0353 426.479 95.9763 419.639 106.949C420.519 102.022 421.625 97.1936 422.663 92.6634C425.704 79.3892 428.159 68.6772 422.614 65.5815Z" fill="url(#paint9_linear)"/>
<path d="M261.88 47.1087C259.17 42.4152 288.695 34.1371 320.798 43.788C321.308 44.1622 321.806 44.5284 322.292 44.8859C330.036 50.5821 334.814 54.0959 336.693 53.37C338.712 51.9164 340.113 51.8228 342.646 53.3437C344.628 56.0079 346.516 58.5833 348.308 61.0272C357.81 73.9902 364.598 83.2495 368.375 82.4011C359.372 74.4283 357.182 69.6576 354.391 63.5805C353.551 61.7497 352.656 59.8003 351.503 57.6091C352.787 57.9554 354.018 58.2978 355.203 58.6273C365.314 61.4401 372.002 63.3006 378.847 58.449C381.093 59.4048 385.238 65.7406 390.58 73.9086M261.88 47.1087C293.349 83.561 312.843 102.669 343.566 109.515M261.88 47.1087C262.355 47.3844 262.82 47.6528 263.275 47.9157C270.865 52.3009 275.847 55.1792 286.505 65.3702M463.834 107.439C461.846 119.84 459.977 126.873 451.888 139.915C456.808 136.582 460.758 131.327 466.976 123.054C467.504 122.352 468.048 121.628 468.611 120.881C468.541 134.01 468.518 141.337 472.887 145.272C472.404 145.808 471.937 146.328 471.482 146.834M463.834 107.439C463.703 107.131 463.574 106.826 463.445 106.522M463.834 107.439L463.445 106.522M455.453 210.334L459.97 216.679C460.817 221.221 460.196 222.369 458.397 223.556C456.953 224.446 458.021 227.751 460.184 234.035C460.36 237.317 460.165 238.908 458.427 240.592C457.276 241.434 458.609 242.97 461.566 246.027C461.221 247.652 460.803 248.986 460.458 250.087C459.771 252.278 459.373 253.549 460.412 254.367C463.331 260.464 467.563 266.013 475.105 273.17C474.585 272.812 474.087 272.473 473.607 272.146C469.049 269.041 466.078 267.017 460.623 260.641C456.031 265.607 457.049 268.731 458.399 272.874C459.286 275.597 460.316 278.76 459.991 283.175C460.987 283.441 461.96 283.695 462.886 283.936C468.312 285.35 472.125 286.344 469.488 287.071C463.835 285.987 459.154 287.495 460.202 289.448C462.723 294.144 465.022 298.352 467.105 302.163M455.453 210.334C444.88 203.244 442.336 198.569 439.014 189.982C437.391 180.64 441.1 175.135 440.853 171.014C440.606 166.893 439.29 169.785 439.29 169.785C438.117 176.504 436.365 179.319 433.269 184.294M455.453 210.334C455.967 210.465 456.479 210.599 456.99 210.735M433.218 184.375C416.772 141.858 395.177 156.883 385.775 143.553C396.195 131.82 398.328 120.19 403.954 101.935C404.445 98.6665 402.194 97.4089 400.424 100.989M433.218 184.375L433.269 184.294M433.218 184.375C433.235 184.348 433.252 184.321 433.269 184.294M400.424 100.989L400.196 101.648M400.424 100.989C400.347 101.21 400.271 101.429 400.196 101.648M465.155 213.108C457.418 195.41 454.426 183.82 450.837 160.986C440.704 127.188 406.841 93.0207 384.564 87.5498C369.832 83.9317 353.86 80.8232 338.879 77.9075C316.983 73.6461 297.204 69.7966 286.505 65.3702M465.155 213.108C472.16 215.332 478.885 217.989 485.065 221.164M465.155 213.108C462.47 212.255 459.743 211.466 456.99 210.735M343.566 109.515C347.579 110.409 351.784 111.094 356.232 111.581C362.316 106.474 365.391 100.025 370.923 89.0302C372.346 86.7732 375.081 86.6301 374.404 89.1521C372.77 92.2277 372.066 98.671 363.649 111.136C370.818 125.475 374.834 133.473 381.345 135.879C392.136 124.947 395.076 116.448 400.196 101.648M343.566 109.515C323.404 89.8031 309.65 85.498 302.553 83.2765C298.938 82.1449 297.05 81.5539 296.922 79.7424C296.384 76.4939 294.68 74.2424 291.384 70.1499C289.629 68.3943 288.011 66.8093 286.505 65.3702M472.277 379.254C487.091 338.726 486.393 337.449 467.109 302.169L467.108 302.168M472.277 379.254C471.733 380.742 471.168 382.283 470.583 383.88M472.277 379.254C473.046 377.411 473.797 375.615 474.53 373.864C485.419 347.848 492.176 331.703 490.039 315.282C476.549 239.28 469.236 221.509 456.99 210.735M485.065 221.164L486.418 221.872M485.065 221.164C485.519 221.397 485.97 221.633 486.418 221.872M486.418 221.872L486.419 221.873C485.048 220.166 483.831 218.499 482.75 216.853M486.418 221.872C492.406 225.065 497.85 228.765 502.499 233.053C502.22 233.531 501.946 234 501.676 234.461C495.639 244.792 492.01 251.001 488.215 265.601C486.409 271.333 487.725 272.137 488.462 269.722C493.266 253.966 497.12 246.841 504.702 235.191C506.713 240.869 509.914 244.603 512.933 248.126C516.878 252.729 520.512 256.969 520.775 264.708L506.784 291.118L520.701 269.44C521.162 280.912 516.279 290.824 510.182 303.2C507.42 308.804 504.41 314.913 501.535 321.901L473.311 394.858L467.529 392.228C468.576 389.356 469.57 386.644 470.51 384.078M486.418 221.872C485.047 220.166 483.831 218.498 482.75 216.853M470.542 383.992L470.528 384.029M470.542 383.992L470.579 383.892M470.542 383.992C470.537 384.005 470.533 384.017 470.528 384.029M470.542 383.992C470.554 383.959 470.566 383.925 470.579 383.892M471.457 146.862C466.416 152.476 462.862 156.434 455.241 162.707C461.641 159.135 465.532 155.854 472.9 148.248C474.86 153.949 475.205 157.309 474.479 163.537C461.696 172.071 458.579 175.236 458.838 178.536C458.922 179.944 459.275 180.48 460.315 181.094C463.632 181.925 466.764 179.208 471.605 175.008C472.087 174.589 472.587 174.156 473.105 173.71C473.173 174.924 473.237 176.109 473.299 177.266L473.299 177.268C473.323 177.707 473.346 178.142 473.369 178.573C473.931 188.937 474.453 197.094 476.938 204.817C477.396 206.239 477.92 207.645 478.523 209.048C478.995 210.148 479.517 211.246 480.093 212.347C480.551 213.222 481.043 214.099 481.573 214.981C481.946 215.602 482.339 216.226 482.75 216.853M471.457 146.862L471.482 146.834M471.457 146.862C471.465 146.853 471.474 146.844 471.482 146.834M463.445 106.522C455.449 87.6636 450.847 76.8097 433.034 71.0764C429.337 88.0353 426.479 95.9763 419.639 106.949C420.519 102.022 421.625 97.1936 422.663 92.6634C425.704 79.3892 428.159 68.6772 422.614 65.5815C408.484 59.728 400.855 57.7204 388.282 58.5444C388.605 59.3038 388.92 60.0416 389.227 60.7588C393.222 70.1072 395.734 75.9851 395.436 81.2731C393.731 78.7249 392.108 76.2435 390.582 73.9113M390.58 73.9086L390.582 73.9113M390.58 73.9086C390.581 73.9095 390.582 73.9104 390.582 73.9113M470.528 384.029L470.51 384.078M470.528 384.029C470.522 384.045 470.516 384.062 470.51 384.078M470.579 383.892L470.583 383.88M470.579 383.892C470.58 383.888 470.581 383.884 470.583 383.88M467.108 302.168L467.105 302.163M467.108 302.168C467.107 302.166 467.106 302.165 467.105 302.163" stroke="#89B68D" stroke-width="3" stroke-linecap="round" stroke-linejoin="round"/>
<path d="M449.51 374.9C430.299 386.491 417.45 407.591 417.45 431.697C417.45 453.642 428.098 473.095 444.501 485.151V486.45C444.501 492.801 449.65 497.95 456.001 497.95H483.575H511.149C517.5 497.95 522.649 492.801 522.649 486.45V485.151L522.685 485.125C539.067 473.066 549.7 453.626 549.7 431.697C549.7 407.591 536.85 386.491 517.639 374.9H449.51Z" fill="url(#paint10_linear)" stroke="#89B68D" stroke-width="3"/>
<path fill-rule="evenodd" clip-rule="evenodd" d="M40.25 205.85C33.8987 205.85 28.75 210.999 28.75 217.35V425.095C28.75 431.447 33.8987 436.595 40.25 436.595H120.055H167.636H179.531H195.284H219.075H258.619H397.9C404.251 436.595 409.4 431.447 409.4 425.095V217.35C409.4 210.999 404.251 205.85 397.9 205.85H40.25ZM395.254 225.701C395.254 222.526 392.68 219.951 389.504 219.951H48.6458C45.4701 219.951 42.8958 222.526 42.8958 225.701V416.744C42.8958 419.92 45.4701 422.494 48.6458 422.494H389.504C392.68 422.494 395.254 419.92 395.254 416.744V225.701Z" fill="#F0F6ED"/>
<path d="M179.531 436.595H167.636H120.055H40.25C33.8987 436.595 28.75 431.447 28.75 425.095V217.35C28.75 210.999 33.8987 205.85 40.25 205.85H397.9C404.251 205.85 409.4 210.999 409.4 217.35V425.095C409.4 431.447 404.251 436.595 397.9 436.595H258.619M179.531 436.595H195.284H219.075H258.619M179.531 436.595V482.104M179.531 482.104H219.075H258.619M179.531 482.104H141.879C138.704 482.104 136.129 484.678 136.129 487.854V491.737C136.129 494.912 138.704 497.487 141.879 497.487H296.271C299.446 497.487 302.021 494.912 302.021 491.737V487.854C302.021 484.678 299.446 482.104 296.271 482.104H258.619M258.619 482.104V436.595M48.6458 422.494H389.504C392.68 422.494 395.254 419.92 395.254 416.744V225.701C395.254 222.526 392.68 219.951 389.504 219.951H48.6458C45.4701 219.951 42.8958 222.526 42.8958 225.701V416.744C42.8958 419.92 45.4701 422.494 48.6458 422.494Z" stroke="#89B68D" stroke-width="3.45"/>
<path d="M219.075 436.595H195.284H179.531V482.104H219.075H258.619V436.595H219.075Z" fill="url(#paint11_linear)"/>
<path d="M42.8958 225.701C42.8958 222.526 45.4701 219.951 48.6458 219.951H389.504C392.68 219.951 395.254 222.526 395.254 225.701V416.744C395.254 419.92 392.68 422.494 389.504 422.494H48.6458C45.4701 422.494 42.8958 419.92 42.8958 416.744V225.701Z" fill="url(#paint12_linear)"/>
<path d="M219.075 482.104H179.531H141.879C138.704 482.104 136.129 484.678 136.129 487.854V491.737C136.129 494.912 138.704 497.487 141.879 497.487H296.271C299.446 497.487 302.021 494.912 302.021 491.737V487.854C302.021 484.678 299.446 482.104 296.271 482.104H258.619H219.075Z" fill="url(#paint13_linear)"/>
<path d="M179.531 436.595H167.636H120.055H40.25C33.8987 436.595 28.75 431.447 28.75 425.095V217.35C28.75 210.999 33.8987 205.85 40.25 205.85H397.9C404.251 205.85 409.4 210.999 409.4 217.35V425.095C409.4 431.447 404.251 436.595 397.9 436.595H258.619M179.531 436.595H195.284H219.075H258.619M179.531 436.595V482.104M179.531 482.104H219.075H258.619M179.531 482.104H141.879C138.704 482.104 136.129 484.678 136.129 487.854V491.737C136.129 494.912 138.704 497.487 141.879 497.487H296.271C299.446 497.487 302.021 494.912 302.021 491.737V487.854C302.021 484.678 299.446 482.104 296.271 482.104H258.619M258.619 482.104V436.595M48.6458 422.494H389.504C392.68 422.494 395.254 419.92 395.254 416.744V225.701C395.254 222.526 392.68 219.951 389.504 219.951H48.6458C45.4701 219.951 42.8958 222.526 42.8958 225.701V416.744C42.8958 419.92 45.4701 422.494 48.6458 422.494Z" stroke="#89B68D" stroke-width="3.45"/>
<path fill-rule="evenodd" clip-rule="evenodd" d="M173.65 311.925C173.65 341.592 193.063 365.895 217.37 367.333V383.164H204.009V387.55H235.299V383.164H221.93V367.333C246.237 365.895 265.65 341.592 265.65 311.925C265.65 307.756 265.267 303.694 264.54 299.786L264.602 299.711L264.514 299.643C259.867 274.945 241.514 256.45 219.65 256.45C194.288 256.45 173.65 281.337 173.65 311.925ZM261.09 311.925C261.09 339.149 243.719 361.473 221.93 362.938V351.091L260.65 304.47C260.94 306.904 261.09 309.393 261.09 311.925ZM217.37 362.938V350.953L178.667 304.336C178.366 306.812 178.21 309.347 178.21 311.925C178.21 339.149 195.581 361.473 217.37 362.938ZM259.666 298.627L221.93 344.064V308.178L248.872 275.738C253.959 281.982 257.742 289.84 259.666 298.627ZM217.37 343.924V308.076L190.484 275.691C185.397 281.914 181.604 289.746 179.663 298.507L217.37 343.924ZM245.839 272.363L221.93 301.151V260.913C230.968 261.52 239.246 265.716 245.839 272.363ZM217.37 301.047V260.913C208.368 261.52 200.11 265.7 193.521 272.321L217.37 301.047Z" fill="#89B68D"/>
</g>
<defs>
<linearGradient id="paint0_linear" x1="403.65" y1="29.9001" x2="269.1" y2="660.1" gradientUnits="userSpaceOnUse">
<stop stop-color="#E7F1E8"/>
<stop offset="0.927779" stop-color="#89B68D"/>
</linearGradient>
<linearGradient id="paint1_linear" x1="403.65" y1="29.9001" x2="269.1" y2="660.1" gradientUnits="userSpaceOnUse">
<stop stop-color="#E7F1E8"/>
<stop offset="0.927779" stop-color="#89B68D"/>
</linearGradient>
<linearGradient id="paint2_linear" x1="403.65" y1="29.9001" x2="269.1" y2="660.1" gradientUnits="userSpaceOnUse">
<stop stop-color="#E7F1E8"/>
<stop offset="0.927779" stop-color="#89B68D"/>
</linearGradient>
<linearGradient id="paint3_linear" x1="403.65" y1="29.9001" x2="269.1" y2="660.1" gradientUnits="userSpaceOnUse">
<stop stop-color="#E7F1E8"/>
<stop offset="0.927779" stop-color="#89B68D"/>
</linearGradient>
<linearGradient id="paint4_linear" x1="582.475" y1="55.2" x2="469.775" y2="431.825" gradientUnits="userSpaceOnUse">
<stop stop-color="#E7F1E8"/>
<stop offset="1" stop-color="#89B68D"/>
</linearGradient>
<linearGradient id="paint5_linear" x1="319.7" y1="160.425" x2="585.35" y2="543.95" gradientUnits="userSpaceOnUse">
<stop stop-color="#F0F6ED"/>
<stop offset="1" stop-color="#89B68D"/>
</linearGradient>
<linearGradient id="paint6_linear" x1="364.55" y1="-27.6001" x2="457.125" y2="347.3" gradientUnits="userSpaceOnUse">
<stop stop-color="#89B68D"/>
<stop offset="1" stop-color="#E7F1E8"/>
</linearGradient>
<linearGradient id="paint7_linear" x1="324.505" y1="9.0355" x2="528.772" y2="362.838" gradientUnits="userSpaceOnUse">
<stop stop-color="#E7F1E8"/>
<stop offset="1" stop-color="#F0F6ED"/>
</linearGradient>
<linearGradient id="paint8_linear" x1="324.505" y1="9.0355" x2="528.772" y2="362.838" gradientUnits="userSpaceOnUse">
<stop stop-color="#E7F1E8"/>
<stop offset="1" stop-color="#F0F6ED"/>
</linearGradient>
<linearGradient id="paint9_linear" x1="324.505" y1="9.0355" x2="528.772" y2="362.838" gradientUnits="userSpaceOnUse">
<stop stop-color="#E7F1E8"/>
<stop offset="1" stop-color="#F0F6ED"/>
</linearGradient>
<linearGradient id="paint10_linear" x1="438.725" y1="374.9" x2="527.85" y2="480.7" gradientUnits="userSpaceOnUse">
<stop stop-color="#F0F6ED"/>
<stop offset="1" stop-color="white"/>
</linearGradient>
<linearGradient id="paint11_linear" x1="219.661" y1="280.809" x2="219.661" y2="621.051" gradientUnits="userSpaceOnUse">
<stop stop-color="#E7F1E8"/>
<stop offset="1" stop-color="#89B68D"/>
</linearGradient>
<linearGradient id="paint12_linear" x1="219.661" y1="280.809" x2="219.661" y2="621.051" gradientUnits="userSpaceOnUse">
<stop stop-color="#E7F1E8"/>
<stop offset="1" stop-color="#89B68D"/>
</linearGradient>
<linearGradient id="paint13_linear" x1="219.661" y1="280.809" x2="219.661" y2="621.051" gradientUnits="userSpaceOnUse">
<stop stop-color="#E7F1E8"/>
<stop offset="1" stop-color="#89B68D"/>
</linearGradient>
<clipPath id="clip0">
<rect width="621" height="506" fill="white"/>
</clipPath>
</defs>
</svg>
