<svg width="612" height="271" viewBox="0 0 612 271" fill="none" xmlns="http://www.w3.org/2000/svg">
<path d="M78.3019 155.58C68.8872 162.533 62.9404 178.427 69.9413 192.335C71.0135 194.128 72.152 195.935 73.3468 197.744L73.4559 197.909C73.5201 198.006 73.5847 198.104 73.6499 198.202C74.9916 200.225 76.5401 202.501 78.3347 204.915C78.3129 204.856 78.2973 204.794 78.289 204.731C76.3626 190.309 92.2225 179.228 118.868 170.798C135.858 165.422 157.234 161.123 181.181 157.724C193.62 155.958 206.752 154.434 220.323 153.128C223.749 152.798 227.203 152.482 230.68 152.18C247.17 150.746 264.197 149.614 281.324 148.742C302.501 147.663 323.832 146.981 344.493 146.613L341.404 125.783L339.93 115.845C338.272 104.417 334.793 94.641 329.348 87.3524C327.914 85.4324 326.343 83.685 324.633 82.1255C323.268 80.8805 321.814 79.7553 320.271 78.7576C309.878 80.3465 299.601 82.0563 289.479 83.8767C269.149 87.5331 249.444 91.6359 230.68 96.1033C200.664 103.25 173.058 111.329 149.16 120.005C141.645 122.733 134.497 125.52 127.756 128.356C120.858 131.257 114.387 134.21 108.384 137.202C96.3553 143.199 86.2118 149.355 78.3019 155.58Z" fill="url(#paint0_linear)"/>
<path d="M414.563 147.725L420.698 147.822L442.756 148.172L453.828 148.348C508.456 123.926 530.864 99.1758 520.583 83.2963C518.148 79.5341 513.877 76.2699 507.766 73.6259C504.601 72.2567 500.943 71.0538 496.789 70.0342C483.043 66.6597 463.879 65.2935 439.266 66.5516C438.977 66.5664 438.687 66.5813 438.398 66.5963C431.74 66.9419 425.072 67.3486 418.401 67.814L416.339 110.735L414.563 147.725Z" fill="url(#paint1_linear)"/>
<path d="M144.984 199.609L140.954 217.278C148.697 222.936 157.866 227.614 167.441 230.707C175.149 229.371 182.836 227.962 190.491 226.489C174.591 221.75 156.341 211.474 144.984 199.609Z" fill="url(#paint2_linear)"/>
<path d="M107.041 239.538C111.497 239.014 115.957 238.46 120.42 237.877L121.305 188.343C116.13 189.946 111.19 191.675 106.53 193.543C102.316 195.231 100.006 199.7 100.795 204.17L105.192 229.066L107.041 239.538Z" fill="url(#paint3_linear)"/>
<path d="M215.062 221.52V195.67C215.062 194.45 214.839 193.241 214.404 192.101L207.073 172.915C205.211 173.097 203.351 173.285 201.495 173.48L201.349 173.495L208.458 192.101C208.893 193.241 209.116 194.45 209.116 195.67V221.783C209.116 222.29 209.582 222.669 210.079 222.566C211.742 222.22 213.403 221.871 215.062 221.52Z" fill="url(#paint4_linear)"/>
<path d="M304.586 186.141C305.022 187.28 305.245 188.49 305.245 189.71V199.361C307.235 198.805 309.218 198.248 311.191 197.689V189.71C311.191 188.49 310.968 187.28 310.532 186.141L303.493 167.717C301.55 167.764 299.587 167.814 297.604 167.866L304.586 186.141Z" fill="url(#paint5_linear)"/>
<path d="M120.42 237.877C115.957 238.46 111.497 239.014 107.041 239.538C100.039 240.36 93.1006 241.211 86.6089 241.987C85.9711 242.063 85.3424 242.2 84.7308 242.397L2 269.008H84.6503H568.282H610L568.282 154.536V87.3524C567.795 107.117 527.598 135.958 439.266 169.218C362.042 195.726 258.928 219.128 145.197 234.348C142.389 234.78 139.581 235.202 136.772 235.612C131.321 236.409 125.869 237.165 120.42 237.877Z" fill="url(#paint6_linear)"/>
<path d="M97.1306 117.335L96.3353 116.063L97.1306 117.335ZM401.868 3.59261L401.435 2.15654V2.15654L401.868 3.59261ZM62.9405 178.427L61.5115 178.884C61.5216 178.915 61.5327 178.946 61.5448 178.977L62.9405 178.427ZM88.2121 137.202L87.4131 135.933L88.2121 137.202ZM294.839 73.6259L294.673 72.1351L294.668 72.1357L294.839 73.6259ZM69.9413 192.335L68.6538 193.104L68.6538 193.104L69.9413 192.335ZM78.3019 155.58L79.1931 156.786C79.2054 156.777 79.2175 156.768 79.2296 156.758L78.3019 155.58ZM144.961 232.867C144.142 232.997 143.584 233.765 143.714 234.583C143.844 235.401 144.612 235.96 145.43 235.83L144.961 232.867ZM420.698 19.9834L422.197 20.0553L422.197 20.0546L420.698 19.9834ZM339.93 115.845L338.446 116.06L338.447 116.065L339.93 115.845ZM344.493 146.613L345.977 146.393V146.393L344.493 146.613ZM418.401 67.814L416.903 67.742V67.742L418.401 67.814ZM136.772 235.612L136.989 237.096L136.772 235.612ZM305.245 199.361L305.648 200.806H305.648L305.245 199.361ZM326.056 193.394L326.48 194.833L326.056 193.394ZM121.305 188.343L120.861 186.91L121.305 188.343ZM238.887 170.375L238.791 168.878L238.887 170.375ZM334 167.073L333.969 165.574L334 167.073ZM347.483 166.775L348.967 166.555L347.483 166.775ZM73.3468 197.744L72.0952 198.571L73.3468 197.744ZM78.3347 204.915L77.1308 205.81L78.3347 204.915ZM105.192 229.066L106.669 228.806L105.192 229.066ZM167.441 230.707L167.698 232.185L167.441 230.707ZM439.266 61.0957L439.157 59.5997L439.266 61.0957ZM439.266 66.5516L439.189 65.0536L439.266 66.5516ZM439.266 154.536L439.828 155.927L439.266 154.536ZM439.266 169.218L439.753 170.637C439.767 170.632 439.781 170.627 439.794 170.622L439.266 169.218ZM287.333 39.9875L286.856 38.5654L287.333 39.9875ZM204.929 69.0861L204.402 67.6816L204.929 69.0861ZM230.68 59.632L230.172 58.2205L230.68 59.632ZM239.085 170.363L238.99 168.866L239.085 170.363ZM255.006 116.275C254.421 116.861 254.421 117.811 255.007 118.396C255.594 118.981 256.543 118.981 257.129 118.395L255.006 116.275ZM220.323 153.128L220.467 154.621L220.323 153.128ZM239.257 136.291C239.842 135.705 239.841 134.755 239.255 134.17C238.669 133.585 237.719 133.585 237.134 134.171L239.257 136.291ZM255.533 129.416C256.118 128.829 256.118 127.88 255.531 127.294C254.945 126.709 253.996 126.71 253.41 127.296L255.533 129.416ZM281.324 148.742L281.401 150.24L281.324 148.742ZM315.238 116.904C315.823 116.318 315.823 115.369 315.236 114.783C314.65 114.198 313.7 114.198 313.115 114.785L315.238 116.904ZM293.778 120.849C293.192 121.435 293.193 122.385 293.779 122.97C294.366 123.556 295.315 123.555 295.901 122.969L293.778 120.849ZM329.348 87.3524L330.55 86.4547L329.348 87.3524ZM324.633 82.1255L325.644 81.0172L324.633 82.1255ZM306.014 98.6472C305.429 99.2334 305.43 100.183 306.016 100.768C306.602 101.354 307.552 101.353 308.137 100.767L306.014 98.6472ZM330.907 134.171C330.322 134.758 330.323 135.707 330.909 136.293C331.495 136.878 332.445 136.877 333.03 136.291L330.907 134.171ZM341.404 125.783L342.888 125.563L341.404 125.783ZM230.68 96.1033L230.333 94.6441L230.68 96.1033ZM197.411 127.296C196.825 127.882 196.826 128.832 197.412 129.417C197.998 130.003 198.948 130.002 199.534 129.416L197.411 127.296ZM215.885 120.849C215.299 121.435 215.3 122.385 215.886 122.97C216.472 123.556 217.422 123.555 218.007 122.969L215.885 120.849ZM233.029 107.927C233.614 107.34 233.614 106.391 233.028 105.805C232.441 105.22 231.492 105.221 230.906 105.807L233.029 107.927ZM181.181 157.724L181.392 159.209L181.181 157.724ZM200.125 140.876C200.71 140.29 200.709 139.34 200.123 138.755C199.537 138.17 198.587 138.17 198.002 138.756L200.125 140.876ZM182.242 122.969C182.828 122.383 182.827 121.433 182.241 120.848C181.654 120.262 180.705 120.263 180.119 120.849L182.242 122.969ZM153.324 147.682C152.738 148.268 152.739 149.218 153.325 149.803C153.911 150.389 154.861 150.388 155.446 149.802L153.324 147.682ZM128.314 138.756C127.729 139.343 127.729 140.292 128.316 140.878C128.902 141.463 129.851 141.462 130.437 140.876L128.314 138.756ZM127.756 128.356L127.175 126.973L127.756 128.356ZM170.652 121.065C171.237 120.479 171.236 119.529 170.65 118.944C170.064 118.358 169.114 118.359 168.529 118.945L170.652 121.065ZM156.756 130.734C156.171 131.32 156.171 132.27 156.758 132.855C157.344 133.441 158.294 133.44 158.879 132.854L156.756 130.734ZM152.87 138.871C153.456 138.285 153.455 137.335 152.869 136.75C152.283 136.164 151.333 136.165 150.747 136.751L152.87 138.871ZM92.9446 171.423C93.5299 170.836 93.5293 169.887 92.9431 169.301C92.3569 168.716 91.4072 168.717 90.8218 169.303L92.9446 171.423ZM98.3948 161.719C97.8094 162.305 97.8101 163.255 98.3963 163.841C98.9825 164.426 99.9322 164.425 100.518 163.839L98.3948 161.719ZM118.584 145.747C119.17 145.161 119.169 144.211 118.583 143.626C117.997 143.041 117.047 143.041 116.462 143.628L118.584 145.747ZM108.384 137.202L107.715 135.86L108.384 137.202ZM77.2733 166.233C76.6879 166.82 76.6886 167.769 77.2748 168.355C77.8609 168.94 78.8107 168.939 79.3961 168.353L77.2733 166.233ZM453.828 148.348L454.44 149.717L453.828 148.348ZM414.563 147.725L413.064 147.653L414.563 147.725ZM443.816 126.844C444.402 126.258 444.402 125.309 443.817 124.723C443.231 124.137 442.282 124.136 441.695 124.722L443.816 126.844ZM449.81 114.783C449.224 115.369 449.224 116.319 449.81 116.905C450.395 117.491 451.345 117.491 451.931 116.906L449.81 114.783ZM471.688 97.1644C472.274 96.5788 472.274 95.6291 471.689 95.0431C471.103 94.4571 470.153 94.4567 469.567 95.0422L471.688 97.1644ZM478.397 86.2914C477.811 86.8769 477.811 87.8267 478.396 88.4127C478.982 88.9987 479.932 88.9991 480.518 88.4135L478.397 86.2914ZM496.789 70.0342L497.147 68.5775L496.789 70.0342ZM469.567 109.673C468.981 110.259 468.981 111.209 469.567 111.795C470.152 112.381 471.102 112.381 471.688 111.796L469.567 109.673ZM442.756 148.172L442.732 149.672L442.756 148.172ZM460.207 132.855C460.793 132.27 460.794 131.32 460.208 130.734C459.623 130.148 458.673 130.147 458.087 130.733L460.207 132.855ZM472.976 130.733C472.389 131.318 472.389 132.268 472.975 132.854C473.56 133.44 474.51 133.441 475.096 132.855L472.976 130.733ZM497.85 110.12C498.436 109.534 498.436 108.584 497.851 107.998C497.265 107.412 496.315 107.412 495.729 107.997L497.85 110.12ZM506.706 95.0422C506.12 95.6278 506.119 96.5775 506.705 97.1636C507.291 97.7496 508.24 97.75 508.826 97.1644L506.706 95.0422ZM416.339 110.735L414.841 110.663L416.339 110.735ZM443.816 85.4005C444.402 84.8149 444.402 83.8652 443.817 83.2791C443.231 82.6931 442.282 82.6927 441.695 83.2783L443.816 85.4005ZM441.695 100.648C441.109 101.234 441.109 102.184 441.695 102.77C442.28 103.356 443.23 103.356 443.816 102.77L441.695 100.648ZM469.182 77.4251C469.768 76.8396 469.768 75.8898 469.182 75.3038C468.597 74.7178 467.647 74.7174 467.061 75.303L469.182 77.4251ZM425.167 77.6965C424.581 78.2821 424.58 79.2318 425.166 79.8179C425.751 80.4039 426.701 80.4043 427.287 79.8187L425.167 77.6965ZM61.0305 167.858L62.5292 167.797L61.0305 167.858ZM65.2169 183.613L63.8651 184.263L65.2169 183.613ZM73.6499 198.202L72.3998 199.031L72.3998 199.031L73.6499 198.202ZM80.0042 207.105L81.1858 206.181L80.0042 207.105ZM62.2632 176.082L60.8109 176.457L62.2632 176.082ZM73.4559 197.909L72.2048 198.737L72.2049 198.737L73.4559 197.909ZM610 269.008V270.508C610.49 270.508 610.948 270.269 611.229 269.868C611.51 269.467 611.577 268.954 611.409 268.494L610 269.008ZM568.282 154.536H566.782C566.782 154.711 566.813 154.885 566.873 155.05L568.282 154.536ZM2 269.008L1.5407 267.58C0.837498 267.806 0.403646 268.51 0.518122 269.24C0.632598 269.97 1.26132 270.508 2 270.508L2 269.008ZM106.53 193.543L105.972 192.15L106.53 193.543ZM100.795 204.17L99.3184 204.431L100.795 204.17ZM310.532 186.141L311.934 185.605L310.532 186.141ZM304.586 186.141L303.185 186.676L304.586 186.141ZM230.586 192.101L231.987 192.636L230.586 192.101ZM326.715 186.141L328.116 186.676L326.715 186.141ZM214.404 192.101L213.002 192.636L214.404 192.101ZM208.458 192.101L207.056 192.636L208.458 192.101ZM86.6089 241.987L86.7869 243.476L86.6089 241.987ZM84.7308 242.397L84.2715 240.969L84.7308 242.397ZM78.289 204.731L76.8022 204.93L78.289 204.731ZM69.0223 187.726C62.2146 173.167 68.1898 151.577 89.0111 138.472L87.4131 135.933C65.6206 149.649 58.7125 172.76 66.3047 188.997L69.0223 187.726ZM89.0111 138.472C130.887 112.115 212.909 84.5357 295.01 75.1161L294.668 72.1357C212.261 81.5903 129.773 109.271 87.4131 135.933L89.0111 138.472ZM71.2811 191.66C64.6448 178.477 70.2992 163.355 79.1931 156.786L77.4107 154.373C67.4752 161.712 61.2361 178.378 68.6015 193.009L71.2811 191.66ZM145.43 235.83L145.432 235.83L144.962 232.867L144.961 232.867L145.43 235.83ZM350.785 187.45C373.865 180.22 395.238 172.89 414.284 165.815L413.239 163.003C394.245 170.058 372.922 177.371 349.888 184.587L350.785 187.45ZM402.302 5.02868C404.509 4.36267 406.748 3.78239 408.858 3.5778C410.97 3.37291 412.825 3.55858 414.338 4.30219C417.196 5.70634 419.69 9.60874 419.2 19.9122L422.197 20.0546C422.698 9.49703 420.237 3.85852 415.662 1.60977C413.458 0.526936 410.977 0.358159 408.568 0.591812C406.156 0.825772 403.687 1.47702 401.435 2.15654L402.302 5.02868ZM295.005 75.1167C304.98 74.0057 313.062 75.8847 319.456 80.0174L321.085 77.4978C314.02 72.932 305.222 70.9602 294.673 72.1351L295.005 75.1167ZM419.2 19.9114L417.13 63.0138L420.126 63.1577L422.197 20.0553L419.2 19.9114ZM417.13 63.0138L416.903 67.742L419.899 67.886L420.126 63.1577L417.13 63.0138ZM107.216 241.027C111.678 240.503 116.145 239.949 120.615 239.364L120.226 236.39C115.769 236.972 111.315 237.525 106.866 238.048L107.216 241.027ZM120.615 239.364C126.071 238.651 131.53 237.894 136.989 237.096L136.555 234.128C131.111 234.924 125.666 235.679 120.226 236.39L120.615 239.364ZM213.562 195.67V221.52H216.562V195.67H213.562ZM228.428 195.67V218.013H231.428V195.67H228.428ZM207.616 195.67V221.783H210.616V195.67H207.616ZM303.745 189.71V199.361H306.745V189.71H303.745ZM305.648 200.806C307.64 200.25 309.625 199.692 311.6 199.132L310.782 196.246C308.811 196.804 306.83 197.361 304.842 197.916L305.648 200.806ZM309.691 189.71V197.689H312.691V189.71H309.691ZM311.6 199.132C316.618 197.71 321.58 196.276 326.48 194.833L325.633 191.955C320.742 193.395 315.79 194.827 310.782 196.246L311.6 199.132ZM326.48 194.833C334.766 192.393 342.875 189.927 350.785 187.45L349.888 184.587C341.995 187.059 333.902 189.52 325.633 191.955L326.48 194.833ZM324.556 189.71V193.394H327.556V189.71H324.556ZM107.088 194.935C111.706 193.085 116.607 191.368 121.749 189.776L120.861 186.91C115.653 188.523 110.675 190.266 105.972 192.15L107.088 194.935ZM119.805 188.316L118.92 237.85L121.92 237.904L122.805 188.37L119.805 188.316ZM121.749 189.776C130.379 187.104 139.682 184.785 149.462 182.769L148.857 179.831C139.002 181.862 129.602 184.204 120.861 186.91L121.749 189.776ZM149.462 182.769C165.804 179.401 183.459 176.885 201.506 174.987L201.192 172.003C183.078 173.909 165.321 176.437 148.857 179.831L149.462 182.769ZM199.948 174.031L207.056 192.636L209.859 191.566L202.75 172.96L199.948 174.031ZM207.219 174.408C217.771 173.377 228.42 172.547 238.982 171.872L238.791 168.878C228.201 169.555 217.519 170.387 206.927 171.422L207.219 174.408ZM205.672 173.45L213.002 192.636L215.805 191.566L208.474 172.379L205.672 173.45ZM296.203 168.401L303.185 186.676L305.987 185.605L299.005 167.331L296.203 168.401ZM297.644 169.366C299.625 169.313 301.588 169.264 303.53 169.217L303.457 166.218C301.513 166.265 299.548 166.314 297.565 166.367L297.644 169.366ZM302.092 168.252L309.131 186.676L311.934 185.605L304.895 167.182L302.092 168.252ZM303.53 169.217C314.445 168.952 324.705 168.762 334.03 168.573L333.969 165.574C324.651 165.763 314.38 165.953 303.457 166.218L303.53 169.217ZM332.599 166.538L325.314 185.605L328.116 186.676L335.401 167.609L332.599 166.538ZM334.03 168.573C338.783 168.477 343.293 168.381 347.52 168.275L347.445 165.276C343.226 165.381 338.721 165.477 333.969 165.574L334.03 168.573ZM351.82 185.798L348.967 166.555L345.999 166.995L348.852 186.238L351.82 185.798ZM348.967 166.555L345.977 146.393L343.009 146.833L345.999 166.995L348.967 166.555ZM66.348 189.082C68.058 192.203 69.992 195.387 72.0952 198.571L74.5984 196.917C72.5352 193.794 70.6448 190.681 68.979 187.641L66.348 189.082ZM99.3184 204.431L103.715 229.327L106.669 228.806L102.273 203.909L99.3184 204.431ZM147.697 180.966L143.521 199.275L146.446 199.942L150.622 181.633L147.697 180.966ZM143.521 199.275L139.491 216.944L142.416 217.611L146.446 199.942L143.521 199.275ZM139.491 216.944L135.31 235.279L138.234 235.946L142.416 217.611L139.491 216.944ZM143.9 200.646C155.466 212.729 173.956 223.126 190.062 227.927L190.919 225.052C175.226 220.374 157.216 210.219 146.067 198.572L143.9 200.646ZM136.989 237.096C139.801 236.685 142.614 236.263 145.425 235.831L144.969 232.866C142.165 233.297 139.36 233.718 136.555 234.128L136.989 237.096ZM145.425 235.831C152.86 234.687 160.288 233.469 167.698 232.185L167.185 229.229C159.794 230.51 152.384 231.725 144.969 232.866L145.425 235.831ZM167.698 232.185C175.414 230.847 183.111 229.437 190.774 227.962L190.207 225.016C182.562 226.488 174.883 227.894 167.185 229.229L167.698 232.185ZM140.069 218.489C147.944 224.244 157.257 228.993 166.98 232.134L167.902 229.279C158.475 226.234 149.45 221.629 141.839 216.067L140.069 218.489ZM237.486 169.84L229.185 191.566L231.987 192.636L240.288 170.911L237.486 169.84ZM103.715 229.327L105.564 239.798L108.518 239.277L106.669 228.806L103.715 229.327ZM418.811 64.5745C425.176 63.7913 432.04 63.1267 439.375 62.5918L439.157 59.5997C431.778 60.1378 424.864 60.8071 418.445 61.597L418.811 64.5745ZM414.284 165.815C423.347 162.449 431.884 159.14 439.828 155.927L438.703 153.146C430.788 156.347 422.278 159.646 413.239 163.003L414.284 165.815ZM145.396 235.835C259.198 220.605 362.414 197.184 439.753 170.637L438.779 167.799C361.671 194.267 258.658 217.65 144.998 232.861L145.396 235.835ZM287.81 41.4097C327.656 28.0468 367.661 15.4793 402.302 5.02868L401.435 2.15654C366.771 12.6142 326.736 25.191 286.856 38.5654L287.81 41.4097ZM97.9259 118.606C120.489 104.497 159.79 87.6225 205.456 70.4905L204.402 67.6816C158.741 84.8119 119.182 101.776 96.3353 116.063L97.9259 118.606ZM205.456 70.4905C213.843 67.3437 222.443 64.1895 231.188 61.0434L230.172 58.2205C221.416 61.3707 212.804 64.5296 204.402 67.6816L205.456 70.4905ZM66.3481 189.082C67.0775 190.413 67.8476 191.756 68.6538 193.104L71.2288 191.565C70.4407 190.247 69.6893 188.937 68.979 187.64L66.3481 189.082ZM231.188 61.0434C240.903 57.5484 250.798 54.0636 260.784 50.6104L259.804 47.7751C249.807 51.232 239.9 54.721 230.172 58.2205L231.188 61.0434ZM260.784 50.6103C261.195 50.4685 261.605 50.3266 262.016 50.1848L261.037 47.3491C260.626 47.491 260.215 47.633 259.804 47.7751L260.784 50.6103ZM262.017 50.1845L262.072 50.1654L261.091 47.3302L261.036 47.3494L262.017 50.1845ZM261.037 47.3492L259.804 47.775L260.784 50.6105L262.016 50.1847L261.037 47.3492ZM262.016 50.1848C270.569 47.2315 279.186 44.302 287.81 41.4097L286.856 38.5654C278.224 41.4603 269.599 44.3927 261.037 47.3491L262.016 50.1848ZM238.982 171.872C239.049 171.868 239.115 171.864 239.18 171.86L238.99 168.866C238.924 168.87 238.857 168.874 238.791 168.878L238.982 171.872ZM239.18 171.86C259.424 170.57 279.341 169.849 297.644 169.366L297.565 166.367C279.242 166.85 259.285 167.573 238.99 168.866L239.18 171.86ZM238.982 171.872L239.181 171.86L238.99 168.866L238.791 168.878L238.982 171.872ZM215.373 222.987C220.266 221.95 225.139 220.89 229.989 219.808L229.336 216.88C224.496 217.96 219.634 219.018 214.751 220.052L215.373 222.987ZM229.989 219.808C256.074 213.989 281.481 207.547 305.648 200.806L304.842 197.916C280.722 204.645 255.366 211.073 229.336 216.88L229.989 219.808ZM190.774 227.962C197.338 226.699 203.878 225.388 210.385 224.035L209.774 221.097C203.281 222.448 196.756 223.756 190.207 225.016L190.774 227.962ZM210.385 224.035C212.05 223.688 213.713 223.339 215.373 222.987L214.751 220.052C213.094 220.403 211.435 220.752 209.774 221.097L210.385 224.035ZM201.506 174.987C201.555 174.982 201.603 174.977 201.652 174.972L201.339 171.988C201.29 171.993 201.24 171.998 201.192 172.003L201.506 174.987ZM201.652 174.972C203.504 174.777 205.36 174.589 207.219 174.408L206.927 171.422C205.061 171.604 203.198 171.793 201.339 171.988L201.652 174.972ZM201.506 174.987L201.652 174.972L201.338 171.988L201.192 172.003L201.506 174.987ZM68.6538 193.104C69.7383 194.918 70.8888 196.744 72.0952 198.571L74.5984 196.917C73.4152 195.126 72.2888 193.338 71.2288 191.565L68.6538 193.104ZM289.744 85.353C299.854 83.5349 310.118 81.8274 320.497 80.2404L320.044 77.2749C309.638 78.8657 299.349 80.5776 289.213 82.4004L289.744 85.353ZM288.418 82.8168L255.006 116.275L257.129 118.395L290.54 84.9367L288.418 82.8168ZM237.134 134.171L219.262 152.068L221.385 154.188L239.257 136.291L237.134 134.171ZM220.467 154.621C223.888 154.292 227.337 153.976 230.81 153.674L230.55 150.686C227.068 150.988 223.61 151.305 220.179 151.635L220.467 154.621ZM231.742 153.24L255.533 129.416L253.41 127.296L229.619 151.12L231.742 153.24ZM230.81 153.674C247.279 152.242 264.288 151.112 281.401 150.24L281.248 147.244C264.105 148.117 247.06 149.25 230.55 150.686L230.81 153.674ZM281.401 150.24C302.559 149.162 323.873 148.48 344.52 148.113L344.466 145.113C323.791 145.481 302.444 146.164 281.248 147.244L281.401 150.24ZM282.386 149.802L315.238 116.904L313.115 114.785L280.263 147.682L282.386 149.802ZM328.146 88.2502C333.396 95.2765 336.811 104.79 338.446 116.06L341.415 115.629C339.734 104.044 336.191 94.0055 330.55 86.4547L328.146 88.2502ZM295.901 122.969L330.41 88.4124L328.287 86.2925L293.778 120.849L295.901 122.969ZM319.456 80.0174C320.929 80.9689 322.317 82.0431 323.622 83.2338L325.644 81.0172C324.219 79.718 322.7 78.5417 321.085 77.4978L319.456 80.0174ZM323.622 83.2338C325.258 84.7253 326.765 86.4013 328.146 88.2502L330.55 86.4547C329.062 84.4635 327.428 82.6447 325.644 81.0172L323.622 83.2338ZM323.572 81.0656L306.014 98.6472L308.137 100.767L325.695 83.1854L323.572 81.0656ZM345.977 146.393L342.888 125.563L339.92 126.003L343.009 146.833L345.977 146.393ZM342.888 125.563L341.414 115.624L338.447 116.065L339.92 126.003L342.888 125.563ZM333.03 136.291L342.466 126.843L340.343 124.723L330.907 134.171L333.03 136.291ZM231.028 97.5625C249.763 93.102 269.441 89.0047 289.744 85.353L289.213 82.4004C268.858 86.0614 249.125 90.1699 230.333 94.6441L231.028 97.5625ZM229.619 95.0434L197.411 127.296L199.534 129.416L231.742 97.1632L229.619 95.0434ZM218.007 122.969L233.029 107.927L230.906 105.807L215.885 120.849L218.007 122.969ZM181.392 159.209C193.804 157.447 206.914 155.926 220.467 154.621L220.179 151.635C206.59 152.943 193.435 154.469 180.97 156.239L181.392 159.209ZM198.002 138.756L180.119 156.664L182.242 158.784L200.125 140.876L198.002 138.756ZM180.119 120.849L153.324 147.682L155.446 149.802L182.242 122.969L180.119 120.849ZM79.7758 204.533C78.9074 198.031 81.9831 192.127 88.7993 186.69C95.6418 181.233 106.063 176.422 119.32 172.228L118.415 169.367C105.027 173.604 94.196 178.549 86.9287 184.345C79.6352 190.162 75.7442 197.009 76.8022 204.93L79.7758 204.533ZM119.32 172.228C136.2 166.887 157.485 162.603 181.392 159.209L180.97 156.239C156.984 159.644 135.517 163.956 118.415 169.367L119.32 172.228ZM149.672 121.415C173.505 112.762 201.055 104.699 231.028 97.5625L230.333 94.6441C200.273 101.801 172.61 109.896 148.648 118.595L149.672 121.415ZM148.098 118.945L128.314 138.756L130.437 140.876L150.221 121.065L148.098 118.945ZM128.338 129.738C135.053 126.913 142.178 124.135 149.672 121.415L148.648 118.595C141.112 121.331 133.941 124.127 127.175 126.973L128.338 129.738ZM158.879 132.854L170.652 121.065L168.529 118.945L156.756 130.734L158.879 132.854ZM150.747 136.751L117.806 169.738L119.929 171.857L152.87 138.871L150.747 136.751ZM71.0027 193.395L92.9446 171.423L90.8218 169.303L68.8799 191.275L71.0027 193.395ZM100.518 163.839L118.584 145.747L116.462 143.628L98.3948 161.719L100.518 163.839ZM79.2296 156.758C87.0345 150.616 97.083 144.512 109.054 138.545L107.715 135.86C95.6275 141.886 85.389 148.093 77.3742 154.401L79.2296 156.758ZM109.054 138.545C115.023 135.569 121.466 132.629 128.338 129.738L127.175 126.973C120.251 129.886 113.75 132.851 107.715 135.86L109.054 138.545ZM107.323 136.142L77.2733 166.233L79.3961 168.353L109.446 138.262L107.323 136.142ZM453.216 146.979C448.61 149.038 443.772 151.095 438.703 153.146L439.828 155.927C444.929 153.864 449.799 151.792 454.44 149.717L453.216 146.979ZM413.064 147.653L412.263 164.337L415.26 164.481L416.061 147.797L413.064 147.653ZM414.539 149.225L420.675 149.322L420.722 146.323L414.586 146.225L414.539 149.225ZM421.759 148.883L443.816 126.844L441.695 124.722L419.638 146.761L421.759 148.883ZM451.931 116.906L471.688 97.1644L469.567 95.0422L449.81 114.783L451.931 116.906ZM439.342 68.0496C463.881 66.7954 482.883 68.1649 496.432 71.491L497.147 68.5775C483.204 65.1545 463.878 63.7916 439.189 65.0536L439.342 68.0496ZM480.518 88.4135L497.85 71.0953L495.729 68.9731L478.397 86.2914L480.518 88.4135ZM496.432 71.491C500.52 72.4945 504.097 73.6727 507.171 75.0026L508.362 72.2492C505.106 70.8406 501.365 69.613 497.147 68.5775L496.432 71.491ZM506.706 72.5648L469.567 109.673L471.688 111.796L508.826 74.687L506.706 72.5648ZM420.675 149.322L442.732 149.672L442.78 146.673L420.722 146.323L420.675 149.322ZM442.732 149.672L453.804 149.848L453.852 146.848L442.78 146.673L442.732 149.672ZM443.816 149.234L460.207 132.855L458.087 130.733L441.695 147.111L443.816 149.234ZM475.096 132.855L497.85 110.12L495.729 107.997L472.976 130.733L475.096 132.855ZM507.171 75.0026C513.124 77.5781 517.106 80.6846 519.324 84.1114L521.843 82.4811C519.19 78.3836 514.631 74.9616 508.362 72.2492L507.171 75.0026ZM519.324 84.1114C521.628 87.6706 522.131 91.7285 520.737 96.2869C519.327 100.902 515.961 106.043 510.482 111.562C499.526 122.597 480.459 134.799 453.216 146.979L454.44 149.717C481.825 137.475 501.276 125.091 512.611 113.676C518.277 107.969 522 102.419 523.606 97.1639C525.23 91.8524 524.678 86.8617 521.843 82.4811L519.324 84.1114ZM508.826 97.1644L521.644 84.3573L519.523 82.2352L506.706 95.0422L508.826 97.1644ZM417.4 111.796L443.816 85.4005L441.695 83.2783L415.279 109.673L417.4 111.796ZM443.816 102.77L469.182 77.4251L467.061 75.303L441.695 100.648L443.816 102.77ZM418.505 69.3104C425.167 68.8455 431.827 68.4394 438.476 68.0943L438.32 65.0983C431.654 65.4444 424.976 65.8516 418.297 66.3176L418.505 69.3104ZM438.476 68.0943C438.765 68.0793 439.054 68.0644 439.342 68.0496L439.189 65.0536C438.9 65.0684 438.61 65.0833 438.32 65.0983L438.476 68.0943ZM427.287 79.8187L439.458 67.6574L437.338 65.5352L425.167 77.6965L427.287 79.8187ZM416.903 67.742L414.841 110.663L417.838 110.807L419.899 67.886L416.903 67.742ZM414.841 110.663L413.064 147.653L416.061 147.797L417.838 110.807L414.841 110.663ZM96.3353 116.063C75.0818 129.353 58.6786 146.858 59.5317 167.919L62.5292 167.797C61.7466 148.475 76.833 131.797 97.9259 118.606L96.3353 116.063ZM61.5448 178.977C62.2234 180.7 63.0009 182.467 63.8651 184.263L66.5686 182.963C65.7323 181.224 64.9849 179.525 64.3361 177.878L61.5448 178.977ZM63.8651 184.263C64.6273 185.848 65.4576 187.457 66.348 189.082L68.979 187.641C68.1118 186.058 67.306 184.496 66.5686 182.963L63.8651 184.263ZM72.3998 199.031C73.7489 201.065 75.3139 203.365 77.1308 205.81L79.5385 204.02C77.7664 201.636 76.2344 199.385 74.9 197.373L72.3998 199.031ZM77.1308 205.81C77.6719 206.538 78.2355 207.279 78.8225 208.029L81.1858 206.181C80.6149 205.451 80.0661 204.73 79.5385 204.02L77.1308 205.81ZM78.8225 208.029C84.68 215.52 92.8796 223.996 104.468 230.38L105.916 227.753C94.7916 221.624 86.8847 213.47 81.1858 206.181L78.8225 208.029ZM59.5317 167.919C59.6449 170.715 60.0633 173.562 60.8109 176.457L63.7156 175.707C63.0197 173.012 62.6337 170.375 62.5292 167.797L59.5317 167.919ZM60.8109 176.457C61.0188 177.263 61.2522 178.071 61.5115 178.884L64.3694 177.971C64.127 177.212 63.9093 176.457 63.7156 175.707L60.8109 176.457ZM86.7869 243.476C93.2856 242.699 100.215 241.85 107.216 241.027L106.866 238.048C99.863 238.87 92.9155 239.722 86.4308 240.497L86.7869 243.476ZM439.375 62.5918C480.771 59.5729 512.997 60.7614 534.753 65.3465C545.642 67.6412 553.787 70.7623 559.141 74.5377C564.46 78.2874 566.899 82.5751 566.782 87.3155L569.782 87.3894C569.93 81.359 566.739 76.2234 560.87 72.0858C555.038 67.9738 546.44 64.7435 535.372 62.4109C513.215 57.7415 480.667 56.5725 439.157 59.5997L439.375 62.5918ZM566.782 87.3155C566.673 91.7609 564.315 96.9436 559.207 102.821C554.114 108.681 546.407 115.091 535.895 121.969C514.874 135.722 482.856 151.202 438.737 167.814L439.794 170.622C484.007 153.974 516.254 138.404 537.537 124.48C548.176 117.519 556.13 110.935 561.472 104.789C566.798 98.6606 569.648 92.8264 569.782 87.3894L566.782 87.3155ZM568.282 267.508H84.6503V270.508H568.282V267.508ZM72.0955 198.571L72.2046 198.736L74.7072 197.082L74.5982 196.917L72.0955 198.571ZM72.2049 198.737C72.2693 198.834 72.3343 198.932 72.3998 199.031L74.9 197.373C74.8352 197.275 74.7709 197.178 74.707 197.081L72.2049 198.737ZM72.0952 198.571C72.1317 198.626 72.1682 198.681 72.2048 198.737L74.707 197.082C74.6706 197.026 74.6344 196.972 74.5984 196.917L72.0952 198.571ZM568.282 270.508H610V267.508H568.282V270.508ZM566.782 87.3524V154.536H569.782V87.3524H566.782ZM611.409 268.494L569.691 154.023L566.873 155.05L608.591 269.521L611.409 268.494ZM84.2715 240.969L1.5407 267.58L2.4593 270.436L85.1901 243.825L84.2715 240.969ZM2 270.508H84.6503V267.508H2V270.508ZM105.972 192.15C101.057 194.12 98.4136 199.307 99.3184 204.431L102.273 203.909C101.599 200.093 103.576 196.343 107.088 194.935L105.972 192.15ZM312.691 189.71C312.691 188.307 312.434 186.916 311.934 185.605L309.131 186.676C309.501 187.645 309.691 188.673 309.691 189.71H312.691ZM306.745 189.71C306.745 188.307 306.488 186.916 305.987 185.605L303.185 186.676C303.555 187.645 303.745 188.673 303.745 189.71H306.745ZM228.428 218.013C228.428 217.47 228.805 216.999 229.336 216.88L229.989 219.808C230.83 219.62 231.428 218.875 231.428 218.013H228.428ZM231.428 195.67C231.428 194.633 231.617 193.605 231.987 192.636L229.185 191.566C228.684 192.876 228.428 194.267 228.428 195.67H231.428ZM327.556 189.71C327.556 188.673 327.746 187.645 328.116 186.676L325.314 185.605C324.813 186.916 324.556 188.307 324.556 189.71H327.556ZM216.562 195.67C216.562 194.267 216.306 192.876 215.805 191.566L213.002 192.636C213.373 193.605 213.562 194.633 213.562 195.67H216.562ZM210.616 195.67C210.616 194.267 210.359 192.876 209.859 191.566L207.056 192.636C207.426 193.605 207.616 194.633 207.616 195.67H210.616ZM86.4308 240.497C85.6977 240.585 84.9748 240.743 84.2715 240.969L85.1901 243.825C85.7099 243.658 86.2444 243.541 86.7869 243.476L86.4308 240.497ZM207.616 221.783C207.616 223.241 208.956 224.331 210.384 224.035L209.774 221.097C210.209 221.007 210.616 221.339 210.616 221.783H207.616ZM79.742 204.396C79.7577 204.438 79.7692 204.483 79.7758 204.533L76.8022 204.93C76.8254 205.104 76.8681 205.273 76.9273 205.434L79.742 204.396Z" fill="#89B68D"/>
<defs>
<linearGradient id="paint0_linear" x1="158.707" y1="136.008" x2="547.631" y2="278.58" gradientUnits="userSpaceOnUse">
<stop stop-color="white"/>
<stop offset="1" stop-color="#E7F1E8"/>
</linearGradient>
<linearGradient id="paint1_linear" x1="158.707" y1="136.008" x2="547.631" y2="278.58" gradientUnits="userSpaceOnUse">
<stop stop-color="white"/>
<stop offset="1" stop-color="#E7F1E8"/>
</linearGradient>
<linearGradient id="paint2_linear" x1="158.707" y1="136.008" x2="547.631" y2="278.58" gradientUnits="userSpaceOnUse">
<stop stop-color="white"/>
<stop offset="1" stop-color="#E7F1E8"/>
</linearGradient>
<linearGradient id="paint3_linear" x1="158.707" y1="136.008" x2="547.631" y2="278.58" gradientUnits="userSpaceOnUse">
<stop stop-color="white"/>
<stop offset="1" stop-color="#E7F1E8"/>
</linearGradient>
<linearGradient id="paint4_linear" x1="158.707" y1="136.008" x2="547.631" y2="278.58" gradientUnits="userSpaceOnUse">
<stop stop-color="white"/>
<stop offset="1" stop-color="#E7F1E8"/>
</linearGradient>
<linearGradient id="paint5_linear" x1="158.707" y1="136.008" x2="547.631" y2="278.58" gradientUnits="userSpaceOnUse">
<stop stop-color="white"/>
<stop offset="1" stop-color="#E7F1E8"/>
</linearGradient>
<linearGradient id="paint6_linear" x1="158.707" y1="136.008" x2="547.631" y2="278.58" gradientUnits="userSpaceOnUse">
<stop stop-color="white"/>
<stop offset="1" stop-color="#E7F1E8"/>
</linearGradient>
</defs>
</svg>
