<svg width="539" height="247" viewBox="0 0 539 247" fill="none" xmlns="http://www.w3.org/2000/svg">
<path d="M2 244.88L537.5 244.88C499.5 244.88 478.5 224.379 459.5 235.118C448 241.618 438 239.664 429 233.618L411.5 221.863C390.5 209.059 379 233.618 357 221.863C333.038 209.059 319.711 202.554 288 214.118C259.5 224.118 254 221.618 229.972 202.618C215 190.779 209 195.186 194 202.618C181 209.059 172.974 187.118 171.5 166.118C167.416 107.918 247.096 56.1327 298.88 56.1159C284.94 56.0116 282.82 52.3178 270.5 41.1182C258 29.7545 236.5 29.7182 220 41.1182C192.5 60.1182 176 62.1182 138.5 30.1182C125.5 20.1182 115.232 26.6182 112.5 42.6182C108.73 64.6923 100.5 71.3909 82 78.1182C65.5 84.1182 73.5 104.118 75 118.118C77.397 140.49 70.5 151.998 41 166.118C11.5 180.238 11.7717 213.351 2 244.88Z" fill="url(#paint0_linear)"/>
<path d="M2 244.88C8.5 122.618 107.5 -93.3819 312.595 48.7241C330.087 59.744 336.435 65.1023 353.935 62.8805C373.087 60.4491 400.879 68.8107 405.379 92.3107C409.879 115.811 421.935 133.88 446.879 133.88C412.876 142.168 396.328 133.88 393 110.618C391.092 97.2792 389.951 89.949 383.5 86.1182C374.511 82.3879 369.908 85.0033 358.954 92.3107C348 99.6182 335.5 95.1182 329 84.1182C322.5 73.1182 323.634 69.8694 318.5 62.8805C313.092 57.2859 309.236 55.3599 299.5 56.1182M2 244.88L537.5 244.88M2 244.88C11.7717 213.351 11.5 180.238 41 166.118C70.5 151.998 77.397 140.49 75 118.118C73.5 104.118 65.5 84.1182 82 78.1182C100.5 71.3909 108.73 64.6923 112.5 42.6182C115.232 26.6182 125.5 20.1182 138.5 30.1182C176 62.1182 192.5 60.1182 220 41.1182C236.5 29.7182 258 29.7545 270.5 41.1182C282.82 52.3178 284.94 56.0116 298.88 56.1159M537.5 244.88C485.763 234.405 479.287 211.238 457.778 221.863C447.89 226.747 442.662 226.694 433.944 221.863C421.155 213.133 411.194 193.355 385.113 209.059C375.577 214.673 368.836 214.83 358.954 209.059C341.877 199.087 307 178.324 275.5 198.002C261.965 206.458 257.808 186.177 250.609 178.324C245.109 172.324 239.222 172.536 229.972 178.324C218.811 185.307 173.5 194.618 171.5 166.118M537.5 244.88C499.5 244.88 478.5 224.379 459.5 235.118C448 241.618 438 239.664 429 233.618M171.5 166.118C172.974 187.118 181 209.059 194 202.618C209 195.186 215 190.779 229.972 202.618C254 221.618 259.5 224.118 288 214.118C319.711 202.554 333.038 209.059 357 221.863C379 233.618 390.5 209.059 411.5 221.863M171.5 166.118C167.416 107.918 247.096 56.1327 298.88 56.1159M299.5 56.1182C299.294 56.1166 299.087 56.1158 298.88 56.1159M299.5 56.1182C299.291 56.1182 299.084 56.1174 298.88 56.1159M411.5 221.863C418.334 226.454 422.166 229.027 429 233.618M411.5 221.863L429 233.618" stroke="#89B68D" stroke-width="3" stroke-linejoin="round"/>
<path d="M312.595 48.7241C311.93 48.2633 311.266 47.8064 310.603 47.3531C307.44 45.19 304.302 43.1122 301.19 41.1182C293.645 36.284 286.248 31.9419 279 28.0681C274.735 25.7884 270.52 23.6708 266.358 21.7106C262.358 19.8272 258.405 18.089 254.5 16.4917C246.107 13.0587 237.931 10.2766 229.972 8.10246C221.043 5.66338 212.386 3.98945 204 3.02025C198.465 2.38052 193.047 2.04782 187.747 2.00478C182.203 1.95976 176.788 2.23163 171.5 2.80049C164.165 3.58966 157.075 4.95043 150.23 6.82968C142.691 8.89935 135.448 11.5979 128.5 14.8544C93.299 31.3521 65.6485 62.1696 45.2712 98.0832C40.2148 106.995 35.6062 116.22 31.4412 125.618C27.3119 134.936 23.6187 144.423 20.3573 153.943C15.1846 169.042 11.0983 184.223 8.0819 198.938C4.77905 215.051 2.75896 230.605 2 244.88C8.15476 225.021 10.3251 204.534 18.4599 188.56C23.2129 179.227 30.0019 171.435 40.8113 166.209C40.8741 166.179 40.937 166.148 41 166.118C63.7096 155.248 73.0242 145.926 75.0156 132.005C75.6111 127.842 75.5518 123.268 75 118.118C74.8636 116.845 74.6735 115.522 74.4529 114.165C73.8184 110.261 72.9319 106.071 72.3485 101.952C71.2651 94.3041 71.2264 86.9039 75.7853 82.0438C77.3033 80.4254 79.3312 79.0886 82 78.1182C99.819 71.6385 108.111 65.1855 112.065 44.9941C112.216 44.2224 112.361 43.4307 112.5 42.6182C115.232 26.6182 125.5 20.1182 138.5 30.1182C139.545 31.0098 140.573 31.875 141.586 32.7142C144.6 35.2105 147.475 37.4765 150.23 39.5219C153.861 42.2174 157.283 44.5297 160.539 46.481C169.01 51.5576 176.354 54.1905 183.305 54.7698C189.928 55.3219 196.194 54.0094 202.739 51.1698C208.179 48.8096 213.811 45.3944 220 41.1182C225.43 37.3663 231.402 34.8531 237.417 33.5748C248.507 31.2176 259.742 33.0593 267.993 39.0753C268.863 39.7099 269.7 40.3908 270.5 41.1182C273.155 43.5321 275.337 45.5974 277.265 47.3531C281.19 50.9268 284.065 53.2184 287.749 54.5585C290.653 55.6147 294.06 56.0798 298.88 56.1159C299.087 56.1158 299.294 56.1166 299.5 56.1182C307.827 55.4696 311.853 56.7848 316.228 60.6797C316.968 61.3385 317.718 62.0711 318.5 62.8805C320.961 66.2305 321.982 68.7212 323.093 71.6182C324.287 74.7275 325.585 78.3049 328.88 83.9152C328.92 83.9826 328.96 84.0502 329 84.1182C330.639 86.8912 332.658 89.2511 334.939 91.1129C337.747 93.4057 340.95 94.943 344.322 95.5663C349.074 96.4446 354.162 95.5075 358.954 92.3107C361.588 90.5536 363.855 89.0677 365.903 87.8762C372.375 84.1124 376.672 83.2849 383.5 86.1182C384.049 86.4445 384.56 86.7962 385.037 87.1748C388.564 89.9797 390.184 94.2629 391.422 100.655C391.979 103.53 392.458 106.832 393 110.618C393.256 112.406 393.59 114.105 394.003 115.716C395.143 120.151 396.89 123.909 399.285 126.976C401.706 130.077 404.788 132.471 408.574 134.142C411.296 135.343 414.381 136.17 417.845 136.618C425.578 137.618 435.199 136.727 446.879 133.88C435.097 133.88 426.191 129.849 419.597 123.118C416.906 120.371 414.601 117.174 412.642 113.618C410.682 110.059 409.07 106.14 407.767 101.952C406.809 98.8717 406.018 95.6459 405.379 92.3107C405.084 90.7677 404.688 89.2899 404.201 87.8762C402.557 83.1088 399.875 79.0696 396.5 75.7114C393.386 72.6128 389.682 70.0941 385.661 68.1182C382.432 66.5311 378.998 65.2942 375.5 64.3882C371.513 63.3555 367.443 62.7528 363.5 62.5517C360.181 62.3824 356.951 62.4977 353.935 62.8805C352.373 63.0788 350.9 63.2167 349.5 63.2956C338.428 63.9195 331.92 60.8527 322.138 54.7698C319.297 53.0034 316.18 50.9827 312.595 48.7241Z" fill="url(#paint1_linear)"/>
<path d="M537.5 244.88C522.397 241.822 511.151 237.683 502.262 233.618C497.376 231.384 493.202 229.172 489.491 227.175C485.637 225.101 482.283 223.259 479.149 221.863C474.858 219.952 470.98 218.878 466.799 219.193C464 219.405 461.064 220.239 457.778 221.863C451.294 225.066 446.814 226.145 442.039 225.147C439.533 224.623 436.945 223.526 433.944 221.863C432.453 220.845 431.001 219.678 429.557 218.433C426.23 215.567 422.947 212.294 419.342 209.517C415.324 206.422 410.905 203.943 405.576 203.329C399.963 202.683 393.34 204.106 385.113 209.059C378.16 213.153 372.693 214.345 366.41 212.453C364.076 211.75 361.63 210.622 358.954 209.059L358.429 208.753C357.204 208.037 355.892 207.27 354.5 206.471C351.002 204.461 347.002 202.244 342.616 200.1C338.539 198.107 334.128 196.179 329.479 194.542C325.894 193.279 322.168 192.19 318.342 191.377C310.963 189.81 303.216 189.273 295.407 190.51C288.752 191.565 282.053 193.909 275.5 198.002C274.582 198.576 273.708 199.017 272.873 199.339C267.657 201.349 263.97 198.709 260.872 194.542C258.753 191.692 256.909 188.129 255.038 184.85C253.62 182.367 252.188 180.046 250.609 178.324C250.077 177.744 249.542 177.221 249 176.757C245.865 174.068 242.518 173.305 238.438 174.358C235.933 175.004 233.151 176.334 229.972 178.324C226.135 180.725 218.262 183.4 209.5 184.721C206.073 185.237 202.51 185.546 199 185.55C196.562 185.553 194.148 185.408 191.824 185.084C188.738 184.654 185.807 183.906 183.181 182.766C176.731 179.965 172.109 174.793 171.5 166.118C172.323 177.849 175.191 189.873 179.828 197.079C182.724 201.581 186.311 204.203 190.52 203.7C191.637 203.567 192.797 203.214 194 202.618C199.793 199.748 204.244 197.329 208.388 196.122C211.334 195.265 214.125 195.02 217.133 195.663C219.832 196.239 222.706 197.53 226.024 199.733C227.272 200.562 228.584 201.52 229.972 202.618C231.398 203.745 232.758 204.815 234.062 205.827C237.355 208.383 240.288 210.574 243 212.413C246.974 215.108 250.473 217.048 253.937 218.274C257.843 219.657 261.705 220.133 266.154 219.763C270.679 219.387 275.812 218.136 282.217 216.072C284.037 215.486 285.959 214.834 288 214.118C291.978 212.668 295.666 211.501 299.123 210.596C305.362 208.962 310.846 208.179 315.911 208.11C321.731 208.03 326.998 208.894 332.222 210.493C336.485 211.798 340.721 213.593 345.206 215.765C348.914 217.561 352.793 219.615 357 221.863C361.371 224.198 365.327 225.1 369.025 225.147C376.28 225.238 382.544 222.038 389 219.906C395.034 217.912 401.237 216.852 408.574 220.285C409.529 220.732 410.504 221.256 411.5 221.863L420.25 227.741L429 233.618C429.931 234.244 430.874 234.826 431.827 235.359C436.546 237.998 441.541 239.445 446.879 239.114C450.884 238.865 455.081 237.616 459.5 235.118C462.549 233.395 465.65 232.476 468.865 232.148C473.319 231.693 477.992 232.373 483.047 233.618C487.639 234.749 492.548 236.347 497.896 237.984C508.884 241.348 521.727 244.88 537.5 244.88Z" fill="url(#paint2_linear)"/>
<path d="M2 244.88L537.5 244.88M2 244.88C2.75896 230.605 4.77905 215.051 8.0819 198.938M2 244.88C8.15476 225.021 10.3251 204.534 18.4599 188.56M537.5 244.88C522.397 241.822 511.151 237.683 502.262 233.618M537.5 244.88C521.727 244.88 508.884 241.348 497.896 237.984M385.113 209.059C378.16 213.153 372.693 214.345 366.41 212.453M385.113 209.059C393.34 204.106 399.963 202.683 405.576 203.329M385.113 209.059L377.554 216.618M358.954 209.059L358.429 208.753M358.954 209.059C358.781 208.958 358.606 208.856 358.429 208.753M358.954 209.059C361.63 210.622 364.076 211.75 366.41 212.453M171.5 166.118C167.416 107.918 247.096 56.1327 298.88 56.1159M171.5 166.118C172.323 177.849 175.191 189.873 179.828 197.079M171.5 166.118C172.109 174.793 176.731 179.965 183.181 182.766M299.5 56.1182C299.294 56.1166 299.087 56.1158 298.88 56.1159M299.5 56.1182C299.291 56.1182 299.084 56.1174 298.88 56.1159M299.5 56.1182C307.827 55.4696 311.853 56.7848 316.228 60.6797M357 221.863L366.41 212.453M357 221.863C352.793 219.615 348.914 217.561 345.206 215.765M357 221.863C361.371 224.198 365.327 225.1 369.025 225.147M411.5 221.863C418.334 226.454 422.166 229.027 429 233.618M411.5 221.863L420.25 227.741M411.5 221.863C410.504 221.256 409.529 220.732 408.574 220.285M429 233.618L420.25 227.741M429 233.618C429.931 234.244 430.874 234.826 431.827 235.359C436.546 237.998 441.541 239.445 446.879 239.114M298.88 56.1159C294.06 56.0798 290.653 55.6147 287.749 54.5585M358.429 208.753C357.204 208.037 355.892 207.27 354.5 206.471M229.972 8.10246L183.305 54.7698M229.972 8.10246C221.043 5.66338 212.386 3.98945 204 3.02025M229.972 8.10246C237.931 10.2766 246.107 13.0587 254.5 16.4917M183.305 54.7698C176.354 54.1905 169.01 51.5576 160.539 46.481M183.305 54.7698C189.928 55.3219 196.194 54.0094 202.739 51.1698M204 3.02025L160.539 46.481M204 3.02025C198.465 2.38052 193.047 2.04782 187.747 2.00478M160.539 46.481C157.283 44.5297 153.861 42.2174 150.23 39.5219M75.0156 132.005C73.0242 145.926 63.7096 155.248 41 166.118C40.937 166.148 40.8741 166.179 40.8113 166.209M75.0156 132.005C75.6111 127.842 75.5517 123.268 75 118.118C74.8636 116.845 74.6735 115.522 74.4529 114.165M75.0156 132.005L40.8113 166.209M40.8113 166.209C30.0019 171.435 23.2129 179.227 18.4599 188.56M8.0819 198.938L18.4599 188.56M8.0819 198.938C11.0983 184.223 15.1846 169.042 20.3573 153.943M171.5 2.80049L141.586 32.7142M171.5 2.80049C164.165 3.58966 157.075 4.95043 150.23 6.82968M171.5 2.80049C176.788 2.23163 182.203 1.95976 187.747 2.00478M141.586 32.7142C140.573 31.875 139.545 31.0098 138.5 30.1182C125.5 20.1182 115.232 26.6182 112.5 42.6182C112.361 43.4307 112.216 44.2224 112.065 44.9941M141.586 32.7142C144.6 35.2105 147.475 37.4765 150.23 39.5219M20.3573 153.943L72.3485 101.952M20.3573 153.943C23.6187 144.423 27.3119 134.936 31.4412 125.618M72.3485 101.952C72.9319 106.071 73.8184 110.261 74.4529 114.165M72.3485 101.952C71.2651 94.3041 71.2264 86.9039 75.7853 82.0438C77.3033 80.4254 79.3312 79.0886 82 78.1182C99.819 71.6385 108.111 65.1855 112.065 44.9941M128.5 14.8544C93.2989 31.3521 65.6485 62.1696 45.2712 98.0832M128.5 14.8544L45.2712 98.0832M128.5 14.8544C135.448 11.5979 142.691 8.89935 150.23 6.82968M45.2712 98.0832C40.2148 106.995 35.6062 116.22 31.4412 125.618M254.5 16.4917L237.417 33.5748M254.5 16.4917C258.405 18.089 262.358 19.8272 266.358 21.7106M237.417 33.5748C231.402 34.8531 225.43 37.3663 220 41.1182C213.811 45.3944 208.179 48.8096 202.739 51.1698M237.417 33.5748C248.507 31.2176 259.742 33.0593 267.993 39.0753M279 28.0681L267.993 39.0753M279 28.0681C286.248 31.9419 293.644 36.284 301.19 41.1182M279 28.0681C274.735 25.7884 270.52 23.6708 266.358 21.7106M267.993 39.0753C268.863 39.7099 269.7 40.3908 270.5 41.1182C273.155 43.5321 275.337 45.5974 277.265 47.3531M301.19 41.1182L287.749 54.5585M301.19 41.1182C304.302 43.1122 307.44 45.19 310.603 47.3531M287.749 54.5585C284.065 53.2184 281.19 50.9268 277.265 47.3531M322.138 54.7698C319.297 53.0034 316.18 50.9827 312.595 48.7241C311.93 48.2633 311.266 47.8064 310.603 47.3531M322.138 54.7698L316.228 60.6797M322.138 54.7698C331.92 60.8527 338.428 63.9195 349.5 63.2956M316.228 60.6797C316.968 61.3385 317.718 62.0711 318.5 62.8805C320.961 66.2305 321.982 68.7212 323.093 71.6182M349.5 63.2956C350.9 63.2167 352.373 63.0788 353.935 62.8805C356.951 62.4977 360.181 62.3824 363.5 62.5517M349.5 63.2956L328.88 83.9152M328.88 83.9152C328.92 83.9826 328.96 84.0502 329 84.1182C330.639 86.8912 332.658 89.2511 334.939 91.1129M328.88 83.9152C325.585 78.3049 324.287 74.7275 323.093 71.6182M375.5 64.3882L344.322 95.5663M375.5 64.3882C371.513 63.3555 367.443 62.7528 363.5 62.5517M375.5 64.3882C378.998 65.2942 382.432 66.5311 385.661 68.1182M344.322 95.5663C349.074 96.4446 354.162 95.5075 358.954 92.3107C361.588 90.5536 363.855 89.0677 365.903 87.8762M344.322 95.5663C340.95 94.943 337.747 93.4057 334.939 91.1129M396.5 75.7114L385.037 87.1748M396.5 75.7114C393.386 72.6128 389.682 70.0941 385.661 68.1182M396.5 75.7114C399.875 79.0696 402.557 83.1088 404.201 87.8762M385.037 87.1748C384.56 86.7962 384.049 86.4445 383.5 86.1182C376.672 83.2849 372.375 84.1124 365.903 87.8762M385.037 87.1748C388.564 89.9797 390.184 94.2629 391.422 100.655M407.767 101.952C406.809 98.8717 406.018 95.6459 405.379 92.3107C405.084 90.7677 404.688 89.2899 404.201 87.8762M407.767 101.952L394.003 115.716M407.767 101.952C409.07 106.14 410.682 110.059 412.642 113.618M394.003 115.716C393.59 114.105 393.256 112.406 393 110.618C392.458 106.832 391.979 103.53 391.422 100.655M394.003 115.716C395.143 120.151 396.89 123.909 399.285 126.976M419.597 123.118C426.191 129.849 435.097 133.88 446.879 133.88C435.199 136.727 425.578 137.618 417.845 136.618M419.597 123.118L408.574 134.142M419.597 123.118C416.906 120.371 414.601 117.174 412.642 113.618M408.574 134.142C404.788 132.471 401.706 130.077 399.285 126.976M408.574 134.142C411.296 135.343 414.381 136.17 417.845 136.618M179.828 197.079L191.824 185.084M179.828 197.079C182.724 201.581 186.311 204.203 190.52 203.7M217.133 195.663L238.438 174.358M217.133 195.663C214.125 195.02 211.334 195.265 208.388 196.122M217.133 195.663C219.832 196.239 222.706 197.53 226.024 199.733M234.062 205.827C232.758 204.815 231.398 203.745 229.972 202.618C228.584 201.52 227.272 200.562 226.024 199.733M234.062 205.827L255.038 184.85M234.062 205.827C237.355 208.383 240.288 210.574 243 212.413M253.937 218.274L272.873 199.339M253.937 218.274C250.473 217.048 246.974 215.108 243 212.413M253.937 218.274C257.843 219.657 261.705 220.133 266.154 219.763M299.123 210.596C295.666 211.501 291.978 212.668 288 214.118C285.959 214.834 284.037 215.486 282.217 216.072M299.123 210.596L318.342 191.377M299.123 210.596C305.362 208.962 310.846 208.179 315.911 208.11M332.222 210.493L342.616 200.1M332.222 210.493C326.998 208.894 321.731 208.03 315.911 208.11M332.222 210.493C336.485 211.798 340.721 213.593 345.206 215.765M389 219.906L405.576 203.329M389 219.906C382.544 222.038 376.28 225.238 369.025 225.147M389 219.906C395.034 217.912 401.237 216.852 408.574 220.285M405.576 203.329C410.905 203.943 415.324 206.422 419.342 209.517M420.25 227.741L429.557 218.433M429.557 218.433C431.001 219.678 432.453 220.845 433.944 221.863C436.945 223.526 439.533 224.623 442.039 225.147M429.557 218.433C426.23 215.567 422.947 212.294 419.342 209.517M446.879 239.114C450.884 238.865 455.081 237.616 459.5 235.118C462.549 233.395 465.65 232.476 468.865 232.148M446.879 239.114L466.799 219.193M466.799 219.193C464 219.405 461.064 220.239 457.778 221.863C451.294 225.066 446.814 226.145 442.039 225.147M466.799 219.193C470.98 218.878 474.858 219.952 479.149 221.863C482.283 223.259 485.637 225.101 489.491 227.175M483.047 233.618L489.491 227.175M483.047 233.618C477.992 232.373 473.319 231.693 468.865 232.148M483.047 233.618C487.639 234.749 492.548 236.347 497.896 237.984M489.491 227.175C493.202 229.172 497.376 231.384 502.262 233.618M191.824 185.084C188.738 184.654 185.807 183.906 183.181 182.766M191.824 185.084C194.148 185.408 196.562 185.553 199 185.55M238.438 174.358C235.933 175.004 233.151 176.334 229.972 178.324C226.135 180.725 218.262 183.4 209.5 184.721M238.438 174.358C242.518 173.305 245.865 174.068 249 176.757M255.038 184.85C253.62 182.367 252.188 180.046 250.609 178.324C250.077 177.744 249.542 177.221 249 176.757M255.038 184.85C256.909 188.129 258.753 191.692 260.872 194.542M272.873 199.339C273.708 199.017 274.582 198.576 275.5 198.002C282.053 193.909 288.752 191.565 295.407 190.51M272.873 199.339C267.657 201.349 263.97 198.709 260.872 194.542M318.342 191.377C310.963 189.81 303.216 189.273 295.407 190.51M318.342 191.377C322.168 192.19 325.894 193.279 329.479 194.542M342.616 200.1C338.539 198.107 334.128 196.179 329.479 194.542M342.616 200.1C347.002 202.244 351.002 204.461 354.5 206.471M24.5 164.118L41 147.618M53 135.618L74.4529 114.165M31.4412 125.618L49.5 107.559M57.5 99.5594L66.2578 90.8016M82.9412 74.1182L93.4412 63.6182M99 58.0594L112.065 44.9941M150.23 6.82968L137.441 19.6182M150.23 39.5219L163 26.7515L168.5 21.2515L187.747 2.00478M175.5 46.481L188.406 33.5748M197.863 24.1182L212.363 9.61816M237.417 16.4917L227.157 26.7515M220 33.9085L202.739 51.1698M260 28.0681L266.358 21.7106M286.5 38.1182L277.265 47.3531M310.603 47.3531L306.786 51.1698M323.093 71.6182L328.593 66.1182M363.5 62.5517L354.434 71.6182M347.934 78.1182L334.939 91.1129M385.661 68.1182L380.5 73.2796M375.661 78.1182L365.903 87.8762M404.201 87.8762L398.5 93.5767M391.422 100.655L394.961 97.1159M412.642 113.618L407.767 118.494M404.201 122.06L399.285 126.976M417.845 136.618L422.345 132.118M179.828 186.118L183.181 182.766M209.5 184.721L190.52 203.7M209.5 184.721C206.073 185.237 202.51 185.546 199 185.55M190.52 203.7C191.637 203.567 192.797 203.214 194 202.618C199.793 199.748 204.244 197.329 208.388 196.122M208.388 196.122L214 190.51M199 185.55L191.824 192.726M249 176.757L240.907 184.85M237.139 188.618L226.024 199.733M243 212.413L249.587 205.827M253.937 201.476L260.872 194.542M295.407 190.51L282.217 203.7L277.164 208.753L266.154 219.763M266.154 219.763C270.679 219.387 275.812 218.136 282.217 216.072M282.217 216.072L296.813 201.476M329.479 194.542L323.92 200.1M320.32 203.7L315.911 208.11M354.5 206.471L351.912 209.059M345.206 215.765L348.559 212.412M374.267 219.906L369.025 225.147M408.574 220.285L413.094 215.765M416.407 212.453L419.342 209.517M442.039 225.147L437.068 230.118M475 226.012L468.865 232.148M502.262 233.618L497.896 237.984" stroke="#89B68D" stroke-width="3" stroke-linecap="round" stroke-linejoin="round"/>
<circle cx="462" cy="91.1182" r="29.5" fill="#E7F1E8" stroke="#89B68D" stroke-width="3"/>
<circle cx="462.001" cy="91.1178" r="23.2234" fill="white" stroke="#89B68D" stroke-width="3"/>
<path d="M468.904 85.1047C468.904 81.7836 465.813 79.0913 462 79.0913M462 79.0913C461.059 79.0913 460.162 79.2553 459.344 79.5522C456.849 80.4584 455.096 82.6032 455.096 85.1047C455.096 88.4258 458.187 91.1181 462 91.1181C465.813 91.1181 468.904 93.8104 468.904 97.1315C468.904 100.453 465.813 103.145 462 103.145M462 79.0913V74.1713M462 103.145C458.187 103.145 455.096 100.453 455.096 97.1315M462 103.145V108.065" stroke="#89B68D" stroke-width="3" stroke-linecap="round"/>
<circle cx="244.5" cy="91.6182" r="38" fill="#E7F1E8" stroke="#89B68D" stroke-width="3"/>
<circle cx="244.501" cy="91.6179" r="29.9149" fill="white" stroke="#89B68D" stroke-width="3"/>
<path d="M253.393 83.8721C253.393 79.594 249.411 76.126 244.499 76.126M244.499 76.126C243.287 76.126 242.131 76.3372 241.078 76.7197C237.865 77.887 235.605 80.6498 235.605 83.8721C235.605 88.1501 239.587 91.6181 244.499 91.6181C249.411 91.6181 253.393 95.0861 253.393 99.3642C253.393 103.642 249.411 107.11 244.499 107.11M244.499 76.126V69.7883M244.499 107.11C239.587 107.11 235.605 103.642 235.605 99.3642M244.499 107.11V113.448" stroke="#89B68D" stroke-width="3" stroke-linecap="round"/>
<circle cx="161.5" cy="135.618" r="28" fill="#E7F1E8" stroke="#89B68D" stroke-width="3"/>
<circle cx="161.5" cy="135.618" r="22.0425" fill="white" stroke="#89B68D" stroke-width="3"/>
<path d="M168.054 129.911C168.054 126.758 165.12 124.203 161.5 124.203M161.5 124.203C160.607 124.203 159.756 124.359 158.98 124.641C156.612 125.501 154.947 127.536 154.947 129.911C154.947 133.063 157.881 135.618 161.5 135.618C165.12 135.618 168.054 138.174 168.054 141.326C168.054 144.478 165.12 147.034 161.5 147.034M161.5 124.203V119.533M161.5 147.034C157.881 147.034 154.947 144.478 154.947 141.326M161.5 147.034V151.703" stroke="#89B68D" stroke-width="3" stroke-linecap="round"/>
<defs>
<linearGradient id="paint0_linear" x1="269.5" y1="-62.3818" x2="269.5" y2="244.618" gradientUnits="userSpaceOnUse">
<stop stop-color="#89B68D"/>
<stop offset="1" stop-color="#E7F1E8"/>
</linearGradient>
<linearGradient id="paint1_linear" x1="278.5" y1="18.1182" x2="152.5" y2="225.118" gradientUnits="userSpaceOnUse">
<stop stop-color="white"/>
<stop offset="1" stop-color="#E7F1E8"/>
</linearGradient>
<linearGradient id="paint2_linear" x1="278.5" y1="18.1182" x2="152.5" y2="225.118" gradientUnits="userSpaceOnUse">
<stop stop-color="white"/>
<stop offset="1" stop-color="#E7F1E8"/>
</linearGradient>
</defs>
</svg>
