<svg width="540" height="430" viewBox="0 0 540 430" fill="none" xmlns="http://www.w3.org/2000/svg">
<path d="M159.221 78.2021L94.0176 191.215L159.221 304.228H248.519L227.281 267.417L271.246 191.215L227.281 115.013L248.519 78.2021L159.221 78.2021Z" fill="url(#paint0_radial)"/>
<path d="M422.892 2L292.485 2.00001L248.519 78.2021H289.629L322.231 134.709L333.594 154.404H422.892L444.131 191.215L488.096 115.013L422.892 2Z" fill="url(#paint1_radial)"/>
<path d="M422.892 380.43L488.096 267.417L444.131 191.215L422.892 228.026H333.594L289.629 304.228H248.519L292.485 380.43H422.892Z" fill="url(#paint2_radial)"/>
<path d="M248.519 78.2021L227.281 115.013L271.246 191.215M248.519 78.2021H289.629L322.231 134.709L333.594 154.404M248.519 78.2021L159.221 78.2021L94.0176 191.215L159.221 304.228H248.519M248.519 78.2021L292.485 2.00001L422.892 2L488.096 115.013L444.131 191.215M271.246 191.215L292.485 154.404H333.594M271.246 191.215L227.281 267.417L248.519 304.228M271.246 191.215L292.485 228.026H333.594M333.594 154.404L354.833 191.215L333.594 228.026M333.594 154.404H422.892L444.131 191.215M444.131 191.215L422.892 228.026H333.594M444.131 191.215L488.096 267.417L422.892 380.43H292.485L248.519 304.228M333.594 228.026L289.629 304.228H248.519" stroke="#89B68D" stroke-width="3" stroke-linejoin="round"/>
<path d="M248.519 78.2021L227.281 115.013L271.246 191.215L292.485 154.404H333.594L322.231 134.709L289.629 78.2021H248.519Z" fill="#E7F1E8"/>
<path d="M422.892 228.026L444.131 191.215L422.892 154.404H333.594L354.833 191.215L333.594 228.026H422.892Z" fill="#E7F1E8"/>
<path d="M227.281 267.417L248.519 304.228H289.629L333.594 228.026H292.485L271.246 191.215L227.281 267.417Z" fill="#E7F1E8"/>
<path d="M248.519 78.2021L227.281 115.013L271.246 191.215M248.519 78.2021H289.629L322.231 134.709L333.594 154.404M248.519 78.2021L159.221 78.2021L94.0176 191.215L159.221 304.228H248.519M248.519 78.2021L292.485 2.00001L422.892 2L488.096 115.013L444.131 191.215M271.246 191.215L292.485 154.404H333.594M271.246 191.215L227.281 267.417L248.519 304.228M271.246 191.215L292.485 228.026H333.594M333.594 154.404L354.833 191.215L333.594 228.026M333.594 154.404H422.892L444.131 191.215M444.131 191.215L422.892 228.026H333.594M444.131 191.215L488.096 267.417L422.892 380.43H292.485L248.519 304.228M333.594 228.026L289.629 304.228H248.519" stroke="#89B68D" stroke-width="3" stroke-linejoin="round"/>
<path d="M292.485 154.404L271.246 191.215L292.485 228.026H333.594L354.833 191.215L333.594 154.404H292.485Z" fill="url(#paint3_radial)"/>
<path d="M248.519 78.2021L227.281 115.013L271.246 191.215M248.519 78.2021H289.629L322.231 134.709L333.594 154.404M248.519 78.2021L159.221 78.2021L94.0176 191.215L159.221 304.228H248.519M248.519 78.2021L292.485 2.00001L422.892 2L488.096 115.013L444.131 191.215M271.246 191.215L292.485 154.404H333.594M271.246 191.215L227.281 267.417L248.519 304.228M271.246 191.215L292.485 228.026H333.594M333.594 154.404L354.833 191.215L333.594 228.026M333.594 154.404H422.892L444.131 191.215M444.131 191.215L422.892 228.026H333.594M444.131 191.215L488.096 267.417L422.892 380.43H292.485L248.519 304.228M333.594 228.026L289.629 304.228H248.519" stroke="#89B68D" stroke-width="3" stroke-linejoin="round"/>
<path d="M507.874 399.928V346.903C527.099 272.076 501.421 246.584 494.404 205.808C486.415 216.165 473.413 221.703 460.268 220.086C469.59 253.494 487.368 281.152 470.474 346.903H417.877V337.547H305.679L396.061 399.928H507.874Z" fill="url(#paint4_linear)"/>
<path d="M486.356 190.514C482.168 202.43 469.12 208.693 457.212 204.501C445.305 200.309 439.047 187.251 443.236 175.334C447.424 163.417 460.473 157.155 472.38 161.347C484.287 165.538 490.545 178.597 486.356 190.514Z" fill="url(#paint5_linear)"/>
<path d="M497.715 150.157C498.378 147.6 497.006 144.937 494.514 144.059L469.266 135.171C468.648 138.396 467.832 141.872 466.798 145.54C470.265 145.727 473.765 146.405 477.206 147.616C484.751 150.273 490.911 155.105 495.227 161.162C495.902 157.636 496.726 153.973 497.715 150.157Z" fill="url(#paint6_linear)"/>
<path d="M470.531 116.988L464.896 115.005L419.325 98.9626L413.69 96.9789C408.538 101.848 401.189 113.746 395.4 130.217L378.854 177.295C373.064 193.767 371.352 207.649 372.324 214.673L377.959 216.657L423.53 232.699L429.165 234.683C432.995 231.063 438.04 223.557 442.755 213.175C429.753 203.694 423.903 186.473 429.515 170.505C435.159 154.449 450.632 144.665 466.798 145.54C467.832 141.872 468.648 138.396 469.266 135.171C470.759 127.374 471.092 121.04 470.531 116.988Z" fill="url(#paint7_linear)"/>
<path d="M507.874 399.928V346.903C527.099 272.076 501.421 246.584 494.404 205.808M507.874 399.928H396.061M507.874 399.928H532.999C535.761 399.928 537.999 402.167 537.999 404.928V423C537.999 425.761 535.761 428 532.999 428H335.612C332.85 428 330.612 425.761 330.612 423V404.928C330.612 402.167 332.85 399.928 335.612 399.928H396.061M417.877 337.547V346.903H470.474C487.368 281.152 469.59 253.494 460.268 220.086M417.877 337.547H305.679M417.877 337.547H429.499C432.26 337.547 434.499 335.309 434.499 332.547V325.912C434.499 323.151 432.26 320.912 429.499 320.912H294.057C291.295 320.912 289.057 323.151 289.057 325.912V332.547C289.057 335.309 291.295 337.547 294.057 337.547H305.679M305.679 337.547L396.061 399.928M419.325 98.9626C430.082 68.3572 434.908 54.6263 446.993 39.0421L480.804 50.9442C480.479 70.6682 475.653 84.3991 464.896 115.005M419.325 98.9626L413.69 96.9789C408.538 101.848 401.189 113.746 395.4 130.217L378.854 177.295C373.064 193.767 371.352 207.649 372.324 214.673L377.959 216.657M419.325 98.9626L464.896 115.005M464.896 115.005L470.531 116.988C471.092 121.04 470.759 127.374 469.266 135.171M377.959 216.657C371.48 235.09 369.656 247.357 370.358 263.351L400.248 273.873C410.8 261.841 417.051 251.132 423.53 232.699M377.959 216.657L423.53 232.699M423.53 232.699L429.165 234.683C432.995 231.063 438.04 223.557 442.755 213.175M469.266 135.171L494.514 144.059C497.006 144.937 498.378 147.6 497.715 150.157C496.726 153.973 495.902 157.636 495.227 161.162M469.266 135.171C468.648 138.396 467.832 141.872 466.798 145.54M495.227 161.162C490.911 155.105 484.751 150.273 477.206 147.616C473.765 146.405 470.265 145.727 466.798 145.54M495.227 161.162C502.058 170.745 504.276 183.395 500.076 195.344C498.715 199.218 496.782 202.726 494.404 205.808M494.404 205.808C486.415 216.165 473.413 221.703 460.268 220.086M460.268 220.086C457.634 219.762 454.993 219.15 452.386 218.233C448.857 216.99 445.631 215.272 442.755 213.175M442.755 213.175C429.753 203.694 423.903 186.473 429.515 170.505C435.159 154.449 450.632 144.665 466.798 145.54M486.356 190.514C482.168 202.43 469.12 208.693 457.212 204.501C445.305 200.309 439.047 187.251 443.236 175.334C447.424 163.417 460.473 157.155 472.38 161.347C484.287 165.538 490.545 178.597 486.356 190.514Z" stroke="#89B68D" stroke-width="3" stroke-linejoin="round"/>
<path d="M377.959 216.657C371.48 235.09 369.656 247.357 370.358 263.351L400.248 273.873C410.8 261.841 417.051 251.132 423.53 232.699L377.959 216.657Z" fill="white"/>
<path d="M419.325 98.9626L464.896 115.005C475.653 84.3991 480.479 70.6682 480.804 50.9441L446.993 39.0421C434.908 54.6263 430.082 68.3572 419.325 98.9626Z" fill="white"/>
<path fill-rule="evenodd" clip-rule="evenodd" d="M495.227 161.162C490.911 155.105 484.751 150.273 477.206 147.616C473.765 146.405 470.265 145.727 466.798 145.54C450.632 144.665 435.159 154.449 429.515 170.505C423.903 186.473 429.753 203.694 442.755 213.175C445.631 215.272 448.857 216.99 452.386 218.233C454.993 219.15 457.634 219.762 460.268 220.086C473.413 221.703 486.415 216.165 494.404 205.808C496.782 202.726 498.715 199.218 500.076 195.344C504.276 183.395 502.058 170.745 495.227 161.162ZM457.212 204.501C469.12 208.693 482.168 202.43 486.356 190.514C490.545 178.597 484.287 165.538 472.38 161.347C460.473 157.155 447.424 163.417 443.236 175.334C439.047 187.251 445.305 200.309 457.212 204.501Z" fill="white"/>
<path d="M305.679 337.547H417.877H429.499C432.26 337.547 434.499 335.309 434.499 332.547V325.912C434.499 323.151 432.26 320.912 429.499 320.912H294.057C291.295 320.912 289.057 323.151 289.057 325.912V332.547C289.057 335.309 291.295 337.547 294.057 337.547H305.679Z" fill="white"/>
<path d="M507.874 399.928H396.061H335.612C332.85 399.928 330.612 402.167 330.612 404.928V423C330.612 425.761 332.85 428 335.612 428H532.999C535.761 428 537.999 425.761 537.999 423V404.928C537.999 402.167 535.761 399.928 532.999 399.928H507.874Z" fill="white"/>
<path d="M507.874 399.928V346.903C527.099 272.076 501.421 246.584 494.404 205.808M507.874 399.928H396.061M507.874 399.928H532.999C535.761 399.928 537.999 402.167 537.999 404.928V423C537.999 425.761 535.761 428 532.999 428H335.612C332.85 428 330.612 425.761 330.612 423V404.928C330.612 402.167 332.85 399.928 335.612 399.928H396.061M417.877 337.547V346.903H470.474C487.368 281.152 469.59 253.494 460.268 220.086M417.877 337.547H305.679M417.877 337.547H429.499C432.26 337.547 434.499 335.309 434.499 332.547V325.912C434.499 323.151 432.26 320.912 429.499 320.912H294.057C291.295 320.912 289.057 323.151 289.057 325.912V332.547C289.057 335.309 291.295 337.547 294.057 337.547H305.679M305.679 337.547L396.061 399.928M419.325 98.9626C430.082 68.3572 434.908 54.6263 446.993 39.0421L480.804 50.9442C480.479 70.6682 475.653 84.3991 464.896 115.005M419.325 98.9626L413.69 96.9789C408.538 101.848 401.189 113.746 395.4 130.217L378.854 177.295C373.064 193.767 371.352 207.649 372.324 214.673L377.959 216.657M419.325 98.9626L464.896 115.005M464.896 115.005L470.531 116.988C471.092 121.04 470.759 127.374 469.266 135.171M377.959 216.657C371.48 235.09 369.656 247.357 370.358 263.351L400.248 273.873C410.8 261.841 417.051 251.132 423.53 232.699M377.959 216.657L423.53 232.699M423.53 232.699L429.165 234.683C432.995 231.063 438.04 223.557 442.755 213.175M469.266 135.171L494.514 144.059C497.006 144.937 498.378 147.6 497.715 150.157C496.726 153.973 495.902 157.636 495.227 161.162M469.266 135.171C468.648 138.396 467.832 141.872 466.798 145.54M495.227 161.162C490.911 155.105 484.751 150.273 477.206 147.616C473.765 146.405 470.265 145.727 466.798 145.54M495.227 161.162C502.058 170.745 504.276 183.395 500.076 195.344C498.715 199.218 496.782 202.726 494.404 205.808M494.404 205.808C486.415 216.165 473.413 221.703 460.268 220.086M460.268 220.086C457.634 219.762 454.993 219.15 452.386 218.233C448.857 216.99 445.631 215.272 442.755 213.175M442.755 213.175C429.753 203.694 423.903 186.473 429.515 170.505C435.159 154.449 450.632 144.665 466.798 145.54M486.356 190.514C482.168 202.43 469.12 208.693 457.212 204.501C445.305 200.309 439.047 187.251 443.236 175.334C447.424 163.417 460.473 157.155 472.38 161.347C484.287 165.538 490.545 178.597 486.356 190.514Z" stroke="#89B68D" stroke-width="3" stroke-linejoin="round"/>
<path d="M27.5052 34.7372C36.6198 34.7372 44.0085 27.4087 44.0085 18.3686C44.0085 9.32847 36.6198 2 27.5052 2C18.3907 2 11.002 9.32847 11.002 18.3686C11.002 27.4087 18.3907 34.7372 27.5052 34.7372Z" fill="url(#paint8_linear)"/>
<path d="M27.5052 111.124C36.6198 111.124 44.0085 103.796 44.0085 94.7554C44.0085 85.7153 36.6198 78.3868 27.5052 78.3868C18.3907 78.3868 11.002 85.7153 11.002 94.7554C11.002 103.796 18.3907 111.124 27.5052 111.124Z" fill="url(#paint9_linear)"/>
<path d="M66.5349 72.9306C75.6494 72.9306 83.0382 65.6021 83.0382 56.562C83.0382 47.5219 75.6494 40.1934 66.5349 40.1934C57.4204 40.1934 50.0316 47.5219 50.0316 56.562C50.0316 65.6021 57.4204 72.9306 66.5349 72.9306Z" fill="url(#paint10_linear)"/>
<path d="M66.5349 149.317C75.6494 149.317 83.0382 141.989 83.0382 132.949C83.0382 123.909 75.6494 116.58 66.5349 116.58C57.4204 116.58 50.0316 123.909 50.0316 132.949C50.0316 141.989 57.4204 149.317 66.5349 149.317Z" fill="url(#paint11_linear)"/>
<path d="M104.521 111.124C113.635 111.124 121.024 103.796 121.024 94.7554C121.024 85.7153 113.635 78.3868 104.521 78.3868C95.4061 78.3868 88.0173 85.7153 88.0173 94.7554C88.0173 103.796 95.4061 111.124 104.521 111.124Z" fill="url(#paint12_linear)"/>
<path d="M104.521 34.7372C113.635 34.7372 121.024 27.4087 121.024 18.3686C121.024 9.32847 113.635 2 104.521 2C95.4061 2 88.0173 9.32847 88.0173 18.3686C88.0173 27.4087 95.4061 34.7372 104.521 34.7372Z" fill="url(#paint13_linear)"/>
<path d="M27.5052 34.7372C36.6198 34.7372 44.0085 27.4087 44.0085 18.3686C44.0085 9.32847 36.6198 2 27.5052 2C18.3907 2 11.002 9.32847 11.002 18.3686C11.002 27.4087 18.3907 34.7372 27.5052 34.7372ZM27.5052 34.7372V56.562V78.3868M27.5052 78.3868C18.3907 78.3868 11.002 85.7153 11.002 94.7554C11.002 103.796 18.3907 111.124 27.5052 111.124C36.6198 111.124 44.0085 103.796 44.0085 94.7554C44.0085 85.7153 36.6198 78.3868 27.5052 78.3868ZM104.521 34.7372C113.635 34.7372 121.024 27.4087 121.024 18.3686C121.024 9.32847 113.635 2 104.521 2C95.4061 2 88.0173 9.32847 88.0173 18.3686C88.0173 27.4087 95.4061 34.7372 104.521 34.7372ZM104.521 34.7372V56.562V78.3868M104.521 78.3868C95.4061 78.3868 88.0173 85.7153 88.0173 94.7554C88.0173 103.796 95.4061 111.124 104.521 111.124C113.635 111.124 121.024 103.796 121.024 94.7554C121.024 85.7153 113.635 78.3868 104.521 78.3868ZM66.5349 72.9306C75.6494 72.9306 83.0382 65.6021 83.0382 56.562C83.0382 47.5219 75.6494 40.1934 66.5349 40.1934C57.4204 40.1934 50.0316 47.5219 50.0316 56.562C50.0316 65.6021 57.4204 72.9306 66.5349 72.9306ZM66.5349 72.9306V116.58M66.5349 116.58C57.4204 116.58 50.0316 123.909 50.0316 132.949C50.0316 141.989 57.4204 149.317 66.5349 149.317C75.6494 149.317 83.0382 141.989 83.0382 132.949C83.0382 123.909 75.6494 116.58 66.5349 116.58Z" stroke="#89B68D" stroke-width="3"/>
<path fill-rule="evenodd" clip-rule="evenodd" d="M229.916 418.653H114.881C112.2 418.653 110.246 416.114 110.93 413.52L130.517 339.197C173.514 354.74 175.966 321.608 211.831 329.906L214.28 339.197L216.728 348.487L219.177 357.777L224.074 376.358L233.867 413.52C234.551 416.114 232.597 418.653 229.916 418.653ZM160.029 384.599C165.445 384.599 169.836 380.204 169.836 374.783C169.836 369.361 165.445 364.966 160.029 364.966C154.612 364.966 150.221 369.361 150.221 374.783C150.221 380.204 154.612 384.599 160.029 384.599ZM145.317 362.511C148.026 362.511 150.221 360.314 150.221 357.603C150.221 354.892 148.026 352.695 145.317 352.695C142.609 352.695 140.413 354.892 140.413 357.603C140.413 360.314 142.609 362.511 145.317 362.511Z" fill="#E7F1E8"/>
<path d="M152.079 169.082V220.168L100.023 417.69C98.6555 422.878 102.565 427.957 107.926 427.957H236.871C242.232 427.957 246.141 422.878 244.774 417.69L192.718 220.168V169.082M152.079 169.082H192.718M152.079 169.082C148.874 169.082 146.262 166.542 146.139 163.363M192.718 169.082L180.823 157.176M192.718 169.082C194.931 169.082 196.862 167.871 197.885 166.074M180.823 157.176H152.079C150.95 157.176 149.893 157.492 148.994 158.04M180.823 157.176H192.718C196.001 157.176 198.662 159.841 198.662 163.129C198.662 164.2 198.38 165.205 197.885 166.074M184.545 169.082L172.65 157.176M176.372 169.082L164.477 157.176M168.199 169.082L156.304 157.176M160.026 169.082L148.994 158.04M151.853 169.082L146.139 163.363M188.996 157.176L197.885 166.074M148.994 158.04C147.28 159.084 146.135 160.973 146.135 163.129C146.135 163.208 146.136 163.286 146.139 163.363M214.28 339.197L216.728 348.487L219.177 357.777L224.074 376.358L233.867 413.52C234.551 416.114 232.597 418.653 229.916 418.653H114.881C112.2 418.653 110.246 416.114 110.93 413.52L130.517 339.197C173.514 354.74 175.966 321.608 211.831 329.906L214.28 339.197ZM169.836 374.783C169.836 380.204 165.445 384.599 160.029 384.599C154.612 384.599 150.221 380.204 150.221 374.783C150.221 369.361 154.612 364.966 160.029 364.966C165.445 364.966 169.836 369.361 169.836 374.783ZM150.221 357.603C150.221 360.314 148.026 362.511 145.317 362.511C142.609 362.511 140.413 360.314 140.413 357.603C140.413 354.892 142.609 352.695 145.317 352.695C148.026 352.695 150.221 354.892 150.221 357.603Z" stroke="#89B68D" stroke-width="3"/>
<path fill-rule="evenodd" clip-rule="evenodd" d="M100.023 417.69L152.079 220.168V169.082H160.026H168.199H176.372H184.545H192.718V220.168L244.774 417.69C246.141 422.878 242.232 427.957 236.871 427.957H107.926C102.565 427.957 98.6555 422.878 100.023 417.69ZM114.881 418.653H229.916C232.597 418.653 234.551 416.114 233.867 413.52L224.074 376.358L219.177 357.777L216.728 348.487L214.28 339.197L211.831 329.906C175.966 321.608 173.514 354.74 130.517 339.197L110.93 413.52C110.246 416.114 112.2 418.653 114.881 418.653Z" fill="white"/>
<path d="M152.079 169.082V220.168L100.023 417.69C98.6555 422.878 102.565 427.957 107.926 427.957H236.871C242.232 427.957 246.141 422.878 244.774 417.69L192.718 220.168V169.082M152.079 169.082H192.718M152.079 169.082C148.874 169.082 146.262 166.542 146.139 163.363M152.079 169.082H160.026M192.718 169.082L180.823 157.176M192.718 169.082C194.931 169.082 196.862 167.871 197.885 166.074M192.718 169.082H184.545M180.823 157.176H152.079C150.95 157.176 149.893 157.492 148.994 158.04M180.823 157.176H192.718C196.001 157.176 198.662 159.841 198.662 163.129C198.662 164.2 198.38 165.205 197.885 166.074M184.545 169.082L172.65 157.176M184.545 169.082H176.372M176.372 169.082L164.477 157.176M176.372 169.082H168.199M168.199 169.082L156.304 157.176M168.199 169.082H160.026M160.026 169.082L148.994 158.04M151.853 169.082L146.139 163.363M188.996 157.176L197.885 166.074M148.994 158.04C147.28 159.084 146.135 160.973 146.135 163.129C146.135 163.208 146.136 163.286 146.139 163.363M214.28 339.197L216.728 348.487L219.177 357.777L224.074 376.358L233.867 413.52C234.551 416.114 232.597 418.653 229.916 418.653H114.881C112.2 418.653 110.246 416.114 110.93 413.52L130.517 339.197C173.514 354.74 175.966 321.608 211.831 329.906L214.28 339.197ZM169.836 374.783C169.836 380.204 165.445 384.599 160.029 384.599C154.612 384.599 150.221 380.204 150.221 374.783C150.221 369.361 154.612 364.966 160.029 364.966C165.445 364.966 169.836 369.361 169.836 374.783ZM150.221 357.603C150.221 360.314 148.026 362.511 145.317 362.511C142.609 362.511 140.413 360.314 140.413 357.603C140.413 354.892 142.609 352.695 145.317 352.695C148.026 352.695 150.221 354.892 150.221 357.603Z" stroke="#89B68D" stroke-width="3"/>
<path fill-rule="evenodd" clip-rule="evenodd" d="M2 372.857C2 396.149 14.4432 416.541 33.0588 427.777H99.5103C118.126 416.541 130.569 396.149 130.569 372.857C130.569 345.562 113.482 322.249 89.3981 312.987V234.846H87.3401H79.9742H72.6085H65.2427H57.8768H50.511H43.3496H43.171V312.987C19.0873 322.249 2 345.562 2 372.857ZM11.5236 373.219C11.5236 393.004 22.1234 410.326 37.9811 419.87H94.5879C110.446 410.326 121.045 393.004 121.045 373.219C81.3636 404.847 54.7768 336.056 16.7818 349.893C13.41 356.964 11.5236 364.872 11.5236 373.219Z" fill="white"/>
<path d="M43.171 234.846V312.987C19.0873 322.249 2 345.562 2 372.857C2 396.149 14.4432 416.541 33.0588 427.777H99.5103C118.126 416.541 130.569 396.149 130.569 372.857C130.569 345.562 113.482 322.249 89.3981 312.987V234.846M43.171 234.846H89.3981M43.171 234.846H43.3496M89.3981 234.846C90.8355 234.791 92.1277 234.172 93.0582 233.204M89.3981 234.846H87.3401M43.3496 234.846H50.511M43.3496 234.846C43.2798 234.846 43.2104 234.844 43.1413 234.842M50.511 234.846H57.8768M50.511 234.846L40.5689 224.94M57.8768 234.846H65.2427M57.8768 234.846L47.1571 224.166M65.2427 234.846H72.6085M65.2427 234.846L54.5229 224.166M72.6085 234.846H79.9742M72.6085 234.846L61.8887 224.166M79.9742 234.846L69.2545 224.166M79.9742 234.846H87.3401M47.1571 224.166H43.3496C42.3314 224.166 41.3795 224.449 40.5689 224.94M47.1571 224.166H54.5229M54.5229 224.166H61.8887M61.8887 224.166H69.2545M69.2545 224.166H76.6203M76.6203 224.166H83.9862M76.6203 224.166L87.3401 234.846M40.5689 224.94C39.0239 225.877 37.992 227.571 37.992 229.506C37.992 229.576 37.9934 229.646 37.9961 229.716M43.1452 234.846L43.1413 234.842M43.1413 234.842L37.9961 229.716M43.1413 234.842C40.3488 234.735 38.1041 232.499 37.9961 229.716M83.9862 224.166L93.0582 233.204M83.9862 224.166L89.1897 224.169C90.208 224.169 91.1598 224.453 91.9704 224.944C93.5154 225.881 94.5473 227.575 94.5473 229.51C94.5473 229.58 94.5459 229.65 94.5432 229.719C94.4908 231.07 93.9353 232.292 93.0582 233.204M37.9811 419.87C22.1234 410.326 11.5236 393.004 11.5236 373.219C11.5236 364.872 13.41 356.964 16.7818 349.893C54.7768 336.056 81.3636 404.847 121.045 373.219C121.045 393.004 110.446 410.326 94.5879 419.87H37.9811Z" stroke="#89B68D" stroke-width="3"/>
<path d="M37.9811 419.87C22.1234 410.326 11.5236 393.004 11.5236 373.219C11.5236 364.872 13.41 356.964 16.7818 349.893C54.7768 336.056 81.3636 404.847 121.045 373.219C121.045 393.004 110.446 410.326 94.5879 419.87H37.9811Z" fill="#E7F1E8"/>
<path d="M43.171 234.846V312.987C19.0873 322.249 2 345.562 2 372.857C2 396.149 14.4432 416.541 33.0588 427.777H99.5103C118.126 416.541 130.569 396.149 130.569 372.857C130.569 345.562 113.482 322.249 89.3981 312.987V234.846M43.171 234.846H89.3981M43.171 234.846H43.3496M89.3981 234.846C90.8355 234.791 92.1277 234.172 93.0582 233.204M89.3981 234.846H87.3401M43.3496 234.846H50.511M43.3496 234.846C43.2798 234.846 43.2104 234.844 43.1413 234.842M50.511 234.846H57.8768M50.511 234.846L40.5689 224.94M57.8768 234.846H65.2427M57.8768 234.846L47.1571 224.166M65.2427 234.846H72.6085M65.2427 234.846L54.5229 224.166M72.6085 234.846H79.9742M72.6085 234.846L61.8887 224.166M79.9742 234.846L69.2545 224.166M79.9742 234.846H87.3401M47.1571 224.166H43.3496C42.3314 224.166 41.3795 224.449 40.5689 224.94M47.1571 224.166H54.5229M54.5229 224.166H61.8887M61.8887 224.166H69.2545M69.2545 224.166H76.6203M76.6203 224.166H83.9862M76.6203 224.166L87.3401 234.846M40.5689 224.94C39.0239 225.877 37.992 227.571 37.992 229.506C37.992 229.576 37.9934 229.646 37.9961 229.716M43.1452 234.846L43.1413 234.842M43.1413 234.842L37.9961 229.716M43.1413 234.842C40.3488 234.735 38.1041 232.499 37.9961 229.716M83.9862 224.166L93.0582 233.204M83.9862 224.166L89.1897 224.169C90.208 224.169 91.1598 224.453 91.9704 224.944C93.5154 225.881 94.5473 227.575 94.5473 229.51C94.5473 229.58 94.5459 229.65 94.5432 229.719C94.4908 231.07 93.9353 232.292 93.0582 233.204M37.9811 419.87C22.1234 410.326 11.5236 393.004 11.5236 373.219C11.5236 364.872 13.41 356.964 16.7818 349.893C54.7768 336.056 81.3636 404.847 121.045 373.219C121.045 393.004 110.446 410.326 94.5879 419.87H37.9811Z" stroke="#89B68D" stroke-width="3"/>
<path d="M107.673 396.927C107.673 400.821 104.519 403.978 100.628 403.978C96.7375 403.978 93.5834 400.821 93.5834 396.927C93.5834 393.032 96.7375 389.875 100.628 389.875C104.519 389.875 107.673 393.032 107.673 396.927Z" fill="#F0F6ED"/>
<path d="M84.7773 396.927C84.7773 398.874 83.2003 400.453 81.2549 400.453C79.3095 400.453 77.7324 398.874 77.7324 396.927C77.7324 394.98 79.3095 393.401 81.2549 393.401C83.2003 393.401 84.7773 394.98 84.7773 396.927Z" fill="#F0F6ED"/>
<path d="M93.5834 409.267C93.5834 412.188 91.2178 414.556 88.2997 414.556C85.3817 414.556 83.0161 412.188 83.0161 409.267C83.0161 406.346 85.3817 403.978 88.2997 403.978C91.2178 403.978 93.5834 406.346 93.5834 409.267Z" fill="#F0F6ED"/>
<path d="M107.673 396.927C107.673 400.821 104.519 403.978 100.628 403.978C96.7375 403.978 93.5834 400.821 93.5834 396.927C93.5834 393.032 96.7375 389.875 100.628 389.875C104.519 389.875 107.673 393.032 107.673 396.927Z" stroke="#89B68D" stroke-width="3"/>
<path d="M84.7773 396.927C84.7773 398.874 83.2003 400.453 81.2549 400.453C79.3095 400.453 77.7324 398.874 77.7324 396.927C77.7324 394.98 79.3095 393.401 81.2549 393.401C83.2003 393.401 84.7773 394.98 84.7773 396.927Z" stroke="#89B68D" stroke-width="3"/>
<path d="M93.5834 409.267C93.5834 412.188 91.2178 414.556 88.2997 414.556C85.3817 414.556 83.0161 412.188 83.0161 409.267C83.0161 406.346 85.3817 403.978 88.2997 403.978C91.2178 403.978 93.5834 406.346 93.5834 409.267Z" stroke="#89B68D" stroke-width="3"/>
<defs>
<radialGradient id="paint0_radial" cx="0" cy="0" r="1" gradientUnits="userSpaceOnUse" gradientTransform="translate(310.061 191.215) rotate(56.4093) scale(213.325 222.274)">
<stop stop-color="#E7F1E8"/>
<stop offset="1" stop-color="white"/>
</radialGradient>
<radialGradient id="paint1_radial" cx="0" cy="0" r="1" gradientUnits="userSpaceOnUse" gradientTransform="translate(310.061 191.215) rotate(56.4093) scale(213.325 222.274)">
<stop stop-color="#E7F1E8"/>
<stop offset="1" stop-color="white"/>
</radialGradient>
<radialGradient id="paint2_radial" cx="0" cy="0" r="1" gradientUnits="userSpaceOnUse" gradientTransform="translate(310.061 191.215) rotate(56.4093) scale(213.325 222.274)">
<stop stop-color="#E7F1E8"/>
<stop offset="1" stop-color="white"/>
</radialGradient>
<radialGradient id="paint3_radial" cx="0" cy="0" r="1" gradientUnits="userSpaceOnUse" gradientTransform="translate(313.061 191.215) rotate(119.823) scale(105.587 110.004)">
<stop stop-color="#89B68D" stop-opacity="0.28"/>
<stop offset="1" stop-color="#E7F1E8"/>
</radialGradient>
<linearGradient id="paint4_linear" x1="418.529" y1="149.184" x2="418.529" y2="494.714" gradientUnits="userSpaceOnUse">
<stop stop-color="#E7F1E8"/>
<stop offset="1" stop-color="#89B68D"/>
</linearGradient>
<linearGradient id="paint5_linear" x1="418.529" y1="149.184" x2="418.529" y2="494.714" gradientUnits="userSpaceOnUse">
<stop stop-color="#E7F1E8"/>
<stop offset="1" stop-color="#89B68D"/>
</linearGradient>
<linearGradient id="paint6_linear" x1="418.529" y1="149.184" x2="418.529" y2="494.714" gradientUnits="userSpaceOnUse">
<stop stop-color="#E7F1E8"/>
<stop offset="1" stop-color="#89B68D"/>
</linearGradient>
<linearGradient id="paint7_linear" x1="418.529" y1="149.184" x2="418.529" y2="494.714" gradientUnits="userSpaceOnUse">
<stop stop-color="#E7F1E8"/>
<stop offset="1" stop-color="#89B68D"/>
</linearGradient>
<linearGradient id="paint8_linear" x1="66.0129" y1="245.276" x2="66.0129" y2="15.5153" gradientUnits="userSpaceOnUse">
<stop stop-color="#89B68D"/>
<stop offset="1" stop-color="#E7F1E8"/>
</linearGradient>
<linearGradient id="paint9_linear" x1="66.0129" y1="245.276" x2="66.0129" y2="15.5153" gradientUnits="userSpaceOnUse">
<stop stop-color="#89B68D"/>
<stop offset="1" stop-color="#E7F1E8"/>
</linearGradient>
<linearGradient id="paint10_linear" x1="66.0129" y1="245.276" x2="66.0129" y2="15.5153" gradientUnits="userSpaceOnUse">
<stop stop-color="#89B68D"/>
<stop offset="1" stop-color="#E7F1E8"/>
</linearGradient>
<linearGradient id="paint11_linear" x1="66.0129" y1="245.276" x2="66.0129" y2="15.5153" gradientUnits="userSpaceOnUse">
<stop stop-color="#89B68D"/>
<stop offset="1" stop-color="#E7F1E8"/>
</linearGradient>
<linearGradient id="paint12_linear" x1="66.0129" y1="245.276" x2="66.0129" y2="15.5153" gradientUnits="userSpaceOnUse">
<stop stop-color="#89B68D"/>
<stop offset="1" stop-color="#E7F1E8"/>
</linearGradient>
<linearGradient id="paint13_linear" x1="66.0129" y1="245.276" x2="66.0129" y2="15.5153" gradientUnits="userSpaceOnUse">
<stop stop-color="#89B68D"/>
<stop offset="1" stop-color="#E7F1E8"/>
</linearGradient>
</defs>
</svg>
