<svg width="625" height="557" viewBox="0 0 625 557" fill="none" xmlns="http://www.w3.org/2000/svg">
<path d="M120.808 319.298C136.461 306.414 139.123 276.654 126.753 252.826C114.384 228.998 91.6673 220.125 76.0141 233.009C60.361 245.892 57.6991 275.652 70.0685 299.48C82.438 323.308 105.155 332.181 120.808 319.298Z" fill="white"/>
<path d="M358.281 293.758C404.973 192.671 347.324 104.655 305.805 80.4744C221.953 31.6386 103.688 89.3919 91.2984 138.266C70.3594 220.868 160.116 178.346 153.872 326.083C146.182 400.466 278.845 465.736 358.281 293.758Z" fill="white"/>
<path d="M392.866 266.427C376.533 361.234 301.117 380.356 296.401 440.783C292.551 490.102 385.468 511.341 477.217 426.795C535.123 373.434 595.536 355.122 595.184 296.553C594.782 229.542 526.523 269.055 499.369 210.007C472.216 150.96 406.078 189.741 392.866 266.427Z" fill="white"/>
<path fill-rule="evenodd" clip-rule="evenodd" d="M339.14 384.793C338.653 383.786 338.4 382.683 338.4 381.566V330.837H322.365C312.419 411.124 300.128 462.095 268.2 464.717L262.877 475.725C261.686 478.19 263.485 481.051 266.227 481.051H379.757C382.499 481.051 384.298 478.19 383.106 475.725L339.14 384.793ZM313.142 454.866C316.736 454.866 319.649 451.952 319.649 448.359C319.649 444.765 316.736 441.852 313.142 441.852C309.548 441.852 306.635 444.765 306.635 448.359C306.635 451.952 309.548 454.866 313.142 454.866ZM299.405 461.372C301.002 461.372 302.297 460.078 302.297 458.48C302.297 456.883 301.002 455.589 299.405 455.589C297.808 455.589 296.513 456.883 296.513 458.48C296.513 460.078 297.808 461.372 299.405 461.372ZM313.865 434.622C316.261 434.622 318.203 432.679 318.203 430.284C318.203 427.888 316.261 425.946 313.865 425.946C311.469 425.946 309.527 427.888 309.527 430.284C309.527 432.679 311.469 434.622 313.865 434.622Z" fill="#E7F1E8"/>
<path fill-rule="evenodd" clip-rule="evenodd" d="M490.653 289.482C498.532 314.947 525.601 329.214 551.113 321.349C576.625 313.484 590.919 286.464 583.039 260.999C551.113 242.199 498.229 267.163 395.959 248.381L394.644 254.145L394.474 254.888C396.891 255.1 399.397 255.482 401.994 256.045L488.489 275.717C488.536 280.276 489.236 284.904 490.653 289.482ZM568.36 292.192C572.353 292.192 575.589 288.955 575.589 284.962C575.589 280.969 572.353 277.732 568.36 277.732C564.367 277.732 561.13 280.969 561.13 284.962C561.13 288.955 564.367 292.192 568.36 292.192ZM558.238 308.097C561.033 308.097 563.299 305.832 563.299 303.036C563.299 300.241 561.033 297.975 558.238 297.975C555.443 297.975 553.177 300.241 553.177 303.036C553.177 305.832 555.443 308.097 558.238 308.097ZM547.393 292.192C549.389 292.192 551.008 290.573 551.008 288.577C551.008 286.58 549.389 284.962 547.393 284.962C545.396 284.962 543.778 286.58 543.778 288.577C543.778 290.573 545.396 292.192 547.393 292.192Z" fill="#E7F1E8"/>
<path d="M383.351 255.16L385.08 247.366C345.649 245.558 329.953 282.588 323.719 320.315H339.485C341.696 289.248 355.53 259.251 383.351 255.16Z" fill="#E7F1E8"/>
<path d="M401.414 224.484L401.621 223.58C401.83 222.663 401.791 221.748 401.549 220.904M401.414 224.484L487.82 244.136C487.947 244.165 488.078 244.111 488.147 244.002C488.536 243.392 488.936 242.791 489.347 242.199C502.438 223.309 526.163 213.261 549.971 218.676C581.211 225.781 600.766 256.82 593.648 288.003C586.53 319.186 555.434 338.705 524.193 331.6C499.611 326.009 482.265 305.6 479.455 281.962C479.445 281.88 479.385 281.814 479.305 281.795L392.822 262.126M401.414 224.484L396.604 245.558M392.822 262.126L394.474 254.888M392.822 262.126L392.718 262.578M347.089 330.837H347.996C350.9 330.837 353.254 328.482 353.254 325.576C353.254 324.028 352.586 322.635 351.521 321.673M347.089 330.837V379.668C347.089 380.785 347.342 381.888 347.828 382.895L393.869 478.118C396.253 483.047 392.655 488.769 387.171 488.769L323.153 488.846H259.135C253.651 488.846 250.053 483.125 252.436 478.195L298.477 382.972C298.964 381.966 299.216 380.862 299.216 379.745V330.837M347.089 330.837H338.4M299.216 330.837H298.31C296.586 330.837 295.056 330.008 294.097 328.726M299.216 330.837L309.738 320.315M299.216 330.837H306.207M395.959 248.381C498.229 267.163 551.113 242.199 583.039 260.999C590.919 286.464 576.625 313.484 551.113 321.349C525.601 329.214 498.532 314.947 490.653 289.482C489.236 284.904 488.536 280.276 488.489 275.717L401.994 256.045C399.397 255.482 396.891 255.1 394.474 254.888M395.959 248.381L394.644 254.145M395.959 248.381L396.604 245.558M385.08 247.366L383.351 255.16M385.08 247.366C345.649 245.558 329.953 282.588 323.719 320.315M385.08 247.366L390.025 225.92M394.474 254.888L394.644 254.145M383.351 255.16C355.53 259.251 341.696 289.248 339.485 320.315M383.351 255.16L382.27 259.892M339.485 320.315H347.996C349.352 320.315 350.589 320.829 351.521 321.673M339.485 320.315H323.719M323.719 320.315H316.729M338.4 330.837V381.566C338.4 382.683 338.653 383.786 339.14 384.793L383.106 475.725C384.298 478.19 382.499 481.051 379.757 481.051H266.227C263.485 481.051 261.686 478.19 262.877 475.725L268.2 464.717C300.128 462.095 312.419 411.124 322.365 330.837M338.4 330.837H322.365M322.365 330.837H306.207M309.738 320.315H298.31C295.405 320.315 293.051 322.671 293.051 325.576C293.051 326.758 293.44 327.848 294.097 328.726M309.738 320.315H316.729M316.729 320.315C312.62 324.425 310.316 326.728 306.207 330.837M323.959 320.315L313.437 330.837M331.189 320.315L320.667 330.837M338.419 320.315L327.897 330.837M345.649 320.315L335.127 330.837M342.357 330.837L351.521 321.673M302.508 320.315L294.097 328.726M383.351 265.438C384.069 266.235 385.032 266.827 386.159 267.083C386.827 267.235 387.493 267.256 388.132 267.163M383.351 265.438C382.218 264.181 381.695 262.412 382.1 260.639L382.27 259.892M383.351 265.438L394.644 254.145M396.604 245.558L382.27 259.892M398.584 236.882L384.251 251.216M400.493 228.521L386.159 242.855M388.1 234.352L401.549 220.904M392.718 262.578L388.132 267.163M392.718 262.578L392.615 263.031C392.106 265.263 390.274 266.852 388.132 267.163M390.025 225.92L391.105 221.188C391.767 218.29 394.657 216.475 397.561 217.136C397.89 217.21 398.204 217.314 398.503 217.442M390.025 225.92L398.503 217.442M398.503 217.442C400.01 218.09 401.111 219.381 401.549 220.904M575.589 284.962C575.589 288.955 572.353 292.192 568.36 292.192C564.367 292.192 561.13 288.955 561.13 284.962C561.13 280.969 564.367 277.732 568.36 277.732C572.353 277.732 575.589 280.969 575.589 284.962ZM563.299 303.036C563.299 305.832 561.033 308.097 558.238 308.097C555.443 308.097 553.177 305.832 553.177 303.036C553.177 300.241 555.443 297.975 558.238 297.975C561.033 297.975 563.299 300.241 563.299 303.036ZM551.008 288.577C551.008 290.573 549.389 292.192 547.393 292.192C545.396 292.192 543.778 290.573 543.778 288.577C543.778 286.58 545.396 284.962 547.393 284.962C549.389 284.962 551.008 286.58 551.008 288.577ZM319.649 448.359C319.649 451.952 316.736 454.866 313.142 454.866C309.548 454.866 306.635 451.952 306.635 448.359C306.635 444.765 309.548 441.852 313.142 441.852C316.736 441.852 319.649 444.765 319.649 448.359ZM302.297 458.48C302.297 460.078 301.002 461.372 299.405 461.372C297.808 461.372 296.513 460.078 296.513 458.48C296.513 456.883 297.808 455.589 299.405 455.589C301.002 455.589 302.297 456.883 302.297 458.48ZM318.203 430.284C318.203 432.679 316.261 434.622 313.865 434.622C311.469 434.622 309.527 432.679 309.527 430.284C309.527 427.888 311.469 425.946 313.865 425.946C316.261 425.946 318.203 427.888 318.203 430.284Z" stroke="#89B68D" stroke-width="3"/>
<path d="M347.089 379.668V330.837L342.357 330.837L338.4 330.837V381.566C338.4 382.683 338.653 383.786 339.14 384.793L383.106 475.725C384.298 478.19 382.499 481.051 379.757 481.051H266.227C263.485 481.051 261.686 478.19 262.877 475.725L268.2 464.717C300.128 462.095 312.419 411.124 322.365 330.837L320.667 330.837H313.437L306.207 330.837H299.216V379.745C299.216 380.863 298.964 381.966 298.477 382.972L252.436 478.195C250.053 483.125 253.651 488.846 259.135 488.846H323.153L387.171 488.769C392.655 488.769 396.253 483.047 393.869 478.118L347.828 382.895C347.342 381.888 347.089 380.785 347.089 379.668Z" fill="white"/>
<path d="M524.193 331.6C555.434 338.705 586.53 319.186 593.648 288.003C600.766 256.82 581.211 225.781 549.971 218.676C526.163 213.261 502.438 223.309 489.347 242.199C488.936 242.791 488.536 243.392 488.147 244.002C488.078 244.111 487.947 244.165 487.82 244.136L401.414 224.484L400.493 228.521L398.584 236.882L396.604 245.558L395.959 248.381C498.229 267.163 551.113 242.199 583.039 260.999C590.919 286.464 576.625 313.484 551.113 321.349C525.601 329.214 498.532 314.947 490.653 289.482C489.236 284.904 488.536 280.276 488.489 275.717L401.994 256.045C399.397 255.482 396.891 255.1 394.474 254.888L392.822 262.126L479.305 281.795C479.385 281.814 479.445 281.88 479.455 281.962C482.265 305.6 499.611 326.009 524.193 331.6Z" fill="white"/>
<path d="M401.414 224.484L401.621 223.58C401.83 222.663 401.791 221.748 401.549 220.904M401.414 224.484L487.82 244.136C487.947 244.165 488.078 244.111 488.147 244.002C488.536 243.392 488.936 242.791 489.347 242.199C502.438 223.309 526.163 213.261 549.971 218.676C581.211 225.781 600.766 256.82 593.648 288.003C586.53 319.186 555.434 338.705 524.193 331.6C499.611 326.009 482.265 305.6 479.455 281.962C479.445 281.88 479.385 281.814 479.305 281.795L392.822 262.126M401.414 224.484L396.604 245.558M401.414 224.484L400.493 228.521M392.822 262.126L394.474 254.888M392.822 262.126L392.718 262.578M347.089 330.837H347.996C350.9 330.837 353.254 328.482 353.254 325.576C353.254 324.028 352.586 322.635 351.521 321.673M347.089 330.837V379.668C347.089 380.785 347.342 381.888 347.828 382.895L393.869 478.118C396.253 483.047 392.655 488.769 387.171 488.769L323.153 488.846H259.135C253.651 488.846 250.053 483.125 252.436 478.195L298.477 382.972C298.964 381.966 299.216 380.862 299.216 379.745V330.837M347.089 330.837H338.4M347.089 330.837L342.357 330.837M299.216 330.837H298.31C296.586 330.837 295.056 330.008 294.097 328.726M299.216 330.837L309.738 320.315M299.216 330.837H306.207M395.959 248.381C498.229 267.163 551.113 242.199 583.039 260.999C590.919 286.464 576.625 313.484 551.113 321.349C525.601 329.214 498.532 314.947 490.653 289.482C489.236 284.904 488.536 280.276 488.489 275.717L401.994 256.045C399.397 255.482 396.891 255.1 394.474 254.888M395.959 248.381L394.644 254.145M395.959 248.381L396.604 245.558M385.08 247.366L383.351 255.16M385.08 247.366C345.649 245.558 329.953 282.588 323.719 320.315M385.08 247.366L390.025 225.92M394.474 254.888L394.644 254.145M383.351 255.16C355.53 259.251 341.696 289.248 339.485 320.315M383.351 255.16L382.27 259.892M339.485 320.315H347.996C349.352 320.315 350.589 320.829 351.521 321.673M339.485 320.315H323.719M323.719 320.315H316.729M338.4 330.837V381.566C338.4 382.683 338.653 383.786 339.14 384.793L383.106 475.725C384.298 478.19 382.499 481.051 379.757 481.051H266.227C263.485 481.051 261.686 478.19 262.877 475.725L268.2 464.717C300.128 462.095 312.419 411.124 322.365 330.837M338.4 330.837H322.365M338.4 330.837L342.357 330.837M322.365 330.837H306.207M322.365 330.837L320.667 330.837M309.738 320.315H298.31C295.405 320.315 293.051 322.671 293.051 325.576C293.051 326.758 293.44 327.848 294.097 328.726M309.738 320.315H316.729M316.729 320.315C312.62 324.425 310.316 326.728 306.207 330.837M306.207 330.837L313.437 330.837M323.959 320.315L313.437 330.837M313.437 330.837H320.667M331.189 320.315L320.667 330.837M338.419 320.315L327.897 330.837M345.649 320.315L335.127 330.837M342.357 330.837L351.521 321.673M302.508 320.315L294.097 328.726M383.351 265.438C384.069 266.235 385.032 266.827 386.159 267.083C386.827 267.235 387.493 267.256 388.132 267.163M383.351 265.438C382.218 264.181 381.695 262.412 382.1 260.639L382.27 259.892M383.351 265.438L394.644 254.145M396.604 245.558L382.27 259.892M396.604 245.558L398.584 236.882M398.584 236.882L384.251 251.216M398.584 236.882L400.493 228.521M400.493 228.521L386.159 242.855M388.1 234.352L401.549 220.904M392.718 262.578L388.132 267.163M392.718 262.578L392.615 263.031C392.106 265.263 390.274 266.852 388.132 267.163M390.025 225.92L391.105 221.188C391.767 218.29 394.657 216.475 397.561 217.136C397.89 217.21 398.204 217.314 398.503 217.442M390.025 225.92L398.503 217.442M398.503 217.442C400.01 218.09 401.111 219.381 401.549 220.904M575.589 284.962C575.589 288.955 572.353 292.192 568.36 292.192C564.367 292.192 561.13 288.955 561.13 284.962C561.13 280.969 564.367 277.732 568.36 277.732C572.353 277.732 575.589 280.969 575.589 284.962ZM563.299 303.036C563.299 305.832 561.033 308.097 558.238 308.097C555.443 308.097 553.177 305.832 553.177 303.036C553.177 300.241 555.443 297.975 558.238 297.975C561.033 297.975 563.299 300.241 563.299 303.036ZM551.008 288.577C551.008 290.573 549.389 292.192 547.393 292.192C545.396 292.192 543.778 290.573 543.778 288.577C543.778 286.58 545.396 284.962 547.393 284.962C549.389 284.962 551.008 286.58 551.008 288.577ZM319.649 448.359C319.649 451.952 316.736 454.866 313.142 454.866C309.548 454.866 306.635 451.952 306.635 448.359C306.635 444.765 309.548 441.852 313.142 441.852C316.736 441.852 319.649 444.765 319.649 448.359ZM302.297 458.48C302.297 460.078 301.002 461.372 299.405 461.372C297.808 461.372 296.513 460.078 296.513 458.48C296.513 456.883 297.808 455.589 299.405 455.589C301.002 455.589 302.297 456.883 302.297 458.48ZM318.203 430.284C318.203 432.679 316.261 434.622 313.865 434.622C311.469 434.622 309.527 432.679 309.527 430.284C309.527 427.888 311.469 425.946 313.865 425.946C316.261 425.946 318.203 427.888 318.203 430.284Z" stroke="#89B68D" stroke-width="3"/>
<path d="M73.8315 260.075L120.042 219.862M120.042 219.862L108.309 159.709M120.042 219.862L177.984 239.801M177.984 239.801L224.195 199.588L282.137 219.528M177.984 239.801L189.717 299.955M282.137 219.528L328.347 179.315M282.137 219.528L293.87 279.681L247.66 319.894M328.347 179.315L316.615 119.162M328.347 179.315L386.29 199.255L432.5 159.042M316.615 119.162L362.825 78.949L420.768 98.8887M316.615 119.162L258.672 99.2223M432.5 159.042L420.768 98.8887M432.5 159.042L490.443 178.981M420.768 98.8887L466.978 58.6756M143.507 340.168L189.717 299.955M143.507 340.168L85.5641 320.228M143.507 340.168L155.239 400.32L109.029 440.534M189.717 299.955L247.66 319.894M247.66 319.894L259.392 380.047" stroke="#89B68D" stroke-width="3" stroke-linecap="round"/>
</svg>
