<svg width="546" height="252" viewBox="0 0 546 252" fill="none" xmlns="http://www.w3.org/2000/svg">
<path d="M372.524 46.4902C366.635 58.6357 377.235 75.9216 396.198 85.0994C415.162 94.2772 435.308 91.8713 441.197 79.7258C447.085 67.5802 436.485 50.2943 417.522 41.1165C398.558 31.9388 378.412 34.3446 372.524 46.4902Z" fill="url(#paint0_linear)"/>
<path d="M211.695 136.945C220.496 207.766 299.184 237.821 339.357 237.821C420.49 237.821 481.635 167.911 470.02 136.945C450.391 84.6102 403.434 136.945 345.779 53.3754C320.036 9.83734 196.722 16.4588 211.695 136.945Z" fill="url(#paint1_linear)"/>
<path d="M198.208 163.154C170.115 105.562 216.557 70.7565 194.537 35.8796C176.566 7.414 100.496 25.5644 69.7831 101.74C50.3989 149.818 14.4561 179.352 39.3556 211.574C67.8439 248.44 100.534 204.678 145 228.546C189.465 252.414 220.931 209.739 198.208 163.154Z" fill="url(#paint2_linear)"/>
<path d="M482.059 65.2692C473.546 65.716 469.213 61.217 466.111 56.3335C463.954 52.9368 462.391 49.3542 460.432 47.1204C472.391 47.8775 479.343 55.261 482.059 65.2692Z" fill="url(#paint3_linear)"/>
<path d="M474.611 41.3753C473.022 31.0611 464.355 24.3534 454.945 26.9078C463.797 32.9328 461.46 41.7378 474.611 41.3753Z" fill="url(#paint4_linear)"/>
<path d="M502.066 43.2538C513.559 49.1337 517.653 49.1382 530.473 39.2753C518.578 37.2365 514.717 36.0922 502.066 43.2538Z" fill="url(#paint5_linear)"/>
<path d="M515.65 7.45881C503.277 15.0526 502.048 21.918 509.58 35.233C510.85 20.1608 516.962 22.9264 515.65 7.45881Z" fill="url(#paint6_linear)"/>
<path d="M519.286 26.9309C530.616 27.6481 539.1 20.9206 540.439 6.86182C533.415 15.9319 519.408 14.4666 519.286 26.9309Z" fill="url(#paint7_linear)"/>
<path d="M477.998 49.7868C489.902 46.0864 486.072 37.2317 486.427 27.4222C474.707 34.9773 477.371 41.465 477.998 49.7868Z" fill="url(#paint8_linear)"/>
<path fill-rule="evenodd" clip-rule="evenodd" d="M500.696 103.123C495.813 105.573 491.463 107.756 485.921 102.94C492.464 95.6855 504.368 87.3563 513.65 100.048C508.5 99.2073 504.441 101.244 500.696 103.123ZM537.737 79.3935C522.158 86.5719 517.55 84.0301 509.323 77.8354C520.108 74.3867 523.839 74.8298 527.86 76.2511C528.466 76.4653 529.078 76.7018 529.723 76.9506C531.79 77.7487 534.185 78.6729 537.737 79.3935ZM502.523 73.7256C501.027 76.8972 499.315 80.5286 498.341 85.6588C491.864 73.1693 495.045 68.6422 499.312 62.5699C500.66 60.6517 502.116 58.5793 503.41 56.053C507.042 64.1411 505.106 68.2474 502.523 73.7256Z" fill="url(#paint9_linear)"/>
<path d="M509.323 77.8354C517.217 63.0509 525.001 72.737 541.561 66.135C537.946 72.4443 533.755 75.0258 527.86 76.2511C523.839 74.8298 520.108 74.3867 509.323 77.8354Z" fill="url(#paint10_linear)"/>
<path d="M482.059 65.2692C470.866 71.8892 465.34 61.9515 457.75 57.7511C460.251 57.0722 463.817 56.3759 466.111 56.3335C469.213 61.217 473.546 65.716 482.059 65.2692Z" fill="url(#paint11_linear)"/>
<path d="M462.173 128.947C470.398 126.705 473.104 121.076 474.52 115.466C475.506 111.565 475.868 107.673 477.029 104.938C465.909 109.402 461.619 118.592 462.173 128.947Z" fill="url(#paint12_linear)"/>
<path d="M461.764 103.922C460.043 93.6294 466.173 84.5452 475.91 84.024C469.389 92.5182 474.367 100.148 461.764 103.922Z" fill="url(#paint13_linear)"/>
<path d="M436.278 114.305C427.204 123.488 423.318 124.775 408.055 119.422C418.712 113.761 422.021 111.465 436.278 114.305Z" fill="url(#paint14_linear)"/>
<path d="M412.167 84.5645C426.296 87.9015 429.614 94.0364 426.63 109.04C420.704 95.1242 415.766 99.6648 412.167 84.5645Z" fill="url(#paint15_linear)"/>
<path d="M414.812 104.196C404.277 108.425 394.113 104.693 388.439 91.7605C397.949 98.1749 410.793 92.3966 414.812 104.196Z" fill="url(#paint16_linear)"/>
<path d="M461.182 112.972C448.718 113.185 449.582 103.576 446.172 94.3719C459.669 97.8764 459.171 104.872 461.182 112.972Z" fill="url(#paint17_linear)"/>
<path d="M462.173 128.947C472.385 131.183 475.768 124.404 479.764 118.352C480.739 116.875 481.75 115.442 482.905 114.194C482.169 114.233 481.351 114.299 480.506 114.387C478.381 114.61 476.089 114.981 474.52 115.466C473.104 121.076 470.398 126.705 462.173 128.947Z" fill="url(#paint18_linear)"/>
<path fill-rule="evenodd" clip-rule="evenodd" d="M435.894 77.9696C440.274 81.2368 444.174 84.1468 450.473 80.3745C445.3 72.0874 435.038 61.804 423.678 72.6759C428.896 72.7492 432.536 75.4644 435.894 77.9696ZM403.577 48.1253C417.66 57.9188 422.641 56.2225 431.825 51.563C421.81 46.2803 418.059 46.0637 413.852 46.7596C413.217 46.8645 412.573 46.9901 411.895 47.1223C409.719 47.5463 407.201 48.0374 403.577 48.1253ZM439.24 48.7063C440.157 52.0907 441.208 55.9657 441.269 61.1872C449.831 50.0237 447.491 45.0098 444.353 38.2847C443.362 36.1602 442.29 33.8649 441.458 31.1511C436.467 38.479 437.655 42.8607 439.24 48.7063Z" fill="url(#paint19_linear)"/>
<path d="M431.825 51.563C426.64 35.6253 417.281 43.7999 402.132 34.4022C404.587 41.2467 408.262 44.5216 413.852 46.7596C418.059 46.0637 421.81 46.2803 431.825 51.563Z" fill="url(#paint20_linear)"/>
<path d="M527 121.956C521.555 121.517 513.982 122.434 507.133 127.133C503.947 129.318 502.367 131.044 500.263 133.047C496.117 136.995 492.657 141.061 489.656 145.21C494.95 133.786 496.68 128.411 489.182 118.289C487.257 130.179 481.75 132.259 489.656 145.21C488.101 147.36 486.67 149.532 485.33 151.722C497.18 157.247 501.251 150.673 513.974 147.087C501.167 140.922 493.889 143.299 485.33 151.722C486.67 149.532 488.101 147.36 489.656 145.21C492.657 141.061 496.117 136.995 500.263 133.047C510.99 136.558 515.708 131.678 527 121.956Z" fill="url(#paint21_linear)"/>
<path d="M438.816 149.128C433.846 159.334 423.806 163.39 410.92 157.613C422.275 155.984 427.917 143.08 438.816 149.128C443.046 147.367 447.036 145.932 450.828 144.787C437.094 138.449 436.481 145.13 423.678 136.352C436.391 129.342 442.968 131.663 450.828 144.787C447.036 145.932 443.046 147.367 438.816 149.128Z" fill="url(#paint22_linear)"/>
<path d="M461.513 142.213C460.951 155.111 458.934 158.673 444.027 164.951C448.127 153.601 449.039 149.678 461.513 142.213Z" fill="url(#paint23_linear)"/>
<path d="M485.33 151.722C486.67 149.532 488.101 147.36 489.656 145.21C479.764 158.887 471.545 150.151 476.651 135.151C476.04 136.946 475.253 138.708 474.205 140.404C471.891 144.151 465.505 145.21 463.84 138.151C464.737 142.318 465.865 146.775 467.236 151.686C474.205 176.66 467.236 210.651 462.173 221.651C461.199 223.366 460.207 224.819 459.176 226.018C465.999 218.224 471.303 224.679 469.439 229.651C471.439 225.651 475.447 226.151 477.029 229.651C477.105 229.819 477.176 229.985 477.244 230.151C479.28 229.275 480.541 229.247 482.905 229.651C483.52 229.798 484.087 229.965 484.611 230.151C476.651 226.151 484.611 216.151 490.939 224.352C490.338 223.515 489.754 222.614 489.182 221.651C484.425 213.651 477.029 165.289 485.33 151.722Z" fill="url(#paint24_linear)"/>
<path d="M474.205 140.404L472.929 139.616L474.205 140.404ZM484.372 88.4501L485.856 88.6704L484.372 88.4501ZM540.439 6.86182L541.932 7.00403C541.995 6.33936 541.611 5.71286 540.991 5.46711C540.37 5.22137 539.661 5.41554 539.253 5.94345L540.439 6.86182ZM530.473 39.2753L531.387 40.4641C531.859 40.1009 532.072 39.4926 531.928 38.9143C531.785 38.3361 531.313 37.8975 530.726 37.7969L530.473 39.2753ZM509.58 35.233L510.615 36.319L509.58 35.233ZM515.65 7.45881L517.145 7.33206C517.101 6.81346 516.791 6.35473 516.327 6.12001C515.862 5.8853 515.309 5.90815 514.866 6.18039L515.65 7.45881ZM477.998 49.7868L476.584 50.287L477.998 49.7868ZM486.427 27.4222L487.926 27.4766C487.947 26.9182 487.655 26.3948 487.169 26.1185C486.683 25.8421 486.084 25.8587 485.615 26.1615L486.427 27.4222ZM482.059 65.2692L483.536 65.0055L482.059 65.2692ZM457.75 57.7511L457.357 56.3035C456.767 56.4635 456.334 56.9649 456.261 57.5712C456.187 58.1776 456.489 58.7678 457.023 59.0635L457.75 57.7511ZM481.438 62.0667L482.906 61.7582L481.438 62.0667ZM460.432 47.1204L460.526 45.6234C459.921 45.5851 459.353 45.9146 459.085 46.4586C458.818 47.0025 458.904 47.654 459.304 48.1096L460.432 47.1204ZM466.111 56.3335L467.377 55.5292L466.111 56.3335ZM454.945 26.9078L454.552 25.4602C453.987 25.6136 453.563 26.082 453.466 26.6596C453.369 27.2372 453.617 27.8184 454.101 28.1479L454.945 26.9078ZM479.736 110.574C479.324 111.293 479.572 112.21 480.291 112.622C481.01 113.034 481.926 112.785 482.338 112.067L479.736 110.574ZM485.921 102.94L484.634 102.169L485.921 102.94ZM513.65 100.048L513.408 101.529C514.009 101.627 514.61 101.352 514.928 100.833C515.247 100.314 515.22 99.6542 514.861 99.1628L513.65 100.048ZM503.41 56.053L504.779 55.4385C504.542 54.9124 504.025 54.5683 503.449 54.5535C502.872 54.5387 502.338 54.8557 502.075 55.369L503.41 56.053ZM537.737 79.3935L538.364 80.7558C538.954 80.4843 539.301 79.8646 539.227 79.2201C539.152 78.5756 538.671 78.0524 538.035 77.9234L537.737 79.3935ZM541.561 66.135L542.862 66.8807C543.18 66.3271 543.112 65.6334 542.694 65.1516C542.275 64.6698 541.598 64.5053 541.005 64.7416L541.561 66.135ZM527.86 76.2511L527.36 77.6653V77.6653L527.86 76.2511ZM500.696 103.123L501.369 104.463H501.369L500.696 103.123ZM529.723 76.9506L530.263 75.5512V75.5512L529.723 76.9506ZM502.523 73.7256L503.879 74.3653L502.523 73.7256ZM499.312 62.5699L498.084 61.7076V61.7076L499.312 62.5699ZM388.439 91.7605L389.278 90.5169C388.724 90.1436 387.99 90.181 387.478 90.6088C386.965 91.0367 386.797 91.7518 387.065 92.3632L388.439 91.7605ZM408.055 119.422L407.351 118.098C406.825 118.377 406.514 118.941 406.559 119.536C406.604 120.13 406.996 120.641 407.558 120.838L408.055 119.422ZM412.167 84.5645L412.512 83.1046C412.006 82.985 411.473 83.1365 411.106 83.5049C410.738 83.8732 410.587 84.4059 410.708 84.9122L412.167 84.5645ZM461.182 112.972L462.681 113.004L461.182 112.972ZM446.172 94.3719L446.549 92.92C446.008 92.7796 445.434 92.9514 445.059 93.366C444.685 93.7805 444.571 94.3689 444.766 94.8929L446.172 94.3719ZM462.173 128.947L460.688 129.159L462.173 128.947ZM482.905 114.194L484.006 115.213C484.421 114.765 484.523 114.11 484.263 113.557C484.004 113.004 483.435 112.664 482.825 112.696L482.905 114.194ZM461.76 125.711L463.251 125.544L461.76 125.711ZM477.029 104.938L478.41 105.524C478.647 104.966 478.525 104.321 478.1 103.888C477.676 103.455 477.033 103.32 476.47 103.546L477.029 104.938ZM475.91 84.024L477.1 84.9374C477.456 84.4728 477.51 83.8431 477.237 83.325C476.964 82.8068 476.414 82.4948 475.83 82.5261L475.91 84.024ZM450.473 80.3745L451.875 79.8411L450.473 80.3745ZM423.678 72.6759L422.641 71.5923C422.201 72.0132 422.059 72.6583 422.282 73.2249C422.505 73.7915 423.048 74.1672 423.657 74.1758L423.678 72.6759ZM441.458 31.1511L442.892 30.7113C442.723 30.1599 442.253 29.7543 441.683 29.668C441.112 29.5817 440.543 29.83 440.218 30.3067L441.458 31.1511ZM403.577 48.1253L403.541 46.6257C402.892 46.6415 402.327 47.0725 402.141 47.6939C401.954 48.3153 402.188 48.9863 402.721 49.3568L403.577 48.1253ZM402.132 34.4022L402.923 33.1275C402.38 32.7912 401.685 32.8346 401.189 33.2358C400.693 33.637 400.505 34.3081 400.72 34.9086L402.132 34.4022ZM413.852 46.7596L414.096 48.2394H414.096L413.852 46.7596ZM435.894 77.9696L434.997 79.1719L435.894 77.9696ZM411.895 47.1223L411.608 45.65L411.608 45.65L411.895 47.1223ZM439.24 48.7063L437.792 49.0988L439.24 48.7063ZM444.353 38.2847L445.712 37.6503L445.712 37.6503L444.353 38.2847ZM507.133 127.133L506.285 125.896L507.133 127.133ZM527 121.956L527.979 123.093C528.438 122.698 528.614 122.067 528.427 121.491C528.239 120.916 527.724 120.51 527.121 120.461L527 121.956ZM500.263 133.047L499.229 131.961L500.263 133.047ZM489.182 118.289L490.387 117.396C490.028 116.911 489.414 116.689 488.828 116.831C488.242 116.974 487.798 117.454 487.701 118.049L489.182 118.289ZM485.33 151.722L484.05 150.939L485.33 151.722ZM513.974 147.087L514.381 148.531C514.981 148.362 515.414 147.839 515.468 147.218C515.523 146.596 515.187 146.006 514.625 145.736L513.974 147.087ZM462.173 221.651L463.477 222.392C463.498 222.355 463.518 222.317 463.536 222.279L462.173 221.651ZM489.182 221.651L490.471 220.885L489.182 221.651ZM463.84 138.151L462.373 138.467L463.84 138.151ZM476.651 135.151L478.071 135.635L476.651 135.151ZM367.439 212.901L366.527 214.092L367.439 212.901ZM398.245 212.901L398.919 214.241C398.957 214.222 398.993 214.202 399.029 214.18L398.245 212.901ZM423.678 214.651L422.701 215.789C422.708 215.795 422.715 215.802 422.722 215.808L423.678 214.651ZM388.864 235.713C388.069 235.478 387.235 235.932 387 236.727C386.766 237.521 387.22 238.355 388.014 238.59L388.864 235.713ZM411.895 226.651L410.727 225.711L411.895 226.651ZM509.939 231.151L509.625 229.685L509.939 231.151ZM544.973 240.238C545.573 239.666 545.596 238.717 545.025 238.117C544.454 237.517 543.504 237.494 542.904 238.065L544.973 240.238ZM447.939 238.151L448.523 236.77L447.939 238.151ZM421.225 240.77C420.738 241.44 420.887 242.378 421.558 242.865C422.228 243.352 423.166 243.203 423.653 242.533L421.225 240.77ZM477.029 229.651L475.662 230.269L477.029 229.651ZM465.382 247.759C464.613 248.066 464.239 248.939 464.546 249.708C464.854 250.478 465.727 250.852 466.496 250.544L465.382 247.759ZM482.905 229.651L483.254 228.192C483.222 228.185 483.19 228.178 483.158 228.173L482.905 229.651ZM492.439 241.651L490.997 242.063L492.439 241.651ZM525.59 250.308C525.953 251.053 526.851 251.363 527.596 251C528.341 250.637 528.65 249.739 528.287 248.994L525.59 250.308ZM533.778 233.601C534.303 234.242 535.248 234.337 535.889 233.812C536.53 233.288 536.624 232.343 536.1 231.702L533.778 233.601ZM432.07 248.539C431.731 249.295 432.07 250.182 432.826 250.52C433.582 250.859 434.47 250.52 434.808 249.764L432.07 248.539ZM476.651 240.414L475.34 239.686L476.651 240.414ZM484.878 250.582C485.668 250.831 486.51 250.393 486.76 249.603C487.01 248.813 486.572 247.971 485.782 247.721L484.878 250.582ZM412.99 238.538C413.203 239.338 414.025 239.814 414.825 239.601C415.626 239.387 416.102 238.565 415.888 237.765L412.99 238.538ZM454.385 229.651L454.943 231.044L454.385 229.651ZM457.923 225.173C457.383 225.802 457.454 226.749 458.083 227.289C458.711 227.829 459.658 227.757 460.198 227.129L457.923 225.173ZM490.939 224.352L492.157 223.476L490.939 224.352ZM410.92 157.613L410.707 156.128C410.046 156.223 409.527 156.743 409.434 157.405C409.341 158.066 409.697 158.709 410.306 158.982L410.92 157.613ZM461.513 142.213L463.012 142.278C463.032 141.807 462.83 141.354 462.467 141.055C462.103 140.755 461.62 140.644 461.162 140.754L461.513 142.213ZM444.027 164.951L442.617 164.441C442.414 165.002 442.562 165.629 442.995 166.039C443.427 166.449 444.06 166.565 444.609 166.333L444.027 164.951ZM423.678 136.352L422.954 135.038C422.498 135.29 422.205 135.759 422.18 136.279C422.155 136.799 422.401 137.295 422.83 137.589L423.678 136.352ZM151.663 157.744L151.092 159.131L151.892 159.461L152.578 158.933L151.663 157.744ZM233.105 191.251L231.618 191.45L231.733 192.309L232.534 192.638L233.105 191.251ZM262.168 120.78L262.739 119.393L261.939 119.064L261.254 119.592L262.168 120.78ZM302.889 137.534L304.376 137.335L304.261 136.476L303.46 136.147L302.889 137.534ZM273.825 208.005L273.255 209.392L274.055 209.721L274.74 209.193L273.825 208.005ZM351.439 197.151L352.554 196.148L352.542 196.135L352.53 196.122L351.439 197.151ZM180.727 87.2733L182.213 87.0746L182.099 86.2158L181.297 85.8862L180.727 87.2733ZM519.191 28.4279C525.182 28.8071 530.557 27.2189 534.615 23.55C538.665 19.8882 541.236 14.3049 541.932 7.00403L538.945 6.7196C538.302 13.4775 535.962 18.2873 532.603 21.3247C529.251 24.355 524.719 25.7718 519.381 25.4339L519.191 28.4279ZM539.253 5.94345C537.659 8.0009 535.646 9.49377 533.436 10.7731C531.132 12.1071 528.938 13.0465 526.573 14.2977C524.33 15.4845 522.13 16.8664 520.495 18.8614C518.822 20.9028 517.82 23.4854 517.786 26.9162L520.786 26.9456C520.814 24.1442 521.608 22.2358 522.815 20.763C524.06 19.2437 525.824 18.088 527.976 16.9494C530.006 15.8751 532.638 14.7012 534.939 13.3695C537.334 11.983 539.706 10.2578 541.625 7.78018L539.253 5.94345ZM485.856 88.6704C488.305 72.1668 491.526 58.3608 503.222 44.2094L500.909 42.2982C488.685 57.0886 485.363 71.5577 482.888 88.2299L485.856 88.6704ZM501.383 44.5892C507.126 47.5274 511.393 49.2147 515.954 48.657C520.466 48.1053 524.986 45.3893 531.387 40.4641L529.558 38.0865C523.14 43.0243 519.203 45.2374 515.59 45.6792C512.026 46.1149 508.499 44.86 502.749 41.9184L501.383 44.5892ZM502.805 44.5591C509.055 41.0208 512.963 39.6355 516.684 39.3086C520.475 38.9757 524.176 39.7179 530.219 40.7537L530.726 37.7969C524.875 36.7939 520.698 35.9446 516.422 36.3202C512.075 36.7019 507.727 38.3252 501.327 41.9484L502.805 44.5591ZM503.222 44.2094C505.377 41.6018 507.824 38.9773 510.615 36.319L508.545 34.147C505.675 36.8813 503.146 39.5925 500.909 42.2982L503.222 44.2094ZM510.615 36.319C513.442 33.6252 516.622 30.8967 520.206 28.116L518.367 25.7457C514.711 28.5821 511.453 31.3764 508.545 34.147L510.615 36.319ZM514.866 6.18039C508.585 10.035 504.727 13.9361 503.683 18.8911C502.65 23.7947 504.48 29.2641 508.274 35.9715L510.886 34.4944C507.148 27.8869 505.827 23.2661 506.618 19.5098C507.399 15.8049 510.342 12.4764 516.435 8.73723L514.866 6.18039ZM511.075 35.3589C511.685 28.1175 513.421 25.2528 514.932 22.1511C515.719 20.5352 516.463 18.8232 516.907 16.4841C517.348 14.1608 517.48 11.2898 517.145 7.33206L514.156 7.58556C514.476 11.3616 514.336 13.9453 513.96 15.9247C513.587 17.8883 512.97 19.3271 512.235 20.8373C510.7 23.9877 508.745 27.2763 508.085 35.107L511.075 35.3589ZM478.443 51.2192C481.599 50.2381 483.861 48.8689 485.414 47.1004C486.975 45.3225 487.71 43.2659 488.027 41.1141C488.339 38.9953 488.255 36.7135 488.132 34.4534C488.007 32.1483 487.84 29.843 487.926 27.4766L484.928 27.3679C484.836 29.9062 485.015 32.3863 485.136 34.616C485.26 36.8907 485.322 38.8932 485.059 40.6768C484.801 42.4274 484.239 43.8913 483.16 45.121C482.072 46.36 480.349 47.4853 477.553 48.3544L478.443 51.2192ZM479.494 49.6741C479.413 48.6043 479.3 47.5687 479.19 46.5806C479.079 45.5843 478.973 44.6435 478.897 43.722C478.747 41.8806 478.733 40.2139 479.053 38.6109C479.671 35.5196 481.605 32.3151 487.24 28.683L485.615 26.1615C479.529 30.0845 476.935 33.9013 476.111 38.0231C475.711 40.0266 475.748 42.0144 475.907 43.966C475.987 44.9411 476.099 45.9314 476.209 46.9122C476.319 47.9013 476.426 48.8888 476.502 49.8994L479.494 49.6741ZM485.871 88.3806C485.45 79.3215 484.753 71.8202 483.536 65.0055L480.583 65.5328C481.768 72.1709 482.456 79.5304 482.874 88.5197L485.871 88.3806ZM481.296 63.9781C478.692 65.5178 476.526 66.0349 474.651 65.9787C472.768 65.9222 471.037 65.283 469.311 64.2731C467.562 63.2501 465.903 61.8998 464.117 60.4609C462.371 59.0529 460.505 57.5615 458.476 56.4387L457.023 59.0635C458.79 60.0409 460.461 61.3669 462.235 62.7967C463.97 64.1956 465.815 65.7035 467.796 66.8625C469.799 68.0347 472.023 68.9011 474.561 68.9773C477.108 69.0538 479.83 68.3306 482.823 66.5603L481.296 63.9781ZM483.536 65.0055C483.34 63.9065 483.13 62.8253 482.906 61.7582L479.97 62.3753C480.188 63.4116 480.392 64.4628 480.583 65.5328L483.536 65.0055ZM482.906 61.7582C481.999 57.4447 480.856 53.3693 479.412 49.2866L476.584 50.287C477.983 54.243 479.09 58.1903 479.97 62.3753L482.906 61.7582ZM460.337 48.6174C466.011 48.9766 470.412 50.8959 473.712 53.8442C477.025 56.8038 479.313 60.8766 480.612 65.6621L483.507 64.8762C482.089 59.6536 479.543 55.0305 475.711 51.607C471.866 48.1722 466.811 46.0212 460.526 45.6234L460.337 48.6174ZM481.981 63.7712C478.027 63.9788 475.137 63.0416 472.884 61.5497C470.602 60.0375 468.878 57.8918 467.377 55.5292L464.845 57.1378C466.446 59.6587 468.44 62.2043 471.228 64.0507C474.046 65.9176 477.579 67.0064 482.138 66.7671L481.981 63.7712ZM467.377 55.5292C466.326 53.8738 465.432 52.1948 464.503 50.552C463.597 48.9528 462.651 47.3761 461.559 46.1312L459.304 48.1096C460.171 49.0985 460.986 50.43 461.892 52.0297C462.772 53.5859 463.739 55.3965 464.845 57.1378L467.377 55.5292ZM458.143 59.1987C460.599 58.5319 464.026 57.8722 466.139 57.8332L466.084 54.8337C463.607 54.8795 459.903 55.6124 457.357 56.3035L458.143 59.1987ZM476.093 41.1469C474.399 30.1477 465.01 22.6215 454.552 25.4602L455.338 28.3554C463.701 26.0854 471.645 31.9745 473.128 41.6037L476.093 41.1469ZM454.101 28.1479C458.249 30.9712 459.587 34.2414 461.963 37.4327C463.125 38.9932 464.513 40.4492 466.574 41.4613C468.623 42.468 471.202 42.9698 474.652 42.8748L474.569 39.8759C471.444 39.962 469.384 39.4992 467.896 38.7686C466.42 38.0434 465.373 36.9895 464.369 35.641C462.413 33.0142 460.493 28.8694 455.789 25.6678L454.101 28.1479ZM479.412 49.2866C478.354 46.2942 477.387 43.8579 475.976 40.7546L473.245 41.996C474.617 45.0148 475.552 47.3703 476.584 50.287L479.412 49.2866ZM482.338 112.067C484.048 109.085 485.657 106.303 487.208 103.71L484.634 102.169C483.067 104.787 481.447 107.589 479.736 110.574L482.338 112.067ZM514.861 99.1628C512.402 95.8011 509.688 93.7228 506.821 92.711C503.951 91.6983 501.065 91.8021 498.35 92.5709C492.99 94.0883 488.146 98.2336 484.808 101.935L487.035 103.944C490.24 100.391 494.619 96.7451 499.167 95.4574C501.406 94.8236 503.645 94.7715 505.822 95.54C508.002 96.3093 510.257 97.9494 512.439 100.934L514.861 99.1628ZM487.208 103.71C491.472 96.5878 495.259 90.9786 499.416 86.7046L497.265 84.613C492.854 89.1489 488.921 95.0086 484.634 102.169L487.208 103.71ZM499.416 86.7046C502.588 83.4427 505.969 80.9667 509.932 79.2062L508.714 76.4647C504.352 78.4025 500.664 81.1188 497.265 84.613L499.416 86.7046ZM508.421 79.0338C512.516 82.1171 516.016 84.5503 520.588 85.1179C525.144 85.6836 530.509 84.3756 538.364 80.7558L537.109 78.0311C529.386 81.5897 524.657 82.6001 520.958 82.1408C517.274 81.6835 514.357 79.7485 510.225 76.6371L508.421 79.0338ZM510.646 78.5419C512.543 74.9892 514.348 73.0687 516.14 71.9806C517.928 70.8951 519.867 70.5356 522.268 70.4148C527.048 70.1742 533.533 70.9504 542.116 67.5283L541.005 64.7416C533.029 67.9215 527.342 67.1556 522.117 67.4186C519.514 67.5496 516.992 67.9534 514.583 69.4162C512.178 70.8764 510.05 73.2894 508 77.129L510.646 78.5419ZM540.259 65.3892C538.534 68.3998 536.719 70.4416 534.697 71.8763C532.675 73.3113 530.363 74.1988 527.554 74.7824L528.165 77.7197C531.252 77.0781 533.983 76.0621 536.434 74.3228C538.885 72.583 540.972 70.1794 542.862 66.8807L540.259 65.3892ZM528.36 74.8368C526.22 74.0804 524.082 73.5636 521.051 73.719C518.078 73.8713 514.306 74.667 508.866 76.4067L509.78 79.2642C515.124 77.5551 518.611 76.848 521.205 76.715C523.741 76.585 525.479 77.0004 527.36 77.6653L528.36 74.8368ZM500.024 101.782C497.521 103.038 495.467 104.048 493.4 104.264C491.476 104.465 489.406 103.98 486.905 101.807L484.937 104.072C487.979 106.715 490.854 107.547 493.712 107.248C496.426 106.964 498.988 105.658 501.369 104.463L500.024 101.782ZM513.892 98.5678C508.202 97.6389 503.731 99.9217 500.024 101.782L501.369 104.463C505.151 102.566 508.797 100.776 513.408 101.529L513.892 98.5678ZM527.36 77.6653C527.942 77.8711 528.534 78.0997 529.183 78.3499L530.263 75.5512C529.623 75.304 528.99 75.0595 528.36 74.8368L527.36 77.6653ZM529.183 78.3499C531.266 79.1542 533.757 80.1168 537.438 80.8635L538.035 77.9234C534.612 77.2291 532.315 76.3432 530.263 75.5512L529.183 78.3499ZM501.166 73.0858C499.665 76.2683 497.879 80.0474 496.867 85.379L499.814 85.9386C500.75 81.0098 502.389 77.5261 503.879 74.3653L501.166 73.0858ZM499.672 84.9682C496.504 78.8578 495.828 74.9389 496.281 71.9309C496.739 68.8853 498.371 66.518 500.539 63.4323L498.084 61.7076C495.986 64.6941 493.894 67.6266 493.314 71.4849C492.728 75.3809 493.701 79.9703 497.009 86.3493L499.672 84.9682ZM500.539 63.4323C501.883 61.5195 503.397 59.3682 504.745 56.737L502.075 55.369C500.835 57.7904 499.436 59.784 498.084 61.7076L500.539 63.4323ZM502.042 56.6675C503.772 60.521 504.119 63.2885 503.81 65.6752C503.492 68.124 502.476 70.307 501.166 73.0858L503.879 74.3653C505.152 71.666 506.396 69.0567 506.785 66.0609C507.181 63.0029 506.68 59.6731 504.779 55.4385L502.042 56.6675ZM414.254 102.804C409.289 104.796 404.542 104.87 400.41 103.042C396.268 101.209 392.54 97.3742 389.812 91.1578L387.065 92.3632C390.012 99.079 394.203 103.576 399.196 105.785C404.198 107.999 409.8 107.824 415.371 105.588L414.254 102.804ZM387.6 93.0041C390.198 94.7562 392.991 95.652 395.7 96.2185C398.302 96.7627 401.169 97.0533 403.434 97.4377C405.834 97.8451 407.871 98.3903 409.529 99.4433C411.137 100.464 412.489 102.028 413.392 104.679L416.232 103.712C415.126 100.464 413.366 98.3255 411.137 96.9107C408.96 95.5281 406.438 94.9047 403.936 94.48C401.298 94.0323 398.92 93.8272 396.314 93.2821C393.814 92.7593 391.435 91.9719 389.278 90.5169L387.6 93.0041ZM468.576 151.012C461.005 135.954 453.318 123.253 437.077 113.035L435.48 115.574C451.019 125.351 458.401 137.454 465.896 152.36L468.576 151.012ZM435.211 113.25C430.672 117.845 427.715 120.141 424.194 120.843C420.624 121.555 416.192 120.686 408.551 118.007L407.558 120.838C415.18 123.511 420.323 124.675 424.781 123.785C429.287 122.887 432.811 119.948 437.345 115.359L435.211 113.25ZM436.571 112.833C429.358 111.397 424.72 111.217 420.473 112.216C416.295 113.198 412.594 115.313 407.351 118.098L408.758 120.747C414.173 117.871 417.455 116.007 421.16 115.136C424.796 114.281 428.941 114.373 435.985 115.776L436.571 112.833ZM437.077 113.035C434.106 111.166 430.855 109.383 427.273 107.685L425.988 110.396C429.47 112.047 432.616 113.773 435.48 115.574L437.077 113.035ZM427.273 107.685C423.643 105.965 419.675 104.331 415.314 102.782L414.31 105.609C418.585 107.128 422.459 108.723 425.988 110.396L427.273 107.685ZM411.822 86.0243C418.779 87.6674 422.617 89.9067 424.519 93.1807C426.447 96.5002 426.639 101.302 425.159 108.748L428.101 109.333C429.604 101.775 429.63 96.0072 427.113 91.6739C424.569 87.2952 419.684 84.7985 412.512 83.1046L411.822 86.0243ZM428.01 108.453C424.931 101.223 422.045 98.7117 419.601 96.2003C418.429 94.9965 417.393 93.8232 416.424 92.0751C415.447 90.313 414.505 87.9031 413.626 84.2168L410.708 84.9122C411.629 88.7759 412.653 91.4611 413.8 93.5295C414.954 95.6119 416.197 97.0046 417.451 98.2926C419.857 100.765 422.403 102.942 425.25 109.628L428.01 108.453ZM461.156 111.472C458.228 111.522 456.239 110.993 454.818 110.157C453.408 109.327 452.416 108.113 451.622 106.531C450.814 104.92 450.246 102.998 449.651 100.799C449.068 98.6441 448.461 96.2326 447.579 93.8508L444.766 94.8929C445.588 97.1135 446.152 99.3548 446.755 101.583C447.347 103.768 447.981 105.962 448.941 107.876C449.916 109.82 451.258 111.543 453.297 112.743C455.326 113.936 457.903 114.528 461.207 114.471L461.156 111.472ZM462.637 112.61C462.393 111.626 462.186 110.655 461.981 109.681C461.777 108.716 461.574 107.74 461.344 106.789C460.884 104.886 460.297 102.986 459.289 101.209C457.216 97.5523 453.557 94.7398 446.549 92.92L445.795 95.8237C452.284 97.5085 455.124 99.9461 456.679 102.688C457.485 104.11 457.994 105.698 458.428 107.494C458.645 108.392 458.838 109.319 459.045 110.3C459.25 111.273 459.467 112.292 459.726 113.333L462.637 112.61ZM463.658 128.735C463.504 127.659 463.369 126.597 463.251 125.544L460.27 125.878C460.391 126.961 460.53 128.054 460.688 129.159L463.658 128.735ZM463.251 125.544C462.776 121.294 462.591 117.199 462.681 113.004L459.682 112.939C459.589 117.269 459.78 121.497 460.27 125.878L463.251 125.544ZM476.47 103.546C470.626 105.892 466.499 109.518 463.924 113.984C461.356 118.435 460.386 123.623 460.675 129.027L463.671 128.867C463.406 123.915 464.303 119.331 466.522 115.483C468.733 111.649 472.312 108.448 477.588 106.33L476.47 103.546ZM462.567 130.394C466.972 129.194 469.986 127.053 472.078 124.398C474.147 121.771 475.243 118.729 475.975 115.834L473.066 115.099C472.381 117.813 471.416 120.39 469.721 122.541C468.05 124.663 465.599 126.459 461.779 127.5L462.567 130.394ZM475.975 115.834C476.48 113.834 476.831 111.811 477.18 110.058C477.539 108.255 477.896 106.735 478.41 105.524L475.649 104.352C475.001 105.876 474.596 107.67 474.238 109.472C473.869 111.323 473.546 113.198 473.066 115.099L475.975 115.834ZM463.244 103.675C461.637 94.0656 467.337 85.985 475.99 85.5219L475.83 82.5261C465.009 83.1054 458.449 93.1932 460.285 104.17L463.244 103.675ZM474.72 83.1106C471.255 87.6245 470.729 92.1621 469.695 95.2693C469.163 96.8644 468.499 98.193 467.324 99.344C466.141 100.504 464.329 101.588 461.334 102.485L462.195 105.359C465.501 104.369 467.793 103.085 469.424 101.487C471.064 99.8806 471.926 98.0632 472.541 96.2172C473.798 92.4423 474.044 88.9178 477.1 84.9374L474.72 83.1106ZM462.681 113.004C462.748 109.911 462.898 107.381 463.255 104.084L460.273 103.761C459.905 107.149 459.75 109.766 459.682 112.939L462.681 113.004ZM424.715 73.7596C427.386 71.2032 429.893 69.9829 432.174 69.6069C434.452 69.2313 436.648 69.6744 438.741 70.6901C442.994 72.7538 446.667 77.1101 449.201 81.1687L451.746 79.5802C449.106 75.3518 445.062 70.4228 440.051 67.9911C437.512 66.759 434.688 66.1518 431.686 66.6468C428.686 67.1414 425.65 68.7126 422.641 71.5923L424.715 73.7596ZM451.875 79.8411C448.908 72.0411 446.061 65.5835 442.511 60.3457L440.027 62.0288C443.372 66.9642 446.12 73.1495 449.071 80.9078L451.875 79.8411ZM442.511 60.3457C439.776 56.3109 436.62 52.991 432.665 50.3199L430.986 52.8061C434.579 55.2327 437.475 58.2621 440.027 62.0288L442.511 60.3457ZM431.147 50.2253C426.534 52.5656 423.323 53.9603 419.617 53.7661C415.894 53.571 411.415 51.7488 404.434 46.8938L402.721 49.3568C409.822 54.2953 414.875 56.5217 419.46 56.762C424.06 57.0031 427.933 55.2199 432.504 52.9007L431.147 50.2253ZM433.252 51.0989C431.905 46.9599 430.232 44.2117 428.119 42.3532C426.003 40.4913 423.591 39.6526 421.051 39.0683C415.953 37.895 410.219 37.654 402.923 33.1275L401.341 35.6768C409.194 40.5481 415.714 40.9185 420.379 41.9919C422.721 42.5308 424.567 43.2241 426.138 44.6056C427.712 45.9905 429.153 48.1972 430.399 52.0271L433.252 51.0989ZM400.72 34.9086C402.004 38.4872 403.638 41.2189 405.747 43.3608C407.856 45.5022 410.367 46.9803 413.294 48.1521L414.409 45.367C411.746 44.3009 409.625 43.0226 407.885 41.2559C406.146 39.4897 404.715 37.1616 403.544 33.8957L400.72 34.9086ZM414.096 48.2394C416.065 47.9139 417.848 47.809 420.323 48.3808C422.853 48.9655 426.162 50.2718 431.126 52.8897L432.525 50.2362C427.473 47.5714 423.899 46.128 420.998 45.4578C418.041 44.7746 415.846 44.9093 413.607 45.2797L414.096 48.2394ZM434.997 79.1719C437.132 80.7647 439.427 82.4991 442.049 83.2534C444.811 84.0476 447.787 83.7317 451.244 81.6613L449.702 79.0876C446.861 80.7896 444.737 80.9048 442.878 80.3703C440.881 79.7959 439.035 78.4417 436.791 76.7673L434.997 79.1719ZM423.657 74.1758C428.329 74.2414 431.606 76.6419 434.997 79.1719L436.791 76.7673C433.466 74.2869 429.463 71.257 423.699 71.1761L423.657 74.1758ZM413.607 45.2797C412.948 45.3887 412.282 45.5186 411.608 45.65L412.182 48.5946C412.864 48.4616 413.487 48.3402 414.096 48.2394L413.607 45.2797ZM411.608 45.65C409.449 46.0708 407.032 46.541 403.541 46.6257L403.614 49.6249C407.369 49.5337 409.99 49.0219 412.182 48.5946L411.608 45.65ZM437.792 49.0988C438.706 52.4716 439.71 56.1883 439.769 61.2049L442.769 61.1696C442.705 55.7431 441.608 51.7098 440.687 48.3139L437.792 49.0988ZM442.459 62.1001C446.833 56.3983 448.593 52.05 448.698 48.1115C448.802 44.2112 447.256 40.958 445.712 37.6503L442.994 38.919C444.589 42.3365 445.781 44.9528 445.699 48.0316C445.618 51.0723 444.268 54.8126 440.079 60.2743L442.459 62.1001ZM445.712 37.6503C444.718 35.5199 443.69 33.3124 442.892 30.7113L440.024 31.591C440.891 34.4175 442.005 36.8005 442.994 38.919L445.712 37.6503ZM440.218 30.3067C437.605 34.1433 436.529 37.3339 436.385 40.4142C436.243 43.4318 437.011 46.2184 437.792 49.0988L440.687 48.3139C439.883 45.3487 439.265 43.0216 439.381 40.555C439.494 38.151 440.32 35.4868 442.698 31.9956L440.218 30.3067ZM449.071 80.9078C449.956 83.2351 451.004 85.7123 452.081 88.271C453.162 90.8392 454.276 93.5002 455.316 96.2367C457.397 101.716 459.146 107.423 459.688 113.114L462.675 112.829C462.096 106.746 460.239 100.749 458.12 95.1715C457.06 92.3792 455.926 89.673 454.846 87.1074C453.762 84.5322 452.738 82.1089 451.875 79.8411L449.071 80.9078ZM507.982 128.37C514.478 123.913 521.683 123.033 526.88 123.452L527.121 120.461C521.426 120.002 513.487 120.955 506.285 125.896L507.982 128.37ZM506.285 125.896C502.974 128.167 501.286 130.002 499.229 131.961L501.298 134.133C503.448 132.085 504.921 130.469 507.982 128.37L506.285 125.896ZM526.022 120.82C520.285 125.758 516.465 129.236 512.741 131.126C509.206 132.921 505.762 133.268 500.73 131.621L499.797 134.472C505.491 136.336 509.77 135.999 514.099 133.801C518.239 131.699 522.423 127.876 527.979 123.093L526.022 120.82ZM499.229 131.961C495.011 135.977 491.491 140.114 488.441 144.331L490.871 146.089C493.823 142.008 497.224 138.013 501.298 134.133L499.229 131.961ZM490.936 144.428C487.097 138.139 486.664 134.753 487.21 131.608C487.502 129.927 488.077 128.279 488.76 126.148C489.432 124.052 490.164 121.61 490.663 118.529L487.701 118.049C487.238 120.913 486.559 123.189 485.904 125.232C485.26 127.241 484.592 129.152 484.254 131.095C483.542 135.201 484.309 139.331 488.376 145.992L490.936 144.428ZM487.977 119.182C491.616 124.095 492.856 127.637 492.717 131.203C492.574 134.891 490.964 138.82 488.295 144.579L491.017 145.841C493.642 140.176 495.544 135.706 495.715 131.32C495.89 126.812 494.246 122.605 490.387 117.396L487.977 119.182ZM488.441 144.331C486.861 146.515 485.408 148.72 484.05 150.939L486.609 152.505C487.931 150.344 489.342 148.204 490.871 146.089L488.441 144.331ZM484.696 153.081C487.794 154.526 490.462 155.215 492.946 155.331C495.434 155.447 497.645 154.982 499.811 154.24C501.934 153.513 504.105 152.482 506.4 151.475C508.73 150.452 511.297 149.4 514.381 148.531L513.567 145.644C510.289 146.567 507.577 147.682 505.194 148.728C502.778 149.788 500.805 150.728 498.838 151.402C496.915 152.061 495.091 152.428 493.086 152.334C491.075 152.241 488.791 151.681 485.964 150.362L484.696 153.081ZM514.625 145.736C508.066 142.578 502.701 141.499 497.771 142.462C492.856 143.421 488.64 146.36 484.278 150.653L486.382 152.791C490.579 148.661 494.281 146.199 498.346 145.406C502.397 144.615 507.075 145.431 513.323 148.439L514.625 145.736ZM482.825 112.696C482.062 112.737 481.218 112.804 480.35 112.895L480.663 115.879C481.484 115.793 482.277 115.73 482.985 115.692L482.825 112.696ZM480.35 112.895C478.193 113.121 475.786 113.504 474.077 114.033L474.964 116.899C476.392 116.457 478.569 116.098 480.663 115.879L480.35 112.895ZM481.983 114.651C483.673 105.207 484.681 96.5848 485.856 88.6704L482.888 88.2299C481.695 96.2674 480.711 104.73 479.03 114.123L481.983 114.651ZM461.852 130.412C467.38 131.623 471.257 130.397 474.257 127.913C477.1 125.557 479.104 122.073 481.016 119.178L478.512 117.525C476.428 120.682 474.743 123.614 472.343 125.602C470.099 127.462 467.178 128.507 462.494 127.482L461.852 130.412ZM481.016 119.178C481.979 117.719 482.936 116.369 484.006 115.213L481.805 113.175C480.563 114.516 479.498 116.032 478.512 117.525L481.016 119.178ZM465.791 152.089C469.203 164.315 469.219 178.84 467.727 191.737C466.232 204.647 463.251 215.722 460.81 221.024L463.536 222.279C466.158 216.58 469.193 205.161 470.707 192.082C472.222 178.989 472.238 164.031 468.681 151.283L465.791 152.089ZM484.05 150.939C481.77 154.667 480.665 160.555 480.264 167.156C479.858 173.826 480.159 181.475 480.866 188.916C481.574 196.362 482.693 203.637 483.938 209.566C484.56 212.53 485.217 215.173 485.875 217.342C486.524 219.48 487.201 221.255 487.893 222.418L490.471 220.885C489.974 220.048 489.38 218.561 488.746 216.471C488.121 214.41 487.484 211.856 486.874 208.95C485.654 203.137 484.551 195.974 483.853 188.632C483.154 181.287 482.865 173.802 483.258 167.338C483.656 160.805 484.74 155.561 486.609 152.505L484.05 150.939ZM468.681 151.283C467.316 146.392 466.195 141.965 465.306 137.836L462.373 138.467C463.278 142.671 464.415 147.158 465.791 152.089L468.681 151.283ZM465.306 137.836C464.62 134.65 464.073 131.642 463.658 128.735L460.688 129.159C461.114 132.145 461.675 135.222 462.373 138.467L465.306 137.836ZM462.38 138.496C462.846 140.474 463.675 142.012 464.797 143.09C465.929 144.177 467.289 144.728 468.672 144.826C471.379 145.019 474.062 143.492 475.482 141.192L472.929 139.616C472.035 141.064 470.368 141.939 468.886 141.834C468.175 141.783 467.482 141.509 466.875 140.926C466.26 140.335 465.666 139.358 465.3 137.807L462.38 138.496ZM475.482 141.192C476.597 139.386 477.43 137.518 478.071 135.635L475.231 134.668C474.651 136.373 473.908 138.03 472.929 139.616L475.482 141.192ZM478.071 135.635C479.077 132.681 479.616 129.672 480.031 126.8C480.453 123.877 480.736 121.192 481.236 118.64L478.292 118.064C477.774 120.71 477.461 123.604 477.062 126.371C476.655 129.188 476.147 131.979 475.231 134.668L478.071 135.635ZM475.231 134.668C473.904 138.566 473.417 142.13 473.642 145.089C473.865 148.012 474.804 150.525 476.535 152.058C478.364 153.677 480.793 153.954 483.311 152.902C485.751 151.882 488.318 149.62 490.871 146.089L488.441 144.331C486.048 147.639 483.878 149.413 482.154 150.134C480.509 150.821 479.348 150.541 478.524 149.812C477.601 148.995 476.825 147.367 476.633 144.86C476.445 142.389 476.845 139.236 478.071 135.635L475.231 134.668ZM397.57 211.562C390.597 215.075 384.781 216.235 379.996 215.973C375.222 215.713 371.382 214.033 368.351 211.711L366.527 214.092C369.995 216.749 374.405 218.673 379.833 218.969C385.25 219.265 391.587 217.935 398.919 214.241L397.57 211.562ZM424.655 213.513C419.439 209.034 415.295 206.744 410.965 206.615C406.679 206.488 402.553 208.501 397.461 211.623L399.029 214.18C404.131 211.052 407.57 209.516 410.876 209.614C414.138 209.711 417.613 211.421 422.701 215.789L424.655 213.513ZM388.014 238.59C392.805 240.004 396.941 240.05 401.025 238.215C405.025 236.418 408.795 232.893 413.063 227.592L410.727 225.711C406.539 230.91 403.133 233.979 399.795 235.479C396.541 236.941 393.177 236.986 388.864 235.713L388.014 238.59ZM442.166 226.15C437.466 223.632 431.774 219.397 424.634 213.495L422.722 215.808C429.878 221.723 435.767 226.125 440.75 228.794L442.166 226.15ZM468.034 229.125C465.36 236.256 456.279 240.051 448.523 236.77L447.354 239.533C456.541 243.419 467.518 239.046 470.843 230.178L468.034 229.125ZM448.523 236.77C441.958 233.992 436.723 232.733 432.285 233.353C427.734 233.989 424.285 236.556 421.225 240.77L423.653 242.533C426.402 238.746 429.202 236.813 432.7 236.324C436.309 235.82 440.92 236.811 447.354 239.533L448.523 236.77ZM490.997 242.063C492.091 245.894 494.286 248.479 497.589 249.124C500.734 249.737 504.405 248.477 508.271 245.899L506.607 243.403C502.973 245.826 500.144 246.566 498.164 246.179C496.342 245.824 494.787 244.408 493.881 241.239L490.997 242.063ZM508.271 245.899C511.825 243.53 515.16 242.673 518.001 243.279C520.796 243.876 523.477 245.97 525.59 250.308L528.287 248.994C525.901 244.095 522.582 241.189 518.627 240.345C514.717 239.511 510.553 240.772 506.607 243.403L508.271 245.899ZM510.253 232.618C513.335 231.958 516.214 232.598 519.054 233.905C521.94 235.232 524.634 237.167 527.419 239.024C530.113 240.82 532.955 242.588 535.872 243.169C538.959 243.785 542.012 243.058 544.973 240.238L542.904 238.065C540.616 240.244 538.544 240.643 536.459 240.227C534.205 239.778 531.827 238.357 529.083 236.528C526.432 234.76 523.469 232.633 520.308 231.179C517.101 229.704 513.543 228.845 509.625 229.685L510.253 232.618ZM510.253 232.618C513.006 232.028 515.417 231.113 517.55 230.289C519.727 229.447 521.537 228.735 523.279 228.407C524.963 228.089 526.509 228.149 528.122 228.839C529.769 229.543 531.618 230.961 533.778 233.601L536.1 231.702C533.76 228.842 531.546 227.04 529.302 226.081C527.025 225.107 524.852 225.057 522.724 225.459C520.653 225.849 518.557 226.683 516.469 227.49C514.335 228.315 512.122 229.15 509.625 229.685L510.253 232.618ZM447.535 236.707C443.623 237.802 440.548 238.888 438.052 240.67C435.508 242.485 433.683 244.935 432.07 248.539L434.808 249.764C436.272 246.493 437.804 244.532 439.795 243.111C441.834 241.656 444.47 240.68 448.343 239.596L447.535 236.707ZM475.34 239.686C473.349 243.274 469.395 246.153 465.382 247.759L466.496 250.544C470.915 248.777 475.532 245.523 477.963 241.142L475.34 239.686ZM475.234 240.906C476.101 243.4 477.015 245.412 478.529 247.012C480.061 248.631 482.073 249.696 484.878 250.582L485.782 247.721C483.231 246.915 481.754 246.055 480.709 244.951C479.647 243.828 478.9 242.317 478.068 239.922L475.234 240.906ZM413.063 227.592C416.05 223.884 418.723 222.119 421.424 221.579L420.836 218.637C417.185 219.367 413.952 221.706 410.727 225.711L413.063 227.592ZM421.424 221.579C423.768 221.111 426.359 221.519 429.523 222.771C432.699 224.029 436.316 226.081 440.675 228.751L442.242 226.193C437.879 223.52 434.068 221.344 430.628 219.982C427.176 218.616 423.964 218.013 420.836 218.637L421.424 221.579ZM420.535 218.731C416.072 220.662 413.557 223.625 412.521 227.232C411.512 230.745 411.961 234.682 412.99 238.538L415.888 237.765C414.916 234.12 414.616 230.808 415.405 228.06C416.167 225.406 417.997 223.098 421.726 221.485L420.535 218.731ZM460.869 220.91C458.549 224.994 456.265 227.283 453.828 228.259L454.943 231.044C458.303 229.699 461.02 226.718 463.477 222.392L460.869 220.91ZM453.828 228.259C450.907 229.428 447.281 228.89 442.166 226.15L440.75 228.794C446.137 231.68 450.782 232.709 454.943 231.044L453.828 228.259ZM470.843 230.178C471.995 227.108 470.986 223.442 468.336 221.76C466.965 220.889 465.251 220.627 463.412 221.185C461.611 221.731 459.759 223.038 457.923 225.173L460.198 227.129C461.801 225.265 463.2 224.384 464.283 224.055C465.328 223.739 466.13 223.913 466.728 224.293C468.017 225.111 468.758 227.194 468.034 229.125L470.843 230.178ZM470.781 230.322C471.586 228.712 472.609 228.307 473.326 228.337C474.091 228.37 475.051 228.916 475.662 230.269L478.396 229.034C477.426 226.887 475.59 225.432 473.455 225.34C471.273 225.246 469.292 226.591 468.097 228.981L470.781 230.322ZM475.662 230.269C475.73 230.42 475.795 230.569 475.855 230.718L478.633 229.585C478.558 229.401 478.479 229.218 478.396 229.034L475.662 230.269ZM475.855 230.718C477.219 234.062 476.79 237.072 475.34 239.686L477.963 241.142C479.812 237.809 480.372 233.849 478.633 229.585L475.855 230.718ZM483.158 228.173C481.94 227.965 480.889 227.845 479.838 227.925C478.764 228.007 477.775 228.29 476.651 228.774L477.837 231.529C478.749 231.137 479.409 230.967 480.066 230.917C480.745 230.865 481.507 230.934 482.652 231.13L483.158 228.173ZM482.557 231.11C483.126 231.246 483.641 231.398 484.108 231.564L485.115 228.738C484.534 228.531 483.915 228.35 483.254 228.192L482.557 231.11ZM484.108 231.564C486.2 232.31 487.427 233.384 488.373 234.953C489.38 236.623 490.083 238.867 490.997 242.063L493.881 241.239C492.99 238.122 492.192 235.476 490.942 233.404C489.632 231.231 487.847 229.712 485.115 228.738L484.108 231.564ZM487.893 222.418C488.483 223.411 489.09 224.35 489.721 225.227L492.157 223.476C491.585 222.68 491.025 221.817 490.471 220.885L487.893 222.418ZM489.721 225.227C492.027 228.435 494.68 230.865 498.081 232.185C501.479 233.505 505.445 233.648 510.253 232.618L509.625 229.685C505.197 230.634 501.861 230.435 499.167 229.389C496.476 228.344 494.247 226.383 492.157 223.476L489.721 225.227ZM485.285 228.811C483.621 227.975 482.989 226.942 482.823 226.11C482.65 225.246 482.926 224.351 483.53 223.682C484.126 223.023 485.007 222.627 486.01 222.728C487.01 222.829 488.351 223.453 489.751 225.268L492.126 223.435C490.363 221.15 488.337 219.949 486.313 219.743C484.292 219.539 482.494 220.355 481.305 221.67C480.123 222.977 479.505 224.819 479.881 226.699C480.263 228.611 481.622 230.328 483.938 231.492L485.285 228.811ZM437.467 148.471C435.125 153.281 431.655 156.522 427.366 157.94C423.066 159.362 417.728 159.021 411.533 156.244L410.306 158.982C416.998 161.982 423.123 162.502 428.307 160.789C433.501 159.072 437.536 155.182 440.164 149.785L437.467 148.471ZM411.133 159.098C414.235 158.653 416.906 157.442 419.294 156.044C421.588 154.701 423.909 152.992 425.845 151.756C427.898 150.447 429.774 149.484 431.71 149.152C433.587 148.829 435.638 149.08 438.088 150.44L439.544 147.816C436.544 146.152 433.803 145.748 431.202 146.195C428.66 146.632 426.372 147.862 424.232 149.227C421.977 150.666 420.076 152.11 417.778 153.455C415.575 154.745 413.283 155.759 410.707 156.128L411.133 159.098ZM460.014 142.147C459.733 148.6 459.083 152.287 456.944 155.171C454.776 158.095 450.908 160.426 443.445 163.569L444.609 166.333C452.053 163.199 456.647 160.609 459.354 156.958C462.091 153.267 462.731 148.723 463.012 142.278L460.014 142.147ZM460.743 140.925C454.432 144.702 450.873 147.682 448.395 151.273C445.957 154.806 444.633 158.858 442.617 164.441L445.438 165.461C447.521 159.694 448.703 156.109 450.864 152.977C452.986 149.903 456.12 147.188 462.283 143.5L460.743 140.925ZM450.394 143.351C446.549 144.512 442.511 145.965 438.239 147.743L439.392 150.513C443.58 148.769 447.523 147.351 451.261 146.223L450.394 143.351ZM424.402 137.665C430.662 134.214 435.01 133.298 438.617 134.448C442.274 135.614 445.641 139.045 449.541 145.557L452.115 144.016C448.155 137.405 444.303 133.112 439.529 131.59C434.704 130.051 429.407 131.48 422.954 135.038L424.402 137.665ZM451.456 143.425C444.321 140.132 440.496 140.208 436.999 139.987C435.322 139.882 433.766 139.708 431.875 139.062C429.968 138.412 427.652 137.258 424.526 135.115L422.83 137.589C426.106 139.835 428.668 141.138 430.906 141.901C433.159 142.67 435.016 142.868 436.809 142.981C440.253 143.199 443.601 143.104 450.199 146.149L451.456 143.425ZM451.179 146.245L461.864 143.671L461.162 140.754L450.477 143.328L451.179 146.245ZM34.7574 152.483L75.4784 169.237L76.6198 166.462L35.8988 149.709L34.7574 152.483ZM74.5623 168.048L80.3908 211.66L83.3644 211.263L77.5359 167.651L74.5623 168.048ZM110.371 142.378L151.092 159.131L152.233 156.357L111.512 139.604L110.371 142.378ZM76.9641 169.038L111.857 142.179L110.027 139.802L75.1342 166.661L76.9641 169.038ZM185.984 132.273L226.705 149.026L227.847 146.252L187.126 129.498L185.984 132.273ZM225.789 147.838L231.618 191.45L234.591 191.053L228.763 147.44L225.789 147.838ZM152.578 158.933L187.47 132.074L185.64 129.697L150.748 156.556L152.578 158.933ZM261.598 122.167L302.319 138.921L303.46 136.147L262.739 119.393L261.598 122.167ZM301.403 137.732L307.231 181.345L310.205 180.947L304.376 137.335L301.403 137.732ZM307.803 179.957L272.911 206.816L274.74 209.193L309.633 182.335L307.803 179.957ZM274.396 206.617L233.675 189.864L232.534 192.638L273.255 209.392L274.396 206.617ZM307.529 182.06C311.243 186.893 315.137 189.563 319.126 191.002C323.077 192.427 327.02 192.604 330.717 192.62C338.236 192.653 344.62 192.11 350.348 198.181L352.53 196.122C345.758 188.944 337.892 189.651 330.73 189.62C327.088 189.604 323.583 189.42 320.144 188.18C316.742 186.952 313.304 184.652 309.907 180.232L307.529 182.06ZM63.8213 82.0121L104.542 98.7656L105.684 95.9912L64.9628 79.2378L63.8213 82.0121ZM103.626 97.5771L109.455 141.19L112.428 140.792L106.6 97.1797L103.626 97.5771ZM228.191 148.828L263.083 121.969L261.254 119.592L226.361 146.45L228.191 148.828ZM139.435 71.907L180.156 88.6605L181.297 85.8862L140.576 69.1327L139.435 71.907ZM179.24 87.472L185.068 131.084L188.042 130.687L182.213 87.0746L179.24 87.472ZM106.028 98.5671L140.92 71.7085L139.091 69.3312L104.198 96.1898L106.028 98.5671ZM132.69 27.1063L138.519 70.7185L141.492 70.3211L135.664 26.7089L132.69 27.1063ZM460.869 220.91C459.93 222.564 458.991 223.932 458.039 225.04L460.314 226.996C461.422 225.706 462.469 224.168 463.477 222.392L460.869 220.91ZM460.305 227.006C461.891 225.194 463.272 224.348 464.337 224.039C465.365 223.742 466.157 223.922 466.749 224.306C468.026 225.133 468.754 227.207 468.034 229.125L470.843 230.178C471.989 227.124 470.996 223.484 468.381 221.789C467.028 220.912 465.331 220.629 463.503 221.157C461.713 221.675 459.872 222.945 458.047 225.03L460.305 227.006ZM458.047 225.03C458.005 225.079 457.963 225.127 457.923 225.173L460.198 227.129C460.235 227.086 460.271 227.045 460.305 227.006L458.047 225.03ZM458.039 225.04C456.658 226.647 455.269 227.682 453.828 228.259L454.943 231.044C456.935 230.246 458.701 228.872 460.314 226.996L458.039 225.04ZM350.324 198.154C356.784 205.336 360.5 209.475 366.527 214.092L368.351 211.711C362.577 207.287 359.035 203.353 352.554 196.148L350.324 198.154Z" fill="#89B68D"/>
<path d="M110.942 140.991L151.663 157.744L186.555 130.886L180.727 87.2733L140.006 70.5198L105.113 97.3784L110.942 140.991Z" fill="white"/>
<path d="M227.276 147.639L233.105 191.251L273.825 208.005L308.718 181.146L302.889 137.534L262.168 120.78L227.276 147.639Z" fill="white"/>
<path d="M474.205 140.404L472.929 139.616L474.205 140.404ZM484.372 88.4501L485.856 88.6704L484.372 88.4501ZM540.439 6.86182L541.932 7.00403C541.995 6.33936 541.611 5.71286 540.991 5.46711C540.37 5.22137 539.661 5.41554 539.253 5.94345L540.439 6.86182ZM530.473 39.2753L531.387 40.4641C531.859 40.1009 532.072 39.4926 531.928 38.9143C531.785 38.3361 531.313 37.8975 530.726 37.7969L530.473 39.2753ZM509.58 35.233L510.615 36.319L509.58 35.233ZM515.65 7.45881L517.145 7.33206C517.101 6.81346 516.791 6.35473 516.327 6.12001C515.862 5.8853 515.309 5.90815 514.866 6.18039L515.65 7.45881ZM477.998 49.7868L476.584 50.287L477.998 49.7868ZM486.427 27.4222L487.926 27.4766C487.947 26.9182 487.655 26.3948 487.169 26.1185C486.683 25.8421 486.084 25.8587 485.615 26.1615L486.427 27.4222ZM482.059 65.2692L483.536 65.0055L482.059 65.2692ZM457.75 57.7511L457.357 56.3035C456.767 56.4635 456.334 56.9649 456.261 57.5712C456.187 58.1776 456.489 58.7678 457.023 59.0635L457.75 57.7511ZM481.438 62.0667L482.906 61.7582L481.438 62.0667ZM460.432 47.1204L460.526 45.6234C459.921 45.5851 459.353 45.9146 459.085 46.4586C458.818 47.0025 458.904 47.654 459.304 48.1096L460.432 47.1204ZM466.111 56.3335L467.377 55.5292L466.111 56.3335ZM454.945 26.9078L454.552 25.4602C453.987 25.6136 453.563 26.082 453.466 26.6596C453.369 27.2372 453.617 27.8184 454.101 28.1479L454.945 26.9078ZM479.736 110.574C479.324 111.293 479.572 112.21 480.291 112.622C481.01 113.034 481.926 112.785 482.338 112.067L479.736 110.574ZM485.921 102.94L484.634 102.169L485.921 102.94ZM513.65 100.048L513.408 101.529C514.009 101.627 514.61 101.352 514.928 100.833C515.247 100.314 515.22 99.6542 514.861 99.1628L513.65 100.048ZM503.41 56.053L504.779 55.4385C504.542 54.9124 504.025 54.5683 503.449 54.5535C502.872 54.5387 502.338 54.8557 502.075 55.369L503.41 56.053ZM537.737 79.3935L538.364 80.7558C538.954 80.4843 539.301 79.8646 539.227 79.2201C539.152 78.5756 538.671 78.0524 538.035 77.9234L537.737 79.3935ZM541.561 66.135L542.862 66.8807C543.18 66.3271 543.112 65.6334 542.694 65.1516C542.275 64.6698 541.598 64.5053 541.005 64.7416L541.561 66.135ZM527.86 76.2511L527.36 77.6653V77.6653L527.86 76.2511ZM500.696 103.123L501.369 104.463H501.369L500.696 103.123ZM529.723 76.9506L530.263 75.5512V75.5512L529.723 76.9506ZM502.523 73.7256L503.879 74.3653L502.523 73.7256ZM499.312 62.5699L498.084 61.7076V61.7076L499.312 62.5699ZM388.439 91.7605L389.278 90.5169C388.724 90.1436 387.99 90.181 387.478 90.6088C386.965 91.0367 386.797 91.7518 387.065 92.3632L388.439 91.7605ZM408.055 119.422L407.351 118.098C406.825 118.377 406.514 118.941 406.559 119.536C406.604 120.13 406.996 120.641 407.558 120.838L408.055 119.422ZM412.167 84.5645L412.512 83.1046C412.006 82.985 411.473 83.1365 411.106 83.5049C410.738 83.8732 410.587 84.4059 410.708 84.9122L412.167 84.5645ZM461.182 112.972L462.681 113.004L461.182 112.972ZM446.172 94.3719L446.549 92.92C446.008 92.7796 445.434 92.9514 445.059 93.366C444.685 93.7805 444.571 94.3689 444.766 94.8929L446.172 94.3719ZM462.173 128.947L460.688 129.159L462.173 128.947ZM482.905 114.194L484.006 115.213C484.421 114.765 484.523 114.11 484.263 113.557C484.004 113.004 483.435 112.664 482.825 112.696L482.905 114.194ZM461.76 125.711L463.251 125.544L461.76 125.711ZM477.029 104.938L478.41 105.524C478.647 104.966 478.525 104.321 478.1 103.888C477.676 103.455 477.033 103.32 476.47 103.546L477.029 104.938ZM475.91 84.024L477.1 84.9374C477.456 84.4728 477.51 83.8431 477.237 83.325C476.964 82.8068 476.414 82.4948 475.83 82.5261L475.91 84.024ZM450.473 80.3745L451.875 79.8411L450.473 80.3745ZM423.678 72.6759L422.641 71.5923C422.201 72.0132 422.059 72.6583 422.282 73.2249C422.505 73.7915 423.048 74.1672 423.657 74.1758L423.678 72.6759ZM441.458 31.1511L442.892 30.7113C442.723 30.1599 442.253 29.7543 441.683 29.668C441.112 29.5817 440.543 29.83 440.218 30.3067L441.458 31.1511ZM403.577 48.1253L403.541 46.6257C402.892 46.6415 402.327 47.0725 402.141 47.6939C401.954 48.3153 402.188 48.9863 402.721 49.3568L403.577 48.1253ZM402.132 34.4022L402.923 33.1275C402.38 32.7912 401.685 32.8346 401.189 33.2358C400.693 33.637 400.505 34.3081 400.72 34.9086L402.132 34.4022ZM413.852 46.7596L414.096 48.2394H414.096L413.852 46.7596ZM435.894 77.9696L434.997 79.1719L435.894 77.9696ZM411.895 47.1223L411.608 45.65L411.608 45.65L411.895 47.1223ZM439.24 48.7063L437.792 49.0988L439.24 48.7063ZM444.353 38.2847L445.712 37.6503L445.712 37.6503L444.353 38.2847ZM507.133 127.133L506.285 125.896L507.133 127.133ZM527 121.956L527.979 123.093C528.438 122.698 528.614 122.067 528.427 121.491C528.239 120.916 527.724 120.51 527.121 120.461L527 121.956ZM500.263 133.047L499.229 131.961L500.263 133.047ZM489.182 118.289L490.387 117.396C490.028 116.911 489.414 116.689 488.828 116.831C488.242 116.974 487.798 117.454 487.701 118.049L489.182 118.289ZM485.33 151.722L484.05 150.939L485.33 151.722ZM513.974 147.087L514.381 148.531C514.981 148.362 515.414 147.839 515.468 147.218C515.523 146.596 515.187 146.006 514.625 145.736L513.974 147.087ZM462.173 221.651L463.477 222.392C463.498 222.355 463.518 222.317 463.536 222.279L462.173 221.651ZM489.182 221.651L490.471 220.885L489.182 221.651ZM463.84 138.151L462.373 138.467L463.84 138.151ZM476.651 135.151L478.071 135.635L476.651 135.151ZM367.439 212.901L366.527 214.092L367.439 212.901ZM398.245 212.901L398.919 214.241C398.957 214.222 398.993 214.202 399.029 214.18L398.245 212.901ZM423.678 214.651L422.701 215.789C422.708 215.795 422.715 215.802 422.722 215.808L423.678 214.651ZM388.864 235.713C388.069 235.478 387.235 235.932 387 236.727C386.766 237.521 387.22 238.355 388.014 238.59L388.864 235.713ZM411.895 226.651L410.727 225.711L411.895 226.651ZM509.939 231.151L509.625 229.685L509.939 231.151ZM544.973 240.238C545.573 239.666 545.596 238.717 545.025 238.117C544.454 237.517 543.504 237.494 542.904 238.065L544.973 240.238ZM447.939 238.151L448.523 236.77L447.939 238.151ZM421.225 240.77C420.738 241.44 420.887 242.378 421.558 242.865C422.228 243.352 423.166 243.203 423.653 242.533L421.225 240.77ZM477.029 229.651L475.662 230.269L477.029 229.651ZM465.382 247.759C464.613 248.066 464.239 248.939 464.546 249.708C464.854 250.478 465.727 250.852 466.496 250.544L465.382 247.759ZM482.905 229.651L483.254 228.192C483.222 228.185 483.19 228.178 483.158 228.173L482.905 229.651ZM492.439 241.651L490.997 242.063L492.439 241.651ZM525.59 250.308C525.953 251.053 526.851 251.363 527.596 251C528.341 250.637 528.65 249.739 528.287 248.994L525.59 250.308ZM533.778 233.601C534.303 234.242 535.248 234.337 535.889 233.812C536.53 233.288 536.624 232.343 536.1 231.702L533.778 233.601ZM432.07 248.539C431.731 249.295 432.07 250.182 432.826 250.52C433.582 250.859 434.47 250.52 434.808 249.764L432.07 248.539ZM476.651 240.414L475.34 239.686L476.651 240.414ZM484.878 250.582C485.668 250.831 486.51 250.393 486.76 249.603C487.01 248.813 486.572 247.971 485.782 247.721L484.878 250.582ZM412.99 238.538C413.203 239.338 414.025 239.814 414.825 239.601C415.626 239.387 416.102 238.565 415.888 237.765L412.99 238.538ZM454.385 229.651L454.943 231.044L454.385 229.651ZM457.923 225.173C457.383 225.802 457.454 226.749 458.083 227.289C458.711 227.829 459.658 227.757 460.198 227.129L457.923 225.173ZM490.939 224.352L492.157 223.476L490.939 224.352ZM410.92 157.613L410.707 156.128C410.046 156.223 409.527 156.743 409.434 157.405C409.341 158.066 409.697 158.709 410.306 158.982L410.92 157.613ZM461.513 142.213L463.012 142.278C463.032 141.807 462.83 141.354 462.467 141.055C462.103 140.755 461.62 140.644 461.162 140.754L461.513 142.213ZM444.027 164.951L442.617 164.441C442.414 165.002 442.562 165.629 442.995 166.039C443.427 166.449 444.06 166.565 444.609 166.333L444.027 164.951ZM423.678 136.352L422.954 135.038C422.498 135.29 422.205 135.759 422.18 136.279C422.155 136.799 422.401 137.295 422.83 137.589L423.678 136.352ZM151.663 157.744L151.092 159.131L151.892 159.461L152.578 158.933L151.663 157.744ZM233.105 191.251L231.618 191.45L231.733 192.309L232.534 192.638L233.105 191.251ZM262.168 120.78L262.739 119.393L261.939 119.064L261.254 119.592L262.168 120.78ZM302.889 137.534L304.376 137.335L304.261 136.476L303.46 136.147L302.889 137.534ZM273.825 208.005L273.255 209.392L274.055 209.721L274.74 209.193L273.825 208.005ZM351.439 197.151L352.554 196.148L352.542 196.135L352.53 196.122L351.439 197.151ZM180.727 87.2733L182.213 87.0746L182.099 86.2158L181.297 85.8862L180.727 87.2733ZM519.191 28.4279C525.182 28.8071 530.557 27.2189 534.615 23.55C538.665 19.8882 541.236 14.3049 541.932 7.00403L538.945 6.7196C538.302 13.4775 535.962 18.2873 532.603 21.3247C529.251 24.355 524.719 25.7718 519.381 25.4339L519.191 28.4279ZM539.253 5.94345C537.659 8.0009 535.646 9.49377 533.436 10.7731C531.132 12.1071 528.938 13.0465 526.573 14.2977C524.33 15.4845 522.13 16.8664 520.495 18.8614C518.822 20.9028 517.82 23.4854 517.786 26.9162L520.786 26.9456C520.814 24.1442 521.608 22.2358 522.815 20.763C524.06 19.2437 525.824 18.088 527.976 16.9494C530.006 15.8751 532.638 14.7012 534.939 13.3695C537.334 11.983 539.706 10.2578 541.625 7.78018L539.253 5.94345ZM485.856 88.6704C488.305 72.1668 491.526 58.3608 503.222 44.2094L500.909 42.2982C488.685 57.0886 485.363 71.5577 482.888 88.2299L485.856 88.6704ZM501.383 44.5892C507.126 47.5274 511.393 49.2147 515.954 48.657C520.466 48.1053 524.986 45.3893 531.387 40.4641L529.558 38.0865C523.14 43.0243 519.203 45.2374 515.59 45.6792C512.026 46.1149 508.499 44.86 502.749 41.9184L501.383 44.5892ZM502.805 44.5591C509.055 41.0208 512.963 39.6355 516.684 39.3086C520.475 38.9757 524.176 39.7179 530.219 40.7537L530.726 37.7969C524.875 36.7939 520.698 35.9446 516.422 36.3202C512.075 36.7019 507.727 38.3252 501.327 41.9484L502.805 44.5591ZM503.222 44.2094C505.377 41.6018 507.824 38.9773 510.615 36.319L508.545 34.147C505.675 36.8813 503.146 39.5925 500.909 42.2982L503.222 44.2094ZM510.615 36.319C513.442 33.6252 516.622 30.8967 520.206 28.116L518.367 25.7457C514.711 28.5821 511.453 31.3764 508.545 34.147L510.615 36.319ZM514.866 6.18039C508.585 10.035 504.727 13.9361 503.683 18.8911C502.65 23.7947 504.48 29.2641 508.274 35.9715L510.886 34.4944C507.148 27.8869 505.827 23.2661 506.618 19.5098C507.399 15.8049 510.342 12.4764 516.435 8.73723L514.866 6.18039ZM511.075 35.3589C511.685 28.1175 513.421 25.2528 514.932 22.1511C515.719 20.5352 516.463 18.8232 516.907 16.4841C517.348 14.1608 517.48 11.2898 517.145 7.33206L514.156 7.58556C514.476 11.3616 514.336 13.9453 513.96 15.9247C513.587 17.8883 512.97 19.3271 512.235 20.8373C510.7 23.9877 508.745 27.2763 508.085 35.107L511.075 35.3589ZM478.443 51.2192C481.599 50.2381 483.861 48.8689 485.414 47.1004C486.975 45.3225 487.71 43.2659 488.027 41.1141C488.339 38.9953 488.255 36.7135 488.132 34.4534C488.007 32.1483 487.84 29.843 487.926 27.4766L484.928 27.3679C484.836 29.9062 485.015 32.3863 485.136 34.616C485.26 36.8907 485.322 38.8932 485.059 40.6768C484.801 42.4274 484.239 43.8913 483.16 45.121C482.072 46.36 480.349 47.4853 477.553 48.3544L478.443 51.2192ZM479.494 49.6741C479.413 48.6043 479.3 47.5687 479.19 46.5806C479.079 45.5843 478.973 44.6435 478.897 43.722C478.747 41.8806 478.733 40.2139 479.053 38.6109C479.671 35.5196 481.605 32.3151 487.24 28.683L485.615 26.1615C479.529 30.0845 476.935 33.9013 476.111 38.0231C475.711 40.0266 475.748 42.0144 475.907 43.966C475.987 44.9411 476.099 45.9314 476.209 46.9122C476.319 47.9013 476.426 48.8888 476.502 49.8994L479.494 49.6741ZM485.871 88.3806C485.45 79.3215 484.753 71.8202 483.536 65.0055L480.583 65.5328C481.768 72.1709 482.456 79.5304 482.874 88.5197L485.871 88.3806ZM481.296 63.9781C478.692 65.5178 476.526 66.0349 474.651 65.9787C472.768 65.9222 471.037 65.283 469.311 64.2731C467.562 63.2501 465.903 61.8998 464.117 60.4609C462.371 59.0529 460.505 57.5615 458.476 56.4387L457.023 59.0635C458.79 60.0409 460.461 61.3669 462.235 62.7967C463.97 64.1956 465.815 65.7035 467.796 66.8625C469.799 68.0347 472.023 68.9011 474.561 68.9773C477.108 69.0538 479.83 68.3306 482.823 66.5603L481.296 63.9781ZM483.536 65.0055C483.34 63.9065 483.13 62.8253 482.906 61.7582L479.97 62.3753C480.188 63.4116 480.392 64.4628 480.583 65.5328L483.536 65.0055ZM482.906 61.7582C481.999 57.4447 480.856 53.3693 479.412 49.2866L476.584 50.287C477.983 54.243 479.09 58.1903 479.97 62.3753L482.906 61.7582ZM460.337 48.6174C466.011 48.9766 470.412 50.8959 473.712 53.8442C477.025 56.8038 479.313 60.8766 480.612 65.6621L483.507 64.8762C482.089 59.6536 479.543 55.0305 475.711 51.607C471.866 48.1722 466.811 46.0212 460.526 45.6234L460.337 48.6174ZM481.981 63.7712C478.027 63.9788 475.137 63.0416 472.884 61.5497C470.602 60.0375 468.878 57.8918 467.377 55.5292L464.845 57.1378C466.446 59.6587 468.44 62.2043 471.228 64.0507C474.046 65.9176 477.579 67.0064 482.138 66.7671L481.981 63.7712ZM467.377 55.5292C466.326 53.8738 465.432 52.1948 464.503 50.552C463.597 48.9528 462.651 47.3761 461.559 46.1312L459.304 48.1096C460.171 49.0985 460.986 50.43 461.892 52.0297C462.772 53.5859 463.739 55.3965 464.845 57.1378L467.377 55.5292ZM458.143 59.1987C460.599 58.5319 464.026 57.8722 466.139 57.8332L466.084 54.8337C463.607 54.8795 459.903 55.6124 457.357 56.3035L458.143 59.1987ZM476.093 41.1469C474.399 30.1477 465.01 22.6215 454.552 25.4602L455.338 28.3554C463.701 26.0854 471.645 31.9745 473.128 41.6037L476.093 41.1469ZM454.101 28.1479C458.249 30.9712 459.587 34.2414 461.963 37.4327C463.125 38.9932 464.513 40.4492 466.574 41.4613C468.623 42.468 471.202 42.9698 474.652 42.8748L474.569 39.8759C471.444 39.962 469.384 39.4992 467.896 38.7686C466.42 38.0434 465.373 36.9895 464.369 35.641C462.413 33.0142 460.493 28.8694 455.789 25.6678L454.101 28.1479ZM479.412 49.2866C478.354 46.2942 477.387 43.8579 475.976 40.7546L473.245 41.996C474.617 45.0148 475.552 47.3703 476.584 50.287L479.412 49.2866ZM482.338 112.067C484.048 109.085 485.657 106.303 487.208 103.71L484.634 102.169C483.067 104.787 481.447 107.589 479.736 110.574L482.338 112.067ZM514.861 99.1628C512.402 95.8011 509.688 93.7228 506.821 92.711C503.951 91.6983 501.065 91.8021 498.35 92.5709C492.99 94.0883 488.146 98.2336 484.808 101.935L487.035 103.944C490.24 100.391 494.619 96.7451 499.167 95.4574C501.406 94.8236 503.645 94.7715 505.822 95.54C508.002 96.3093 510.257 97.9494 512.439 100.934L514.861 99.1628ZM487.208 103.71C491.472 96.5878 495.259 90.9786 499.416 86.7046L497.265 84.613C492.854 89.1489 488.921 95.0086 484.634 102.169L487.208 103.71ZM499.416 86.7046C502.588 83.4427 505.969 80.9667 509.932 79.2062L508.714 76.4647C504.352 78.4025 500.664 81.1188 497.265 84.613L499.416 86.7046ZM508.421 79.0338C512.516 82.1171 516.016 84.5503 520.588 85.1179C525.144 85.6836 530.509 84.3756 538.364 80.7558L537.109 78.0311C529.386 81.5897 524.657 82.6001 520.958 82.1408C517.274 81.6835 514.357 79.7485 510.225 76.6371L508.421 79.0338ZM510.646 78.5419C512.543 74.9892 514.348 73.0687 516.14 71.9806C517.928 70.8951 519.867 70.5356 522.268 70.4148C527.048 70.1742 533.533 70.9504 542.116 67.5283L541.005 64.7416C533.029 67.9215 527.342 67.1556 522.117 67.4186C519.514 67.5496 516.992 67.9534 514.583 69.4162C512.178 70.8764 510.05 73.2894 508 77.129L510.646 78.5419ZM540.259 65.3892C538.534 68.3998 536.719 70.4416 534.697 71.8763C532.675 73.3113 530.363 74.1988 527.554 74.7824L528.165 77.7197C531.252 77.0781 533.983 76.0621 536.434 74.3228C538.885 72.583 540.972 70.1794 542.862 66.8807L540.259 65.3892ZM528.36 74.8368C526.22 74.0804 524.082 73.5636 521.051 73.719C518.078 73.8713 514.306 74.667 508.866 76.4067L509.78 79.2642C515.124 77.5551 518.611 76.848 521.205 76.715C523.741 76.585 525.479 77.0004 527.36 77.6653L528.36 74.8368ZM500.024 101.782C497.521 103.038 495.467 104.048 493.4 104.264C491.476 104.465 489.406 103.98 486.905 101.807L484.937 104.072C487.979 106.715 490.854 107.547 493.712 107.248C496.426 106.964 498.988 105.658 501.369 104.463L500.024 101.782ZM513.892 98.5678C508.202 97.6389 503.731 99.9217 500.024 101.782L501.369 104.463C505.151 102.566 508.797 100.776 513.408 101.529L513.892 98.5678ZM527.36 77.6653C527.942 77.8711 528.534 78.0997 529.183 78.3499L530.263 75.5512C529.623 75.304 528.99 75.0595 528.36 74.8368L527.36 77.6653ZM529.183 78.3499C531.266 79.1542 533.757 80.1168 537.438 80.8635L538.035 77.9234C534.612 77.2291 532.315 76.3432 530.263 75.5512L529.183 78.3499ZM501.166 73.0858C499.665 76.2683 497.879 80.0474 496.867 85.379L499.814 85.9386C500.75 81.0098 502.389 77.5261 503.879 74.3653L501.166 73.0858ZM499.672 84.9682C496.504 78.8578 495.828 74.9389 496.281 71.9309C496.739 68.8853 498.371 66.518 500.539 63.4323L498.084 61.7076C495.986 64.6941 493.894 67.6266 493.314 71.4849C492.728 75.3809 493.701 79.9703 497.009 86.3493L499.672 84.9682ZM500.539 63.4323C501.883 61.5195 503.397 59.3682 504.745 56.737L502.075 55.369C500.835 57.7904 499.436 59.784 498.084 61.7076L500.539 63.4323ZM502.042 56.6675C503.772 60.521 504.119 63.2885 503.81 65.6752C503.492 68.124 502.476 70.307 501.166 73.0858L503.879 74.3653C505.152 71.666 506.396 69.0567 506.785 66.0609C507.181 63.0029 506.68 59.6731 504.779 55.4385L502.042 56.6675ZM414.254 102.804C409.289 104.796 404.542 104.87 400.41 103.042C396.268 101.209 392.54 97.3742 389.812 91.1578L387.065 92.3632C390.012 99.079 394.203 103.576 399.196 105.785C404.198 107.999 409.8 107.824 415.371 105.588L414.254 102.804ZM387.6 93.0041C390.198 94.7562 392.991 95.652 395.7 96.2185C398.302 96.7627 401.169 97.0533 403.434 97.4377C405.834 97.8451 407.871 98.3903 409.529 99.4433C411.137 100.464 412.489 102.028 413.392 104.679L416.232 103.712C415.126 100.464 413.366 98.3255 411.137 96.9107C408.96 95.5281 406.438 94.9047 403.936 94.48C401.298 94.0323 398.92 93.8272 396.314 93.2821C393.814 92.7593 391.435 91.9719 389.278 90.5169L387.6 93.0041ZM468.576 151.012C461.005 135.954 453.318 123.253 437.077 113.035L435.48 115.574C451.019 125.351 458.401 137.454 465.896 152.36L468.576 151.012ZM435.211 113.25C430.672 117.845 427.715 120.141 424.194 120.843C420.624 121.555 416.192 120.686 408.551 118.007L407.558 120.838C415.18 123.511 420.323 124.675 424.781 123.785C429.287 122.887 432.811 119.948 437.345 115.359L435.211 113.25ZM436.571 112.833C429.358 111.397 424.72 111.217 420.473 112.216C416.295 113.198 412.594 115.313 407.351 118.098L408.758 120.747C414.173 117.871 417.455 116.007 421.16 115.136C424.796 114.281 428.941 114.373 435.985 115.776L436.571 112.833ZM437.077 113.035C434.106 111.166 430.855 109.383 427.273 107.685L425.988 110.396C429.47 112.047 432.616 113.773 435.48 115.574L437.077 113.035ZM427.273 107.685C423.643 105.965 419.675 104.331 415.314 102.782L414.31 105.609C418.585 107.128 422.459 108.723 425.988 110.396L427.273 107.685ZM411.822 86.0243C418.779 87.6674 422.617 89.9067 424.519 93.1807C426.447 96.5002 426.639 101.302 425.159 108.748L428.101 109.333C429.604 101.775 429.63 96.0072 427.113 91.6739C424.569 87.2952 419.684 84.7985 412.512 83.1046L411.822 86.0243ZM428.01 108.453C424.931 101.223 422.045 98.7117 419.601 96.2003C418.429 94.9965 417.393 93.8232 416.424 92.0751C415.447 90.313 414.505 87.9031 413.626 84.2168L410.708 84.9122C411.629 88.7759 412.653 91.4611 413.8 93.5295C414.954 95.6119 416.197 97.0046 417.451 98.2926C419.857 100.765 422.403 102.942 425.25 109.628L428.01 108.453ZM461.156 111.472C458.228 111.522 456.239 110.993 454.818 110.157C453.408 109.327 452.416 108.113 451.622 106.531C450.814 104.92 450.246 102.998 449.651 100.799C449.068 98.6441 448.461 96.2326 447.579 93.8508L444.766 94.8929C445.588 97.1135 446.152 99.3548 446.755 101.583C447.347 103.768 447.981 105.962 448.941 107.876C449.916 109.82 451.258 111.543 453.297 112.743C455.326 113.936 457.903 114.528 461.207 114.471L461.156 111.472ZM462.637 112.61C462.393 111.626 462.186 110.655 461.981 109.681C461.777 108.716 461.574 107.74 461.344 106.789C460.884 104.886 460.297 102.986 459.289 101.209C457.216 97.5523 453.557 94.7398 446.549 92.92L445.795 95.8237C452.284 97.5085 455.124 99.9461 456.679 102.688C457.485 104.11 457.994 105.698 458.428 107.494C458.645 108.392 458.838 109.319 459.045 110.3C459.25 111.273 459.467 112.292 459.726 113.333L462.637 112.61ZM463.658 128.735C463.504 127.659 463.369 126.597 463.251 125.544L460.27 125.878C460.391 126.961 460.53 128.054 460.688 129.159L463.658 128.735ZM463.251 125.544C462.776 121.294 462.591 117.199 462.681 113.004L459.682 112.939C459.589 117.269 459.78 121.497 460.27 125.878L463.251 125.544ZM476.47 103.546C470.626 105.892 466.499 109.518 463.924 113.984C461.356 118.435 460.386 123.623 460.675 129.027L463.671 128.867C463.406 123.915 464.303 119.331 466.522 115.483C468.733 111.649 472.312 108.448 477.588 106.33L476.47 103.546ZM462.567 130.394C466.972 129.194 469.986 127.053 472.078 124.398C474.147 121.771 475.243 118.729 475.975 115.834L473.066 115.099C472.381 117.813 471.416 120.39 469.721 122.541C468.05 124.663 465.599 126.459 461.779 127.5L462.567 130.394ZM475.975 115.834C476.48 113.834 476.831 111.811 477.18 110.058C477.539 108.255 477.896 106.735 478.41 105.524L475.649 104.352C475.001 105.876 474.596 107.67 474.238 109.472C473.869 111.323 473.546 113.198 473.066 115.099L475.975 115.834ZM463.244 103.675C461.637 94.0656 467.337 85.985 475.99 85.5219L475.83 82.5261C465.009 83.1054 458.449 93.1932 460.285 104.17L463.244 103.675ZM474.72 83.1106C471.255 87.6245 470.729 92.1621 469.695 95.2693C469.163 96.8644 468.499 98.193 467.324 99.344C466.141 100.504 464.329 101.588 461.334 102.485L462.195 105.359C465.501 104.369 467.793 103.085 469.424 101.487C471.064 99.8806 471.926 98.0632 472.541 96.2172C473.798 92.4423 474.044 88.9178 477.1 84.9374L474.72 83.1106ZM462.681 113.004C462.748 109.911 462.898 107.381 463.255 104.084L460.273 103.761C459.905 107.149 459.75 109.766 459.682 112.939L462.681 113.004ZM424.715 73.7596C427.386 71.2032 429.893 69.9829 432.174 69.6069C434.452 69.2313 436.648 69.6744 438.741 70.6901C442.994 72.7538 446.667 77.1101 449.201 81.1687L451.746 79.5802C449.106 75.3518 445.062 70.4228 440.051 67.9911C437.512 66.759 434.688 66.1518 431.686 66.6468C428.686 67.1414 425.65 68.7126 422.641 71.5923L424.715 73.7596ZM451.875 79.8411C448.908 72.0411 446.061 65.5835 442.511 60.3457L440.027 62.0288C443.372 66.9642 446.12 73.1495 449.071 80.9078L451.875 79.8411ZM442.511 60.3457C439.776 56.3109 436.62 52.991 432.665 50.3199L430.986 52.8061C434.579 55.2327 437.475 58.2621 440.027 62.0288L442.511 60.3457ZM431.147 50.2253C426.534 52.5656 423.323 53.9603 419.617 53.7661C415.894 53.571 411.415 51.7488 404.434 46.8938L402.721 49.3568C409.822 54.2953 414.875 56.5217 419.46 56.762C424.06 57.0031 427.933 55.2199 432.504 52.9007L431.147 50.2253ZM433.252 51.0989C431.905 46.9599 430.232 44.2117 428.119 42.3532C426.003 40.4913 423.591 39.6526 421.051 39.0683C415.953 37.895 410.219 37.654 402.923 33.1275L401.341 35.6768C409.194 40.5481 415.714 40.9185 420.379 41.9919C422.721 42.5308 424.567 43.2241 426.138 44.6056C427.712 45.9905 429.153 48.1972 430.399 52.0271L433.252 51.0989ZM400.72 34.9086C402.004 38.4872 403.638 41.2189 405.747 43.3608C407.856 45.5022 410.367 46.9803 413.294 48.1521L414.409 45.367C411.746 44.3009 409.625 43.0226 407.885 41.2559C406.146 39.4897 404.715 37.1616 403.544 33.8957L400.72 34.9086ZM414.096 48.2394C416.065 47.9139 417.848 47.809 420.323 48.3808C422.853 48.9655 426.162 50.2718 431.126 52.8897L432.525 50.2362C427.473 47.5714 423.899 46.128 420.998 45.4578C418.041 44.7746 415.846 44.9093 413.607 45.2797L414.096 48.2394ZM434.997 79.1719C437.132 80.7647 439.427 82.4991 442.049 83.2534C444.811 84.0476 447.787 83.7317 451.244 81.6613L449.702 79.0876C446.861 80.7896 444.737 80.9048 442.878 80.3703C440.881 79.7959 439.035 78.4417 436.791 76.7673L434.997 79.1719ZM423.657 74.1758C428.329 74.2414 431.606 76.6419 434.997 79.1719L436.791 76.7673C433.466 74.2869 429.463 71.257 423.699 71.1761L423.657 74.1758ZM413.607 45.2797C412.948 45.3887 412.282 45.5186 411.608 45.65L412.182 48.5946C412.864 48.4616 413.487 48.3402 414.096 48.2394L413.607 45.2797ZM411.608 45.65C409.449 46.0708 407.032 46.541 403.541 46.6257L403.614 49.6249C407.369 49.5337 409.99 49.0219 412.182 48.5946L411.608 45.65ZM437.792 49.0988C438.706 52.4716 439.71 56.1883 439.769 61.2049L442.769 61.1696C442.705 55.7431 441.608 51.7098 440.687 48.3139L437.792 49.0988ZM442.459 62.1001C446.833 56.3983 448.593 52.05 448.698 48.1115C448.802 44.2112 447.256 40.958 445.712 37.6503L442.994 38.919C444.589 42.3365 445.781 44.9528 445.699 48.0316C445.618 51.0723 444.268 54.8126 440.079 60.2743L442.459 62.1001ZM445.712 37.6503C444.718 35.5199 443.69 33.3124 442.892 30.7113L440.024 31.591C440.891 34.4175 442.005 36.8005 442.994 38.919L445.712 37.6503ZM440.218 30.3067C437.605 34.1433 436.529 37.3339 436.385 40.4142C436.243 43.4318 437.011 46.2184 437.792 49.0988L440.687 48.3139C439.883 45.3487 439.265 43.0216 439.381 40.555C439.494 38.151 440.32 35.4868 442.698 31.9956L440.218 30.3067ZM449.071 80.9078C449.956 83.2351 451.004 85.7123 452.081 88.271C453.162 90.8392 454.276 93.5002 455.316 96.2367C457.397 101.716 459.146 107.423 459.688 113.114L462.675 112.829C462.096 106.746 460.239 100.749 458.12 95.1715C457.06 92.3792 455.926 89.673 454.846 87.1074C453.762 84.5322 452.738 82.1089 451.875 79.8411L449.071 80.9078ZM507.982 128.37C514.478 123.913 521.683 123.033 526.88 123.452L527.121 120.461C521.426 120.002 513.487 120.955 506.285 125.896L507.982 128.37ZM506.285 125.896C502.974 128.167 501.286 130.002 499.229 131.961L501.298 134.133C503.448 132.085 504.921 130.469 507.982 128.37L506.285 125.896ZM526.022 120.82C520.285 125.758 516.465 129.236 512.741 131.126C509.206 132.921 505.762 133.268 500.73 131.621L499.797 134.472C505.491 136.336 509.77 135.999 514.099 133.801C518.239 131.699 522.423 127.876 527.979 123.093L526.022 120.82ZM499.229 131.961C495.011 135.977 491.491 140.114 488.441 144.331L490.871 146.089C493.823 142.008 497.224 138.013 501.298 134.133L499.229 131.961ZM490.936 144.428C487.097 138.139 486.664 134.753 487.21 131.608C487.502 129.927 488.077 128.279 488.76 126.148C489.432 124.052 490.164 121.61 490.663 118.529L487.701 118.049C487.238 120.913 486.559 123.189 485.904 125.232C485.26 127.241 484.592 129.152 484.254 131.095C483.542 135.201 484.309 139.331 488.376 145.992L490.936 144.428ZM487.977 119.182C491.616 124.095 492.856 127.637 492.717 131.203C492.574 134.891 490.964 138.82 488.295 144.579L491.017 145.841C493.642 140.176 495.544 135.706 495.715 131.32C495.89 126.812 494.246 122.605 490.387 117.396L487.977 119.182ZM488.441 144.331C486.861 146.515 485.408 148.72 484.05 150.939L486.609 152.505C487.931 150.344 489.342 148.204 490.871 146.089L488.441 144.331ZM484.696 153.081C487.794 154.526 490.462 155.215 492.946 155.331C495.434 155.447 497.645 154.982 499.811 154.24C501.934 153.513 504.105 152.482 506.4 151.475C508.73 150.452 511.297 149.4 514.381 148.531L513.567 145.644C510.289 146.567 507.577 147.682 505.194 148.728C502.778 149.788 500.805 150.728 498.838 151.402C496.915 152.061 495.091 152.428 493.086 152.334C491.075 152.241 488.791 151.681 485.964 150.362L484.696 153.081ZM514.625 145.736C508.066 142.578 502.701 141.499 497.771 142.462C492.856 143.421 488.64 146.36 484.278 150.653L486.382 152.791C490.579 148.661 494.281 146.199 498.346 145.406C502.397 144.615 507.075 145.431 513.323 148.439L514.625 145.736ZM482.825 112.696C482.062 112.737 481.218 112.804 480.35 112.895L480.663 115.879C481.484 115.793 482.277 115.73 482.985 115.692L482.825 112.696ZM480.35 112.895C478.193 113.121 475.786 113.504 474.077 114.033L474.964 116.899C476.392 116.457 478.569 116.098 480.663 115.879L480.35 112.895ZM481.983 114.651C483.673 105.207 484.681 96.5848 485.856 88.6704L482.888 88.2299C481.695 96.2674 480.711 104.73 479.03 114.123L481.983 114.651ZM461.852 130.412C467.38 131.623 471.257 130.397 474.257 127.913C477.1 125.557 479.104 122.073 481.016 119.178L478.512 117.525C476.428 120.682 474.743 123.614 472.343 125.602C470.099 127.462 467.178 128.507 462.494 127.482L461.852 130.412ZM481.016 119.178C481.979 117.719 482.936 116.369 484.006 115.213L481.805 113.175C480.563 114.516 479.498 116.032 478.512 117.525L481.016 119.178ZM465.791 152.089C469.203 164.315 469.219 178.84 467.727 191.737C466.232 204.647 463.251 215.722 460.81 221.024L463.536 222.279C466.158 216.58 469.193 205.161 470.707 192.082C472.222 178.989 472.238 164.031 468.681 151.283L465.791 152.089ZM484.05 150.939C481.77 154.667 480.665 160.555 480.264 167.156C479.858 173.826 480.159 181.475 480.866 188.916C481.574 196.362 482.693 203.637 483.938 209.566C484.56 212.53 485.217 215.173 485.875 217.342C486.524 219.48 487.201 221.255 487.893 222.418L490.471 220.885C489.974 220.048 489.38 218.561 488.746 216.471C488.121 214.41 487.484 211.856 486.874 208.95C485.654 203.137 484.551 195.974 483.853 188.632C483.154 181.287 482.865 173.802 483.258 167.338C483.656 160.805 484.74 155.561 486.609 152.505L484.05 150.939ZM468.681 151.283C467.316 146.392 466.195 141.965 465.306 137.836L462.373 138.467C463.278 142.671 464.415 147.158 465.791 152.089L468.681 151.283ZM465.306 137.836C464.62 134.65 464.073 131.642 463.658 128.735L460.688 129.159C461.114 132.145 461.675 135.222 462.373 138.467L465.306 137.836ZM462.38 138.496C462.846 140.474 463.675 142.012 464.797 143.09C465.929 144.177 467.289 144.728 468.672 144.826C471.379 145.019 474.062 143.492 475.482 141.192L472.929 139.616C472.035 141.064 470.368 141.939 468.886 141.834C468.175 141.783 467.482 141.509 466.875 140.926C466.26 140.335 465.666 139.358 465.3 137.807L462.38 138.496ZM475.482 141.192C476.597 139.386 477.43 137.518 478.071 135.635L475.231 134.668C474.651 136.373 473.908 138.03 472.929 139.616L475.482 141.192ZM478.071 135.635C479.077 132.681 479.616 129.672 480.031 126.8C480.453 123.877 480.736 121.192 481.236 118.64L478.292 118.064C477.774 120.71 477.461 123.604 477.062 126.371C476.655 129.188 476.147 131.979 475.231 134.668L478.071 135.635ZM475.231 134.668C473.904 138.566 473.417 142.13 473.642 145.089C473.865 148.012 474.804 150.525 476.535 152.058C478.364 153.677 480.793 153.954 483.311 152.902C485.751 151.882 488.318 149.62 490.871 146.089L488.441 144.331C486.048 147.639 483.878 149.413 482.154 150.134C480.509 150.821 479.348 150.541 478.524 149.812C477.601 148.995 476.825 147.367 476.633 144.86C476.445 142.389 476.845 139.236 478.071 135.635L475.231 134.668ZM397.57 211.562C390.597 215.075 384.781 216.235 379.996 215.973C375.222 215.713 371.382 214.033 368.351 211.711L366.527 214.092C369.995 216.749 374.405 218.673 379.833 218.969C385.25 219.265 391.587 217.935 398.919 214.241L397.57 211.562ZM424.655 213.513C419.439 209.034 415.295 206.744 410.965 206.615C406.679 206.488 402.553 208.501 397.461 211.623L399.029 214.18C404.131 211.052 407.57 209.516 410.876 209.614C414.138 209.711 417.613 211.421 422.701 215.789L424.655 213.513ZM388.014 238.59C392.805 240.004 396.941 240.05 401.025 238.215C405.025 236.418 408.795 232.893 413.063 227.592L410.727 225.711C406.539 230.91 403.133 233.979 399.795 235.479C396.541 236.941 393.177 236.986 388.864 235.713L388.014 238.59ZM442.166 226.15C437.466 223.632 431.774 219.397 424.634 213.495L422.722 215.808C429.878 221.723 435.767 226.125 440.75 228.794L442.166 226.15ZM468.034 229.125C465.36 236.256 456.279 240.051 448.523 236.77L447.354 239.533C456.541 243.419 467.518 239.046 470.843 230.178L468.034 229.125ZM448.523 236.77C441.958 233.992 436.723 232.733 432.285 233.353C427.734 233.989 424.285 236.556 421.225 240.77L423.653 242.533C426.402 238.746 429.202 236.813 432.7 236.324C436.309 235.82 440.92 236.811 447.354 239.533L448.523 236.77ZM490.997 242.063C492.091 245.894 494.286 248.479 497.589 249.124C500.734 249.737 504.405 248.477 508.271 245.899L506.607 243.403C502.973 245.826 500.144 246.566 498.164 246.179C496.342 245.824 494.787 244.408 493.881 241.239L490.997 242.063ZM508.271 245.899C511.825 243.53 515.16 242.673 518.001 243.279C520.796 243.876 523.477 245.97 525.59 250.308L528.287 248.994C525.901 244.095 522.582 241.189 518.627 240.345C514.717 239.511 510.553 240.772 506.607 243.403L508.271 245.899ZM510.253 232.618C513.335 231.958 516.214 232.598 519.054 233.905C521.94 235.232 524.634 237.167 527.419 239.024C530.113 240.82 532.955 242.588 535.872 243.169C538.959 243.785 542.012 243.058 544.973 240.238L542.904 238.065C540.616 240.244 538.544 240.643 536.459 240.227C534.205 239.778 531.827 238.357 529.083 236.528C526.432 234.76 523.469 232.633 520.308 231.179C517.101 229.704 513.543 228.845 509.625 229.685L510.253 232.618ZM510.253 232.618C513.006 232.028 515.417 231.113 517.55 230.289C519.727 229.447 521.537 228.735 523.279 228.407C524.963 228.089 526.509 228.149 528.122 228.839C529.769 229.543 531.618 230.961 533.778 233.601L536.1 231.702C533.76 228.842 531.546 227.04 529.302 226.081C527.025 225.107 524.852 225.057 522.724 225.459C520.653 225.849 518.557 226.683 516.469 227.49C514.335 228.315 512.122 229.15 509.625 229.685L510.253 232.618ZM447.535 236.707C443.623 237.802 440.548 238.888 438.052 240.67C435.508 242.485 433.683 244.935 432.07 248.539L434.808 249.764C436.272 246.493 437.804 244.532 439.795 243.111C441.834 241.656 444.47 240.68 448.343 239.596L447.535 236.707ZM475.34 239.686C473.349 243.274 469.395 246.153 465.382 247.759L466.496 250.544C470.915 248.777 475.532 245.523 477.963 241.142L475.34 239.686ZM475.234 240.906C476.101 243.4 477.015 245.412 478.529 247.012C480.061 248.631 482.073 249.696 484.878 250.582L485.782 247.721C483.231 246.915 481.754 246.055 480.709 244.951C479.647 243.828 478.9 242.317 478.068 239.922L475.234 240.906ZM413.063 227.592C416.05 223.884 418.723 222.119 421.424 221.579L420.836 218.637C417.185 219.367 413.952 221.706 410.727 225.711L413.063 227.592ZM421.424 221.579C423.768 221.111 426.359 221.519 429.523 222.771C432.699 224.029 436.316 226.081 440.675 228.751L442.242 226.193C437.879 223.52 434.068 221.344 430.628 219.982C427.176 218.616 423.964 218.013 420.836 218.637L421.424 221.579ZM420.535 218.731C416.072 220.662 413.557 223.625 412.521 227.232C411.512 230.745 411.961 234.682 412.99 238.538L415.888 237.765C414.916 234.12 414.616 230.808 415.405 228.06C416.167 225.406 417.997 223.098 421.726 221.485L420.535 218.731ZM460.869 220.91C458.549 224.994 456.265 227.283 453.828 228.259L454.943 231.044C458.303 229.699 461.02 226.718 463.477 222.392L460.869 220.91ZM453.828 228.259C450.907 229.428 447.281 228.89 442.166 226.15L440.75 228.794C446.137 231.68 450.782 232.709 454.943 231.044L453.828 228.259ZM470.843 230.178C471.995 227.108 470.986 223.442 468.336 221.76C466.965 220.889 465.251 220.627 463.412 221.185C461.611 221.731 459.759 223.038 457.923 225.173L460.198 227.129C461.801 225.265 463.2 224.384 464.283 224.055C465.328 223.739 466.13 223.913 466.728 224.293C468.017 225.111 468.758 227.194 468.034 229.125L470.843 230.178ZM470.781 230.322C471.586 228.712 472.609 228.307 473.326 228.337C474.091 228.37 475.051 228.916 475.662 230.269L478.396 229.034C477.426 226.887 475.59 225.432 473.455 225.34C471.273 225.246 469.292 226.591 468.097 228.981L470.781 230.322ZM475.662 230.269C475.73 230.42 475.795 230.569 475.855 230.718L478.633 229.585C478.558 229.401 478.479 229.218 478.396 229.034L475.662 230.269ZM475.855 230.718C477.219 234.062 476.79 237.072 475.34 239.686L477.963 241.142C479.812 237.809 480.372 233.849 478.633 229.585L475.855 230.718ZM483.158 228.173C481.94 227.965 480.889 227.845 479.838 227.925C478.764 228.007 477.775 228.29 476.651 228.774L477.837 231.529C478.749 231.137 479.409 230.967 480.066 230.917C480.745 230.865 481.507 230.934 482.652 231.13L483.158 228.173ZM482.557 231.11C483.126 231.246 483.641 231.398 484.108 231.564L485.115 228.738C484.534 228.531 483.915 228.35 483.254 228.192L482.557 231.11ZM484.108 231.564C486.2 232.31 487.427 233.384 488.373 234.953C489.38 236.623 490.083 238.867 490.997 242.063L493.881 241.239C492.99 238.122 492.192 235.476 490.942 233.404C489.632 231.231 487.847 229.712 485.115 228.738L484.108 231.564ZM487.893 222.418C488.483 223.411 489.09 224.35 489.721 225.227L492.157 223.476C491.585 222.68 491.025 221.817 490.471 220.885L487.893 222.418ZM489.721 225.227C492.027 228.435 494.68 230.865 498.081 232.185C501.479 233.505 505.445 233.648 510.253 232.618L509.625 229.685C505.197 230.634 501.861 230.435 499.167 229.389C496.476 228.344 494.247 226.383 492.157 223.476L489.721 225.227ZM485.285 228.811C483.621 227.975 482.989 226.942 482.823 226.11C482.65 225.246 482.926 224.351 483.53 223.682C484.126 223.023 485.007 222.627 486.01 222.728C487.01 222.829 488.351 223.453 489.751 225.268L492.126 223.435C490.363 221.15 488.337 219.949 486.313 219.743C484.292 219.539 482.494 220.355 481.305 221.67C480.123 222.977 479.505 224.819 479.881 226.699C480.263 228.611 481.622 230.328 483.938 231.492L485.285 228.811ZM437.467 148.471C435.125 153.281 431.655 156.522 427.366 157.94C423.066 159.362 417.728 159.021 411.533 156.244L410.306 158.982C416.998 161.982 423.123 162.502 428.307 160.789C433.501 159.072 437.536 155.182 440.164 149.785L437.467 148.471ZM411.133 159.098C414.235 158.653 416.906 157.442 419.294 156.044C421.588 154.701 423.909 152.992 425.845 151.756C427.898 150.447 429.774 149.484 431.71 149.152C433.587 148.829 435.638 149.08 438.088 150.44L439.544 147.816C436.544 146.152 433.803 145.748 431.202 146.195C428.66 146.632 426.372 147.862 424.232 149.227C421.977 150.666 420.076 152.11 417.778 153.455C415.575 154.745 413.283 155.759 410.707 156.128L411.133 159.098ZM460.014 142.147C459.733 148.6 459.083 152.287 456.944 155.171C454.776 158.095 450.908 160.426 443.445 163.569L444.609 166.333C452.053 163.199 456.647 160.609 459.354 156.958C462.091 153.267 462.731 148.723 463.012 142.278L460.014 142.147ZM460.743 140.925C454.432 144.702 450.873 147.682 448.395 151.273C445.957 154.806 444.633 158.858 442.617 164.441L445.438 165.461C447.521 159.694 448.703 156.109 450.864 152.977C452.986 149.903 456.12 147.188 462.283 143.5L460.743 140.925ZM450.394 143.351C446.549 144.512 442.511 145.965 438.239 147.743L439.392 150.513C443.58 148.769 447.523 147.351 451.261 146.223L450.394 143.351ZM424.402 137.665C430.662 134.214 435.01 133.298 438.617 134.448C442.274 135.614 445.641 139.045 449.541 145.557L452.115 144.016C448.155 137.405 444.303 133.112 439.529 131.59C434.704 130.051 429.407 131.48 422.954 135.038L424.402 137.665ZM451.456 143.425C444.321 140.132 440.496 140.208 436.999 139.987C435.322 139.882 433.766 139.708 431.875 139.062C429.968 138.412 427.652 137.258 424.526 135.115L422.83 137.589C426.106 139.835 428.668 141.138 430.906 141.901C433.159 142.67 435.016 142.868 436.809 142.981C440.253 143.199 443.601 143.104 450.199 146.149L451.456 143.425ZM451.179 146.245L461.864 143.671L461.162 140.754L450.477 143.328L451.179 146.245ZM34.7574 152.483L75.4784 169.237L76.6198 166.462L35.8988 149.709L34.7574 152.483ZM74.5623 168.048L80.3908 211.66L83.3644 211.263L77.5359 167.651L74.5623 168.048ZM110.371 142.378L151.092 159.131L152.233 156.357L111.512 139.604L110.371 142.378ZM76.9641 169.038L111.857 142.179L110.027 139.802L75.1342 166.661L76.9641 169.038ZM185.984 132.273L226.705 149.026L227.847 146.252L187.126 129.498L185.984 132.273ZM225.789 147.838L231.618 191.45L234.591 191.053L228.763 147.44L225.789 147.838ZM152.578 158.933L187.47 132.074L185.64 129.697L150.748 156.556L152.578 158.933ZM261.598 122.167L302.319 138.921L303.46 136.147L262.739 119.393L261.598 122.167ZM301.403 137.732L307.231 181.345L310.205 180.947L304.376 137.335L301.403 137.732ZM307.803 179.957L272.911 206.816L274.74 209.193L309.633 182.335L307.803 179.957ZM274.396 206.617L233.675 189.864L232.534 192.638L273.255 209.392L274.396 206.617ZM307.529 182.06C311.243 186.893 315.137 189.563 319.126 191.002C323.077 192.427 327.02 192.604 330.717 192.62C338.236 192.653 344.62 192.11 350.348 198.181L352.53 196.122C345.758 188.944 337.892 189.651 330.73 189.62C327.088 189.604 323.583 189.42 320.144 188.18C316.742 186.952 313.304 184.652 309.907 180.232L307.529 182.06ZM63.8213 82.0121L104.542 98.7656L105.684 95.9912L64.9628 79.2378L63.8213 82.0121ZM103.626 97.5771L109.455 141.19L112.428 140.792L106.6 97.1797L103.626 97.5771ZM228.191 148.828L263.083 121.969L261.254 119.592L226.361 146.45L228.191 148.828ZM139.435 71.907L180.156 88.6605L181.297 85.8862L140.576 69.1327L139.435 71.907ZM179.24 87.472L185.068 131.084L188.042 130.687L182.213 87.0746L179.24 87.472ZM106.028 98.5671L140.92 71.7085L139.091 69.3312L104.198 96.1898L106.028 98.5671ZM132.69 27.1063L138.519 70.7185L141.492 70.3211L135.664 26.7089L132.69 27.1063ZM460.869 220.91C459.93 222.564 458.991 223.932 458.039 225.04L460.314 226.996C461.422 225.706 462.469 224.168 463.477 222.392L460.869 220.91ZM460.305 227.006C461.891 225.194 463.272 224.348 464.337 224.039C465.365 223.742 466.157 223.922 466.749 224.306C468.026 225.133 468.754 227.207 468.034 229.125L470.843 230.178C471.989 227.124 470.996 223.484 468.381 221.789C467.028 220.912 465.331 220.629 463.503 221.157C461.713 221.675 459.872 222.945 458.047 225.03L460.305 227.006ZM458.047 225.03C458.005 225.079 457.963 225.127 457.923 225.173L460.198 227.129C460.235 227.086 460.271 227.045 460.305 227.006L458.047 225.03ZM458.039 225.04C456.658 226.647 455.269 227.682 453.828 228.259L454.943 231.044C456.935 230.246 458.701 228.872 460.314 226.996L458.039 225.04ZM350.324 198.154C356.784 205.336 360.5 209.475 366.527 214.092L368.351 211.711C362.577 207.287 359.035 203.353 352.554 196.148L350.324 198.154Z" fill="#89B68D"/>
<circle cx="44.94" cy="74.6509" r="29.5" transform="rotate(15.281 44.94 74.6509)" fill="#E7F1E8" stroke="#89B68D" stroke-width="3"/>
<circle cx="44.94" cy="74.6512" r="23.2234" transform="rotate(15.281 44.94 74.6512)" fill="white" stroke="#89B68D" stroke-width="3"/>
<path d="M53.1849 70.6701C54.0602 67.4665 51.7879 64.0547 48.1096 63.0497M48.1096 63.0497C47.2018 62.8017 46.2933 62.7235 45.4265 62.7945C42.7808 63.0111 40.5238 64.6178 39.8646 67.0309C38.9893 70.2346 41.2616 73.6463 44.9399 74.6513C48.6182 75.6563 50.8905 79.068 50.0152 82.2717C49.1399 85.4754 45.4485 87.2578 41.7702 86.2529M48.1096 63.0497L49.4062 58.3036M41.7702 86.2529C38.0919 85.2479 35.8196 81.8361 36.6949 78.6324M41.7702 86.2529L40.4735 90.9989" stroke="#89B68D" stroke-width="3" stroke-linecap="round"/>
<circle cx="133.939" cy="22.6516" r="20.5" transform="rotate(-6.38277 133.939 22.6516)" fill="#E7F1E8" stroke="#89B68D" stroke-width="3"/>
<circle cx="133.94" cy="22.6516" r="16.1383" transform="rotate(-6.38277 133.94 22.6516)" fill="white" stroke="#89B68D" stroke-width="3"/>
<path d="M138.242 17.9656C137.986 15.6721 135.643 14.0516 133.01 14.3461M133.01 14.3461C132.36 14.4188 131.753 14.6014 131.211 14.8696C129.558 15.6882 128.513 17.3048 128.706 19.0324C128.963 21.326 131.305 22.9465 133.939 22.6519C136.572 22.3573 138.915 23.9778 139.171 26.2714C139.428 28.565 137.501 30.6631 134.868 30.9577M133.01 14.3461L132.629 10.9483M134.868 30.9577C132.234 31.2523 129.892 29.6318 129.635 27.3382M134.868 30.9577L135.248 34.3555" stroke="#89B68D" stroke-width="3" stroke-linecap="round"/>
<circle cx="154.939" cy="169.651" r="20.5" transform="rotate(17.1487 154.939 169.651)" fill="#E7F1E8" stroke="#89B68D" stroke-width="3"/>
<circle cx="154.938" cy="169.651" r="16.1383" transform="rotate(17.1487 154.938 169.651)" fill="white" stroke="#89B68D" stroke-width="3"/>
<path d="M160.755 167.072C161.436 164.867 159.935 162.446 157.403 161.665M157.403 161.665C156.778 161.472 156.149 161.397 155.545 161.427C153.702 161.517 152.098 162.582 151.586 164.243C150.905 166.448 152.406 168.869 154.938 169.651C157.47 170.432 158.971 172.853 158.291 175.058C157.61 177.264 155.006 178.418 152.474 177.637M157.403 161.665L158.411 158.398M152.474 177.637C149.942 176.855 148.441 174.434 149.122 172.229M152.474 177.637L151.466 180.904" stroke="#89B68D" stroke-width="3" stroke-linecap="round"/>
<circle cx="305.222" cy="181.289" r="18.2209" transform="rotate(17.1487 305.222 181.289)" fill="#E7F1E8" stroke="#89B68D" stroke-width="3"/>
<circle cx="305.221" cy="181.29" r="14.3441" transform="rotate(17.1487 305.221 181.29)" fill="white" stroke="#89B68D" stroke-width="3"/>
<path d="M310.391 178.998C310.996 177.038 309.662 174.886 307.411 174.192M307.411 174.192C306.856 174.02 306.297 173.954 305.76 173.98C304.122 174.061 302.697 175.007 302.241 176.483C301.636 178.444 302.97 180.595 305.221 181.29C307.471 181.984 308.806 184.136 308.201 186.096C307.596 188.056 305.281 189.082 303.031 188.388M307.411 174.192L308.307 171.288M303.031 188.388C300.78 187.694 299.446 185.542 300.051 183.582M303.031 188.388L302.135 191.292" stroke="#89B68D" stroke-width="3" stroke-linecap="round"/>
<circle cx="261.487" cy="111.198" r="26.313" transform="rotate(-17.6338 261.487 111.198)" fill="#E7F1E8" stroke="#89B68D" stroke-width="3"/>
<circle cx="261.487" cy="111.198" r="20.7145" transform="rotate(-17.6338 261.487 111.198)" fill="white" stroke="#89B68D" stroke-width="3"/>
<path d="M265.731 104.222C264.834 101.399 261.479 99.9452 258.237 100.976M258.237 100.976C257.438 101.23 256.719 101.612 256.105 102.085C254.229 103.529 253.317 105.826 253.993 107.953C254.891 110.776 258.246 112.229 261.487 111.199C264.729 110.169 268.084 111.622 268.981 114.445C269.878 117.268 267.978 120.392 264.737 121.422M258.237 100.976L256.908 96.7932M264.737 121.422C261.496 122.453 258.14 120.999 257.243 118.176M264.737 121.422L266.066 125.605" stroke="#89B68D" stroke-width="3" stroke-linecap="round"/>
<circle cx="83.94" cy="228.65" r="20.5" transform="rotate(-8.16506 83.94 228.65)" fill="#E7F1E8" stroke="#89B68D" stroke-width="3"/>
<circle cx="83.9406" cy="228.651" r="16.1383" transform="rotate(-8.16506 83.9406 228.651)" fill="white" stroke="#89B68D" stroke-width="3"/>
<path d="M88.0951 223.833C87.7674 221.548 85.3753 220.002 82.7524 220.378M82.7524 220.378C82.1051 220.471 81.5043 220.672 80.9713 220.957C79.3444 221.827 78.3498 223.475 78.5967 225.196C78.9244 227.48 81.3165 229.027 83.9394 228.651C86.5623 228.274 88.9543 229.821 89.2821 232.106C89.6099 234.39 87.7493 236.547 85.1264 236.924M82.7524 220.378L82.2668 216.994M85.1264 236.924C82.5034 237.3 80.1114 235.753 79.7836 233.469M85.1264 236.924L85.612 240.308" stroke="#89B68D" stroke-width="3" stroke-linecap="round"/>
<circle cx="30.9394" cy="151.651" r="23.5" transform="rotate(-23.5844 30.9394 151.651)" fill="#E7F1E8" stroke="#89B68D" stroke-width="3"/>
<circle cx="30.9405" cy="151.651" r="18.5" transform="rotate(-23.5844 30.9405 151.651)" fill="white" stroke="#89B68D" stroke-width="3"/>
<path d="M34.064 145.061C33.0055 142.636 29.8906 141.656 27.1068 142.871M27.1068 142.871C26.4198 143.171 25.8171 143.576 25.315 144.054C23.7822 145.511 23.1855 147.635 23.9828 149.462C25.0413 151.886 28.1561 152.867 30.94 151.651C33.7238 150.436 36.8387 151.416 37.8972 153.841C38.9557 156.266 37.557 159.216 34.7732 160.432M27.1068 142.871L25.5386 139.279M34.7732 160.432C31.9893 161.647 28.8745 160.667 27.816 158.242M34.7732 160.432L36.3413 164.024" stroke="#89B68D" stroke-width="3" stroke-linecap="round"/>
<defs>
<linearGradient id="paint0_linear" x1="361.413" y1="134.185" x2="225.896" y2="-143.635" gradientUnits="userSpaceOnUse">
<stop stop-color="#E7F1E8"/>
<stop offset="1" stop-color="#89B68D"/>
</linearGradient>
<linearGradient id="paint1_linear" x1="361.413" y1="134.185" x2="225.896" y2="-143.635" gradientUnits="userSpaceOnUse">
<stop stop-color="#E7F1E8"/>
<stop offset="1" stop-color="#89B68D"/>
</linearGradient>
<linearGradient id="paint2_linear" x1="361.413" y1="134.185" x2="225.896" y2="-143.635" gradientUnits="userSpaceOnUse">
<stop stop-color="#E7F1E8"/>
<stop offset="1" stop-color="#89B68D"/>
</linearGradient>
<linearGradient id="paint3_linear" x1="454.439" y1="118.651" x2="454.439" y2="276.151" gradientUnits="userSpaceOnUse">
<stop stop-color="#E7F1E8"/>
<stop offset="1" stop-color="#89B68D"/>
</linearGradient>
<linearGradient id="paint4_linear" x1="454.439" y1="118.651" x2="454.439" y2="276.151" gradientUnits="userSpaceOnUse">
<stop stop-color="#E7F1E8"/>
<stop offset="1" stop-color="#89B68D"/>
</linearGradient>
<linearGradient id="paint5_linear" x1="454.439" y1="118.651" x2="454.439" y2="276.151" gradientUnits="userSpaceOnUse">
<stop stop-color="#E7F1E8"/>
<stop offset="1" stop-color="#89B68D"/>
</linearGradient>
<linearGradient id="paint6_linear" x1="454.439" y1="118.651" x2="454.439" y2="276.151" gradientUnits="userSpaceOnUse">
<stop stop-color="#E7F1E8"/>
<stop offset="1" stop-color="#89B68D"/>
</linearGradient>
<linearGradient id="paint7_linear" x1="454.439" y1="118.651" x2="454.439" y2="276.151" gradientUnits="userSpaceOnUse">
<stop stop-color="#E7F1E8"/>
<stop offset="1" stop-color="#89B68D"/>
</linearGradient>
<linearGradient id="paint8_linear" x1="454.439" y1="118.651" x2="454.439" y2="276.151" gradientUnits="userSpaceOnUse">
<stop stop-color="#E7F1E8"/>
<stop offset="1" stop-color="#89B68D"/>
</linearGradient>
<linearGradient id="paint9_linear" x1="454.439" y1="118.651" x2="454.439" y2="276.151" gradientUnits="userSpaceOnUse">
<stop stop-color="#E7F1E8"/>
<stop offset="1" stop-color="#89B68D"/>
</linearGradient>
<linearGradient id="paint10_linear" x1="454.439" y1="118.651" x2="454.439" y2="276.151" gradientUnits="userSpaceOnUse">
<stop stop-color="#E7F1E8"/>
<stop offset="1" stop-color="#89B68D"/>
</linearGradient>
<linearGradient id="paint11_linear" x1="454.439" y1="118.651" x2="454.439" y2="276.151" gradientUnits="userSpaceOnUse">
<stop stop-color="#E7F1E8"/>
<stop offset="1" stop-color="#89B68D"/>
</linearGradient>
<linearGradient id="paint12_linear" x1="454.439" y1="118.651" x2="454.439" y2="276.151" gradientUnits="userSpaceOnUse">
<stop stop-color="#E7F1E8"/>
<stop offset="1" stop-color="#89B68D"/>
</linearGradient>
<linearGradient id="paint13_linear" x1="454.439" y1="118.651" x2="454.439" y2="276.151" gradientUnits="userSpaceOnUse">
<stop stop-color="#E7F1E8"/>
<stop offset="1" stop-color="#89B68D"/>
</linearGradient>
<linearGradient id="paint14_linear" x1="454.439" y1="118.651" x2="454.439" y2="276.151" gradientUnits="userSpaceOnUse">
<stop stop-color="#E7F1E8"/>
<stop offset="1" stop-color="#89B68D"/>
</linearGradient>
<linearGradient id="paint15_linear" x1="454.439" y1="118.651" x2="454.439" y2="276.151" gradientUnits="userSpaceOnUse">
<stop stop-color="#E7F1E8"/>
<stop offset="1" stop-color="#89B68D"/>
</linearGradient>
<linearGradient id="paint16_linear" x1="454.439" y1="118.651" x2="454.439" y2="276.151" gradientUnits="userSpaceOnUse">
<stop stop-color="#E7F1E8"/>
<stop offset="1" stop-color="#89B68D"/>
</linearGradient>
<linearGradient id="paint17_linear" x1="454.439" y1="118.651" x2="454.439" y2="276.151" gradientUnits="userSpaceOnUse">
<stop stop-color="#E7F1E8"/>
<stop offset="1" stop-color="#89B68D"/>
</linearGradient>
<linearGradient id="paint18_linear" x1="454.439" y1="118.651" x2="454.439" y2="276.151" gradientUnits="userSpaceOnUse">
<stop stop-color="#E7F1E8"/>
<stop offset="1" stop-color="#89B68D"/>
</linearGradient>
<linearGradient id="paint19_linear" x1="454.439" y1="118.651" x2="454.439" y2="276.151" gradientUnits="userSpaceOnUse">
<stop stop-color="#E7F1E8"/>
<stop offset="1" stop-color="#89B68D"/>
</linearGradient>
<linearGradient id="paint20_linear" x1="454.439" y1="118.651" x2="454.439" y2="276.151" gradientUnits="userSpaceOnUse">
<stop stop-color="#E7F1E8"/>
<stop offset="1" stop-color="#89B68D"/>
</linearGradient>
<linearGradient id="paint21_linear" x1="454.439" y1="118.651" x2="454.439" y2="276.151" gradientUnits="userSpaceOnUse">
<stop stop-color="#E7F1E8"/>
<stop offset="1" stop-color="#89B68D"/>
</linearGradient>
<linearGradient id="paint22_linear" x1="454.439" y1="118.651" x2="454.439" y2="276.151" gradientUnits="userSpaceOnUse">
<stop stop-color="#E7F1E8"/>
<stop offset="1" stop-color="#89B68D"/>
</linearGradient>
<linearGradient id="paint23_linear" x1="454.439" y1="118.651" x2="454.439" y2="276.151" gradientUnits="userSpaceOnUse">
<stop stop-color="#E7F1E8"/>
<stop offset="1" stop-color="#89B68D"/>
</linearGradient>
<linearGradient id="paint24_linear" x1="454.439" y1="118.651" x2="454.439" y2="276.151" gradientUnits="userSpaceOnUse">
<stop stop-color="#E7F1E8"/>
<stop offset="1" stop-color="#89B68D"/>
</linearGradient>
</defs>
</svg>
