<svg width="534" height="440" viewBox="0 0 534 440" fill="none" xmlns="http://www.w3.org/2000/svg">
<path d="M202.224 40.9987C214.262 65.8509 192.592 101.221 153.823 120.001C115.053 138.78 73.8656 133.857 61.8274 109.005C49.7893 84.1531 71.4592 48.7827 110.229 30.0032C148.998 11.2237 190.186 16.1466 202.224 40.9987Z" fill="url(#paint0_linear)"/>
<path d="M531.024 226.087C513.03 371 352.161 432.5 270.031 432.5C104.161 432.5 -20.8447 289.45 2.90014 226.087C43.0306 119 139.031 226.087 256.9 55.0872C309.531 -34.0002 561.636 -20.4514 531.024 226.087Z" fill="url(#paint1_linear)"/>
<path d="M180.154 320.861C181.292 330.71 182.213 341.014 183.051 351.861M180.154 320.861C185.596 300.161 186.475 284.07 187.551 254.361M180.154 320.861C179.195 312.553 178.081 304.571 176.734 296.861M141.051 209.861C161.157 236.56 171.036 264.267 176.734 296.861M176.734 296.861C168.551 279.361 158.506 271.001 138.551 269.861M264.551 298.361V319.361M264.551 298.361C260.987 247.284 257.491 225.421 248.051 200.861M264.551 298.361V226.361M268.551 96.8611C262.579 136.669 264.551 182.361 264.551 226.361M264.551 226.361C272.473 201.454 277.232 187.815 288.551 166.361M352.777 304.361C349.7 317.66 346.937 331.37 344.551 345.361M352.777 304.361C352.171 288.736 351.633 279.723 344.551 255.861M352.777 304.361C353.791 299.982 354.838 295.647 355.918 291.361M395.551 182.361C380.606 210.827 366.674 248.662 355.918 291.361M355.918 291.361C367.371 271.575 376.385 262.152 395.551 247.361" stroke="#89B68D" stroke-width="3"/>
<circle cx="116.081" cy="172.391" r="53.5046" transform="rotate(-37.6771 116.081 172.391)" fill="#E7F1E8" stroke="#89B68D" stroke-width="3"/>
<circle cx="116.082" cy="172.391" r="42.1206" transform="rotate(-37.6771 116.082 172.391)" fill="white" stroke="#89B68D" stroke-width="3"/>
<path d="M119.325 156.105C115.644 151.337 108.222 150.899 102.748 155.126M102.748 155.126C101.397 156.169 100.291 157.399 99.447 158.732C96.87 162.798 96.7301 167.821 99.5032 171.412C103.185 176.18 110.607 176.618 116.08 172.391C121.554 168.164 128.976 168.602 132.658 173.369C136.339 178.136 134.887 185.428 129.413 189.655M102.748 155.126L97.2938 148.064M129.413 189.655C123.939 193.882 116.517 193.444 112.836 188.677M129.413 189.655L134.867 196.718" stroke="#89B68D" stroke-width="3" stroke-linecap="round"/>
<circle cx="420.081" cy="140.391" r="53.5046" transform="rotate(32.2903 420.081 140.391)" fill="#E7F1E8" stroke="#89B68D" stroke-width="3"/>
<circle cx="420.082" cy="140.39" r="42.1206" transform="rotate(32.2903 420.082 140.39)" fill="white" stroke="#89B68D" stroke-width="3"/>
<path d="M436.494 137.86C439.712 132.768 437.581 125.645 431.735 121.95M431.735 121.95C430.292 121.039 428.758 120.421 427.217 120.084C422.513 119.056 417.746 120.645 415.323 124.481C412.105 129.573 414.236 136.696 420.082 140.39C425.928 144.085 428.059 151.208 424.841 156.3C421.624 161.392 414.276 162.525 408.429 158.83M431.735 121.95L436.502 114.407M408.429 158.83C402.583 155.135 400.452 148.013 403.67 142.921M408.429 158.83L403.662 166.374" stroke="#89B68D" stroke-width="3" stroke-linecap="round"/>
<circle cx="268.055" cy="55.3656" r="53.5046" transform="rotate(0.92958 268.055 55.3656)" fill="#E7F1E8" stroke="#89B68D" stroke-width="3"/>
<circle cx="268.055" cy="55.3654" r="42.1206" transform="rotate(0.92958 268.055 55.3654)" fill="white" stroke="#89B68D" stroke-width="3"/>
<path d="M280.753 44.6634C280.851 38.6407 275.324 33.6673 268.409 33.5551M268.409 33.5551C266.703 33.5274 265.071 33.7984 263.58 34.3128C259.029 35.8828 255.785 39.7207 255.711 44.2571C255.614 50.2798 261.14 55.2532 268.055 55.3654C274.97 55.4776 280.497 60.4509 280.399 66.4737C280.301 72.4964 274.616 77.2878 267.701 77.1756M268.409 33.5551L268.554 24.6328M267.701 77.1756C260.786 77.0634 255.26 72.0901 255.358 66.0674M267.701 77.1756L267.557 86.098" stroke="#89B68D" stroke-width="3" stroke-linecap="round"/>
<path d="M329.031 97.1377C331.349 106.139 332.05 116.544 330.974 126.593C330.385 132.094 329.262 137.489 327.581 142.489C321.681 160.035 308.894 172.715 288.083 168.061C273.647 152.365 278.235 134.951 290.479 121.069C293.969 117.113 298.08 113.443 302.55 110.182C310.715 104.225 320.076 99.6305 329.031 97.1377Z" fill="url(#paint2_linear)"/>
<path d="M208.083 132.138C205.765 141.139 205.063 151.544 206.14 161.593C206.729 167.094 207.851 172.489 209.533 177.489C215.433 195.035 228.219 207.715 249.031 203.061C263.467 187.365 258.879 169.951 246.634 156.069C243.145 152.113 239.033 148.443 234.563 145.182C226.399 139.225 217.038 134.631 208.083 132.138Z" fill="url(#paint3_linear)"/>
<path d="M191.655 177.124C184.785 183.385 178.5 191.706 173.897 200.704C171.376 205.629 169.36 210.758 168.028 215.862C163.355 233.774 167.108 251.386 187.069 258.89C207.745 253.665 213.443 236.583 210.802 218.261C210.05 213.04 208.62 207.718 206.666 202.542C203.098 193.086 197.782 184.114 191.655 177.124Z" fill="url(#paint4_linear)"/>
<path d="M61.3477 266.4C68.2095 260.13 77.069 254.63 86.4485 250.866C91.5837 248.806 96.8749 247.266 102.079 246.405C120.342 243.385 137.539 248.728 143.191 269.291C136.102 289.403 118.572 293.521 100.567 289.219C95.4364 287.994 90.2671 286.084 85.2901 283.667C76.1994 279.251 67.7501 273.139 61.3477 266.4Z" fill="url(#paint5_linear)"/>
<path d="M315.558 182.069C324.035 185.882 332.598 191.833 339.773 198.951C343.701 202.848 347.213 207.094 350.068 211.531C360.083 227.098 361.998 245.004 345.364 258.348C324.089 259.817 313.357 245.356 310.165 227.123C309.255 221.926 308.958 216.424 309.203 210.896C309.652 200.8 311.911 190.619 315.558 182.069Z" fill="url(#paint6_linear)"/>
<path d="M461.672 201.381C459.937 210.513 456.141 220.226 450.888 228.86C448.012 233.587 444.699 237.99 441.049 241.799C428.239 255.161 411.27 261.19 394.422 248.116C388.044 227.767 399.61 213.965 416.601 206.618C421.442 204.525 426.725 202.955 432.158 201.908C442.082 199.995 452.508 199.824 461.672 201.381Z" fill="url(#paint7_linear)"/>
<path d="M308.557 132.599L329.031 97.1377M308.557 132.599L330.974 126.593M308.557 132.599L302.55 110.182M308.557 132.599L298.32 150.33M329.031 97.1377C331.349 106.139 332.05 116.544 330.974 126.593M329.031 97.1377C320.076 99.6305 310.715 104.225 302.55 110.182M330.974 126.593C330.385 132.094 329.262 137.489 327.581 142.489M302.55 110.182C298.08 113.443 293.969 117.113 290.479 121.069M288.083 168.061L298.32 150.33M288.083 168.061C308.894 172.715 321.681 160.035 327.581 142.489M288.083 168.061C273.647 152.365 278.235 134.951 290.479 121.069M298.32 150.33L327.581 142.489M298.32 150.33L290.479 121.069M228.557 167.599L208.083 132.138M228.557 167.599L206.14 161.593M228.557 167.599L234.563 145.182M228.557 167.599L238.794 185.33M208.083 132.138C205.765 141.139 205.063 151.544 206.14 161.593M208.083 132.138C217.038 134.631 226.399 139.225 234.563 145.182M206.14 161.593C206.729 167.094 207.851 172.489 209.533 177.489M234.563 145.182C239.033 148.443 243.145 152.113 246.634 156.069M249.031 203.061L238.794 185.33M249.031 203.061C228.219 207.715 215.433 195.035 209.533 177.489M249.031 203.061C263.467 187.365 258.879 169.951 246.634 156.069M238.794 185.33L209.533 177.489M238.794 185.33L246.634 156.069M189.362 218.007L191.655 177.124M189.362 218.007L173.897 200.704M189.362 218.007L206.666 202.542M189.362 218.007L188.216 238.449M191.655 177.124C184.785 183.385 178.5 191.706 173.897 200.704M191.655 177.124C197.782 184.114 203.098 193.086 206.666 202.542M173.897 200.704C171.376 205.629 169.36 210.758 168.028 215.862M206.666 202.542C208.62 207.718 210.05 213.04 210.802 218.261M187.069 258.89L188.216 238.449M187.069 258.89C167.108 251.386 163.355 233.774 168.028 215.862M187.069 258.89C207.745 253.665 213.443 236.583 210.802 218.261M188.216 238.449L168.028 215.862M188.216 238.449L210.802 218.261M102.27 267.846L61.3477 266.4M102.27 267.846L86.4485 250.866M102.27 267.846L85.2901 283.667M102.27 267.846L122.731 268.568M61.3477 266.4C68.2095 260.13 77.069 254.63 86.4485 250.866M61.3477 266.4C67.7501 273.139 76.1994 279.251 85.2901 283.667M86.4485 250.866C91.5837 248.806 96.8749 247.266 102.079 246.405M85.2901 283.667C90.2671 286.084 95.4364 287.994 100.567 289.219M143.191 269.291L122.731 268.568M143.191 269.291C137.539 248.728 120.342 243.385 102.079 246.405M143.191 269.291C136.102 289.403 118.572 293.521 100.567 289.219M122.731 268.568L102.079 246.405M122.731 268.568L100.567 289.219M330.461 220.208L315.558 182.069M330.461 220.208L339.773 198.951M330.461 220.208L309.203 210.896M330.461 220.208L337.912 239.278M315.558 182.069C324.035 185.882 332.598 191.833 339.773 198.951M315.558 182.069C311.911 190.619 309.652 200.8 309.203 210.896M339.773 198.951C343.701 202.848 347.213 207.094 350.068 211.531M309.203 210.896C308.958 216.424 309.255 221.926 310.165 227.123M345.364 258.348L337.912 239.278M345.364 258.348C361.998 245.004 360.083 227.098 350.068 211.531M345.364 258.348C324.089 259.817 313.357 245.356 310.165 227.123M337.912 239.278L350.068 211.531M337.912 239.278L310.165 227.123M428.047 224.749L461.672 201.381M428.047 224.749L450.888 228.86M428.047 224.749L432.158 201.908M428.047 224.749L411.235 236.433M461.672 201.381C459.937 210.513 456.141 220.226 450.888 228.86M461.672 201.381C452.508 199.824 442.082 199.995 432.158 201.908M450.888 228.86C448.012 233.587 444.699 237.99 441.049 241.799M432.158 201.908C426.725 202.955 421.442 204.525 416.601 206.618M394.422 248.116L411.235 236.433M394.422 248.116C411.27 261.19 428.239 255.161 441.049 241.799M394.422 248.116C388.044 227.767 399.61 213.965 416.601 206.618M411.235 236.433L441.049 241.799M411.235 236.433L416.601 206.618" stroke="#89B68D" stroke-width="3"/>
<path d="M307.851 421.424C296.194 404.923 317.437 368.457 340.079 339.61C338 335.554 338.551 324.861 328.051 324.861C331.051 319.861 337.218 315.564 346.551 321.861C352.553 324.543 354.551 317.861 359.551 317.861C370.079 317.861 364.551 326.861 375.051 329.861C371.551 340.861 362.022 324.485 362.022 339.61C384.665 368.457 405.908 404.923 394.251 421.423C385.022 434.486 362.022 435.861 351.051 435.861C340.079 435.861 317.079 434.486 307.851 421.424Z" fill="white"/>
<path d="M340.079 339.61C317.437 368.457 296.194 404.923 307.851 421.424C317.079 434.486 340.079 435.861 351.051 435.861C362.022 435.861 385.022 434.486 394.251 421.423C405.908 404.923 384.665 368.457 362.022 339.61M340.079 339.61C338 335.554 338.551 324.861 328.051 324.861C331.051 319.861 337.218 315.564 346.551 321.861C352.553 324.543 354.551 317.861 359.551 317.861C370.079 317.861 364.551 326.861 375.051 329.861C371.551 340.861 362.022 324.485 362.022 339.61M340.079 339.61C343.837 343.377 350.489 344.564 355.851 343.171C357.753 342.484 360.797 341.014 362.022 339.61" stroke="#89B68D" stroke-width="3" stroke-linecap="round"/>
<path d="M222.251 421.423C233.908 404.923 212.665 368.456 190.022 339.61C190.636 333.398 193.051 330.361 199.551 334.361C199.551 328.361 196.551 320.361 186.551 324.861C176.551 329.361 178.551 326.361 172.879 320.361C168.205 315.416 158.551 322.361 158.551 334.361C165.551 329.361 168.079 332.047 168.079 339.61C145.437 368.456 124.194 404.923 135.851 421.423C145.079 434.486 168.079 435.861 179.051 435.861C190.022 435.861 213.022 434.486 222.251 421.423Z" fill="white"/>
<path d="M190.022 339.61C212.665 368.456 233.908 404.923 222.251 421.423C213.022 434.486 190.022 435.861 179.051 435.861C168.079 435.861 145.079 434.486 135.851 421.423C124.194 404.923 145.437 368.456 168.079 339.61M190.022 339.61C190.636 333.398 193.051 330.361 199.551 334.361C199.551 328.361 196.551 320.361 186.551 324.861C176.551 329.361 178.551 326.361 172.879 320.361C168.205 315.416 158.551 322.361 158.551 334.361C165.551 329.361 168.079 332.047 168.079 339.61M190.022 339.61C186.265 343.377 179.612 344.564 174.251 343.171C173.783 343.049 173.325 342.908 172.879 342.747C170.977 342.06 169.305 341.014 168.079 339.61" stroke="#89B68D" stroke-width="3" stroke-linecap="round"/>
<path d="M218.135 422.122C205.475 404.134 228.545 364.379 253.136 332.932C252.469 326.16 249.412 320.19 238.986 320.19C241.965 316.442 245.223 315.745 250.157 316.443C257.431 318.177 258.348 317.545 263.561 311.196C271.561 301.453 287.392 302.202 291.115 318.691C282.179 316.443 276.966 324.687 276.966 332.932C301.556 364.379 324.627 404.134 311.967 422.122C301.945 436.362 276.966 437.861 265.051 437.861C253.136 437.861 228.157 436.362 218.135 422.122Z" fill="white"/>
<path d="M253.136 332.932C228.545 364.379 205.475 404.134 218.135 422.122C228.157 436.362 253.136 437.861 265.051 437.861C276.966 437.861 301.945 436.362 311.967 422.122C324.627 404.134 301.556 364.379 276.966 332.932M253.136 332.932C252.469 326.16 249.412 320.19 238.986 320.19C241.965 316.442 245.223 315.745 250.157 316.443C257.431 318.177 258.348 317.545 263.561 311.196C271.561 301.453 287.392 302.202 291.115 318.691C282.179 316.443 276.966 324.687 276.966 332.932M253.136 332.932C257.216 337.039 264.441 338.332 270.264 336.813C270.772 336.681 271.269 336.527 271.753 336.351C273.819 335.602 275.635 334.462 276.966 332.932" stroke="#89B68D" stroke-width="3" stroke-linecap="round"/>
<circle cx="264.551" cy="396.861" r="25" fill="#E7F1E8" stroke="#89B68D" stroke-width="3"/>
<circle cx="264.55" cy="396.861" r="19.6808" fill="white" stroke="#89B68D" stroke-width="3"/>
<path d="M270.401 391.765C270.401 388.95 267.782 386.669 264.55 386.669M264.55 386.669C263.753 386.669 262.993 386.808 262.3 387.059C260.185 387.827 258.699 389.645 258.699 391.765C258.699 394.579 261.319 396.861 264.55 396.861C267.782 396.861 270.401 399.143 270.401 401.957C270.401 404.772 267.782 407.053 264.55 407.053M264.55 386.669V382.499M264.55 407.053C261.319 407.053 258.699 404.772 258.699 401.957M264.55 407.053V411.223" stroke="#89B68D" stroke-width="3" stroke-linecap="round"/>
<circle cx="178.551" cy="395.861" r="21" fill="#E7F1E8" stroke="#89B68D" stroke-width="3"/>
<circle cx="178.551" cy="395.861" r="16.5319" fill="white" stroke="#89B68D" stroke-width="3"/>
<path d="M183.467 391.58C183.467 389.216 181.266 387.3 178.552 387.3M178.552 387.3C177.882 387.3 177.243 387.416 176.661 387.628C174.885 388.273 173.637 389.8 173.637 391.58C173.637 393.944 175.837 395.861 178.552 395.861C181.266 395.861 183.467 397.778 183.467 400.142C183.467 402.506 181.266 404.422 178.552 404.422M178.552 387.3V383.797M178.552 404.422C175.837 404.422 173.637 402.506 173.637 400.142M178.552 404.422V407.925" stroke="#89B68D" stroke-width="3" stroke-linecap="round"/>
<circle cx="351.551" cy="395.861" r="21" fill="#E7F1E8" stroke="#89B68D" stroke-width="3"/>
<circle cx="351.551" cy="395.861" r="16.5319" fill="white" stroke="#89B68D" stroke-width="3"/>
<path d="M356.467 391.58C356.467 389.216 354.266 387.3 351.552 387.3M351.552 387.3C350.882 387.3 350.243 387.416 349.661 387.628C347.885 388.273 346.637 389.8 346.637 391.58C346.637 393.944 348.837 395.861 351.552 395.861C354.266 395.861 356.467 397.778 356.467 400.142C356.467 402.506 354.266 404.422 351.552 404.422M351.552 387.3V383.797M351.552 404.422C348.837 404.422 346.637 402.506 346.637 400.142M351.552 404.422V407.925" stroke="#89B68D" stroke-width="3" stroke-linecap="round"/>
<defs>
<linearGradient id="paint0_linear" x1="267.031" y1="79.5" x2="267.031" y2="712" gradientUnits="userSpaceOnUse">
<stop stop-color="#E7F1E8"/>
<stop offset="1" stop-color="#89B68D"/>
</linearGradient>
<linearGradient id="paint1_linear" x1="267.031" y1="79.5" x2="267.031" y2="712" gradientUnits="userSpaceOnUse">
<stop stop-color="#E7F1E8"/>
<stop offset="1" stop-color="#89B68D"/>
</linearGradient>
<linearGradient id="paint2_linear" x1="261.031" y1="86.5" x2="261.031" y2="268" gradientUnits="userSpaceOnUse">
<stop stop-color="white"/>
<stop offset="1" stop-color="#E7F1E8"/>
</linearGradient>
<linearGradient id="paint3_linear" x1="261.031" y1="86.5" x2="261.031" y2="268" gradientUnits="userSpaceOnUse">
<stop stop-color="white"/>
<stop offset="1" stop-color="#E7F1E8"/>
</linearGradient>
<linearGradient id="paint4_linear" x1="261.031" y1="86.5" x2="261.031" y2="268" gradientUnits="userSpaceOnUse">
<stop stop-color="white"/>
<stop offset="1" stop-color="#E7F1E8"/>
</linearGradient>
<linearGradient id="paint5_linear" x1="261.031" y1="86.5" x2="261.031" y2="268" gradientUnits="userSpaceOnUse">
<stop stop-color="white"/>
<stop offset="1" stop-color="#E7F1E8"/>
</linearGradient>
<linearGradient id="paint6_linear" x1="261.031" y1="86.5" x2="261.031" y2="268" gradientUnits="userSpaceOnUse">
<stop stop-color="white"/>
<stop offset="1" stop-color="#E7F1E8"/>
</linearGradient>
<linearGradient id="paint7_linear" x1="261.031" y1="86.5" x2="261.031" y2="268" gradientUnits="userSpaceOnUse">
<stop stop-color="white"/>
<stop offset="1" stop-color="#E7F1E8"/>
</linearGradient>
</defs>
</svg>
