<svg width="539" height="251" viewBox="0 0 539 251" fill="none" xmlns="http://www.w3.org/2000/svg">
<path d="M159.012 46.5055C164.906 58.217 154.296 74.8853 135.314 83.7351C116.332 92.5849 96.1658 90.265 90.2718 78.5535C84.3777 66.8419 94.9877 50.1737 113.97 41.3239C132.952 32.4741 153.118 34.7939 159.012 46.5055Z" fill="url(#paint0_linear)"/>
<path d="M319.999 133.728C311.189 202.018 232.424 231 192.212 231C110.999 231 49.7941 163.588 61.4199 133.728C81.0685 83.2634 128.072 133.728 185.783 53.1447C211.552 11.1624 334.987 17.5472 319.999 133.728Z" fill="url(#paint1_linear)"/>
<path d="M333.499 159.001C361.62 103.466 315.132 69.9047 337.173 36.274C355.162 8.82562 431.307 26.3274 462.05 99.7812C481.453 146.141 517.431 174.62 492.507 205.691C463.991 241.239 431.268 199.041 386.76 222.056C342.251 245.072 310.754 203.921 333.499 159.001Z" fill="url(#paint2_linear)"/>
<circle cx="70.5" cy="110.5" r="68.5" fill="#E7F1E8" stroke="#89B68D" stroke-width="3"/>
<circle cx="70.4997" cy="110.5" r="53.9255" fill="white" stroke="#89B68D" stroke-width="3"/>
<circle cx="203" cy="168" r="40" fill="#E7F1E8" stroke="#89B68D" stroke-width="3"/>
<circle cx="203.001" cy="168" r="31.4894" fill="white" stroke="#89B68D" stroke-width="3"/>
<circle cx="280" cy="59" r="57" fill="#E7F1E8" stroke="#89B68D" stroke-width="3"/>
<circle cx="279.999" cy="58.9997" r="44.8723" fill="white" stroke="#89B68D" stroke-width="3"/>
<circle cx="334.5" cy="201.5" r="47.5" fill="#E7F1E8" stroke="#89B68D" stroke-width="3"/>
<circle cx="334.501" cy="201.5" r="37.3936" fill="white" stroke="#89B68D" stroke-width="3"/>
<circle cx="458.5" cy="102.5" r="78.5" fill="#E7F1E8" stroke="#89B68D" stroke-width="3"/>
<path d="M520.299 102.5C520.299 136.63 492.631 164.297 458.501 164.297C424.371 164.297 396.703 136.63 396.703 102.5C396.703 68.3695 424.371 40.7017 458.501 40.7017C492.631 40.7017 520.299 68.3695 520.299 102.5Z" fill="white"/>
<path d="M424.001 102.5V104C424.534 104 425.027 103.716 425.296 103.256C425.565 102.796 425.569 102.227 425.307 101.763L424.001 102.5ZM431.203 102.5L429.939 101.693C429.644 102.155 429.625 102.74 429.888 103.221C430.151 103.701 430.656 104 431.203 104V102.5ZM485.799 102.5L487.105 103.236C487.367 102.772 487.363 102.203 487.094 101.743C486.825 101.283 486.332 101 485.799 101V102.5ZM493.001 102.5V101C492.453 101 491.949 101.298 491.686 101.778C491.423 102.259 491.442 102.844 491.736 103.306L493.001 102.5ZM518.799 102.5C518.799 135.801 491.803 162.797 458.501 162.797V165.797C493.459 165.797 521.799 137.458 521.799 102.5H518.799ZM458.501 162.797C425.199 162.797 398.203 135.801 398.203 102.5H395.203C395.203 137.458 423.543 165.797 458.501 165.797V162.797ZM398.203 102.5C398.203 69.1979 425.199 42.2017 458.501 42.2017V39.2017C423.543 39.2017 395.203 67.5411 395.203 102.5H398.203ZM458.501 42.2017C491.803 42.2017 518.799 69.1979 518.799 102.5H521.799C521.799 67.5411 493.459 39.2017 458.501 39.2017V42.2017ZM396.703 104H424.001V101H396.703V104ZM432.468 103.306C435.552 98.4696 436.137 94.407 434.896 91.3829C433.65 88.3483 430.75 86.8256 427.941 86.7501C425.129 86.6745 422.157 88.044 420.781 91.0464C419.416 94.0246 419.828 98.1546 422.694 103.236L425.307 101.763C422.674 97.0945 422.71 94.0369 423.508 92.2963C424.295 90.58 426.023 89.6996 427.861 89.749C429.702 89.7985 431.403 90.7757 432.121 92.5224C432.842 94.2795 432.753 97.2795 429.939 101.693L432.468 103.306ZM431.203 104H458.501V101H431.203V104ZM458.501 104H485.799V101H458.501V104ZM491.736 103.306C494.551 107.72 494.64 110.72 493.918 112.477C493.201 114.223 491.5 115.201 489.659 115.25C487.821 115.299 486.093 114.419 485.306 112.703C484.508 110.962 484.472 107.905 487.105 103.236L484.492 101.763C481.625 106.844 481.214 110.974 482.579 113.953C483.955 116.955 486.927 118.325 489.739 118.249C492.548 118.173 495.448 116.651 496.694 113.616C497.935 110.592 497.35 106.529 494.266 101.693L491.736 103.306ZM493.001 104H520.299V101H493.001V104Z" fill="#89B68D"/>
<path d="M458.501 137L460.001 137C460.001 136.467 459.717 135.973 459.257 135.704C458.797 135.436 458.228 135.431 457.764 135.693L458.501 137ZM458.501 129.797L457.694 131.062C458.156 131.356 458.741 131.376 459.222 131.112C459.702 130.849 460.001 130.345 460.001 129.797L458.501 129.797ZM458.501 75.2019L459.237 73.8954C458.773 73.6335 458.204 73.6377 457.744 73.9066C457.284 74.1755 457.001 74.6687 457.001 75.2019L458.501 75.2019ZM458.501 67.9993L457.001 67.9993C457.001 68.547 457.299 69.0512 457.779 69.3145C458.26 69.5779 458.845 69.5585 459.307 69.264L458.501 67.9993ZM460.001 164.297L460.001 137L457.001 137L457.001 164.297L460.001 164.297ZM459.307 128.532C454.471 125.448 450.408 124.863 447.384 126.105C444.349 127.351 442.827 130.25 442.751 133.059C442.675 135.871 444.045 138.844 447.047 140.22C450.026 141.584 454.156 141.173 459.237 138.306L457.764 135.693C453.095 138.327 450.038 138.29 448.297 137.492C446.581 136.706 445.701 134.978 445.75 133.14C445.799 131.299 446.777 129.597 448.523 128.88C450.281 128.158 453.28 128.247 457.694 131.062L459.307 128.532ZM460.001 129.797L460.001 102.5L457.001 102.5L457.001 129.797L460.001 129.797ZM460.001 102.5L460.001 75.2019L457.001 75.2019L457.001 102.5L460.001 102.5ZM459.307 69.264C463.721 66.4495 466.721 66.3606 468.478 67.0821C470.224 67.7993 471.202 69.5007 471.251 71.3419C471.3 73.18 470.42 74.9079 468.704 75.6945C466.963 76.4922 463.906 76.5287 459.237 73.8954L457.764 76.5084C462.845 79.3751 466.975 79.7866 469.954 78.4217C472.956 77.0457 474.326 74.0735 474.25 71.2613C474.174 68.4521 472.652 65.553 469.617 64.307C466.593 63.0652 462.53 63.6504 457.694 66.7345L459.307 69.264ZM460.001 67.9993L460.001 40.7017L457.001 40.7017L457.001 67.9993L460.001 67.9993Z" fill="#89B68D"/>
<path fill-rule="evenodd" clip-rule="evenodd" d="M71 70L41 94.5H45.5V128H41V136.5H101V128H96.5V94.5H101L71 70ZM52 94.5H60.5V128H52V94.5ZM75.5 94.5H71H67V128H75.5V94.5ZM82 94.5H90V128H82V94.5Z" fill="#E7F1E8"/>
<path d="M71 94.5H101M71 94.5H52M71 94.5H75.5V128H67V94.5H71ZM101 94.5L71 70L41 94.5H45.5M101 94.5H96.5V128H101M101 128V136.5H41V128H45.5M101 128H52M45.5 128V94.5M45.5 128H52M45.5 94.5H52M52 94.5V128M52 94.5H60.5V128H52M90 94.5V128H82V94.5H90Z" stroke="#89B68D" stroke-width="3"/>
<path d="M211.787 160.084C211.787 155.806 207.805 152.338 202.894 152.338M202.894 152.338C201.681 152.338 200.526 152.549 199.473 152.931C196.259 154.099 194 156.861 194 160.084C194 164.362 197.982 167.83 202.894 167.83C207.805 167.83 211.787 171.298 211.787 175.576C211.787 179.854 207.805 183.322 202.894 183.322M202.894 152.338V146M202.894 183.322C197.982 183.322 194 179.854 194 175.576M202.894 183.322V189.66" stroke="#89B68D" stroke-width="3" stroke-linecap="round"/>
<path d="M260 47C260 35.9543 268.954 27 280 27C291.046 27 300 35.9543 300 47C300 52.0722 298.112 56.7035 295 60.2291C291.017 66.4272 289.167 70.2025 288.5 79V90H280H271.5V79C270.833 70.2025 268.983 66.4272 265 60.2291C261.888 56.7035 260 52.0722 260 47Z" fill="#E7F1E8"/>
<path d="M265 60.2291L266.262 59.4182C266.221 59.3542 266.175 59.2935 266.125 59.2365L265 60.2291ZM271.5 90H270C270 90.8284 270.672 91.5 271.5 91.5V90ZM295 60.2291L293.875 59.2365C293.825 59.2935 293.779 59.3542 293.738 59.4182L295 60.2291ZM288.5 90V91.5C289.328 91.5 290 90.8284 290 90H288.5ZM261.5 47C261.5 36.7827 269.783 28.5 280 28.5V25.5C268.126 25.5 258.5 35.1259 258.5 47H261.5ZM280 28.5C290.217 28.5 298.5 36.7827 298.5 47H301.5C301.5 35.1259 291.874 25.5 280 25.5V28.5ZM266.125 59.2365C263.245 55.9744 261.5 51.6928 261.5 47H258.5C258.5 52.4516 260.531 57.4325 263.875 61.2217L266.125 59.2365ZM263.738 61.0401C265.718 64.1206 267.102 66.5016 268.087 69.1607C269.068 71.8089 269.678 74.8052 270.004 79.1134L272.996 78.8866C272.655 74.3973 272.007 71.1072 270.9 68.1188C269.798 65.1414 268.265 62.5357 266.262 59.4182L263.738 61.0401ZM270 79V90H273V79H270ZM271.5 91.5H280V88.5H271.5V91.5ZM293.738 59.4182C291.735 62.5357 290.202 65.1414 289.1 68.1188C287.993 71.1072 287.345 74.3973 287.004 78.8866L289.996 79.1134C290.322 74.8052 290.932 71.8089 291.913 69.1607C292.898 66.5016 294.282 64.1206 296.262 61.0401L293.738 59.4182ZM287 79V90H290V79H287ZM288.5 88.5H280V91.5H288.5V88.5ZM296.125 61.2217C299.469 57.4325 301.5 52.4516 301.5 47H298.5C298.5 51.6928 296.755 55.9744 293.875 59.2365L296.125 61.2217ZM271.5 80.5H277.5V77.5H271.5V80.5ZM277.5 80.5H282.5V77.5H277.5V80.5ZM282.5 80.5H288.5V77.5H282.5V80.5ZM279 79V51H276V79H279ZM284 79V51H281V79H284ZM279 51C279 50.1503 279.234 49.6691 279.434 49.429C279.631 49.1922 279.841 49.125 280 49.125C280.159 49.125 280.369 49.1922 280.566 49.429C280.766 49.6691 281 50.1503 281 51H284C284 48.1893 282.323 46.125 280 46.125C277.677 46.125 276 48.1893 276 51H279Z" fill="#89B68D"/>
<path d="M315.939 218.439C315.354 219.025 315.354 219.975 315.939 220.561C316.525 221.146 317.475 221.146 318.061 220.561L315.939 218.439ZM353.561 185.061C354.146 184.475 354.146 183.525 353.561 182.939C352.975 182.354 352.025 182.354 351.439 182.939L353.561 185.061ZM318.061 220.561L353.561 185.061L351.439 182.939L315.939 218.439L318.061 220.561Z" fill="#89B68D"/>
<circle cx="345" cy="213" r="7" stroke="#89B68D" stroke-width="3"/>
<circle cx="324" cy="191" r="7" stroke="#89B68D" stroke-width="3"/>
<defs>
<linearGradient id="paint0_linear" x1="170.134" y1="131.067" x2="297.783" y2="-140.586" gradientUnits="userSpaceOnUse">
<stop stop-color="#E7F1E8"/>
<stop offset="1" stop-color="#89B68D"/>
</linearGradient>
<linearGradient id="paint1_linear" x1="170.134" y1="131.067" x2="297.783" y2="-140.586" gradientUnits="userSpaceOnUse">
<stop stop-color="#E7F1E8"/>
<stop offset="1" stop-color="#89B68D"/>
</linearGradient>
<linearGradient id="paint2_linear" x1="170.134" y1="131.067" x2="297.783" y2="-140.586" gradientUnits="userSpaceOnUse">
<stop stop-color="#E7F1E8"/>
<stop offset="1" stop-color="#89B68D"/>
</linearGradient>
</defs>
</svg>
