<svg width="538" height="253" viewBox="0 0 538 253" fill="none" xmlns="http://www.w3.org/2000/svg">
<path fill-rule="evenodd" clip-rule="evenodd" d="M212.235 171.82C259.079 171.82 297.054 133.804 297.054 86.9098C297.054 40.0155 259.079 2 212.235 2C165.39 2 127.415 40.0155 127.415 86.9098C127.415 133.804 165.39 171.82 212.235 171.82ZM212.235 151.785C248.026 151.785 277.041 122.739 277.041 86.9098C277.041 51.0805 248.026 22.0349 212.235 22.0349C176.443 22.0349 147.428 51.0805 147.428 86.9098C147.428 122.739 176.443 151.785 212.235 151.785Z" fill="url(#paint0_linear)"/>
<path fill-rule="evenodd" clip-rule="evenodd" d="M68.9338 248.778C105.775 248.778 135.641 218.88 135.641 182C135.641 145.12 105.775 115.222 68.9338 115.222C32.0924 115.222 2.22656 145.12 2.22656 182C2.22656 218.88 32.0924 248.778 68.9338 248.778Z" fill="url(#paint1_linear)"/>
<path fill-rule="evenodd" clip-rule="evenodd" d="M440.539 245.159C493.24 245.159 535.961 202.392 535.961 149.635C535.961 96.8793 493.24 54.112 440.539 54.112C387.839 54.112 345.117 96.8793 345.117 149.635C345.117 202.392 387.839 245.159 440.539 245.159ZM440.539 222.62C480.805 222.62 513.446 189.944 513.446 149.635C513.446 109.327 480.805 76.6512 440.539 76.6512C400.274 76.6512 367.633 109.327 367.633 149.635C367.633 189.944 400.274 222.62 440.539 222.62Z" fill="url(#paint2_linear)"/>
<path d="M263.202 87.1881C263.202 115.366 240.383 138.209 212.235 138.209C184.086 138.209 161.267 115.366 161.267 87.1881C161.267 59.0098 184.086 36.1666 212.235 36.1666C240.383 36.1666 263.202 59.0098 263.202 87.1881Z" fill="url(#paint3_linear)"/>
<path fill-rule="evenodd" clip-rule="evenodd" d="M212.235 171.82C259.079 171.82 297.054 133.804 297.054 86.9098C297.054 40.0155 259.079 2 212.235 2C165.39 2 127.415 40.0155 127.415 86.9098C127.415 133.804 165.39 171.82 212.235 171.82ZM212.235 151.785C248.026 151.785 277.041 122.739 277.041 86.9098C277.041 51.0805 248.026 22.0349 212.235 22.0349C176.443 22.0349 147.428 51.0805 147.428 86.9098C147.428 122.739 176.443 151.785 212.235 151.785Z" stroke="#89B68D" stroke-width="3"/>
<path fill-rule="evenodd" clip-rule="evenodd" d="M68.9338 248.778C105.775 248.778 135.641 218.88 135.641 182C135.641 145.12 105.775 115.222 68.9338 115.222C32.0924 115.222 2.22656 145.12 2.22656 182C2.22656 218.88 32.0924 248.778 68.9338 248.778Z" stroke="#89B68D" stroke-width="3"/>
<path fill-rule="evenodd" clip-rule="evenodd" d="M440.539 245.159C493.24 245.159 535.961 202.392 535.961 149.635C535.961 96.8793 493.24 54.112 440.539 54.112C387.839 54.112 345.117 96.8793 345.117 149.635C345.117 202.392 387.839 245.159 440.539 245.159ZM440.539 222.62C480.805 222.62 513.446 189.944 513.446 149.635C513.446 109.327 480.805 76.6512 440.539 76.6512C400.274 76.6512 367.633 109.327 367.633 149.635C367.633 189.944 400.274 222.62 440.539 222.62Z" stroke="#89B68D" stroke-width="3"/>
<path d="M263.202 87.1881C263.202 115.366 240.383 138.209 212.235 138.209C184.086 138.209 161.267 115.366 161.267 87.1881C161.267 59.0098 184.086 36.1666 212.235 36.1666C240.383 36.1666 263.202 59.0098 263.202 87.1881Z" stroke="#89B68D" stroke-width="3"/>
<path d="M434.234 248C428.096 235.237 421.645 217.879 401.497 214.492C391.267 212.773 380.014 212.773 368.761 214.492C348.812 218.899 342.163 235.237 336.025 248H309.427L297.662 198.04C284.219 187.241 274.284 173.951 269.217 159.193L269.208 159.166L246 153.04V136.703V120.365L269.208 114.239C275.653 95.4406 289.997 79.0231 309.427 67.0995C320.156 54.5638 321.506 46.0995 320.68 30C333.253 34.149 338.712 39.1364 346.255 51.6932C358.444 48.5526 371.521 46.8478 385.129 46.8478C441.921 46.8478 489.474 76.5408 501.746 116.375C515.051 122.407 528.35 116.375 535 104.539C533.977 120.365 525.089 138.865 504.117 138.865C504.117 145.856 503.053 152.661 501.041 159.193C495.975 173.951 486.039 187.241 472.596 198.04L460.832 248H434.234Z" fill="url(#paint4_linear)" stroke="#89B68D" stroke-width="3" stroke-linejoin="round"/>
<circle cx="389.5" cy="133.5" r="43.5" fill="#E7F1E8" stroke="#89B68D" stroke-width="3"/>
<circle cx="389.501" cy="133.5" r="34.2447" fill="white" stroke="#89B68D" stroke-width="3"/>
<path d="M399.68 124.633C399.68 119.736 395.122 115.766 389.499 115.766M389.499 115.766C388.112 115.766 386.789 116.008 385.583 116.446C381.904 117.782 379.318 120.944 379.318 124.633C379.318 129.53 383.876 133.5 389.499 133.5C395.122 133.5 399.68 137.47 399.68 142.368C399.68 147.265 395.122 151.235 389.499 151.235M389.499 115.766V108.511M389.499 151.235C383.876 151.235 379.318 147.265 379.318 142.368M389.499 151.235V158.49" stroke="#89B68D" stroke-width="3" stroke-linecap="round"/>
<path d="M165.227 233.896C153.171 216.819 175.142 179.078 198.56 149.224C196.41 145.026 196.979 133.959 186.12 133.959C189.222 128.784 195.601 124.337 205.253 130.854C211.461 133.63 213.528 126.714 218.699 126.714C229.588 126.714 223.87 136.029 234.73 139.134C231.11 150.518 221.255 133.57 221.255 149.223C244.673 179.078 266.644 216.819 254.588 233.896C245.043 247.415 221.255 248.839 209.908 248.839C198.56 248.839 174.772 247.415 165.227 233.896Z" fill="white"/>
<path d="M198.56 149.224C175.142 179.078 153.171 216.819 165.227 233.896C174.772 247.415 198.56 248.839 209.908 248.839C221.255 248.839 245.043 247.415 254.588 233.896C266.644 216.819 244.673 179.078 221.255 149.223M198.56 149.224C196.41 145.026 196.979 133.959 186.12 133.959C189.222 128.784 195.601 124.337 205.253 130.854C211.461 133.63 213.528 126.714 218.699 126.714C229.588 126.714 223.87 136.029 234.73 139.134C231.11 150.518 221.255 133.57 221.255 149.223M198.56 149.224C202.446 153.122 209.327 154.351 214.872 152.909C216.84 152.197 219.988 150.677 221.255 149.223" stroke="#89B68D" stroke-width="3" stroke-linecap="round"/>
<path d="M48.7022 230.409C32.1397 206.876 62.3221 154.866 94.493 113.724C93.6215 104.864 89.6216 97.0545 75.9818 97.0545C79.8789 92.1516 84.1413 91.2397 90.5959 92.1518C100.113 94.4206 101.313 93.5945 108.133 85.288C118.598 72.5411 139.31 73.5216 144.181 95.0934C132.49 92.1518 125.67 102.938 125.67 113.724C157.841 154.866 188.023 206.875 171.46 230.408C158.349 249.039 125.67 251 110.081 251C94.493 251 61.8141 249.039 48.7022 230.409Z" fill="white"/>
<path d="M94.493 113.724C62.3221 154.866 32.1397 206.876 48.7022 230.409C61.8141 249.039 94.493 251 110.081 251C125.67 251 158.349 249.039 171.46 230.408C188.023 206.875 157.841 154.866 125.67 113.724M94.493 113.724C93.6215 104.864 89.6216 97.0545 75.9818 97.0545C79.8789 92.1516 84.1413 91.2397 90.5959 92.1518C100.113 94.4206 101.313 93.5945 108.133 85.288C118.598 72.5411 139.31 73.5216 144.181 95.0934C132.49 92.1518 125.67 102.938 125.67 113.724M94.493 113.724C99.8315 119.097 109.284 120.79 116.901 118.802C117.566 118.629 118.217 118.427 118.85 118.198C121.553 117.218 123.929 115.726 125.67 113.724" stroke="#89B68D" stroke-width="3" stroke-linecap="round"/>
<circle cx="109.427" cy="197.361" r="32.7068" fill="#E7F1E8" stroke="#89B68D" stroke-width="3"/>
<circle cx="109.428" cy="197.36" r="25.7479" fill="white" stroke="#89B68D" stroke-width="3"/>
<path d="M117.083 190.694C117.083 187.012 113.656 184.027 109.428 184.027M109.428 184.027C108.385 184.027 107.39 184.209 106.484 184.538C103.718 185.543 101.773 187.921 101.773 190.694C101.773 194.376 105.201 197.361 109.428 197.361C113.656 197.361 117.083 200.346 117.083 204.028C117.083 207.71 113.656 210.695 109.428 210.695M109.428 184.027V178.572M109.428 210.695C105.201 210.695 101.773 207.71 101.773 204.028M109.428 210.695V216.15" stroke="#89B68D" stroke-width="3" stroke-linecap="round"/>
<circle cx="209.14" cy="207.543" r="22.4681" fill="#E7F1E8" stroke="#89B68D" stroke-width="3"/>
<circle cx="209.141" cy="207.542" r="17.6877" fill="white" stroke="#89B68D" stroke-width="3"/>
<path d="M214.398 202.962C214.398 200.433 212.044 198.382 209.139 198.382M209.139 198.382C208.423 198.382 207.739 198.507 207.117 198.733C205.217 199.423 203.881 201.057 203.881 202.962C203.881 205.491 206.235 207.542 209.139 207.542C212.044 207.542 214.398 209.593 214.398 212.122C214.398 214.651 212.044 216.702 209.139 216.702M209.139 198.382V194.635M209.139 216.702C206.235 216.702 203.881 214.651 203.881 212.122M209.139 216.702V220.449" stroke="#89B68D" stroke-width="3" stroke-linecap="round"/>
<defs>
<linearGradient id="paint0_linear" x1="314.001" y1="363" x2="297.846" y2="-23.4935" gradientUnits="userSpaceOnUse">
<stop stop-color="#89B68D"/>
<stop offset="1" stop-color="#E7F1E8"/>
</linearGradient>
<linearGradient id="paint1_linear" x1="314.001" y1="363" x2="297.846" y2="-23.4935" gradientUnits="userSpaceOnUse">
<stop stop-color="#89B68D"/>
<stop offset="1" stop-color="#E7F1E8"/>
</linearGradient>
<linearGradient id="paint2_linear" x1="314.001" y1="363" x2="297.846" y2="-23.4935" gradientUnits="userSpaceOnUse">
<stop stop-color="#89B68D"/>
<stop offset="1" stop-color="#E7F1E8"/>
</linearGradient>
<linearGradient id="paint3_linear" x1="314.001" y1="363" x2="297.846" y2="-23.4935" gradientUnits="userSpaceOnUse">
<stop stop-color="#89B68D"/>
<stop offset="1" stop-color="#E7F1E8"/>
</linearGradient>
<linearGradient id="paint4_linear" x1="390" y1="248" x2="389.999" y2="49.5" gradientUnits="userSpaceOnUse">
<stop stop-color="#E7F1E8"/>
<stop offset="1" stop-color="white"/>
</linearGradient>
</defs>
</svg>
