<svg width="484" height="285" viewBox="0 0 484 285" fill="none" xmlns="http://www.w3.org/2000/svg">
<path fill-rule="evenodd" clip-rule="evenodd" d="M173.485 193.693H169.817C164.295 193.693 159.817 198.17 159.817 203.693V273C159.817 278.523 164.295 283 169.817 283H217.053H223.784H281.394H329.003C334.526 283 339.003 278.523 339.003 273V201.166C339.003 197.039 335.655 193.693 331.524 193.693H325.336H319.2H319.183H297.101H297.083H290.93H281.394H267.726H261.573H251.476H240.596H239.474H233.321H207.891H201.737H191.231H190.688H180.012H179.638H173.485ZM166.549 205.404C166.549 202.643 168.787 200.404 171.549 200.404H173.485H179.638H184.514H195.395H201.737H207.891H212.053C214.814 200.404 217.053 202.643 217.053 205.404V271.274C217.053 274.035 214.814 276.274 212.053 276.274H190.688H171.549C168.787 276.274 166.549 274.035 166.549 271.274V205.404ZM267.726 200.404H269.662C272.424 200.404 274.662 202.643 274.662 205.404V276.274H250.524H223.784V205.404C223.784 202.643 226.023 200.404 228.784 200.404H233.321H239.474H244.759H255.569H261.573H267.726ZM325.336 200.404H328.532C330.598 200.404 332.272 202.077 332.272 204.141V272.537C332.272 274.601 330.598 276.274 328.532 276.274H308.133H285.134C283.068 276.274 281.394 274.601 281.394 272.537V204.141C281.394 202.077 283.068 200.404 285.134 200.404H290.93H297.083H319.183H325.336Z" fill="#E7F1E8"/>
<path d="M173.111 149.226C170.106 149.226 167.671 151.661 167.671 154.664C167.671 157.668 170.48 160.102 173.485 160.102H207.891C210.895 160.102 213.331 157.668 213.331 154.664C213.331 151.661 210.895 149.226 207.891 149.226H173.111Z" fill="#E7F1E8"/>
<path d="M232.947 130.543C229.942 130.543 227.507 132.977 227.507 135.981C227.507 138.984 230.316 141.419 233.321 141.419H267.726C270.731 141.419 273.167 138.984 273.167 135.981C273.167 132.977 270.731 130.543 267.726 130.543H232.947Z" fill="#E7F1E8"/>
<path d="M290.574 141.005C287.569 141.005 285.134 143.44 285.134 146.443C285.134 149.447 287.943 151.882 290.948 151.882H325.354C328.358 151.882 330.794 149.447 330.794 146.443C330.794 143.44 328.358 141.005 325.354 141.005H290.574Z" fill="#E7F1E8"/>
<path d="M207.891 160.102C210.895 160.102 213.331 157.668 213.331 154.664C213.331 151.661 210.895 149.226 207.891 149.226H173.111C170.106 149.226 167.671 151.661 167.671 154.664C167.671 157.668 170.48 160.102 173.485 160.102M207.891 160.102H173.485M207.891 160.102V193.693M173.485 160.102V193.693M190.688 276.274C200.189 276.274 207.891 268.578 207.891 259.085V200.404M190.688 276.274C181.187 276.274 173.485 268.578 173.485 259.085V200.404M190.688 276.274H212.053C214.814 276.274 217.053 274.035 217.053 271.274V205.404C217.053 202.643 214.814 200.404 212.053 200.404H207.891M190.688 276.274H171.549C168.787 276.274 166.549 274.035 166.549 271.274V205.404C166.549 202.643 168.787 200.404 171.549 200.404H173.485M267.726 141.419C270.731 141.419 273.167 138.984 273.167 135.981C273.167 132.977 270.731 130.543 267.726 130.543H232.947C229.942 130.543 227.507 132.977 227.507 135.981C227.507 138.984 230.316 141.419 233.321 141.419M267.726 141.419H233.321M267.726 141.419V193.693M233.321 141.419V193.693M250.524 276.274C260.024 276.274 267.726 268.578 267.726 259.085V200.404M250.524 276.274C241.023 276.274 233.321 268.578 233.321 259.085V200.404M250.524 276.274H274.662M250.524 276.274H223.784M173.485 193.693H169.817C164.295 193.693 159.817 198.17 159.817 203.693V273C159.817 278.523 164.295 283 169.817 283H217.053H223.784H281.394H329.003C334.526 283 339.003 278.523 339.003 273V201.166C339.003 197.039 335.655 193.693 331.524 193.693H325.336M173.485 193.693H179.638M207.891 193.693H233.321M207.891 193.693H201.737M233.321 193.693H239.474M267.726 193.693H281.394H290.93M267.726 193.693H261.573M173.485 200.404H179.638M207.891 200.404H201.737M233.321 200.404H228.784C226.023 200.404 223.784 202.643 223.784 205.404V276.274M233.321 200.404H239.474M267.726 200.404H269.662C272.424 200.404 274.662 202.643 274.662 205.404V276.274M267.726 200.404H261.573M274.662 276.274H223.784M179.638 259.085L201.737 237.004M179.638 259.085V248.284M179.638 259.085C179.638 262.511 180.799 265.152 182.589 267.008M239.474 259.085V200.404M239.474 259.085L261.573 237.004M239.474 259.085C239.474 262.383 240.55 264.954 242.227 266.797M179.638 193.693V179.12H183.787M179.638 193.693H180.012M201.737 193.693V179.12H194.597M201.737 193.693H191.231M201.737 200.404V215.331M201.737 200.404H195.395M179.638 200.404V237.412M179.638 200.404H184.514M239.474 193.693V153.71H248.449M239.474 193.693H240.596M261.573 193.693V153.71H259.329M261.573 193.693H251.476M261.573 200.404V259.085C261.573 266.958 255.442 270.684 249.638 270.263M261.573 200.404H255.569M239.474 200.404H244.759M308.133 276.274C317.634 276.274 325.336 268.578 325.336 259.085V200.404M308.133 276.274C298.632 276.274 290.93 268.578 290.93 259.085V200.404M308.133 276.274H285.134C283.068 276.274 281.394 274.601 281.394 272.537V204.141C281.394 202.077 283.068 200.404 285.134 200.404H290.93M308.133 276.274H328.532C330.598 276.274 332.272 274.601 332.272 272.537V204.141C332.272 202.077 330.598 200.404 328.532 200.404H325.336M290.93 200.404H297.083M325.336 200.404H319.183M325.336 193.693H319.183M325.336 193.693L325.354 151.882M325.336 193.693H319.2M290.93 193.693H297.083M290.93 193.693L290.948 151.882M297.083 193.693H319.183M297.083 193.693H297.101M319.183 193.693H319.2M319.183 193.693H297.101M319.183 200.404V259.085C319.183 274.032 297.083 274.032 297.083 259.085V200.404M319.183 200.404H297.083M325.354 151.882C328.358 151.882 330.794 149.447 330.794 146.443C330.794 143.44 328.358 141.005 325.354 141.005H290.574C287.569 141.005 285.134 143.44 285.134 146.443C285.134 149.447 287.943 151.882 290.948 151.882M325.354 151.882H290.948M297.101 193.693V167.91H302.71M319.2 193.693V167.91H313.521M201.737 237.004V259.085C200.955 270.295 188.608 273.247 182.589 267.008M201.737 237.004V226.202M201.737 226.202L179.638 248.284M201.737 226.202V215.331M179.638 248.284V237.412M179.638 237.412L201.737 215.331M179.638 226.949L201.737 204.868M179.638 216.148L195.395 200.404M179.638 205.277L184.514 200.404M201.737 183.195L191.231 193.693M201.737 258.677L190.109 270.295M201.737 247.875L182.589 267.008M179.638 183.265L183.787 179.12M183.787 179.12H194.597M194.597 179.12L180.012 193.693M184.514 200.404H195.395M191.231 193.693H190.688H180.012M261.573 226.202L239.474 248.284M239.474 237.412L261.573 215.331M239.474 226.949L261.573 204.868M239.474 216.487L255.569 200.404M261.573 183.604L251.476 193.693M239.474 205.685L244.759 200.404M261.573 172.732L240.596 193.693M239.474 184.351L261.573 162.27M239.474 173.55L259.329 153.71M239.474 162.678L248.449 153.71M261.573 258.338L249.638 270.263M261.573 247.466L242.227 266.797M248.449 153.71H259.329M242.227 266.797C244.147 268.906 246.855 270.061 249.638 270.263M240.596 193.693H251.476M244.759 200.404H255.569M297.066 259.085L319.165 237.004M319.165 226.202L297.066 248.284M297.066 237.412L319.165 215.331M297.066 226.949L319.165 204.868M299.819 266.797L319.165 247.466M319.165 258.338L307.23 270.263M297.066 216.487L313.161 200.404M302.351 200.404L297.066 205.685M297.066 184.351L313.521 167.91M297.066 173.55L302.71 167.91M298.188 193.693L319.165 172.732M319.165 183.604L309.068 193.693M302.71 167.91H313.521" stroke="#82B97E" stroke-width="3"/>
<path d="M207.891 160.102H173.485V193.693H179.638V183.265V179.12H183.787H194.597H201.737V183.195V193.693H207.891V160.102Z" fill="white"/>
<path d="M267.726 141.419H233.321V193.693H239.474V184.351V173.55V162.678V153.71H248.449H259.329H261.573V162.27V172.732V183.604V193.693H267.726V141.419Z" fill="white"/>
<path d="M290.93 193.693H297.083H297.101V184.316V173.515V167.91H302.71H313.521H319.2V193.693H325.336L325.354 151.882H290.948L290.93 193.693Z" fill="white"/>
<path d="M190.688 276.274C200.189 276.274 207.891 268.578 207.891 259.085V200.404H201.737V204.868V215.331V226.202V237.004V247.875V258.677V259.085C201.22 266.5 195.643 270.301 190.184 270.22C187.39 270.179 184.627 269.12 182.589 267.008C180.799 265.152 179.638 262.511 179.638 259.085V248.284V237.412V226.949V216.148V205.277V200.404H173.485V259.085C173.485 268.578 181.187 276.274 190.688 276.274Z" fill="white"/>
<path d="M250.524 276.274C260.024 276.274 267.726 268.578 267.726 259.085V200.404H261.573V204.868V215.331V226.202V237.004V247.466V258.338V259.085C261.573 266.958 255.442 270.684 249.638 270.263C246.855 270.061 244.147 268.906 242.227 266.797C240.55 264.954 239.474 262.383 239.474 259.085V248.284V237.412V226.949V216.487V205.685V200.404H233.321V259.085C233.321 268.578 241.023 276.274 250.524 276.274Z" fill="white"/>
<path d="M308.133 276.274C317.634 276.274 325.336 268.578 325.336 259.085V200.404H319.183V259.085C319.183 266.965 313.04 270.691 307.231 270.262C304.45 270.056 301.745 268.898 299.829 266.787C298.156 264.945 297.083 262.378 297.083 259.085V259.068V248.266V237.395V226.932V216.469V205.668V200.404H290.93V259.085C290.93 268.578 298.632 276.274 308.133 276.274Z" fill="white"/>
<path d="M207.891 160.102C210.895 160.102 213.331 157.668 213.331 154.664C213.331 151.661 210.895 149.226 207.891 149.226H173.111C170.106 149.226 167.671 151.661 167.671 154.664C167.671 157.668 170.48 160.102 173.485 160.102M207.891 160.102H173.485M207.891 160.102V193.693M173.485 160.102V193.693M190.688 276.274C200.189 276.274 207.891 268.578 207.891 259.085V200.404M190.688 276.274C181.187 276.274 173.485 268.578 173.485 259.085V200.404M190.688 276.274H212.053C214.814 276.274 217.053 274.035 217.053 271.274V205.404C217.053 202.643 214.814 200.404 212.053 200.404H207.891M190.688 276.274H171.549C168.787 276.274 166.549 274.035 166.549 271.274V205.404C166.549 202.643 168.787 200.404 171.549 200.404H173.485M267.726 141.419C270.731 141.419 273.167 138.984 273.167 135.981C273.167 132.977 270.731 130.543 267.726 130.543H232.947C229.942 130.543 227.507 132.977 227.507 135.981C227.507 138.984 230.316 141.419 233.321 141.419M267.726 141.419H233.321M267.726 141.419V193.693M233.321 141.419V193.693M250.524 276.274C260.024 276.274 267.726 268.578 267.726 259.085V200.404M250.524 276.274C241.023 276.274 233.321 268.578 233.321 259.085V200.404M250.524 276.274H274.662M250.524 276.274H223.784M173.485 193.693H169.817C164.295 193.693 159.817 198.17 159.817 203.693V273C159.817 278.523 164.295 283 169.817 283H217.053H223.784H281.394H329.003C334.526 283 339.003 278.523 339.003 273V201.166C339.003 197.039 335.655 193.693 331.524 193.693H325.336M173.485 193.693H179.638M207.891 193.693H233.321M207.891 193.693H201.737M233.321 193.693H239.474M267.726 193.693H281.394H290.93M267.726 193.693H261.573M173.485 200.404H179.638M207.891 200.404H201.737M233.321 200.404H228.784C226.023 200.404 223.784 202.643 223.784 205.404V276.274M233.321 200.404H239.474M267.726 200.404H269.662C272.424 200.404 274.662 202.643 274.662 205.404V276.274M267.726 200.404H261.573M274.662 276.274H223.784M201.737 259.085V237.004M201.737 259.085V258.677M201.737 259.085C201.22 266.5 195.643 270.301 190.184 270.22M201.737 179.12V193.693M201.737 179.12H194.597M201.737 179.12V183.195M179.638 179.12V193.693M179.638 179.12H183.787M179.638 179.12V183.265M179.638 259.085L201.737 237.004M179.638 259.085V248.284M179.638 259.085C179.638 262.511 180.799 265.152 182.589 267.008M261.573 259.085V200.404M261.573 259.085C261.573 266.958 255.442 270.684 249.638 270.263M261.573 259.085V258.338M261.573 153.71V193.693M261.573 153.71H259.329M261.573 153.71V162.27M239.474 153.71V193.693M239.474 153.71H248.449M239.474 153.71V162.678M239.474 259.085V200.404M239.474 259.085L261.573 237.004M239.474 259.085C239.474 262.383 240.55 264.954 242.227 266.797M239.474 259.085V248.284M179.638 193.693H180.012M179.638 193.693V183.265M201.737 193.693H191.231M201.737 193.693V183.195M201.737 200.404V215.331M201.737 200.404H195.395M201.737 200.404V204.868M179.638 200.404V237.412M179.638 200.404H184.514M179.638 200.404V205.277M239.474 193.693H240.596M239.474 193.693V184.351M261.573 193.693H251.476M261.573 193.693V183.604M261.573 200.404H255.569M261.573 200.404V204.868M239.474 200.404H244.759M239.474 200.404V205.685M308.133 276.274C317.634 276.274 325.336 268.578 325.336 259.085V200.404M308.133 276.274C298.632 276.274 290.93 268.578 290.93 259.085V200.404M308.133 276.274H285.134C283.068 276.274 281.394 274.601 281.394 272.537V204.141C281.394 202.077 283.068 200.404 285.134 200.404H290.93M308.133 276.274H328.532C330.598 276.274 332.272 274.601 332.272 272.537V204.141C332.272 202.077 330.598 200.404 328.532 200.404H325.336M290.93 200.404H297.083M325.336 200.404H319.183M325.336 193.693H319.183M325.336 193.693L325.354 151.882M325.336 193.693H319.2M290.93 193.693H297.083M290.93 193.693L290.948 151.882M297.083 193.693H319.183M297.083 193.693H297.101M319.183 193.693H319.2M319.183 193.693H297.101M319.183 200.404V259.085C319.183 266.965 313.04 270.691 307.231 270.262M319.183 200.404H297.083M297.083 200.404V205.668M325.354 151.882C328.358 151.882 330.794 149.447 330.794 146.443C330.794 143.44 328.358 141.005 325.354 141.005H290.574C287.569 141.005 285.134 143.44 285.134 146.443C285.134 149.447 287.943 151.882 290.948 151.882M325.354 151.882H290.948M297.101 193.693V184.316M319.2 193.693V167.91H313.521M201.737 237.004V226.202M201.737 237.004V247.875M201.737 226.202L179.638 248.284M201.737 226.202V215.331M179.638 248.284V237.412M179.638 237.412L201.737 215.331M179.638 237.412V226.949M201.737 215.331V204.868M179.638 226.949L201.737 204.868M179.638 226.949V216.148M179.638 216.148L195.395 200.404M179.638 216.148V205.277M179.638 205.277L184.514 200.404M201.737 183.195L191.231 193.693M201.737 258.677V247.875M201.737 258.677L190.184 270.22M201.737 247.875L182.589 267.008M179.638 183.265L183.787 179.12M182.589 267.008C184.627 269.12 187.39 270.179 190.184 270.22M190.109 270.295L190.184 270.22M183.787 179.12H194.597M194.597 179.12L180.012 193.693M184.514 200.404H195.395M191.231 193.693H190.688H180.012M261.573 237.004V226.202M261.573 237.004V247.466M261.573 226.202L239.474 248.284M261.573 226.202V215.331M239.474 248.284V237.412M239.474 237.412L261.573 215.331M239.474 237.412V226.949M261.573 215.331V204.868M239.474 226.949L261.573 204.868M239.474 226.949V216.487M239.474 216.487L255.569 200.404M239.474 216.487V205.685M261.573 183.604L251.476 193.693M261.573 183.604V172.732M239.474 205.685L244.759 200.404M261.573 172.732L240.596 193.693M261.573 172.732V162.27M239.474 184.351L261.573 162.27M239.474 184.351V173.55M239.474 173.55L259.329 153.71M239.474 173.55V162.678M239.474 162.678L248.449 153.71M261.573 258.338L249.638 270.263M261.573 258.338V247.466M261.573 247.466L242.227 266.797M248.449 153.71H259.329M242.227 266.797C244.147 268.906 246.855 270.061 249.638 270.263M240.596 193.693H251.476M244.759 200.404H255.569M297.066 259.085L297.083 259.068M319.165 237.004L297.083 259.068M319.165 226.202L297.083 248.266M297.066 248.284L297.083 248.266M297.066 237.412L297.083 237.395M319.165 215.331L297.083 237.395M297.066 226.949L297.083 226.932M319.165 204.868L297.083 226.932M299.819 266.797L299.829 266.787M319.165 247.466L299.829 266.787M319.165 258.338L307.231 270.262M307.23 270.263L307.231 270.262M297.066 216.487L297.083 216.469M313.161 200.404L297.083 216.469M302.351 200.404L297.083 205.668M297.066 205.685L297.083 205.668M297.066 184.351L297.101 184.316M297.066 173.55L297.101 173.515M298.188 193.693L319.165 172.732M319.165 183.604L309.068 193.693M302.71 167.91H297.101V173.515M302.71 167.91H313.521M302.71 167.91L297.101 173.515M313.521 167.91L297.101 184.316M297.101 184.316V173.515M307.231 270.262C304.45 270.056 301.745 268.898 299.829 266.787M299.829 266.787C298.156 264.945 297.083 262.378 297.083 259.085V259.068M297.083 259.068V248.266M297.083 248.266V237.395M297.083 237.395V226.932M297.083 226.932V216.469M297.083 216.469V205.668" stroke="#82B97E" stroke-width="3"/>
<path fill-rule="evenodd" clip-rule="evenodd" d="M92.4704 175.443C91.9671 174.402 91.7056 173.262 91.7056 172.107V119.671H75.1168C64.8277 202.661 52.1125 255.348 19.0821 258.059L13.5761 269.437C12.3432 271.985 14.2045 274.942 17.041 274.942H134.489C137.326 274.942 139.187 271.985 137.954 269.437L92.4704 175.443ZM65.5756 247.875C69.2933 247.875 72.3072 244.864 72.3072 241.149C72.3072 237.434 69.2933 234.423 65.5756 234.423C61.8579 234.423 58.8441 237.434 58.8441 241.149C58.8441 244.864 61.8579 247.875 65.5756 247.875ZM51.3646 254.601C53.0169 254.601 54.3564 253.263 54.3564 251.612C54.3564 249.961 53.0169 248.622 51.3646 248.622C49.7123 248.622 48.3728 249.961 48.3728 251.612C48.3728 253.263 49.7123 254.601 51.3646 254.601ZM66.3236 226.949C68.802 226.949 70.8113 224.942 70.8113 222.465C70.8113 219.989 68.802 217.981 66.3236 217.981C63.8451 217.981 61.8359 219.989 61.8359 222.465C61.8359 224.942 63.8451 226.949 66.3236 226.949Z" fill="#E7F1E8"/>
<path fill-rule="evenodd" clip-rule="evenodd" d="M249.212 76.9226C257.364 103.245 285.367 117.993 311.76 109.863C338.152 101.733 352.939 73.8034 344.787 47.4809C311.76 28.0477 257.05 53.8522 151.251 34.4377L149.89 40.3953L149.714 41.1635C152.215 41.3826 154.808 41.7777 157.494 42.3601L246.974 62.6945C247.023 67.4062 247.747 72.1904 249.212 76.9226ZM329.601 79.7234C333.732 79.7234 337.081 76.3774 337.081 72.25C337.081 68.1226 333.732 64.7766 329.601 64.7766C325.471 64.7766 322.122 68.1226 322.122 72.25C322.122 76.3774 325.471 79.7234 329.601 79.7234ZM319.13 96.1649C322.022 96.1649 324.366 93.8227 324.366 90.9335C324.366 88.0443 322.022 85.7021 319.13 85.7021C316.239 85.7021 313.894 88.0443 313.894 90.9335C313.894 93.8227 316.239 96.1649 319.13 96.1649ZM307.911 79.7234C309.976 79.7234 311.651 78.0504 311.651 75.9867C311.651 73.923 309.976 72.25 307.911 72.25C305.845 72.25 304.171 73.923 304.171 75.9867C304.171 78.0504 305.845 79.7234 307.911 79.7234Z" fill="#E7F1E8"/>
<path d="M138.207 41.4447L139.996 33.3883C99.204 31.5199 82.9668 69.7961 76.5178 108.794H92.8278C95.1147 76.6807 109.427 45.6739 138.207 41.4447Z" fill="#E7F1E8"/>
<path d="M156.894 9.73643L157.108 8.80112C157.324 7.8536 157.284 6.90748 157.033 6.03503M156.894 9.73643L246.282 30.05C246.413 30.0798 246.549 30.0241 246.621 29.9111C247.023 29.2811 247.437 28.6599 247.862 28.0477C261.405 8.5218 285.948 -1.86484 310.578 3.73235C342.897 11.0768 363.126 43.1608 355.762 75.394C348.399 107.627 316.229 127.804 283.911 120.459C258.48 114.68 240.535 93.5832 237.628 69.1491C237.618 69.0648 237.556 68.9959 237.473 68.9771L148.005 48.6453M156.894 9.73643L151.918 31.5199M148.005 48.6453L149.714 41.1635M148.005 48.6453L147.898 49.113M100.694 119.671H101.632C104.637 119.671 107.072 117.236 107.072 114.232C107.072 112.632 106.38 111.192 105.279 110.197M100.694 119.671V170.145C100.694 171.3 100.956 172.44 101.459 173.481L149.089 271.91C151.555 277.006 147.832 282.92 142.159 282.92L75.9317 283H9.70416C4.03111 283 0.308604 277.086 2.77438 271.99L50.4044 173.561C50.9078 172.52 51.1692 171.38 51.1692 170.225V119.671M100.694 119.671H91.7056M51.1692 119.671H50.2312C48.4483 119.671 46.8658 118.813 45.8735 117.489M51.1692 119.671L62.0544 108.794M51.1692 119.671H58.4009M151.251 34.4377C257.05 53.8522 311.76 28.0477 344.787 47.481C352.939 73.8034 338.152 101.733 311.76 109.863C285.367 117.993 257.364 103.245 249.212 76.9226C247.747 72.1904 247.023 67.4062 246.974 62.6945L157.494 42.3601C154.808 41.7777 152.215 41.3826 149.714 41.1635M151.251 34.4377L149.89 40.3953M151.251 34.4377L151.918 31.5199M139.996 33.3883L138.207 41.4447M139.996 33.3883C99.204 31.5199 82.9668 69.7961 76.5178 108.794M139.996 33.3883L145.112 11.2206M149.714 41.1635L149.89 40.3953M138.207 41.4447C109.427 45.6739 95.1147 76.6807 92.8278 108.794M138.207 41.4447L137.09 46.3358M92.8278 108.794H101.632C103.035 108.794 104.314 109.325 105.279 110.197M92.8278 108.794H76.5178M76.5178 108.794H69.2861M91.7056 119.671V172.107C91.7056 173.262 91.9671 174.402 92.4704 175.443L137.954 269.437C139.187 271.985 137.326 274.942 134.489 274.942H17.041C14.2045 274.942 12.3432 271.985 13.5761 269.437L19.0821 258.059C52.1125 255.348 64.8277 202.661 75.1168 119.671M91.7056 119.671H75.1168M75.1168 119.671H58.4009M62.0544 108.794H50.2312C47.2267 108.794 44.791 111.229 44.791 114.232C44.791 115.454 45.1937 116.581 45.8735 117.489M62.0544 108.794H69.2861M69.2861 108.794C65.0351 113.042 62.6518 115.423 58.4009 119.671M76.7655 108.794L65.8804 119.671M84.245 108.794L73.3599 119.671M91.7245 108.794L80.8393 119.671M99.204 108.794L88.3188 119.671M95.7983 119.671L105.279 110.197M54.5749 108.794L45.8735 117.489M138.207 52.0687C138.95 52.8929 139.947 53.5044 141.113 53.7694C141.803 53.9262 142.493 53.948 143.154 53.8522M138.207 52.0687C137.036 50.7695 136.494 48.9416 136.913 47.1085L137.09 46.3358M138.207 52.0687L149.89 40.3953M151.918 31.5199L137.09 46.3358M153.966 22.5519L139.139 37.3677M155.941 13.9092L141.113 28.7251M143.121 19.9362L157.033 6.03503M147.898 49.113L143.154 53.8522M147.898 49.113L147.792 49.5806C147.264 51.8883 145.369 53.5311 143.154 53.8522M145.112 11.2206L146.23 6.329C146.914 3.33296 149.904 1.4576 152.908 2.14026C153.248 2.21752 153.574 2.32422 153.883 2.45707M145.112 11.2206L153.883 2.45707M153.883 2.45707C155.441 3.12684 156.581 4.46102 157.033 6.03503M337.081 72.25C337.081 76.3774 333.732 79.7234 329.601 79.7234C325.471 79.7234 322.122 76.3774 322.122 72.25C322.122 68.1226 325.471 64.7766 329.601 64.7766C333.732 64.7766 337.081 68.1226 337.081 72.25ZM324.366 90.9335C324.366 93.8227 322.022 96.1649 319.13 96.1649C316.239 96.1649 313.894 93.8227 313.894 90.9335C313.894 88.0443 316.239 85.7021 319.13 85.7021C322.022 85.7021 324.366 88.0443 324.366 90.9335ZM311.651 75.9867C311.651 78.0504 309.976 79.7234 307.911 79.7234C305.845 79.7234 304.171 78.0504 304.171 75.9867C304.171 73.923 305.845 72.25 307.911 72.25C309.976 72.25 311.651 73.923 311.651 75.9867ZM72.3072 241.149C72.3072 244.864 69.2933 247.875 65.5756 247.875C61.8579 247.875 58.8441 244.864 58.8441 241.149C58.8441 237.434 61.8579 234.423 65.5756 234.423C69.2933 234.423 72.3072 237.434 72.3072 241.149ZM54.3564 251.612C54.3564 253.263 53.0169 254.601 51.3646 254.601C49.7123 254.601 48.3728 253.263 48.3728 251.612C48.3728 249.961 49.7123 248.622 51.3646 248.622C53.0169 248.622 54.3564 249.961 54.3564 251.612ZM70.8113 222.465C70.8113 224.942 68.802 226.949 66.3236 226.949C63.8451 226.949 61.8359 224.942 61.8359 222.465C61.8359 219.989 63.8451 217.981 66.3236 217.981C68.802 217.981 70.8113 219.989 70.8113 222.465Z" stroke="#82B97E" stroke-width="3"/>
<path d="M100.694 170.145V119.671L95.7983 119.671L91.7056 119.671V172.107C91.7056 173.262 91.9671 174.402 92.4704 175.443L137.954 269.437C139.187 271.985 137.326 274.942 134.489 274.942H17.041C14.2045 274.942 12.3432 271.985 13.5761 269.437L19.0821 258.059C52.1125 255.348 64.8277 202.661 75.1168 119.671L73.3599 119.671H65.8804L58.4009 119.671H51.1692V170.225C51.1692 171.38 50.9078 172.52 50.4044 173.561L2.77438 271.99C0.308604 277.086 4.03111 283 9.70416 283H75.9317L142.159 282.92C147.832 282.92 151.555 277.006 149.089 271.91L101.459 173.481C100.956 172.44 100.694 171.3 100.694 170.145Z" fill="white"/>
<path d="M283.911 120.459C316.229 127.804 348.399 107.627 355.762 75.394C363.126 43.1608 342.897 11.0768 310.578 3.73235C285.948 -1.86484 261.405 8.5218 247.862 28.0477C247.437 28.6599 247.023 29.2811 246.621 29.9111C246.549 30.0241 246.413 30.0798 246.282 30.05L156.894 9.73643L155.941 13.9092L153.966 22.5519L151.918 31.5199L151.251 34.4377C257.05 53.8522 311.76 28.0477 344.787 47.4809C352.939 73.8034 338.152 101.733 311.76 109.863C285.367 117.993 257.364 103.245 249.212 76.9226C247.747 72.1904 247.023 67.4062 246.974 62.6945L157.494 42.3601C154.808 41.7777 152.215 41.3826 149.714 41.1635L148.005 48.6453L237.473 68.9771C237.556 68.9959 237.618 69.0648 237.628 69.1491C240.535 93.5832 258.48 114.68 283.911 120.459Z" fill="white"/>
<path d="M156.894 9.73643L157.108 8.80112C157.324 7.8536 157.284 6.90748 157.033 6.03503M156.894 9.73643L246.282 30.05C246.413 30.0798 246.549 30.0241 246.621 29.9111C247.023 29.2811 247.437 28.6599 247.862 28.0477C261.405 8.5218 285.948 -1.86484 310.578 3.73235C342.897 11.0768 363.126 43.1608 355.762 75.394C348.399 107.627 316.229 127.804 283.911 120.459C258.48 114.68 240.535 93.5832 237.628 69.1491C237.618 69.0648 237.556 68.9959 237.473 68.9771L148.005 48.6453M156.894 9.73643L151.918 31.5199M156.894 9.73643L155.941 13.9092M148.005 48.6453L149.714 41.1635M148.005 48.6453L147.898 49.113M100.694 119.671H101.632C104.637 119.671 107.072 117.236 107.072 114.232C107.072 112.632 106.38 111.192 105.279 110.197M100.694 119.671V170.145C100.694 171.3 100.956 172.44 101.459 173.481L149.089 271.91C151.555 277.006 147.832 282.92 142.159 282.92L75.9317 283H9.70416C4.03111 283 0.308604 277.086 2.77438 271.99L50.4044 173.561C50.9078 172.52 51.1692 171.38 51.1692 170.225V119.671M100.694 119.671H91.7056M100.694 119.671L95.7983 119.671M51.1692 119.671H50.2312C48.4483 119.671 46.8658 118.813 45.8735 117.489M51.1692 119.671L62.0544 108.794M51.1692 119.671H58.4009M151.251 34.4377C257.05 53.8522 311.76 28.0477 344.787 47.481C352.939 73.8034 338.152 101.733 311.76 109.863C285.367 117.993 257.364 103.245 249.212 76.9226C247.747 72.1904 247.023 67.4062 246.974 62.6945L157.494 42.3601C154.808 41.7777 152.215 41.3826 149.714 41.1635M151.251 34.4377L149.89 40.3953M151.251 34.4377L151.918 31.5199M139.996 33.3883L138.207 41.4447M139.996 33.3883C99.204 31.5199 82.9668 69.7961 76.5178 108.794M139.996 33.3883L145.112 11.2206M149.714 41.1635L149.89 40.3953M138.207 41.4447C109.427 45.6739 95.1147 76.6807 92.8278 108.794M138.207 41.4447L137.09 46.3358M92.8278 108.794H101.632C103.035 108.794 104.314 109.325 105.279 110.197M92.8278 108.794H76.5178M76.5178 108.794H69.2861M91.7056 119.671V172.107C91.7056 173.262 91.9671 174.402 92.4704 175.443L137.954 269.437C139.187 271.985 137.326 274.942 134.489 274.942H17.041C14.2045 274.942 12.3432 271.985 13.5761 269.437L19.0821 258.059C52.1125 255.348 64.8277 202.661 75.1168 119.671M91.7056 119.671H75.1168M91.7056 119.671L95.7983 119.671M75.1168 119.671H58.4009M75.1168 119.671L73.3599 119.671M62.0544 108.794H50.2312C47.2267 108.794 44.791 111.229 44.791 114.232C44.791 115.454 45.1937 116.581 45.8735 117.489M62.0544 108.794H69.2861M69.2861 108.794C65.0351 113.042 62.6518 115.423 58.4009 119.671M58.4009 119.671L65.8804 119.671M76.7655 108.794L65.8804 119.671M65.8804 119.671H73.3599M84.245 108.794L73.3599 119.671M91.7245 108.794L80.8393 119.671M99.204 108.794L88.3188 119.671M95.7983 119.671L105.279 110.197M54.5749 108.794L45.8735 117.489M138.207 52.0687C138.95 52.8929 139.947 53.5044 141.113 53.7694C141.803 53.9262 142.493 53.948 143.154 53.8522M138.207 52.0687C137.036 50.7695 136.494 48.9416 136.913 47.1085L137.09 46.3358M138.207 52.0687L149.89 40.3953M151.918 31.5199L137.09 46.3358M151.918 31.5199L153.966 22.5519M153.966 22.5519L139.139 37.3677M153.966 22.5519L155.941 13.9092M155.941 13.9092L141.113 28.7251M143.121 19.9362L157.033 6.03503M147.898 49.113L143.154 53.8522M147.898 49.113L147.792 49.5806C147.264 51.8883 145.369 53.5311 143.154 53.8522M145.112 11.2206L146.23 6.329C146.914 3.33296 149.904 1.4576 152.908 2.14026C153.248 2.21752 153.574 2.32422 153.883 2.45707M145.112 11.2206L153.883 2.45707M153.883 2.45707C155.441 3.12684 156.581 4.46102 157.033 6.03503M337.081 72.25C337.081 76.3774 333.732 79.7234 329.601 79.7234C325.471 79.7234 322.122 76.3774 322.122 72.25C322.122 68.1226 325.471 64.7766 329.601 64.7766C333.732 64.7766 337.081 68.1226 337.081 72.25ZM324.366 90.9335C324.366 93.8227 322.022 96.1649 319.13 96.1649C316.239 96.1649 313.894 93.8227 313.894 90.9335C313.894 88.0443 316.239 85.7021 319.13 85.7021C322.022 85.7021 324.366 88.0443 324.366 90.9335ZM311.651 75.9867C311.651 78.0504 309.976 79.7234 307.911 79.7234C305.845 79.7234 304.171 78.0504 304.171 75.9867C304.171 73.923 305.845 72.25 307.911 72.25C309.976 72.25 311.651 73.923 311.651 75.9867ZM72.3072 241.149C72.3072 244.864 69.2933 247.875 65.5756 247.875C61.8579 247.875 58.8441 244.864 58.8441 241.149C58.8441 237.434 61.8579 234.423 65.5756 234.423C69.2933 234.423 72.3072 237.434 72.3072 241.149ZM54.3564 251.612C54.3564 253.263 53.0169 254.601 51.3646 254.601C49.7123 254.601 48.3728 253.263 48.3728 251.612C48.3728 249.961 49.7123 248.622 51.3646 248.622C53.0169 248.622 54.3564 249.961 54.3564 251.612ZM70.8113 222.465C70.8113 224.942 68.802 226.949 66.3236 226.949C63.8451 226.949 61.8359 224.942 61.8359 222.465C61.8359 219.989 63.8451 217.981 66.3236 217.981C68.802 217.981 70.8113 219.989 70.8113 222.465Z" stroke="#82B97E" stroke-width="3"/>
<path fill-rule="evenodd" clip-rule="evenodd" d="M362.878 274.501H468.152C470.605 274.501 472.393 272.181 471.768 269.811L453.842 201.914C414.494 216.113 412.25 185.846 379.428 193.426L377.187 201.914L374.947 210.401L372.706 218.888L368.225 235.862L359.262 269.811C358.636 272.181 360.425 274.501 362.878 274.501ZM426.835 243.391C421.878 243.391 417.86 239.376 417.86 234.423C417.86 229.47 421.878 225.455 426.835 225.455C431.792 225.455 435.81 229.47 435.81 234.423C435.81 239.376 431.792 243.391 426.835 243.391ZM440.298 223.213C437.82 223.213 435.81 221.205 435.81 218.729C435.81 216.252 437.82 214.245 440.298 214.245C442.776 214.245 444.786 216.252 444.786 218.729C444.786 221.205 442.776 223.213 440.298 223.213Z" fill="#E7F1E8"/>
<path d="M434.11 46.5066V93.1755L481.749 273.62C483 278.36 479.423 283 474.517 283H356.513C351.607 283 348.029 278.36 349.281 273.62L396.92 93.1755V46.5066M434.11 46.5066H396.92M434.11 46.5066C437.043 46.5066 439.433 44.1866 439.546 41.2823M396.92 46.5066L407.805 35.6303M396.92 46.5066C394.894 46.5066 393.127 45.4 392.191 43.7585M407.805 35.6303H434.11C435.144 35.6303 436.11 35.9186 436.933 36.4192M407.805 35.6303H396.92C393.915 35.6303 391.48 38.0651 391.48 41.0685C391.48 42.047 391.738 42.9652 392.191 43.7585M404.399 46.5066L415.284 35.6303M411.879 46.5066L422.764 35.6303M419.358 46.5066L430.243 35.6303M426.838 46.5066L436.933 36.4192M434.317 46.5066L439.546 41.2823M400.325 35.6303L392.191 43.7585M436.933 36.4192C438.502 37.3733 439.55 39.0986 439.55 41.0685C439.55 41.1401 439.549 41.2113 439.546 41.2823M377.187 201.914L374.947 210.401L372.706 218.888L368.225 235.862L359.262 269.811C358.636 272.181 360.425 274.501 362.878 274.501H468.152C470.605 274.501 472.393 272.181 471.768 269.811L453.842 201.914C414.494 216.113 412.25 185.846 379.428 193.426L377.187 201.914ZM417.86 234.423C417.86 239.376 421.878 243.391 426.835 243.391C431.792 243.391 435.81 239.376 435.81 234.423C435.81 229.47 431.792 225.455 426.835 225.455C421.878 225.455 417.86 229.47 417.86 234.423ZM435.81 218.729C435.81 221.205 437.82 223.213 440.298 223.213C442.776 223.213 444.786 221.205 444.786 218.729C444.786 216.252 442.776 214.245 440.298 214.245C437.82 214.245 435.81 216.252 435.81 218.729Z" stroke="#82B97E" stroke-width="3"/>
<path fill-rule="evenodd" clip-rule="evenodd" d="M481.749 273.62L434.11 93.1755V46.5066H426.838H419.358H411.879H404.399H396.92V93.1755L349.281 273.62C348.029 278.36 351.607 283 356.513 283H474.517C479.423 283 483 278.36 481.749 273.62ZM468.152 274.501H362.878C360.425 274.501 358.636 272.181 359.262 269.811L368.225 235.862L372.706 218.888L374.947 210.401L377.187 201.914L379.428 193.426C412.25 185.846 414.494 216.113 453.842 201.914L471.768 269.811C472.393 272.181 470.605 274.501 468.152 274.501Z" fill="white"/>
<path d="M434.11 46.5066V93.1755L481.749 273.62C483 278.36 479.423 283 474.517 283H356.513C351.607 283 348.029 278.36 349.281 273.62L396.92 93.1755V46.5066M434.11 46.5066H396.92M434.11 46.5066C437.043 46.5066 439.433 44.1866 439.546 41.2823M434.11 46.5066H426.838M396.92 46.5066L407.805 35.6303M396.92 46.5066C394.894 46.5066 393.127 45.4 392.191 43.7585M396.92 46.5066H404.399M407.805 35.6303H434.11C435.144 35.6303 436.11 35.9186 436.933 36.4192M407.805 35.6303H396.92C393.915 35.6303 391.48 38.0651 391.48 41.0685C391.48 42.047 391.738 42.9652 392.191 43.7585M404.399 46.5066L415.284 35.6303M404.399 46.5066H411.879M411.879 46.5066L422.764 35.6303M411.879 46.5066H419.358M419.358 46.5066L430.243 35.6303M419.358 46.5066H426.838M426.838 46.5066L436.933 36.4192M434.317 46.5066L439.546 41.2823M400.325 35.6303L392.191 43.7585M436.933 36.4192C438.502 37.3733 439.55 39.0986 439.55 41.0685C439.55 41.1401 439.549 41.2113 439.546 41.2823M377.187 201.914L374.947 210.401L372.706 218.888L368.225 235.862L359.262 269.811C358.636 272.181 360.425 274.501 362.878 274.501H468.152C470.605 274.501 472.393 272.181 471.768 269.811L453.842 201.914C414.494 216.113 412.25 185.846 379.428 193.426L377.187 201.914ZM417.86 234.423C417.86 239.376 421.878 243.391 426.835 243.391C431.792 243.391 435.81 239.376 435.81 234.423C435.81 229.47 431.792 225.455 426.835 225.455C421.878 225.455 417.86 229.47 417.86 234.423ZM435.81 218.729C435.81 221.205 437.82 223.213 440.298 223.213C442.776 223.213 444.786 221.205 444.786 218.729C444.786 216.252 442.776 214.245 440.298 214.245C437.82 214.245 435.81 216.252 435.81 218.729Z" stroke="#82B97E" stroke-width="3"/>
</svg>
