<svg width="523" height="394" viewBox="0 0 523 394" fill="none" xmlns="http://www.w3.org/2000/svg">
<path d="M182.765 103.105C182.765 129.609 161.281 151.095 134.778 151.095C108.276 151.095 86.7917 129.609 86.7917 103.105C86.7917 76.6007 108.276 55.115 134.778 55.115C161.281 55.115 182.765 76.6007 182.765 103.105Z" fill="url(#paint0_linear)"/>
<path fill-rule="evenodd" clip-rule="evenodd" d="M134.778 204.21C190.613 204.21 235.876 158.943 235.876 103.105C235.876 47.2662 190.613 2 134.778 2C78.9435 2 33.6804 47.2662 33.6804 103.105C33.6804 158.943 78.9435 204.21 134.778 204.21ZM134.778 174.391C174.146 174.391 206.059 142.475 206.059 103.105C206.059 63.7347 174.146 31.8189 134.778 31.8189C95.4109 31.8189 63.4973 63.7347 63.4973 103.105C63.4973 142.475 95.4109 174.391 134.778 174.391ZM182.765 103.105C182.765 129.609 161.281 151.095 134.778 151.095C108.276 151.095 86.7917 129.609 86.7917 103.105C86.7917 76.6007 108.276 55.115 134.778 55.115C161.281 55.115 182.765 76.6007 182.765 103.105Z" fill="url(#paint1_linear)"/>
<path fill-rule="evenodd" clip-rule="evenodd" d="M388.222 377.532C461.553 377.532 521 318.081 521 244.745C521 171.408 461.553 111.957 388.222 111.957C314.89 111.957 255.443 171.408 255.443 244.745C255.443 318.081 314.89 377.532 388.222 377.532ZM388.222 346.781C444.571 346.781 490.251 301.098 490.251 244.745C490.251 188.391 444.571 142.708 388.222 142.708C331.872 142.708 286.192 188.391 286.192 244.745C286.192 301.098 331.872 346.781 388.222 346.781Z" fill="url(#paint2_linear)"/>
<path d="M130.585 327.703C130.585 363.213 101.8 392 66.2926 392C30.7848 392 2 363.213 2 327.703C2 292.193 30.7848 263.406 66.2926 263.406C101.8 263.406 130.585 292.193 130.585 327.703Z" fill="url(#paint3_linear)"/>
<path d="M182.765 103.105C182.765 129.609 161.281 151.095 134.778 151.095C108.276 151.095 86.7917 129.609 86.7917 103.105C86.7917 76.6007 108.276 55.115 134.778 55.115C161.281 55.115 182.765 76.6007 182.765 103.105Z" stroke="#89B68D" stroke-width="2.79315"/>
<path fill-rule="evenodd" clip-rule="evenodd" d="M134.778 204.21C190.613 204.21 235.876 158.943 235.876 103.105C235.876 47.2662 190.613 2 134.778 2C78.9435 2 33.6804 47.2662 33.6804 103.105C33.6804 158.943 78.9435 204.21 134.778 204.21ZM134.778 174.391C174.146 174.391 206.059 142.475 206.059 103.105C206.059 63.7347 174.146 31.8189 134.778 31.8189C95.4109 31.8189 63.4973 63.7347 63.4973 103.105C63.4973 142.475 95.4109 174.391 134.778 174.391ZM182.765 103.105C182.765 129.609 161.281 151.095 134.778 151.095C108.276 151.095 86.7917 129.609 86.7917 103.105C86.7917 76.6007 108.276 55.115 134.778 55.115C161.281 55.115 182.765 76.6007 182.765 103.105Z" stroke="#89B68D" stroke-width="2.79315"/>
<path fill-rule="evenodd" clip-rule="evenodd" d="M388.222 377.532C461.553 377.532 521 318.081 521 244.745C521 171.408 461.553 111.957 388.222 111.957C314.89 111.957 255.443 171.408 255.443 244.745C255.443 318.081 314.89 377.532 388.222 377.532ZM388.222 346.781C444.571 346.781 490.251 301.098 490.251 244.745C490.251 188.391 444.571 142.708 388.222 142.708C331.872 142.708 286.192 188.391 286.192 244.745C286.192 301.098 331.872 346.781 388.222 346.781Z" stroke="#89B68D" stroke-width="2.79315"/>
<path d="M130.585 327.703C130.585 363.213 101.8 392 66.2926 392C30.7848 392 2 363.213 2 327.703C2 292.193 30.7848 263.406 66.2926 263.406C101.8 263.406 130.585 292.193 130.585 327.703Z" stroke="#89B68D" stroke-width="2.79315"/>
<path fill-rule="evenodd" clip-rule="evenodd" d="M320.171 346.986H182.626C179.421 346.986 177.084 343.952 177.901 340.853L201.322 252.063C252.733 270.632 255.664 231.052 298.548 240.965L301.475 252.063L304.403 263.162L307.331 274.261L313.186 296.458L324.896 340.853C325.713 343.952 323.376 346.986 320.171 346.986ZM236.608 306.304C243.085 306.304 248.335 301.053 248.335 294.576C248.335 288.099 243.085 282.848 236.608 282.848C230.132 282.848 224.882 288.099 224.882 294.576C224.882 301.053 230.132 306.304 236.608 306.304ZM219.018 279.916C222.256 279.916 224.882 277.291 224.882 274.053C224.882 270.814 222.256 268.189 219.018 268.189C215.78 268.189 213.155 270.814 213.155 274.053C213.155 277.291 215.78 279.916 219.018 279.916Z" fill="#E7F1E8"/>
<path d="M227.104 48.8374V109.866L164.861 345.835C163.226 352.033 167.9 358.1 174.31 358.1H328.488C334.898 358.1 339.572 352.033 337.937 345.835L275.694 109.866V48.8374M227.104 48.8374H275.694M227.104 48.8374C223.271 48.8374 220.148 45.8035 220.001 42.0055M275.694 48.8374L261.472 34.6144M275.694 48.8374C278.341 48.8374 280.649 47.3902 281.873 45.2437M261.472 34.6144H227.104C225.753 34.6144 224.49 34.9915 223.414 35.6461M261.472 34.6144H275.694C279.62 34.6144 282.802 37.7984 282.802 41.7259C282.802 43.0056 282.464 44.2063 281.873 45.2437M265.922 48.8374L251.7 34.6144M256.149 48.8374L241.927 34.6144M246.377 48.8374L232.155 34.6144M236.605 48.8374L223.414 35.6461M226.832 48.8374L220.001 42.0055M271.244 34.6144L281.873 45.2437M223.414 35.6461C221.365 36.8938 219.996 39.1499 219.996 41.7259C219.996 41.8196 219.997 41.9128 220.001 42.0055M301.475 252.063L304.403 263.162L307.331 274.261L313.186 296.458L324.896 340.853C325.713 343.952 323.376 346.986 320.171 346.986H182.626C179.421 346.986 177.084 343.952 177.901 340.853L201.322 252.063C252.733 270.632 255.664 231.052 298.548 240.965L301.475 252.063ZM248.335 294.576C248.335 301.053 243.085 306.304 236.608 306.304C230.132 306.304 224.882 301.053 224.882 294.576C224.882 288.099 230.132 282.848 236.608 282.848C243.085 282.848 248.335 288.099 248.335 294.576ZM224.882 274.053C224.882 277.291 222.256 279.916 219.018 279.916C215.78 279.916 213.155 277.291 213.155 274.053C213.155 270.814 215.78 268.189 219.018 268.189C222.256 268.189 224.882 270.814 224.882 274.053Z" stroke="#89B68D" stroke-width="2.79315"/>
<path fill-rule="evenodd" clip-rule="evenodd" d="M164.861 345.835L227.104 109.866V48.8374H236.605H246.377H256.149H265.922H275.694V109.866L337.937 345.835C339.572 352.033 334.898 358.1 328.488 358.1H174.31C167.9 358.1 163.226 352.033 164.861 345.835ZM182.626 346.986H320.171C323.376 346.986 325.713 343.952 324.896 340.853L313.186 296.458L307.331 274.261L304.403 263.162L301.475 252.063L298.548 240.965C255.664 231.052 252.733 270.632 201.322 252.063L177.901 340.853C177.084 343.952 179.421 346.986 182.626 346.986Z" fill="white"/>
<path d="M227.104 48.8374V109.866L164.861 345.835C163.226 352.033 167.9 358.1 174.31 358.1H328.488C334.898 358.1 339.572 352.033 337.937 345.835L275.694 109.866V48.8374M227.104 48.8374H275.694M227.104 48.8374C223.271 48.8374 220.148 45.8035 220.001 42.0055M227.104 48.8374H236.605M275.694 48.8374L261.472 34.6144M275.694 48.8374C278.341 48.8374 280.649 47.3902 281.873 45.2437M275.694 48.8374H265.922M261.472 34.6144H227.104C225.753 34.6144 224.49 34.9915 223.414 35.6461M261.472 34.6144H275.694C279.62 34.6144 282.802 37.7984 282.802 41.7259C282.802 43.0056 282.464 44.2063 281.873 45.2437M265.922 48.8374L251.7 34.6144M265.922 48.8374H256.149M256.149 48.8374L241.927 34.6144M256.149 48.8374H246.377M246.377 48.8374L232.155 34.6144M246.377 48.8374H236.605M236.605 48.8374L223.414 35.6461M226.832 48.8374L220.001 42.0055M271.244 34.6144L281.873 45.2437M223.414 35.6461C221.365 36.8938 219.996 39.1499 219.996 41.7259C219.996 41.8196 219.997 41.9128 220.001 42.0055M301.475 252.063L304.403 263.162L307.331 274.261L313.186 296.458L324.896 340.853C325.713 343.952 323.376 346.986 320.171 346.986H182.626C179.421 346.986 177.084 343.952 177.901 340.853L201.322 252.063C252.733 270.632 255.664 231.052 298.548 240.965L301.475 252.063ZM248.335 294.576C248.335 301.053 243.085 306.304 236.608 306.304C230.132 306.304 224.882 301.053 224.882 294.576C224.882 288.099 230.132 282.848 236.608 282.848C243.085 282.848 248.335 288.099 248.335 294.576ZM224.882 274.053C224.882 277.291 222.256 279.916 219.018 279.916C215.78 279.916 213.155 277.291 213.155 274.053C213.155 270.814 215.78 268.189 219.018 268.189C222.256 268.189 224.882 270.814 224.882 274.053Z" stroke="#89B68D" stroke-width="2.79315"/>
<rect x="334.66" y="343.662" width="99.5553" height="14.5195" rx="7.25974" fill="url(#paint4_linear)" stroke="#89B68D" stroke-width="2.79315"/>
<rect x="345.03" y="329.142" width="99.5553" height="14.5195" rx="7.25974" fill="url(#paint5_linear)" stroke="#89B68D" stroke-width="2.79315"/>
<rect x="325.327" y="314.622" width="99.5553" height="14.5195" rx="7.25974" fill="url(#paint6_linear)" stroke="#89B68D" stroke-width="2.79315"/>
<rect x="335.697" y="300.103" width="99.5553" height="14.5195" rx="7.25974" fill="url(#paint7_linear)" stroke="#89B68D" stroke-width="2.79315"/>
<rect x="341.919" y="285.583" width="99.5553" height="14.5195" rx="7.25974" fill="url(#paint8_linear)" stroke="#89B68D" stroke-width="2.79315"/>
<rect x="336.734" y="271.064" width="99.5553" height="14.5195" rx="7.25974" fill="url(#paint9_linear)" stroke="#89B68D" stroke-width="2.79315"/>
<rect x="333.623" y="256.544" width="99.5553" height="14.5195" rx="7.25974" fill="url(#paint10_linear)" stroke="#89B68D" stroke-width="2.79315"/>
<rect x="345.03" y="242.025" width="99.5553" height="14.5195" rx="7.25974" fill="url(#paint11_linear)" stroke="#89B68D" stroke-width="2.79315"/>
<rect x="336.734" y="227.506" width="99.5553" height="14.5195" rx="7.25974" fill="url(#paint12_linear)" stroke="#89B68D" stroke-width="2.79315"/>
<ellipse cx="462.292" cy="308.477" rx="49.8544" ry="49.8578" fill="#E7F1E8" stroke="#89B68D" stroke-width="2.79315"/>
<ellipse cx="462.292" cy="308.477" rx="39.2471" ry="39.2498" fill="white" stroke="#89B68D" stroke-width="2.79315"/>
<path d="M473.96 298.313C473.96 292.7 468.736 288.15 462.292 288.15M462.292 288.15C460.702 288.15 459.186 288.427 457.804 288.929C453.588 290.461 450.624 294.086 450.624 298.313C450.624 303.926 455.848 308.477 462.292 308.477C468.736 308.477 473.96 313.027 473.96 318.64C473.96 324.253 468.736 328.803 462.292 328.803M462.292 288.15V279.835M462.292 328.803C455.848 328.803 450.624 324.253 450.624 318.64M462.292 328.803V337.118" stroke="#89B68D" stroke-width="2.79315" stroke-linecap="round"/>
<path fill-rule="evenodd" clip-rule="evenodd" d="M47.657 292.275C47.657 320.101 62.5351 344.463 84.7935 357.885H164.248C186.507 344.463 201.385 320.101 201.385 292.275C201.385 259.667 180.954 231.817 152.157 220.752V127.401H149.697H140.889H132.082H123.275H114.468H105.661H97.0979H96.8844V220.752C68.088 231.817 47.657 259.667 47.657 292.275ZM59.0443 292.707C59.0443 316.344 71.7182 337.037 90.679 348.439H158.363C177.323 337.037 189.997 316.344 189.997 292.707C142.551 330.492 110.761 248.311 65.3313 264.842C61.2998 273.289 59.0443 282.736 59.0443 292.707Z" fill="white"/>
<path d="M96.8844 127.401V220.752C68.088 231.817 47.657 259.667 47.657 292.275C47.657 320.101 62.5351 344.463 84.7935 357.885H164.248C186.507 344.463 201.385 320.101 201.385 292.275C201.385 259.667 180.954 231.817 152.157 220.752V127.401M96.8844 127.401H152.157M96.8844 127.401H97.0979M152.157 127.401C153.876 127.336 155.421 126.596 156.534 125.44M152.157 127.401H149.697M97.0979 127.401H105.661M97.0979 127.401C97.0145 127.401 96.9315 127.4 96.8489 127.396M105.661 127.401H114.468M105.661 127.401L93.7731 115.568M114.468 127.401H123.275M114.468 127.401L101.651 114.642M123.275 127.401H132.082M123.275 127.401L110.458 114.642M132.082 127.401H140.889M132.082 127.401L119.265 114.642M140.889 127.401L128.072 114.642M140.889 127.401H149.697M101.651 114.642H97.0979C95.8805 114.642 94.7424 114.98 93.7731 115.568M101.651 114.642H110.458M110.458 114.642H119.265M119.265 114.642H128.072M128.072 114.642H136.879M136.879 114.642H145.686M136.879 114.642L149.697 127.401M93.7731 115.568C91.9258 116.687 90.692 118.711 90.692 121.022C90.692 121.106 90.6937 121.189 90.6969 121.273M96.8536 127.401L96.8489 127.396M96.8489 127.396L90.6969 121.273M96.8489 127.396C93.51 127.269 90.826 124.597 90.6969 121.273M145.686 114.642L156.534 125.44M145.686 114.642L151.908 114.647C153.126 114.647 154.264 114.985 155.233 115.572C157.08 116.692 158.314 118.716 158.314 121.026C158.314 121.11 158.312 121.194 158.309 121.277C158.247 122.891 157.582 124.35 156.534 125.44M90.679 348.439C71.7182 337.037 59.0443 316.344 59.0443 292.707C59.0443 282.736 61.2998 273.289 65.3313 264.842C110.761 248.311 142.551 330.492 189.997 292.707C189.997 316.344 177.323 337.037 158.363 348.439H90.679Z" stroke="#89B68D" stroke-width="2.79315"/>
<path d="M90.679 348.439C71.7182 337.037 59.0443 316.344 59.0443 292.707C59.0443 282.736 61.2998 273.289 65.3313 264.842C110.761 248.311 142.551 330.492 189.997 292.707C189.997 316.344 177.323 337.037 158.363 348.439H90.679Z" fill="#E7F1E8"/>
<path d="M96.8844 127.401V220.752C68.088 231.817 47.657 259.667 47.657 292.275C47.657 320.101 62.5351 344.463 84.7935 357.885H164.248C186.507 344.463 201.385 320.101 201.385 292.275C201.385 259.667 180.954 231.817 152.157 220.752V127.401M96.8844 127.401H152.157M96.8844 127.401H97.0979M152.157 127.401C153.876 127.336 155.421 126.596 156.534 125.44M152.157 127.401H149.697M97.0979 127.401H105.661M97.0979 127.401C97.0145 127.401 96.9315 127.4 96.8489 127.396M105.661 127.401H114.468M105.661 127.401L93.7731 115.568M114.468 127.401H123.275M114.468 127.401L101.651 114.642M123.275 127.401H132.082M123.275 127.401L110.458 114.642M132.082 127.401H140.889M132.082 127.401L119.265 114.642M140.889 127.401L128.072 114.642M140.889 127.401H149.697M101.651 114.642H97.0979C95.8805 114.642 94.7424 114.98 93.7731 115.568M101.651 114.642H110.458M110.458 114.642H119.265M119.265 114.642H128.072M128.072 114.642H136.879M136.879 114.642H145.686M136.879 114.642L149.697 127.401M93.7731 115.568C91.9258 116.687 90.692 118.711 90.692 121.022C90.692 121.106 90.6937 121.189 90.6969 121.273M96.8536 127.401L96.8489 127.396M96.8489 127.396L90.6969 121.273M96.8489 127.396C93.51 127.269 90.826 124.597 90.6969 121.273M145.686 114.642L156.534 125.44M145.686 114.642L151.908 114.647C153.126 114.647 154.264 114.985 155.233 115.572C157.08 116.692 158.314 118.716 158.314 121.026C158.314 121.11 158.312 121.194 158.309 121.277C158.247 122.891 157.582 124.35 156.534 125.44M90.679 348.439C71.7182 337.037 59.0443 316.344 59.0443 292.707C59.0443 282.736 61.2998 273.289 65.3313 264.842C110.761 248.311 142.551 330.492 189.997 292.707C189.997 316.344 177.323 337.037 158.363 348.439H90.679Z" stroke="#89B68D" stroke-width="2.79315"/>
<path d="M174.008 321.03C174.008 325.683 170.237 329.454 165.585 329.454C160.933 329.454 157.162 325.683 157.162 321.03C157.162 316.378 160.933 312.606 165.585 312.606C170.237 312.606 174.008 316.378 174.008 321.03Z" fill="#F0F6ED"/>
<path d="M146.632 321.03C146.632 323.357 144.747 325.242 142.421 325.242C140.095 325.242 138.209 323.357 138.209 321.03C138.209 318.704 140.095 316.818 142.421 316.818C144.747 316.818 146.632 318.704 146.632 321.03Z" fill="#F0F6ED"/>
<path d="M157.162 335.772C157.162 339.262 154.333 342.09 150.844 342.09C147.355 342.09 144.526 339.262 144.526 335.772C144.526 332.283 147.355 329.454 150.844 329.454C154.333 329.454 157.162 332.283 157.162 335.772Z" fill="#F0F6ED"/>
<path d="M174.008 321.03C174.008 325.683 170.237 329.454 165.585 329.454C160.933 329.454 157.162 325.683 157.162 321.03C157.162 316.378 160.933 312.606 165.585 312.606C170.237 312.606 174.008 316.378 174.008 321.03Z" stroke="#89B68D" stroke-width="2.79315"/>
<path d="M146.632 321.03C146.632 323.357 144.747 325.242 142.421 325.242C140.095 325.242 138.209 323.357 138.209 321.03C138.209 318.704 140.095 316.818 142.421 316.818C144.747 316.818 146.632 318.704 146.632 321.03Z" stroke="#89B68D" stroke-width="2.79315"/>
<path d="M157.162 335.772C157.162 339.262 154.333 342.09 150.844 342.09C147.355 342.09 144.526 339.262 144.526 335.772C144.526 332.283 147.355 329.454 150.844 329.454C154.333 329.454 157.162 332.283 157.162 335.772Z" stroke="#89B68D" stroke-width="2.79315"/>
<defs>
<linearGradient id="paint0_linear" x1="317.407" y1="-62.297" x2="91.4232" y2="563.425" gradientUnits="userSpaceOnUse">
<stop stop-color="white"/>
<stop offset="1" stop-color="#89B68D"/>
</linearGradient>
<linearGradient id="paint1_linear" x1="317.407" y1="-62.297" x2="91.4232" y2="563.425" gradientUnits="userSpaceOnUse">
<stop stop-color="white"/>
<stop offset="1" stop-color="#89B68D"/>
</linearGradient>
<linearGradient id="paint2_linear" x1="317.407" y1="-62.297" x2="91.4232" y2="563.425" gradientUnits="userSpaceOnUse">
<stop stop-color="white"/>
<stop offset="1" stop-color="#89B68D"/>
</linearGradient>
<linearGradient id="paint3_linear" x1="317.407" y1="-62.297" x2="91.4232" y2="563.425" gradientUnits="userSpaceOnUse">
<stop stop-color="white"/>
<stop offset="1" stop-color="#89B68D"/>
</linearGradient>
<linearGradient id="paint4_linear" x1="322.734" y1="353.514" x2="458.586" y2="350.922" gradientUnits="userSpaceOnUse">
<stop stop-color="#E7F1E8"/>
<stop offset="0.46875" stop-color="white"/>
<stop offset="1" stop-color="#89B68D"/>
</linearGradient>
<linearGradient id="paint5_linear" x1="333.105" y1="338.995" x2="468.956" y2="336.402" gradientUnits="userSpaceOnUse">
<stop stop-color="#E7F1E8"/>
<stop offset="0.46875" stop-color="white"/>
<stop offset="1" stop-color="#89B68D"/>
</linearGradient>
<linearGradient id="paint6_linear" x1="313.401" y1="324.475" x2="449.252" y2="321.883" gradientUnits="userSpaceOnUse">
<stop stop-color="#E7F1E8"/>
<stop offset="0.46875" stop-color="white"/>
<stop offset="1" stop-color="#89B68D"/>
</linearGradient>
<linearGradient id="paint7_linear" x1="323.771" y1="309.955" x2="459.623" y2="307.363" gradientUnits="userSpaceOnUse">
<stop stop-color="#E7F1E8"/>
<stop offset="0.46875" stop-color="white"/>
<stop offset="1" stop-color="#89B68D"/>
</linearGradient>
<linearGradient id="paint8_linear" x1="329.993" y1="295.436" x2="465.845" y2="292.843" gradientUnits="userSpaceOnUse">
<stop stop-color="#E7F1E8"/>
<stop offset="0.46875" stop-color="white"/>
<stop offset="1" stop-color="#89B68D"/>
</linearGradient>
<linearGradient id="paint9_linear" x1="324.808" y1="280.917" x2="460.66" y2="278.324" gradientUnits="userSpaceOnUse">
<stop stop-color="#E7F1E8"/>
<stop offset="0.46875" stop-color="white"/>
<stop offset="1" stop-color="#89B68D"/>
</linearGradient>
<linearGradient id="paint10_linear" x1="321.697" y1="266.397" x2="457.549" y2="263.805" gradientUnits="userSpaceOnUse">
<stop stop-color="#E7F1E8"/>
<stop offset="0.46875" stop-color="white"/>
<stop offset="1" stop-color="#89B68D"/>
</linearGradient>
<linearGradient id="paint11_linear" x1="333.105" y1="251.878" x2="468.956" y2="249.285" gradientUnits="userSpaceOnUse">
<stop stop-color="#E7F1E8"/>
<stop offset="0.46875" stop-color="white"/>
<stop offset="1" stop-color="#89B68D"/>
</linearGradient>
<linearGradient id="paint12_linear" x1="324.808" y1="237.358" x2="460.66" y2="234.766" gradientUnits="userSpaceOnUse">
<stop stop-color="#E7F1E8"/>
<stop offset="0.46875" stop-color="white"/>
<stop offset="1" stop-color="#89B68D"/>
</linearGradient>
</defs>
</svg>
