<?xml version="1.0" encoding="UTF-8"?>
<!DOCTYPE svg PUBLIC "-//W3C//DTD SVG 1.1//EN" "http://www.w3.org/Graphics/SVG/1.1/DTD/svg11.dtd">
<svg xmlns="http://www.w3.org/2000/svg" xmlns:xlink="http://www.w3.org/1999/xlink">
  <symbol id="globe" viewBox="0 0 60 60">
    <path d="M29.9767 6.66663C17.0967 6.66663 6.66666 17.12 6.66666 30C6.66666 42.88 17.0967 53.3333 29.9767 53.3333C42.88 53.3333 53.3333 42.88 53.3333 30C53.3333 17.12 42.88 6.66663 29.9767 6.66663ZM46.1467 20.6666H39.2633C38.533 17.7767 37.4517 14.9871 36.0433 12.36C40.2996 13.8253 43.8861 16.774 46.1467 20.6666ZM30 11.4266C31.9367 14.2266 33.4533 17.33 34.4567 20.6666H25.5433C26.5467 17.33 28.0633 14.2266 30 11.4266ZM11.94 34.6666C11.5667 33.1733 11.3333 31.61 11.3333 30C11.3333 28.39 11.5667 26.8266 11.94 25.3333H19.8267C19.64 26.8733 19.5 28.4133 19.5 30C19.5 31.5866 19.64 33.1266 19.8267 34.6666H11.94ZM13.8533 39.3333H20.7367C21.4833 42.25 22.5567 45.05 23.9567 47.64C19.6959 46.1826 16.1069 43.2319 13.8533 39.3333ZM20.7367 20.6666H13.8533C16.1069 16.768 19.6959 13.8173 23.9567 12.36C22.5483 14.9871 21.4669 17.7767 20.7367 20.6666ZM30 48.5733C28.0633 45.7733 26.5467 42.67 25.5433 39.3333H34.4567C33.4533 42.67 31.9367 45.7733 30 48.5733ZM35.46 34.6666H24.54C24.33 33.1266 24.1667 31.5866 24.1667 30C24.1667 28.4133 24.33 26.85 24.54 25.3333H35.46C35.67 26.85 35.8333 28.4133 35.8333 30C35.8333 31.5866 35.67 33.1266 35.46 34.6666ZM36.0433 47.64C37.4433 45.05 38.5167 42.25 39.2633 39.3333H46.1467C43.8861 43.2259 40.2996 46.1746 36.0433 47.64ZM40.1733 34.6666C40.36 33.1266 40.5 31.5866 40.5 30C40.5 28.4133 40.36 26.8733 40.1733 25.3333H48.06C48.4333 26.8266 48.6667 28.39 48.6667 30C48.6667 31.61 48.4333 33.1733 48.06 34.6666H40.1733Z" />
  </symbol>
  <symbol id="logo" viewBox="0 0 19 27">
    <path fill-rule="evenodd" clip-rule="evenodd" d="M0 11.4251C0 17.5349 4.00919 22.5401 9.02929 22.8363V26.0968H6.26994V27.0001H12.732V26.0968H9.97099V22.8363C14.991 22.5401 19.0001 17.5349 19.0001 11.4251C19.0001 10.5665 18.921 9.72986 18.771 8.92492L18.7838 8.90953L18.7655 8.89549C17.8057 3.80891 14.0155 0 9.50007 0C4.26223 0 0 5.12538 0 11.4251ZM18.0584 11.4251C18.0584 17.0319 14.471 21.6294 9.97099 21.9311V19.4913L17.9675 9.8897C18.0274 10.391 18.0584 10.9037 18.0584 11.4251ZM9.02929 21.9311V19.4629L1.0362 9.86202C0.973975 10.3721 0.941724 10.894 0.941724 11.4251C0.941724 17.0319 4.52921 21.6295 9.02929 21.9311ZM17.7644 8.68637L9.97099 18.044V10.6533L15.5351 3.97232C16.5857 5.25825 17.367 6.87656 17.7644 8.68637ZM9.02929 18.0153V10.6323L3.47654 3.96263C2.42595 5.24424 1.64275 6.85719 1.24195 8.6616L9.02929 18.0153ZM14.9087 3.27717L9.97099 9.20606V0.919053C11.8376 1.04416 13.5471 1.90839 14.9087 3.27717ZM9.02929 9.18473V0.919107C7.17018 1.04415 5.4646 1.90498 4.1039 3.26861L9.02929 9.18473Z" />
  </symbol>
  <symbol id="menu" viewBox="0 0 32 32">
    <path d="M2.66675 16H29.3334" stroke="currentColor" stroke-width="2.66667" stroke-linejoin="round" />
    <path d="M2.66675 5.33337H29.3334" stroke="currentColor" stroke-width="2.66667" stroke-linejoin="round" />
    <path d="M2.66675 26.6666H29.3334" stroke="currentColor" stroke-width="2.66667" stroke-linejoin="round" />
  </symbol>
  <symbol id="close" viewBox="0 0 24 24">
    <path d="M1.33337 22.6667L22.6667 1.33337" stroke="currentColor" stroke-width="2.66667" stroke-linejoin="round" />
    <path d="M1.33337 1.33337L22.6667 22.6667" stroke="currentColor" stroke-width="2.66667" stroke-linejoin="round" />
  </symbol>
  <symbol id="twitter" viewBox="0 0 22 17">
    <path d="M21.4594 2.01238C20.6898 2.35373 19.8626 2.58442 18.9946 2.68815C19.8805 2.15701 20.5611 1.31598 20.8815 0.31378C20.0522 0.80564 19.1338 1.16278 18.1562 1.3552C17.3734 0.52112 16.2581 0 15.0237 0C12.6536 0 10.7319 1.92147 10.7319 4.29155C10.7319 4.6279 10.7699 4.95546 10.8431 5.2696C7.27633 5.0906 4.114 3.38203 1.99734 0.78551C1.6279 1.41935 1.41626 2.15656 1.41626 2.94309C1.41626 4.43204 2.17389 5.74563 3.32548 6.5153C2.62204 6.4929 1.96021 6.2999 1.38164 5.97846C1.38123 5.99639 1.38123 6.0143 1.38123 6.0324C1.38123 8.1118 2.86057 9.8463 4.82383 10.2406C4.46373 10.3387 4.08458 10.3912 3.69318 10.3912C3.41665 10.3912 3.1478 10.3642 2.88571 10.3142C3.43186 12.0191 5.01677 13.26 6.89478 13.2945C5.426 14.4457 3.57552 15.1318 1.56478 15.1318C1.21837 15.1318 0.876756 15.1114 0.541016 15.0717C2.44028 16.2894 4.69615 17 7.11974 17C15.0136 17 19.3304 10.4605 19.3304 4.78918C19.3304 4.60314 19.3262 4.41805 19.3179 4.23395C20.1565 3.62886 20.8841 2.87302 21.4594 2.01238Z" fill="currentColor" />
  </symbol>
</svg>
