<?xml version="1.0" encoding="UTF-8"?>
<!DOCTYPE svg PUBLIC "-//W3C//DTD SVG 1.1//EN" "http://www.w3.org/Graphics/SVG/1.1/DTD/svg11.dtd">
<svg xmlns="http://www.w3.org/2000/svg" xmlns:xlink="http://www.w3.org/1999/xlink">
  <symbol id="menu" viewBox="0 0 32 32">
    <path d="M2.66675 16H29.3334" stroke="currentColor" stroke-width="2.66667" stroke-linejoin="round" />
    <path d="M2.66675 5.33337H29.3334" stroke="currentColor" stroke-width="2.66667" stroke-linejoin="round" />
    <path d="M2.66675 26.6666H29.3334" stroke="currentColor" stroke-width="2.66667" stroke-linejoin="round" />
  </symbol>
  <symbol id="close" viewBox="0 0 24 24">
    <path d="M1.33337 22.6667L22.6667 1.33337" stroke="currentColor" stroke-width="2.66667" stroke-linejoin="round" />
    <path d="M1.33337 1.33337L22.6667 22.6667" stroke="currentColor" stroke-width="2.66667" stroke-linejoin="round" />
  </symbol>
  <symbol id="chevron-up" viewBox="0 0 18 10">
    <path d="M0.515137 1.46495L9.00014 9.94995L17.4851 1.46495L16.0711 0.0499516L9.00014 7.12195L1.92914 0.0499516L0.515137 1.46495Z" fill="currentColor" />
  </symbol>
  <symbol id="arrow-right" viewBox="0 0 13 8">
    <path d="M12.3536 4.35355C12.5488 4.15829 12.5488 3.84171 12.3536 3.64645L9.17157 0.464466C8.97631 0.269204 8.65973 0.269204 8.46447 0.464466C8.2692 0.659728 8.2692 0.976311 8.46447 1.17157L11.2929 4L8.46447 6.82843C8.2692 7.02369 8.2692 7.34027 8.46447 7.53553C8.65973 7.7308 8.97631 7.7308 9.17157 7.53553L12.3536 4.35355ZM0 4.5H12V3.5H0V4.5Z" fill="currentColor" />
  </symbol>
</svg>
